<?xml version="1.0" encoding="utf-8"?>
<!-- Generator: Adobe Illustrator 19.1.0, SVG Export Plug-In . SVG Version: 6.00 Build 0)  -->
<svg version="1.1" id="Calque_1" xmlns="http://www.w3.org/2000/svg" xmlns:xlink="http://www.w3.org/1999/xlink" x="0px" y="0px"
	 viewBox="0 0 50 50" style="enable-background:new 0 0 50 50;" xml:space="preserve">
<style type="text/css">
	.st0{fill:#fff;}
</style>
<g id="Checkmark_2_x40_2x.png">
	<g>
		<path class="st0" d="M25,31.3L14.4,20.8c-0.2-0.2-0.5-0.3-0.8-0.3c-0.6,0-1.1,0.5-1.1,1.1c0,0.3,0.1,0.6,0.3,0.8l11.4,11.4
			c0.2,0.2,0.5,0.3,0.8,0.3c0.3,0,0.6-0.1,0.8-0.4l0,0l19-19.9c0,0,0,0,0,0l1.6-1.7c0,0,0,0,0,0l3.3-3.4l0,0C49.9,8.5,50,8.3,50,8
			c0-0.6-0.5-1.1-1.1-1.1c-0.3,0-0.6,0.1-0.8,0.4l0,0l-2.9,3.1c0,0,0,0,0,0l-1.6,1.7c0,0,0,0,0,0L25,31.3z M48,15.4
			c-0.4-0.4-1.2-0.4-1.6,0c-0.3,0.3-0.4,0.8-0.3,1.2l0,0c1,2.6,1.6,5.4,1.6,8.4c0,12.6-10.2,22.7-22.7,22.7
			C12.4,47.7,2.3,37.6,2.3,25C2.3,12.4,12.4,2.3,25,2.3c6.4,0,12.2,2.7,16.3,7l0,0c0.4,0.4,1.1,0.4,1.6,0c0.4-0.4,0.4-1.2,0-1.6
			c0,0-0.1-0.1-0.1-0.1C38.2,2.9,32,0,25,0C11.2,0,0,11.2,0,25c0,13.8,11.2,25,25,25c13.8,0,25-11.2,25-25c0-3.2-0.6-6.3-1.7-9.1
			C48.2,15.7,48.1,15.6,48,15.4z"/>
	</g>
</g>
</svg>
