<?xml version="1.0" encoding="utf-8"?>
<!-- Generator: Adobe Illustrator 19.2.1, SVG Export Plug-In . SVG Version: 6.00 Build 0)  -->
<svg version="1.1" id="Calque_1" xmlns="http://www.w3.org/2000/svg" xmlns:xlink="http://www.w3.org/1999/xlink" x="0px" y="0px"
	 viewBox="0 0 10 10" style="enable-background:new 0 0 10 10;" xml:space="preserve">
<style type="text/css">
	.st0{fill:#FFFFFF;}
</style>
<g id="Phone_1_x40_2x.png">
	<g>
		<path class="st0" d="M10,8L10,8c0-0.2-0.1-0.4-0.2-0.5c0,0-0.1-0.1-0.1-0.1L7.8,5.9C7.6,5.8,7.5,5.7,7.3,5.7
			C7.1,5.7,7,5.7,6.9,5.8L6.3,6.4l0,0C6.2,6.5,6.1,6.5,6,6.5c-0.2,0-0.3-0.1-0.4-0.2c0,0,0,0,0,0C4.9,5.8,4.2,5.1,3.7,4.4
			c0,0,0,0,0,0C3.6,4.3,3.5,4.2,3.5,4c0-0.1,0.1-0.3,0.2-0.3l0,0l0.5-0.5C4.3,3,4.3,2.9,4.3,2.7c0-0.2-0.1-0.4-0.2-0.5L2.6,0.3
			c0,0-0.1-0.1-0.1-0.1C2.4,0.1,2.2,0,2,0C1.1,0,0,1.1,0,2.4c0,0.4,0.1,0.7,0.2,1l0,0c1.4,2.7,3.6,5,6.4,6.4l0,0
			c0.3,0.1,0.7,0.2,1,0.2C8.9,10,10,8.9,10,8C10,8,10,8,10,8z M7.6,9.5c-0.3,0-0.6-0.1-0.8-0.2c0,0,0,0-0.1,0C4.1,8,2,5.9,0.7,3.3
			c0,0,0-0.1,0-0.1C0.5,2.9,0.5,2.7,0.5,2.4c0-1.1,1-1.9,1.6-1.9c0.1,0,0.1,0,0.2,0.1c0,0,0,0,0,0c0,0,0,0,0,0l1.5,1.9c0,0,0,0,0,0
			c0,0,0.1,0.1,0.1,0.2c0,0,0,0.1,0,0.1L3.3,3.3c0,0,0,0,0,0C3.1,3.5,3,3.8,3,4c0,0.2,0.1,0.5,0.2,0.6c0,0,0,0,0,0
			c0.6,0.8,1.2,1.5,2,2c0,0,0,0,0,0C5.5,6.9,5.7,7,6,7c0.2,0,0.5-0.1,0.6-0.3c0,0,0,0,0,0l0.5-0.5c0,0,0.1,0,0.1,0
			c0.1,0,0.1,0,0.2,0.1c0,0,0,0,0,0l1.9,1.5c0,0,0,0,0,0c0,0,0,0,0,0c0,0,0.1,0.1,0.1,0.2c0,0,0,0,0,0C9.5,8.6,8.7,9.5,7.6,9.5z"/>
	</g>
</g>
</svg>
