<?xml version="1.0" encoding="utf-8"?>
<!-- Generator: Adobe Illustrator 19.1.0, SVG Export Plug-In . SVG Version: 6.00 Build 0)  -->
<svg version="1.1" id="Calque_1" xmlns="http://www.w3.org/2000/svg" xmlns:xlink="http://www.w3.org/1999/xlink" x="0px" y="0px"
	 viewBox="0 0 50 50" style="enable-background:new 0 0 50 50;" xml:space="preserve">
<style type="text/css">
	.st0{fill:#fff;}
</style>
<g id="Umbrella">
	<g>
		<path class="st0" d="M18.2,11.4c-1.3,0-2.3,1-2.3,2.3s1,2.3,2.3,2.3s2.3-1,2.3-2.3S19.4,11.4,18.2,11.4z M9.1,18.2
			c-1.3,0-2.3,1-2.3,2.3s1,2.3,2.3,2.3s2.3-1,2.3-2.3S10.3,18.2,9.1,18.2z M25,15.9c-1.3,0-2.3,1-2.3,2.3c0,1.3,1,2.3,2.3,2.3
			s2.3-1,2.3-2.3C27.3,16.9,26.3,15.9,25,15.9z M31.8,9.1c-1.3,0-2.3,1-2.3,2.3c0,1.3,1,2.3,2.3,2.3s2.3-1,2.3-2.3
			C34.1,10.1,33.1,9.1,31.8,9.1z M26.1,2.3V1.1C26.1,0.5,25.6,0,25,0s-1.1,0.5-1.1,1.1v1.2C10.6,2.9,0,13.3,0,26.1
			c0,0.6,0.5,1.1,1.1,1.1h22.7v15.9c0,2.5-2,4.5-4.5,4.5c-2.5,0-4.5-2-4.5-4.5c0-0.6-0.5-1.1-1.1-1.1c-0.6,0-1.1,0.5-1.1,1.1
			c0,3.8,3.1,6.8,6.8,6.8c3.4,0,6.2-2.5,6.7-5.7h0.1v-17h22.7c0.6,0,1.1-0.5,1.1-1.1C50,13.3,39.4,2.9,26.1,2.3z M2.3,25
			C3,13.6,12.9,4.5,25,4.5S47,13.6,47.7,25H2.3z M38.6,18.2c-1.3,0-2.3,1-2.3,2.3s1,2.3,2.3,2.3s2.3-1,2.3-2.3S39.9,18.2,38.6,18.2z
			"/>
	</g>
</g>
</svg>
