<?xml version="1.0" encoding="utf-8"?>
<!-- Generator: Adobe Illustrator 19.2.0, SVG Export Plug-In . SVG Version: 6.00 Build 0)  -->
<svg version="1.1" id="Calque_1" xmlns="http://www.w3.org/2000/svg" xmlns:xlink="http://www.w3.org/1999/xlink" x="0px" y="0px"
	 viewBox="0 0 879.1 348" style="enable-background:new 0 0 879.1 348;" xml:space="preserve">
<style type="text/css">
	.st0{fill:#FFFFFF;}
	.st1{fill:#3C3C3B;}
	.st2{fill:#3DB49C;}
	.st3{opacity:0.1;fill:url(#SVGID_1_);}
	.st4{fill:#349B86;}
	.st5{fill:#754D24;}
	.st6{fill:#412413;}
	.st7{fill:#035D53;}
	.st8{opacity:0.1;fill:url(#SVGID_2_);}
	.st9{fill:#FCC880;}
	.st10{fill:#532810;}
	.st11{fill:#F0F0F0;}
	.st12{fill:#1D1C3E;}
	.st13{fill:#13152A;}
	.st14{fill:#1B2B5C;}
	.st15{opacity:0.1;fill:url(#SVGID_3_);}
	.st16{fill:none;stroke:#F0F0F0;stroke-width:12;stroke-linecap:round;stroke-miterlimit:10;}
	.st17{fill:#F0E08A;}
	.st18{fill:none;stroke:#1D1D3D;stroke-width:12;stroke-linecap:round;stroke-miterlimit:10;}
</style>
<rect x="550.8" class="st0" width="328.2" height="347"/>
<path class="st1" d="M723.4,270.2c0,1.8-1.4,3.2-3.2,3.2H699c-1.8,0-3.2-1.4-3.2-3.2v-32.4c0-1.8,1.4-3.2,3.2-3.2h21.1
	c1.8,0,3.2,1.4,3.2,3.2V270.2z"/>
<path class="st1" d="M849.6,270.2c0,1.8-1.4,3.2-3.2,3.2h-21.1c-1.8,0-3.2-1.4-3.2-3.2v-32.4c0-1.8,1.4-3.2,3.2-3.2h21.1
	c1.8,0,3.2,1.4,3.2,3.2V270.2z"/>
<path class="st2" d="M683.4,202c0,1.8-1.4,3.2-3.2,3.2h-10.4c-1.8,0-3.2-1.4-3.2-3.2v-8.5c0-1.8,1.4-3.2,3.2-3.2h10.4
	c1.8,0,3.2,1.4,3.2,3.2V202z"/>
<path class="st2" d="M691.5,198.1c0,1.8-1.4,3.2-3.2,3.2H677c-1.8,0-3.2-1.4-3.2-3.2v0c0-1.8,1.4-3.2,3.2-3.2h11.3
	C690,194.8,691.5,196.3,691.5,198.1L691.5,198.1z"/>
<path class="st2" d="M861.4,202c0,1.8,1.4,3.2,3.2,3.2H875c1.8,0,3.2-1.4,3.2-3.2v-8.5c0-1.8-1.4-3.2-3.2-3.2h-10.4
	c-1.8,0-3.2,1.4-3.2,3.2V202z"/>
<path class="st2" d="M853.4,198.1c0,1.8,1.4,3.2,3.2,3.2h11.3c1.8,0,3.2-1.4,3.2-3.2v0c0-1.8-1.4-3.2-3.2-3.2h-11.3
	C854.8,194.8,853.4,196.3,853.4,198.1L853.4,198.1z"/>
<path class="st2" d="M844.3,132.6c0,0-15.8-8.9-71.6-8.9c-52.8,0-70.2,9.4-70.2,9.4s-16.7,60.2-16.7,61.5v51.1
	c0,1.8,1.4,3.2,3.2,3.2h0.5h166.4h0.5c1.8,0,3.2-1.4,3.2-3.2v-51.1C859.6,193.3,844.3,132.6,844.3,132.6z M835.7,141.8l12.1,49.6
	H698.5l12.6-49.6c0,0,11.8-7.7,61.6-7.7C815.1,134,835.7,141.8,835.7,141.8z"/>
<linearGradient id="SVGID_1_" gradientUnits="userSpaceOnUse" x1="772.6897" y1="424.8195" x2="772.6897" y2="275.0945">
	<stop  offset="0" style="stop-color:#FFFFFF"/>
	<stop  offset="0.3726" style="stop-color:#FDFDFD"/>
	<stop  offset="0.5069" style="stop-color:#F6F6F6"/>
	<stop  offset="0.6026" style="stop-color:#EBEBEB"/>
	<stop  offset="0.68" style="stop-color:#DADADA"/>
	<stop  offset="0.7463" style="stop-color:#C4C4C4"/>
	<stop  offset="0.805" style="stop-color:#A8A8A8"/>
	<stop  offset="0.8581" style="stop-color:#888888"/>
	<stop  offset="0.9069" style="stop-color:#626262"/>
	<stop  offset="0.9523" style="stop-color:#373737"/>
	<stop  offset="0.9926" style="stop-color:#090909"/>
	<stop  offset="1" style="stop-color:#000000"/>
</linearGradient>
<path class="st3" d="M856.4,299.6h-0.5h-6.3v-21.3c0-1.8-1.4-3.2-3.2-3.2h-21.1c-1.8,0-3.2,1.4-3.2,3.2v21.3h-98.6v-21.3
	c0-1.8-1.4-3.2-3.2-3.2H699c-1.8,0-3.2,1.4-3.2,3.2v21.3h-6.3H689c-1.8,0-3.2,1.4-3.2,3.2v51.1c0,1.3,16.7,61.5,16.7,61.5
	s17.5,9.4,70.2,9.4c55.8,0,71.6-8.9,71.6-8.9s15.3-60.7,15.3-62v-51.1C859.6,301,858.2,299.6,856.4,299.6z M835.7,406.7
	c0,0-20.6,7.7-63,7.7c-49.8,0-61.6-7.7-61.6-7.7l-12.6-49.6h149.3L835.7,406.7z"/>
<path class="st4" d="M809.5,216.6c0,1.2-1,2.2-2.2,2.2H738c-1.2,0-2.2-1-2.2-2.2l0,0c0-1.2,1-2.2,2.2-2.2h69.4
	C808.6,214.4,809.5,215.4,809.5,216.6L809.5,216.6z"/>
<path class="st4" d="M809.5,224c0,1.2-1,2.2-2.2,2.2H738c-1.2,0-2.2-1-2.2-2.2l0,0c0-1.2,1-2.2,2.2-2.2h69.4
	C808.6,221.8,809.5,222.8,809.5,224L809.5,224z"/>
<path class="st4" d="M809.5,231.4c0,1.2-1,2.2-2.2,2.2H738c-1.2,0-2.2-1-2.2-2.2l0,0c0-1.2,1-2.2,2.2-2.2h69.4
	C808.6,229.2,809.5,230.2,809.5,231.4L809.5,231.4z"/>
<g>
	<path class="st5" d="M578.8,272.9c0.4-0.8,0.7-1.6,0.7-2.5c0-2.8-2.4-5.1-5.2-5.1l-15.9,0.2c-2.8,0-5.1,2.4-5.1,5.2
		c0,0.9,0.3,1.8,0.7,2.5L578.8,272.9z"/>
	<path class="st6" d="M553.5,271.9c0.1,0.5,0.3,0.9,0.5,1.3l24.7-0.3c0.2-0.4,0.4-0.8,0.5-1.3L553.5,271.9z"/>
</g>
<path class="st7" d="M580.4,194.3c0,0-2.7,44.9-6.1,71c0,0-10.9,5.4-20.9,5.4c0,0,3.5-72.9,0-77.5L580.4,194.3z"/>
<linearGradient id="SVGID_2_" gradientUnits="userSpaceOnUse" x1="566.844" y1="346.957" x2="566.844" y2="274.7788">
	<stop  offset="0" style="stop-color:#FFFFFF"/>
	<stop  offset="1" style="stop-color:#000000"/>
</linearGradient>
<path class="st8" d="M574.2,282.7c3.5,26.1,6.1,63.1,6.1,63.1l-27.1,1.2c3.5-4.6,0-69.7,0-69.7c0-0.7,0.2-1.3,0.4-1.9c0,0,0,0,0,0
	c0.1-0.2,0.2-0.4,0.3-0.6l24.7,0.3c0.1,0.2,0.2,0.4,0.3,0.6c0,0,0,0,0,0c0.1,0.2,0.2,0.4,0.2,0.7c0,0,0,0,0,0h0
	c0.1,0.4,0.2,0.8,0.1,1.2C579.4,280.4,577.1,282.7,574.2,282.7z"/>
<rect x="560.2" y="126.3" class="st9" width="10.9" height="11.5"/>
<path class="st9" d="M578.4,108.8c0,0,1.6,7.1,4.4,10.4l-3.8,1.4c0,0,3,10.6,0.7,11.3c-2.3,0.7-18.1-2.4-20.7-6.4l0.2-3.2
	c0,0-3.4,0.9-1.7-6.1c1.6-6.4,4.1,0.8,4.1,0.8l0.1-9.2C561.6,107.8,575.8,97.3,578.4,108.8z"/>
<path class="st10" d="M561.1,118l1.3,0c0,0,1.4-6,0-9.8c0,0,21.6,4.6,19.1-2.9c-2.5-7.4-24.4-9.6-24.9-1.1c0,0-11.6,3.8-1.7,17.5
	c0,0,1.9,2.1,1.4,4.4l1.1-1l2,0.7l-0.1-3.6c0,0-3-0.1-1.9-5.1C558.3,112.3,561,114.3,561.1,118z"/>
<polygon class="st11" points="573.2,138.6 556.4,138.6 556.4,133.1 573.2,136.7 "/>
<path class="st12" d="M573.2,138.6c0,0,10.7,5,9.8,21.3c-0.9,16.3,0.1,36.8,0.1,36.8s-21.9-4.2-31.1-0.8c0,0-1.1-50.3,4.4-57.4
	H573.2z"/>
<path class="st13" d="M626.8,272.9c-0.4-0.8-0.7-1.6-0.7-2.5c0-2.8,2.4-5.1,5.2-5.1l15.9,0.2c2.8,0,5.1,2.4,5.1,5.2
	c0,0.9-0.3,1.8-0.7,2.5L626.8,272.9z"/>
<path class="st6" d="M652.1,271.9c-0.1,0.5-0.3,0.9-0.5,1.3l-24.7-0.3c-0.2-0.4-0.4-0.8-0.5-1.3L652.1,271.9z"/>
<path class="st14" d="M625.2,194.3c0,0,2.7,44.9,6.1,71c0,0,10.9,5.4,20.9,5.4c0,0-3.5-72.9,0-77.5L625.2,194.3z"/>
<linearGradient id="SVGID_3_" gradientUnits="userSpaceOnUse" x1="598.9434" y1="346.957" x2="598.9434" y2="274.7788" gradientTransform="matrix(-1 0 0 1 1237.6685 0)">
	<stop  offset="0" style="stop-color:#FFFFFF"/>
	<stop  offset="1" style="stop-color:#000000"/>
</linearGradient>
<path class="st15" d="M631.3,282.7c-3.5,26.1-6.1,63.1-6.1,63.1l27.1,1.2c-3.5-4.6,0-69.7,0-69.7c0-0.7-0.2-1.3-0.4-1.9c0,0,0,0,0,0
	c-0.1-0.2-0.2-0.4-0.3-0.6l-24.7,0.3c-0.1,0.2-0.2,0.4-0.3,0.6c0,0,0,0,0,0c-0.1,0.2-0.2,0.4-0.2,0.7c0,0,0,0,0,0h0
	c-0.1,0.4-0.2,0.8-0.1,1.2C626.2,280.4,628.5,282.7,631.3,282.7z"/>
<rect x="634.5" y="126.3" class="st9" width="10.9" height="11.5"/>
<path class="st9" d="M627.1,108.8c0,0-1.6,7.1-4.4,10.4l3.8,1.4c0,0-3,10.6-0.7,11.3c2.3,0.7,18.1-2.4,20.7-6.4l-0.2-3.2
	c0,0,3.4,0.9,1.7-6.1c-1.6-6.4-4.1,0.8-4.1,0.8l-0.1-9.2C643.9,107.8,629.7,97.3,627.1,108.8z"/>
<polygon class="st11" points="632.4,138.6 649.2,138.6 649.2,133.1 632.4,136.7 "/>
<path class="st11" d="M632.4,138.6c0,0-10.7,5-9.8,21.3s-0.1,36.8-0.1,36.8s21.9-4.2,31.1-0.8c0,0,1.1-50.3-4.4-57.4H632.4z"/>
<polyline class="st16" points="639.4,146.6 643.4,168.2 641.3,201.1 "/>
<ellipse transform="matrix(0.8054 -0.5928 0.5928 0.8054 4.8612 419.3422)" class="st9" cx="641" cy="202.3" rx="7.1" ry="5.8"/>
<circle class="st17" cx="835.8" cy="223.7" r="10.7"/>
<circle class="st17" cx="709.6" cy="223.7" r="10.7"/>
<polyline class="st18" points="567.6,149 575.5,172.2 594.2,185.8 "/>
<polyline class="st16" points="640.1,149 632.2,172.2 613.4,185.8 "/>
<path d="M644.3,117.9l-1.2,0c0,0-1.3-5.9,0-9.6c0,0-27.3,8.8-20-10.1c0,0,0.3-0.4,1-0.8c0.4-0.3,0.3,1.9,0.9,1.7
	c0.3-0.1,1.2-2.7,1.6-2.8c0.6-0.2,0.6,2.2,1.3,2.1c0.4,0,1.4-2.5,1.7-2.5c0.8,0,0.8,2.7,1.3,2.9c1,0.5,1.8-1.2,1.8-1.2
	s-1.1,3.5,5.5,2c6.5-1.5,10.3,1.8,10.6,4.9c0,0,11.4,3.7,1.7,17.2c0,0-1.9,2-1.4,4.3l-1.1-1l-2,0.7l0.1-3.5c0,0,2.9-0.1,1.9-5
	C647,112.3,644.3,114.2,644.3,117.9z"/>
<ellipse transform="matrix(0.5928 -0.8054 0.8054 0.5928 92.9239 558.5817)" class="st9" cx="598.8" cy="187.4" rx="5.8" ry="7.1"/>
<ellipse transform="matrix(0.8054 -0.5928 0.5928 0.8054 7.5884 397.9122)" class="st9" cx="609.7" cy="187.4" rx="7.1" ry="5.8"/>
</svg>
