<?xml version="1.0" encoding="utf-8"?>
<!-- Generator: Adobe Illustrator 19.2.0, SVG Export Plug-In . SVG Version: 6.00 Build 0)  -->
<svg version="1.1" id="Calque_1" xmlns="http://www.w3.org/2000/svg" xmlns:xlink="http://www.w3.org/1999/xlink" x="0px" y="0px"
	 viewBox="0 0 50 50" style="enable-background:new 0 0 50 50;" xml:space="preserve">
<style type="text/css">
	.st0{fill:#fff;stroke:#fff;stroke-width:0.75;stroke-miterlimit:10;}
	.st1{fill:#fff;stroke:#fff;stroke-width:0.75;stroke-linecap:round;stroke-linejoin:round;stroke-miterlimit:10;}
</style>
<g>
	<g>
		<path class="st0" d="M36.3,42.7c1.1-2.6,4-3.8,6.6-2.9c2.6,1,3.8,4,2.9,6.6c-1.1,2.6-4,3.8-6.6,2.9C36.5,48.3,35.3,45.3,36.3,42.7
			z M37.6,43.2c-0.8,2,0.2,4.1,2.1,4.9c2,0.8,4.1-0.2,4.9-2.1c0.8-2-0.2-4.1-2.1-4.9C40.5,40.3,38.3,41.3,37.6,43.2z"/>
	</g>
</g>
<g>
	<g>
		<path class="st0" d="M1.4,3.6C2.4,1,5.3-0.3,8,0.8s3.8,4,2.9,6.6s-4,3.8-6.6,2.9S0.3,6.2,1.4,3.6z M2.6,4.1
			c-0.8,2,0.2,4.1,2.1,4.9S8.8,8.9,9.6,7C10.3,5,9.4,2.8,7.5,2S3.3,2.1,2.6,4.1z"/>
	</g>
</g>
<g>
	<g>
		<path class="st0" d="M9.9,19.3c1.1-2.6,4-3.8,6.6-2.9s3.8,4,2.9,6.6c-1.1,2.6-4,3.8-6.6,2.9C10.2,24.9,8.8,22,9.9,19.3z
			 M11.1,19.8c-0.8,2,0.2,4.1,2.1,4.9c2,0.8,4.1-0.2,4.9-2.1s-0.2-4.1-2.1-4.9S11.8,17.9,11.1,19.8z"/>
	</g>
</g>
<g>
	<g>
		<path class="st0" d="M22.1,31.8c1.1-2.6,4-3.8,6.6-2.9c2.6,1.1,3.8,4,2.9,6.6c-1,2.6-4,3.8-6.6,2.9C22.3,37.4,21,34.4,22.1,31.8z
			 M23.3,32.3c-0.8,2,0.2,4.1,2.1,4.9c2,0.8,4.1-0.2,4.9-2.1c0.8-2-0.2-4.1-2.1-4.9C26.2,29.5,24.1,30.4,23.3,32.3z"/>
	</g>
</g>
<g>
	<g>
		<path class="st0" d="M11.4,18.2c0.2,0.1,0.4,0.1,0.6-0.1c0.3-0.2,0.4-0.6,0.2-0.9c-1.7-2.6-3.1-5.1-4-7.6C8.1,9.2,7.7,9.1,7.4,9.2
			C7.1,9.4,6.9,9.8,7,10.1c1,2.6,2.4,5.1,4.1,7.8C11.2,18,11.3,18.1,11.4,18.2z"/>
	</g>
</g>
<g>
	<g>
		<path class="st0" d="M23.1,31.5c0.2,0.1,0.5,0,0.7-0.2c0.2-0.3,0.2-0.7,0-0.9c-2.1-2-4-4-5.8-6c-0.2-0.3-0.7-0.3-0.9-0.1
			c-0.3,0.2-0.3,0.6-0.1,0.9c1.8,2,3.7,4,5.9,6C22.9,31.4,23,31.4,23.1,31.5z"/>
	</g>
</g>
<g>
	<g>
		<path class="st1" d="M37,42.8c0.3,0.1,0.6,0,0.8-0.3c0.2-0.3,0.1-0.7-0.2-0.9c0,0-2.8-1.8-6.9-5.1c-0.3-0.2-0.7-0.2-0.9,0.1
			c-0.2,0.3-0.2,0.7,0.1,0.9C34.1,40.9,36.8,42.6,37,42.8C36.9,42.7,37,42.7,37,42.8z"/>
	</g>
</g>
<g>
	<path class="st0" d="M47.1,35.1c-0.1,0-0.2,0-0.3-0.1C22.7,20,18.2,2,18.1,1.9c0-0.2,0.1-0.5,0.4-0.6c0.3,0,0.5,0.1,0.6,0.4
		c0,0,1.1,4.4,5,10.7c3.6,5.7,10.7,14.1,23.2,21.9c0.2,0.1,0.3,0.5,0.2,0.7C47.4,35,47.2,35.1,47.1,35.1z"/>
</g>
<g>
	<path class="st0" d="M45.1,36.1c-0.2,0-0.5-0.2-0.5-0.4c0-0.3,0.2-0.5,0.4-0.6l2.2-0.3l-0.2-2.2c0-0.3,0.2-0.5,0.4-0.6
		c0.3,0,0.5,0.2,0.6,0.4l0.3,2.7c0,0.3-0.2,0.5-0.4,0.6L45.1,36.1L45.1,36.1z"/>
</g>
</svg>
