<?xml version="1.0" encoding="utf-8"?>
<!-- Generator: Adobe Illustrator 19.2.0, SVG Export Plug-In . SVG Version: 6.00 Build 0)  -->
<svg version="1.1" id="Calque_1" xmlns="http://www.w3.org/2000/svg" xmlns:xlink="http://www.w3.org/1999/xlink" x="0px" y="0px"
	 viewBox="0 0 879.1 348" style="enable-background:new 0 0 879.1 348;" xml:space="preserve">
<style type="text/css">
	.st0{fill:#E8F5FD;}
	.st1{fill:#2488C9;}
	.st2{fill:none;stroke:#FFFFFF;stroke-width:2;stroke-miterlimit:10;}
	.st3{fill:#FFFFFF;}
	.st4{fill:#3C3C3B;}
	.st5{fill:#3DB49C;}
	.st6{fill:#F0E08A;}
	.st7{fill:#349B86;}
	.st8{fill:none;stroke:#F0E089;stroke-width:4;stroke-linecap:round;stroke-miterlimit:10;}
	.st9{fill:#13162A;}
	.st10{fill:#412516;}
	.st11{fill:#212E5A;}
	.st12{opacity:0.1;fill:url(#SVGID_1_);enable-background:new    ;}
	.st13{fill:#FCC880;}
	.st14{fill:#F0F0F0;}
	.st15{fill:none;stroke:#F0F0F0;stroke-width:12;stroke-linecap:round;stroke-miterlimit:10;}
	.st16{fill:#010202;}
	.st17{opacity:0.1;fill:url(#SVGID_2_);enable-background:new    ;}
	.st18{fill:none;stroke:#000000;stroke-width:12;stroke-linecap:round;stroke-miterlimit:10;}
	.st19{fill:#281C0B;}
	.st20{fill:none;stroke:#2488C9;stroke-linecap:round;stroke-miterlimit:10;}
	.st21{fill:none;stroke:#2488C9;stroke-linecap:round;stroke-linejoin:round;stroke-miterlimit:10;}
	.st22{enable-background:new    ;}
	.st23{fill:none;stroke:#FFFFFF;stroke-linecap:round;stroke-miterlimit:10;}
	.st24{fill:none;stroke:#FFFFFF;stroke-linecap:round;stroke-linejoin:round;stroke-miterlimit:10;}
	.st25{fill:#754D24;}
	.st26{fill:#412413;}
	.st27{fill:#035D53;}
	.st28{fill:#532810;}
	.st29{fill:#1D1C3E;}
	.st30{fill:none;stroke:#1D1D3D;stroke-width:16;stroke-linecap:round;stroke-linejoin:round;stroke-miterlimit:10;}
	.st31{opacity:0.1;fill:url(#SVGID_3_);enable-background:new    ;}
	.st32{fill:none;stroke:#BA105C;stroke-width:12;stroke-linecap:round;stroke-miterlimit:10;}
	.st33{fill:#FBC681;}
	.st34{fill:none;stroke:#904392;stroke-width:12;stroke-linecap:round;stroke-miterlimit:10;}
	.st35{fill:none;stroke:#EFDF89;stroke-width:12;stroke-linecap:round;stroke-miterlimit:10;}
	.st36{fill:none;stroke:#26557E;stroke-width:12;stroke-linecap:round;stroke-miterlimit:10;}
	.st37{fill:#DDC07B;}
	.st38{fill:#27537D;}
	.st39{fill:#343434;}
	.st40{fill:#0A7591;}
	.st41{fill:#4FBBBD;}
	.st42{fill:#0F8C95;}
	.st43{fill:#EFDF89;}
	.st44{fill:#522914;}
	.st45{fill:#F19134;}
	.st46{fill:#4B4A4A;}
	.st47{fill:#2E2D2E;}
	.st48{fill:#904392;}
	.st49{fill:#222A52;}
	.st50{fill:#754E24;}
	.st51{opacity:0.1;}
	.st52{fill:url(#SVGID_4_);}
	.st53{fill:url(#SVGID_5_);}
	.st54{fill:url(#SVGID_6_);}
	.st55{fill:url(#SVGID_7_);}
	.st56{fill:#B9105C;}
	.st57{fill:#581A4C;}
	.st58{fill:none;stroke:#EFDF88;stroke-width:12;stroke-linecap:round;stroke-miterlimit:10;}
	.st59{opacity:0.1;fill:url(#SVGID_8_);enable-background:new    ;}
	.st60{fill:none;stroke:#723A10;stroke-width:3;stroke-miterlimit:10;}
	.st61{fill:#723A10;}
	.st62{fill:#5F3013;}
	.st63{fill:#608C77;}
</style>
<rect class="st0" width="516.7" height="255.8"/>
<polygon class="st1" points="879.1,255.8 412.9,255.8 466.1,0 879.1,0 "/>
<circle class="st2" cx="715.6" cy="92.2" r="56.3"/>
<g>
	<path class="st3" d="M684.4,97.5v4.2c0,2.9,0.5,3.8,2,3.8c1.2,0,1.8-0.7,1.8-2.2v-3.2h5.3v2.9c0,4.7-2.1,6.7-7.1,6.7
		c-2.8,0-4.8-0.7-5.9-2.2c-1.1-1.5-1.5-3.1-1.5-7.1v-6.7c0-5.1,0.2-6.4,1.2-8.1c1.1-1.7,3.2-2.6,6.1-2.6c5.1,0,7.1,2.1,7.1,8.2v6.1
		L684.4,97.5L684.4,97.5z M688.1,90.3c0-2.1-0.6-2.9-2-2.9s-2,0.9-2,2.9v3.2h3.8L688.1,90.3L688.1,90.3z"/>
	<path class="st3" d="M706,88.1h-2.2v14.8c0,2,0.2,2.3,1.5,2.3h0.9v4.3h-3.6c-1.7,0-2.7-0.4-3.2-1c-0.9-0.7-1-1.6-1-4.7V88.1h-2.1
		v-4.5h2.1v-6.9h5.3v6.7h2.2L706,88.1L706,88.1z"/>
	<path class="st3" d="M714.6,75.2v10.3c1.8-1.6,2.9-2.2,4.8-2.2c1.5,0,2.7,0.6,3.6,1.6c0.7,1,1,2.1,1,4.4v20.2h-5.3V90.8
		c0-2-0.5-2.9-1.7-2.9c-1.5,0-2.2,1.2-2.2,3.9v17.6h-5.3V75.1L714.6,75.2L714.6,75.2z"/>
	<path class="st3" d="M733.4,80.1h-5.3v-4.9h5.3V80.1z M733.4,109.5h-5.3v-26h5.3V109.5z"/>
	<path class="st3" d="M746.8,92.6v-2.1c0-2.3-0.5-3.2-2-3.2c-1.6,0-2.1,1-2.1,4.5v8.6c0.1,3.4,0.1,3.4,0.4,4.2c0.2,0.6,1,1,1.8,1
		c1.6,0,2-0.6,2-3.2V99h5.3v3.6c0,2.3-0.4,3.7-1.1,4.8c-1.1,1.6-3.3,2.4-6.2,2.4c-2.4,0-4.4-0.6-5.6-2s-1.7-3.2-1.7-7.1v-9.1
		c0-5.9,2.3-8.4,7.5-8.4c4.8,0,7.1,2.2,7.1,7v2.4C752.2,92.6,746.8,92.6,746.8,92.6z"/>
</g>
<path class="st4" d="M248.2,300.2c0,1.8-1.4,3.2-3.2,3.2h-21.1c-1.8,0-3.2-1.4-3.2-3.2v-32.4c0-1.8,1.4-3.2,3.2-3.2H245
	c1.8,0,3.2,1.4,3.2,3.2V300.2z"/>
<path class="st4" d="M121.9,300.2c0,1.8,3,3.2-3.2,3.2H95.8c-4.5,0-1.5-1.4-1.5-3.2v-32.4c0-1.8,1.4-3.2,3.2-3.2h21.1
	c1.8,0,3.2,1.4,3.2,3.2v32.4H121.9z"/>
<path class="st5" d="M82.8,239.5c1.2,1.4,1,3.4-0.4,4.5l-7.9,6.7c-1.4,1.2-3.4,1-4.5-0.4l-5.5-6.4c-1.2-1.4-1-3.4,0.4-4.5l7.9-6.7
	c1.4-1.2,3.4-1,4.5,0.4L82.8,239.5z"/>
<path class="st5" d="M89.5,233.9c0.6,1.7-0.2,3.5-1.9,4.2l-10.6,4c-1.7,0.6-3.5-0.2-4.2-1.9l0,0c-0.6-1.7,0.2-3.5,1.9-4.2l10.6-4
	C87,231.4,88.9,232.2,89.5,233.9L89.5,233.9z"/>
<path class="st5" d="M260.8,227.5c0.1,1.8,1.6,3.1,3.4,3l10.4-0.6c1.8-0.1,3.1-1.6,3-3.4l-0.5-8.5c-0.1-1.8-1.6-3.1-3.4-3l-10.4,0.6
	c-1.8,0.1-3.1,1.6-3,3.4L260.8,227.5z"/>
<path class="st5" d="M252.5,224c0.1,1.8,1.6,3.1,3.4,3l11.3-0.6c1.8-0.1,3.1-1.6,3-3.4l0,0c-0.1-1.8-1.6-3.1-3.4-3l-11.3,0.6
	C253.8,220.7,252.4,222.2,252.5,224L252.5,224z"/>
<path class="st5" d="M239.8,159.2c0,0-16.3-8-72-4.9c-52.7,3-69.6,13.4-69.6,13.4S84.9,228.7,85,230l2.9,51c0.1,1.8,1.6,3.1,3.4,3
	h0.5l166.1-9.3h0.5c1.8-0.1,3.1-1.6,3-3.4l-2.9-51C258.5,218.9,239.8,159.2,239.8,159.2z M231.8,168.8l14.9,48.9L97.6,226l9.8-50.2
	c0,0,11.3-8.4,61.1-11.2C210.7,162.2,231.8,168.8,231.8,168.8z"/>
<path class="st6" d="M247.4,249.3c0.3,5.9-4.2,10.9-10.1,11.3c-5.9,0.3-10.9-4.2-11.3-10.1c-0.3-5.9,5,2.8,10.8,2.5
	C242.8,252.7,247.1,243.4,247.4,249.3z"/>
<path class="st7" d="M209.8,245c0.1,1.2-0.8,2.2-2,2.3l-69.3,3.9c-1.2,0.1-2.2-0.8-2.3-2l0,0c-0.1-1.2,0.8-2.2,2-2.3l69.3-3.9
	C208.7,242.9,209.8,243.8,209.8,245L209.8,245z"/>
<path class="st7" d="M210.2,252.3c0.1,1.2-0.8,2.2-2,2.3l-69.3,3.9c-1.2,0.1-2.2-0.8-2.3-2l0,0c-0.1-1.2,0.8-2.2,2-2.3l69.3-3.9
	C209.2,250.2,210.2,251.1,210.2,252.3L210.2,252.3z"/>
<path class="st7" d="M210.7,259.7c0.1,1.2-0.8,2.2-2,2.3l-69.3,3.9c-1.2,0.1-2.2-0.8-2.3-2l0,0c-0.1-1.2,0.8-2.2,2-2.3l69.3-3.9
	C209.6,257.6,210.6,258.5,210.7,259.7L210.7,259.7z"/>
<g>
	<line class="st8" x1="101.8" y1="262.6" x2="114.3" y2="250.1"/>
	<line class="st8" x1="113.8" y1="262.6" x2="101.3" y2="250.1"/>
</g>
<path class="st9" d="M499.6,301.7c-0.4-0.8-0.7-1.6-0.7-2.5c0-2.8,2.4-5.1,5.2-5.1l15.9,0.2c2.8,0,5.1,2.4,5.1,5.2
	c0,0.9-0.3,1.8-0.7,2.5L499.6,301.7z"/>
<path class="st10" d="M524.9,300.7c-0.1,0.5-0.3,0.9-0.5,1.3l-24.7-0.3c-0.2-0.4-0.4-0.8-0.5-1.3L524.9,300.7z"/>
<path class="st11" d="M498,223.1c0,0,2.7,44.9,6.1,71c0,0,10.9,5.4,20.9,5.4c0,0-3.5-72.9,0-77.5L498,223.1z"/>
<linearGradient id="SVGID_1_" gradientUnits="userSpaceOnUse" x1="195.4337" y1="-415.49" x2="195.4337" y2="-370.59" gradientTransform="matrix(-1 0 0 -1 706.9837 -67.933)">
	<stop  offset="0" style="stop-color:#FFFFFF"/>
	<stop  offset="1" style="stop-color:#010202"/>
</linearGradient>
<path class="st12" d="M504.1,310.5c-3.5,26.1-6.1,35.8-6.1,35.8l27.1,1.2c-3.5-4.6,0-42.4,0-42.4c0-0.7-0.2-1.3-0.4-1.9l0,0
	c-0.1-0.2-0.2-0.4-0.3-0.6l-24.7,0.3c-0.1,0.2-0.2,0.4-0.3,0.6l0,0c-0.1,0.2-0.2,0.4-0.2,0.7l0,0l0,0c-0.1,0.4-0.2,0.8-0.1,1.2
	C499,308.2,501.3,310.5,504.1,310.5z"/>
<rect x="507.3" y="155.1" class="st13" width="10.9" height="11.5"/>
<path class="st13" d="M499.9,137.6c0,0-1.6,7.1-4.4,10.4l3.8,1.4c0,0-3,10.6-0.7,11.3s18.1-2.4,20.7-6.4l-0.2-3.2
	c0,0,3.4,0.9,1.7-6.1c-1.6-6.4-4.1,0.8-4.1,0.8l-0.1-9.2C516.7,136.6,502.5,126.1,499.9,137.6z"/>
<polygon class="st14" points="505.2,167.4 522,167.4 522,161.9 505.2,165.5 "/>
<path class="st14" d="M505.2,167.4c0,0-10.7,5-9.8,21.3s-0.1,36.8-0.1,36.8s21.9-4.2,31.1-0.8c0,0,1.1-50.3-4.4-57.4h-16.8V167.4z"
	/>
<polyline class="st15" points="512.2,175.4 516.2,197 514.1,229.9 "/>
<ellipse transform="matrix(0.8054 -0.5928 0.5928 0.8054 -36.9907 349.5538)" class="st13" cx="513.8" cy="231.1" rx="7.1" ry="5.8"/>
<polyline class="st15" points="512.9,177.8 505,201 486.2,214.6 "/>
<path class="st16" d="M517.1,146.7h-1.2c0,0-1.3-5.9,0-9.6c0,0-27.3,8.8-20-10.1c0,0,0.3-0.4,1-0.8c0.4-0.3,0.3,1.9,0.9,1.7
	c0.3-0.1,1.2-2.7,1.6-2.8c0.6-0.2,0.6,2.2,1.3,2.1c0.4,0,1.4-2.5,1.7-2.5c0.8,0,0.8,2.7,1.3,2.9c1,0.5,1.8-1.2,1.8-1.2
	s-1.1,3.5,5.5,2c6.5-1.5,10.3,1.8,10.6,4.9c0,0,11.4,3.7,1.7,17.2c0,0-1.9,2-1.4,4.3l-1.1-1l-2,0.7l0.1-3.5c0,0,2.9-0.1,1.9-5
	C519.8,141.1,517.1,143,517.1,146.7z"/>
<path class="st9" d="M546.7,315.1c-0.4-0.8-0.7-1.6-0.7-2.5c0-2.8,2.4-5.1,5.2-5.1l15.9,0.2c2.8,0,5.1,2.4,5.1,5.2
	c0,0.9-0.3,1.8-0.7,2.5L546.7,315.1z"/>
<path class="st10" d="M572,314.1c-0.1,0.5-0.3,0.9-0.5,1.3l-24.7-0.3c-0.2-0.4-0.4-0.8-0.5-1.3L572,314.1z"/>
<path d="M545.1,236.5c0,0,2.7,44.9,6.1,71c0,0,10.9,5.4,20.9,5.4c0,0-3.5-72.9,0-77.5L545.1,236.5z"/>
<linearGradient id="SVGID_2_" gradientUnits="userSpaceOnUse" x1="147.9337" y1="-416.49" x2="147.9337" y2="-383.89" gradientTransform="matrix(-1 0 0 -1 706.9837 -67.933)">
	<stop  offset="0" style="stop-color:#FFFFFF"/>
	<stop  offset="1" style="stop-color:#010202"/>
</linearGradient>
<path class="st17" d="M551.2,323.9c-3.5,26.1-5.7,23.5-5.7,23.5l27.1,1.2c-3.5-4.6-0.4-30.1-0.4-30.1c0-0.7-0.2-1.3-0.4-1.9l0,0
	c-0.1-0.2-0.2-0.4-0.3-0.6l-24.7,0.3c-0.1,0.2-0.2,0.4-0.3,0.6l0,0c-0.1,0.2-0.2,0.4-0.2,0.7l0,0l0,0c-0.1,0.4-0.2,0.8-0.1,1.2
	C546.1,321.6,548.4,323.9,551.2,323.9z"/>
<rect x="554.4" y="168.5" class="st13" width="10.9" height="11.5"/>
<path class="st13" d="M547,151c0,0-1.6,7.1-4.4,10.4l3.8,1.4c0,0-3,10.6-0.7,11.3s18.1-2.4,20.7-6.4l-0.2-3.2c0,0,3.4,0.9,1.7-6.1
	c-1.6-6.4-4.1,0.8-4.1,0.8l-0.1-9.2C563.8,150,549.6,139.5,547,151z"/>
<polygon class="st14" points="552.3,180.8 569.1,180.8 569.1,175.3 552.3,178.9 "/>
<path d="M552.3,180.8c0,0-4.2,2-7.1,7.4c-1.7,3.3-3,7.8-2.7,13.9c0.9,16.3-0.1,36.8-0.1,36.8s21.9-4.2,31.1-0.8
	c0,0,1.1-50.3-4.4-57.4h-16.8V180.8z"/>
<polyline class="st18" points="559.3,188.8 563.3,210.4 561.2,243.3 "/>
<polyline class="st18" points="560,191.2 552.1,214.4 533.3,228 "/>
<path class="st19" d="M564.2,160.1H563c0,0-1.3-5.9,0-9.6c0,0-15.9-1.4-15.3-1.6c-1.1,0.1-5.1-3.9,10.4-7.1
	c6.5-1.5,10.3,1.8,10.6,4.9c0,0,11.4,3.7,1.7,17.2l-2.5,3.3l-2.7,1.7l0.8-4.5c0,0,2.9-0.1,1.9-5
	C566.9,154.5,564.2,156.4,564.2,160.1z"/>
<g>
	<path class="st20" d="M347.4,118.3C344.5,97,324.7,74,324.7,74"/>
	<polyline class="st21" points="341.5,115.7 347.7,119.2 351.2,113 	"/>
</g>
<path class="st20" d="M304.7,117.3"/>
<g class="st22">
	<path class="st1" d="M273.2,65.2c0-0.2,0-0.3,0-0.5c0-1,0.1-2,0.2-3c0.1-1.1,0.3-1.7,0.4-1.7c0.2,0,0.3,0.1,0.3,0.3
		c0,0,0,0.1,0,0.2l-0.1,0.4c-0.1,0.4-0.1,0.7-0.1,0.9c-0.1,0.9-0.2,1.9-0.2,3.1c0,1.4,0.2,2.1,0.7,2.1c0.1,0,0.2,0,0.2-0.1h0.1
		l0.1,0.1l0,0v0.1c-0.1,0.2-0.3,0.2-0.5,0.2c-0.3,0-0.5-0.2-0.8-0.5C273.4,66.4,273.2,65.9,273.2,65.2z"/>
	<path class="st1" d="M276.2,67.1c-0.3,0-0.6-0.1-0.8-0.3c-0.2-0.2-0.3-0.5-0.3-0.9c0-0.6,0.1-1.2,0.4-1.9c0.3-0.7,0.5-1,0.8-1
		c0.2,0,0.3,0.1,0.3,0.3c0,0.1-0.1,0.2-0.2,0.3c-0.6,0.8-0.9,1.5-0.9,2.2c0,0.6,0.1,0.9,0.4,0.9c0.4,0,0.9-0.4,1.3-1.2
		c0.4-0.7,0.6-1.3,0.6-1.7c0-0.6-0.2-0.9-0.5-0.9c-0.2,0-0.5,0.1-0.8,0.4l-0.1-0.1c-0.1,0-0.1-0.1-0.1-0.1c0-0.1,0.1-0.3,0.4-0.4
		c0.2-0.1,0.4-0.2,0.5-0.2c0.6,0,0.9,0.5,1,1.4c0,0.5-0.2,1.1-0.6,1.8C277.3,66.5,276.8,67,276.2,67.1z"/>
	<path class="st1" d="M279.8,63.9c0.5-1.2,1-1.8,1.5-1.8c0.4,0,0.6,0.2,0.6,0.5c0,0.2,0,0.3-0.2,0.3c-0.1,0-0.1,0-0.1-0.1v-0.1v-0.1
		c0-0.1-0.1-0.1-0.1-0.1c-0.2,0-0.4,0.2-0.7,0.6c-0.3,0.5-0.6,0.9-0.7,1.3s-0.2,0.9-0.2,1.4c0,0,0,0.3,0,0.9c0,0.1,0,0.1-0.1,0.2
		s-0.1,0.1-0.2,0.1c-0.2,0-0.3-0.2-0.3-0.5c0.1-0.8,0.1-1.4,0.1-1.9s0-1.1-0.1-1.8c0-0.1,0-0.2,0.1-0.2s0.1-0.1,0.2-0.1
		s0.2,0.1,0.3,0.2c0,0.1,0.1,0.2,0,0.3C279.8,63.3,279.8,63.7,279.8,63.9z"/>
	<path class="st1" d="M282.1,64.8c-0.1,0.1-0.1,0.2-0.2,0.6s-0.1,0.6-0.1,0.8c0,0.3,0.2,0.4,0.6,0.4s0.8-0.2,1.3-0.7
		c0.5-0.4,0.8-0.9,1-1.3h0.2c0.1,0.1,0.1,0.1,0.1,0.2c-0.2,0.6-0.6,1.2-1.1,1.6s-1,0.6-1.5,0.6c-0.4,0-0.6-0.1-0.8-0.4
		c-0.2-0.2-0.3-0.6-0.2-1c0-0.6,0.3-1.3,0.9-2.1c0.6-0.9,1.2-1.4,1.7-1.4c0.2,0,0.3,0.1,0.4,0.2c0.1,0.1,0.1,0.2,0.1,0.4
		c0,0.4-0.2,0.8-0.5,1.3c-0.4,0.6-0.8,0.9-1.3,0.9C282.4,65,282.2,64.9,282.1,64.8L282.1,64.8z M283.8,62.6c-0.1,0-0.3,0.1-0.4,0.3
		c-0.8,0.9-1.2,1.5-1.2,1.6c0,0,0.1,0.1,0.3,0.1c0.3,0,0.6-0.2,1-0.6c0.3-0.4,0.5-0.8,0.5-1.2C284,62.7,284,62.6,283.8,62.6z"/>
	<path class="st1" d="M292.3,66.7c-0.3,0-0.6-0.2-0.8-0.7c-0.2-0.4-0.2-0.7-0.2-1c0,0.1,0-0.1,0-0.6c0-0.3,0-0.5,0-0.7
		s-0.1-0.3-0.1-0.3s-0.1,0.1-0.3,0.4c-0.6,1-1,1.5-1,1.6c-0.5,0.7-0.9,1.1-1.2,1.1c-0.3,0-0.5-0.3-0.5-1c0-0.2,0-0.7,0.1-1.7
		c0-0.2,0-0.3-0.1-0.3s-0.4,0.5-1,1.4c-0.5,1-0.8,1.6-0.8,2c0,0.1-0.1,0.2-0.3,0.2c-0.1,0-0.1-0.1-0.2-0.4c0-0.2-0.1-0.3-0.1-0.4
		c0-0.7,0-1.3,0.1-1.8c0-0.5,0.1-0.9,0.2-1.2c0.1-0.4,0.2-0.5,0.3-0.5c0.1,0,0.2,0,0.2,0.1c0.1,0.1,0.1,0.1,0.1,0.2
		c-0.2,0.8-0.3,1.6-0.3,2.5c0.4-0.7,0.7-1.2,0.9-1.5c0.5-0.7,0.8-1.1,1.1-1.1c0.3,0,0.5,0.4,0.5,1.1c0,0.1,0,0.3,0,0.5
		c0,0.3,0,0.5,0,0.6c0,0.3,0,0.5,0.1,0.7c0.1,0,0.4-0.3,0.7-0.7c0.3-0.4,0.5-0.7,0.7-1.1c0.5-0.9,0.9-1.3,1.1-1.3s0.4,0.2,0.4,0.7
		c0,0.3,0,0.7,0.1,1.2c0.1,1,0.2,1.5,0.5,1.5c0.1,0,0.2-0.1,0.3-0.2c0.1-0.1,0.2-0.2,0.2-0.2c0.1,0,0.2,0.1,0.2,0.2
		c0,0.2-0.1,0.3-0.3,0.4C292.5,66.6,292.4,66.7,292.3,66.7z"/>
	<path class="st1" d="M297.2,67.2c-0.4,0-0.6-0.3-0.8-0.8c-0.1-0.4-0.2-0.8-0.2-1.1c0-0.3,0-0.8,0.1-1.3c0.1-0.7,0.3-1.1,0.5-1.1
		s0.3,0.1,0.3,0.3c0,0.1-0.1,0.3-0.2,0.5c-0.1,0.3-0.2,0.7-0.2,1.4c0,0.3,0,0.5,0,0.6c0,0.2,0.1,0.5,0.1,0.7
		c0.1,0.3,0.2,0.5,0.4,0.5h0.1c0.1-0.1,0.1-0.1,0.2-0.2c0.1,0.1,0.1,0.1,0.1,0.2s-0.1,0.2-0.2,0.3C297.4,67.1,297.3,67.2,297.2,67.2
		z M296.9,61.5c-0.1,0-0.2,0-0.2-0.1s-0.1-0.1-0.1-0.2c0-0.1,0-0.2,0.1-0.2s0.1-0.1,0.2-0.1c0.2,0,0.3,0.1,0.3,0.3
		C297.2,61.4,297.1,61.5,296.9,61.5z"/>
	<path class="st1" d="M299.2,64.2c0.8-1.1,1.6-1.7,2.3-1.7c0.5,0,0.8,0.4,0.8,1.1c0,0.6-0.3,1.3-0.8,2c-0.6,0.8-1.1,1.1-1.6,1.1
		c-0.4,0-0.6-0.2-0.6-0.6c0-0.1,0-0.3,0.1-0.5h0.2c0,0.1,0,0.2,0,0.2c0,0.1,0,0.2,0,0.2c0,0.1,0.1,0.1,0.2,0.1c0.5,0,1-0.4,1.4-1.2
		c0.4-0.7,0.6-1.2,0.6-1.7c0-0.4-0.1-0.6-0.3-0.6c-0.4,0-0.9,0.3-1.4,1c-0.5,0.6-0.8,1.1-0.9,1.5c-0.1,0.7-0.2,1.5-0.2,2.4
		c0,1.3,0.2,1.9,0.6,1.9c0,0,0,0,0.1,0s0.1,0,0.3-0.1v0.2c0,0.1-0.1,0.1-0.2,0.2c-0.1,0-0.2,0.1-0.2,0.1c-0.3,0-0.6-0.3-0.7-0.7
		c-0.1-0.3-0.2-0.7-0.2-1.2c0-0.2,0-0.4,0-0.7c0-0.8,0.1-2.2,0.3-4.3c0.1-0.6,0.2-0.8,0.5-0.8c0.2,0,0.3,0.1,0.3,0.3c0,0,0,0,0,0.1
		L299.2,64.2z"/>
	<path class="st1" d="M305.7,62.9c0,0-0.1,0-0.2-0.1s-0.2-0.1-0.3-0.1c-0.3,0-0.6,0.2-1.1,0.6c-0.5,0.4-0.7,0.8-0.7,1.1
		c0,0.2,0.3,0.2,0.8,0.2c1.1,0,1.6,0.3,1.6,0.9c0,0.4-0.2,0.8-0.7,1.1c-0.4,0.3-0.9,0.5-1.3,0.5c-0.2,0-0.4-0.1-0.5-0.2
		c-0.2-0.1-0.3-0.3-0.3-0.5c0-0.1,0-0.2,0.1-0.3c0.1-0.1,0.2-0.2,0.3-0.2h0.1c0,0.1,0,0.2-0.1,0.3v0.1c0,0.2,0.1,0.3,0.3,0.3
		c0.3,0,0.7-0.1,1.1-0.3c0.5-0.2,0.7-0.5,0.7-0.7s-0.1-0.3-0.2-0.4s-0.3-0.1-0.4-0.1h-1.1c-0.2,0-0.4,0-0.5-0.1
		c-0.2-0.1-0.3-0.2-0.3-0.4c0-0.4,0.3-0.9,0.9-1.4c0.6-0.6,1.1-0.9,1.5-0.9c0.1,0,0.3,0,0.4,0.1c0.2,0.1,0.3,0.2,0.3,0.4
		C305.9,62.9,305.9,62.9,305.7,62.9z"/>
	<path class="st1" d="M309.2,64.5c-0.4,0.9-0.7,1.4-0.8,1.6c-0.4,0.6-0.8,0.9-1.3,0.9c-0.4,0-0.5-0.4-0.5-1.1c0-0.2,0.1-0.8,0.3-1.7
		c0.3-1,0.5-1.5,0.6-1.6c0.1,0,0.2,0,0.2,0.1c0.1,0.1,0.1,0.1,0.1,0.2V63l-0.1,0.3c-0.5,1.3-0.7,2.2-0.7,2.7c0,0.3,0.1,0.5,0.2,0.5
		s0.4-0.2,0.6-0.5c0.3-0.4,0.6-0.9,0.9-1.5c0.3-0.7,0.5-1.2,0.5-1.5c0-0.1,0-0.2,0.1-0.3s0.2-0.2,0.3-0.2c0.2,0,0.3,0.1,0.3,0.3
		c0,0,0,0.2-0.1,0.6c-0.1,0.3-0.1,0.7-0.1,1c0,1.2,0.2,1.8,0.6,1.8c0.1,0,0.2-0.1,0.3-0.2c0,0,0.1-0.1,0.2-0.2
		c0.1,0.1,0.1,0.1,0.1,0.2s-0.1,0.3-0.3,0.4c-0.2,0.1-0.3,0.1-0.4,0.1C309.6,66.5,309.3,65.9,309.2,64.5L309.2,64.5z"/>
	<path class="st1" d="M318.1,66.7c-0.3,0-0.6-0.2-0.8-0.7c-0.2-0.4-0.2-0.7-0.2-1c0,0.1,0-0.1,0-0.6c0-0.3,0-0.5,0-0.7
		s-0.1-0.3-0.1-0.3s-0.1,0.1-0.3,0.4c-0.6,1-1,1.5-1,1.6c-0.5,0.7-0.9,1.1-1.2,1.1c-0.3,0-0.5-0.3-0.5-1c0-0.2,0-0.7,0.1-1.7
		c0-0.2,0-0.3-0.1-0.3s-0.4,0.5-1,1.4c-0.5,1-0.8,1.6-0.8,2c0,0.1-0.1,0.2-0.3,0.2c-0.1,0-0.1-0.1-0.2-0.4c0-0.2-0.1-0.3-0.1-0.4
		c0-0.7,0-1.3,0.1-1.8c0-0.5,0.1-0.9,0.2-1.2c0.1-0.4,0.2-0.5,0.3-0.5c0.1,0,0.2,0,0.2,0.1c0.1,0.1,0.1,0.1,0.1,0.2
		c-0.2,0.8-0.3,1.6-0.3,2.5c0.4-0.7,0.7-1.2,0.9-1.5c0.5-0.7,0.8-1.1,1.1-1.1c0.3,0,0.5,0.4,0.5,1.1c0,0.1,0,0.3,0,0.5
		c0,0.3,0,0.5,0,0.6c0,0.3,0,0.5,0.1,0.7c0.1,0,0.4-0.3,0.7-0.7c0.3-0.4,0.5-0.7,0.7-1.1c0.5-0.9,0.9-1.3,1.1-1.3s0.4,0.2,0.4,0.7
		c0,0.3,0,0.7,0.1,1.2c0.1,1,0.2,1.5,0.5,1.5c0.1,0,0.2-0.1,0.3-0.2c0.1-0.1,0.2-0.2,0.2-0.2c0.1,0,0.2,0.1,0.2,0.2
		c0,0.2-0.1,0.3-0.3,0.4C318.4,66.6,318.2,66.7,318.1,66.7z"/>
	<path class="st1" d="M325.3,64.7l-0.2,0.3c-1.2,1.5-2.1,2.3-2.7,2.3h-0.1c-0.4,0-0.6-0.2-0.6-0.6c0-0.3,0.2-0.8,0.5-1.5
		c0.4-0.7,0.8-1.3,1.2-1.8c0.5-0.6,1-0.9,1.5-0.9c0.2,0,0.4,0.1,0.5,0.2c0.1-0.4,0.2-1,0.3-1.8c0.1-0.8,0.3-1.1,0.5-1.1
		c0.1,0,0.1,0,0.2,0.1s0.1,0.1,0.1,0.2c0,0,0,0.2-0.1,0.5c-0.5,1.7-0.7,3.2-0.7,4.8c0,0.9,0.1,1.3,0.4,1.3c0,0,0,0,0.1,0
		c0,0,0.1-0.1,0.2-0.1c0.1,0.1,0.1,0.1,0.1,0.2s-0.1,0.2-0.2,0.2c-0.1,0.1-0.2,0.1-0.3,0.1c-0.6,0-0.8-0.6-0.8-1.9
		C325.3,65,325.3,64.9,325.3,64.7z M325.1,63c-0.4-0.1-1,0.4-1.8,1.5c-0.7,1-1.1,1.8-1.1,2.2c0,0.1,0,0.2,0.1,0.2
		c0.3,0,0.9-0.4,1.7-1.2c0.7-0.7,1.1-1.2,1.3-1.5c0.1-0.2,0.1-0.4,0.1-0.6c0-0.1,0-0.2-0.1-0.3C325.2,63,325.1,63,325.1,63z"/>
	<path class="st1" d="M328.3,67.1c-0.3,0-0.6-0.1-0.8-0.3c-0.2-0.2-0.3-0.5-0.3-0.9c0-0.6,0.1-1.2,0.4-1.9c0.3-0.7,0.5-1,0.8-1
		c0.2,0,0.3,0.1,0.3,0.3c0,0.1-0.1,0.2-0.2,0.3c-0.6,0.8-0.9,1.5-0.9,2.2c0,0.6,0.1,0.9,0.4,0.9c0.4,0,0.9-0.4,1.3-1.2
		c0.4-0.7,0.6-1.3,0.6-1.7c0-0.6-0.2-0.9-0.5-0.9c-0.2,0-0.5,0.1-0.8,0.4l-0.1-0.1c-0.1,0-0.1-0.1-0.1-0.1c0-0.1,0.1-0.3,0.4-0.4
		c0.2-0.1,0.4-0.2,0.5-0.2c0.6,0,0.9,0.5,1,1.4c0,0.5-0.2,1.1-0.6,1.8C329.5,66.5,328.9,67,328.3,67.1z"/>
	<path class="st1" d="M331.4,65.2c0-0.2,0-0.3,0-0.5c0-1,0.1-2,0.2-3c0.1-1.1,0.3-1.7,0.4-1.7c0.2,0,0.3,0.1,0.3,0.3
		c0,0,0,0.1,0,0.2l-0.1,0.4c-0.1,0.4-0.1,0.7-0.1,0.9c-0.1,0.9-0.2,1.9-0.2,3.1c0,1.4,0.2,2.1,0.7,2.1c0.1,0,0.2,0,0.2-0.1h0.1
		L333,67l0,0v0.1c-0.1,0.2-0.3,0.2-0.5,0.2c-0.3,0-0.5-0.2-0.8-0.5C331.6,66.4,331.5,65.9,331.4,65.2z"/>
	<path class="st1" d="M334.4,67.1c-0.3,0-0.6-0.1-0.8-0.3c-0.2-0.2-0.3-0.5-0.3-0.9c0-0.6,0.1-1.2,0.4-1.9c0.3-0.7,0.5-1,0.8-1
		c0.2,0,0.3,0.1,0.3,0.3c0,0.1-0.1,0.2-0.2,0.3c-0.6,0.8-0.9,1.5-0.9,2.2c0,0.6,0.1,0.9,0.4,0.9c0.4,0,0.9-0.4,1.3-1.2
		c0.4-0.7,0.6-1.3,0.6-1.7c0-0.6-0.2-0.9-0.5-0.9c-0.2,0-0.5,0.1-0.8,0.4l-0.1-0.1c-0.1,0-0.1-0.1-0.1-0.1c0-0.1,0.1-0.3,0.4-0.4
		c0.2-0.1,0.4-0.2,0.5-0.2c0.6,0,0.9,0.5,1,1.4c0,0.5-0.2,1.1-0.6,1.8C335.5,66.5,335,67,334.4,67.1z"/>
	<path class="st1" d="M338,63.9c0.5-1.2,1-1.8,1.5-1.8c0.4,0,0.6,0.2,0.6,0.5c0,0.2,0,0.3-0.2,0.3c-0.1,0-0.1,0-0.1-0.1v-0.1v-0.1
		c0-0.1-0.1-0.1-0.1-0.1c-0.2,0-0.4,0.2-0.7,0.6c-0.3,0.5-0.6,0.9-0.7,1.3s-0.2,0.9-0.2,1.4c0,0,0,0.3,0,0.9c0,0.1,0,0.1-0.1,0.2
		s-0.1,0.1-0.2,0.1c-0.2,0-0.3-0.2-0.3-0.5c0.1-0.8,0.1-1.4,0.1-1.9s0-1.1-0.1-1.8c0-0.1,0-0.2,0.1-0.2s0.1-0.1,0.2-0.1
		s0.2,0.1,0.3,0.2c0,0.1,0.1,0.2,0,0.3C338.1,63.3,338,63.7,338,63.9z"/>
	<path class="st1" d="M346.3,62.9c0,0-0.1,0-0.2-0.1s-0.2-0.1-0.3-0.1c-0.3,0-0.6,0.2-1.1,0.6c-0.5,0.4-0.7,0.8-0.7,1.1
		c0,0.2,0.3,0.2,0.8,0.2c1.1,0,1.6,0.3,1.6,0.9c0,0.4-0.2,0.8-0.7,1.1c-0.4,0.3-0.9,0.5-1.3,0.5c-0.2,0-0.4-0.1-0.5-0.2
		c-0.2-0.1-0.3-0.3-0.3-0.5c0-0.1,0-0.2,0.1-0.3c0.1-0.1,0.2-0.2,0.3-0.2h0.1c0,0.1,0,0.2-0.1,0.3v0.1c0,0.2,0.1,0.3,0.3,0.3
		c0.3,0,0.7-0.1,1.1-0.3c0.5-0.2,0.7-0.5,0.7-0.7s-0.1-0.3-0.2-0.4s-0.3-0.1-0.4-0.1h-1.1c-0.2,0-0.4,0-0.5-0.1
		c-0.2-0.1-0.3-0.2-0.3-0.4c0-0.4,0.3-0.9,0.9-1.4c0.6-0.6,1.1-0.9,1.5-0.9c0.1,0,0.3,0,0.4,0.1c0.2,0.1,0.3,0.2,0.3,0.4
		C346.5,62.9,346.5,62.9,346.3,62.9z"/>
	<path class="st1" d="M348.2,67.2c-0.4,0-0.6-0.3-0.8-0.8c-0.1-0.4-0.2-0.8-0.2-1.1c0-0.3,0-0.8,0.1-1.3c0.1-0.7,0.3-1.1,0.5-1.1
		s0.3,0.1,0.3,0.3c0,0.1-0.1,0.3-0.2,0.5c-0.1,0.3-0.2,0.7-0.2,1.4c0,0.3,0,0.5,0,0.6c0,0.2,0.1,0.5,0.1,0.7
		c0.1,0.3,0.2,0.5,0.4,0.5h0.1c0.1-0.1,0.1-0.1,0.2-0.2c0.1,0.1,0.1,0.1,0.1,0.2s-0.1,0.2-0.2,0.3C348.4,67.1,348.3,67.2,348.2,67.2
		z M347.9,61.5c-0.1,0-0.2,0-0.2-0.1s-0.1-0.1-0.1-0.2c0-0.1,0-0.2,0.1-0.2s0.1-0.1,0.2-0.1c0.2,0,0.3,0.1,0.3,0.3
		C348.2,61.4,348.1,61.5,347.9,61.5z"/>
	<path class="st1" d="M350.2,63.3c0.2,0,0.4-0.1,0.6-0.1c0.1,0,0.2,0,0.4,0.1c0.2,0.1,0.3,0.2,0.3,0.4v0.1l0,0l0,0c0,0-0.1,0,0,0
		l0,0c0,0,0,0-0.1,0c0,0-0.1,0-0.1-0.1c-0.1-0.2-0.2-0.3-0.4-0.3c-0.1,0-0.1,0-0.2,0c-0.2,0-0.3,0.1-0.5,0.2c0,0,0,0,0,0.1
		c0,0.4-0.1,0.8,0,1.4c0,1,0.3,1.5,0.7,1.5c0.1,0,0.2-0.1,0.3-0.2s0.2-0.2,0.2-0.2c0.1,0,0.2,0.1,0.2,0.2s-0.1,0.3-0.3,0.4
		c-0.2,0.1-0.3,0.1-0.4,0.1c-0.3,0-0.6-0.2-0.8-0.6c-0.1-0.3-0.2-0.6-0.3-0.9c-0.1-0.6-0.1-1.2,0-1.7c-0.2,0.1-0.5,0.2-0.8,0.4h-0.1
		c-0.1,0-0.2-0.1-0.2-0.3c0-0.1,0.3-0.3,0.9-0.6h0.1c0-0.3,0.1-0.6,0.1-1.2c0.1-0.5,0.2-0.8,0.4-0.8c0.2,0,0.3,0.1,0.3,0.3
		L350.2,63.3z"/>
	<path class="st1" d="M358.3,66.6c-0.4-0.1-0.5-0.6-0.5-1.3c0-0.1,0-0.2,0-0.2c-0.4,0.5-0.8,1-1.2,1.4c-0.6,0.5-1,0.8-1.4,0.8
		c-0.1,0-0.2,0-0.3-0.1c-0.1-0.1-0.2-0.3-0.2-0.5c0-0.5,0.3-1.1,0.8-1.9s1-1.4,1.6-1.9s1.1-0.7,1.4-0.5c0.1,0.1,0.2,0.3,0.2,0.6
		c0,0.4-0.1,0.5-0.4,0.6c-0.2,0-0.3,0-0.3-0.2c0,0,0,0,0-0.1c0.1-0.2,0.1-0.3,0.1-0.5c0-0.1,0-0.1,0-0.1c-0.4,0.1-1,0.7-1.8,1.7
		c-0.8,1.1-1.3,1.9-1.3,2.3c0,0.1,0.1,0.2,0.2,0.2c0.3,0,0.9-0.4,1.6-1.3c0.5-0.6,0.8-0.9,0.8-1c0.2-0.3,0.3-0.6,0.4-0.8
		c0-0.2,0.1-0.3,0.3-0.3c0.2,0,0.3,0.1,0.3,0.3c-0.2,1-0.3,1.6-0.3,1.8c0,0.4,0.1,0.6,0.3,0.7c0.1,0,0.1,0,0.2,0s0.1-0.1,0.1-0.1
		c0-0.2,0.1-0.2,0.3-0.2c0.1,0,0.1,0,0.1,0.1c0,0,0,0.1,0,0.2c-0.1,0.3-0.3,0.4-0.6,0.4C358.4,66.6,358.3,66.6,358.3,66.6z"/>
	<path class="st1" d="M366.5,66.7c-0.3,0-0.6-0.2-0.8-0.7c-0.2-0.4-0.2-0.7-0.2-1c0,0.1,0-0.1,0-0.6c0-0.3,0-0.5,0-0.7
		s-0.1-0.3-0.1-0.3s-0.1,0.1-0.3,0.4c-0.6,1-1,1.5-1,1.6c-0.5,0.7-0.9,1.1-1.2,1.1c-0.3,0-0.5-0.3-0.5-1c0-0.2,0-0.7,0.1-1.7
		c0-0.2,0-0.3-0.1-0.3s-0.4,0.5-1,1.4c-0.5,1-0.8,1.6-0.8,2c0,0.1-0.1,0.2-0.3,0.2c-0.1,0-0.1-0.1-0.2-0.4c0-0.2-0.1-0.3-0.1-0.4
		c0-0.7,0-1.3,0.1-1.8c0-0.5,0.1-0.9,0.2-1.2c0.1-0.4,0.2-0.5,0.3-0.5c0.1,0,0.2,0,0.2,0.1c0.1,0.1,0.1,0.1,0.1,0.2
		c-0.2,0.8-0.3,1.6-0.3,2.5c0.4-0.7,0.7-1.2,0.9-1.5c0.5-0.7,0.8-1.1,1.1-1.1c0.3,0,0.5,0.4,0.5,1.1c0,0.1,0,0.3,0,0.5
		c0,0.3,0,0.5,0,0.6c0,0.3,0,0.5,0.1,0.7c0.1,0,0.4-0.3,0.7-0.7c0.3-0.4,0.5-0.7,0.7-1.1c0.5-0.9,0.9-1.3,1.1-1.3s0.4,0.2,0.4,0.7
		c0,0.3,0,0.7,0.1,1.2c0.1,1,0.2,1.5,0.5,1.5c0.1,0,0.2-0.1,0.3-0.2c0.1-0.1,0.2-0.2,0.2-0.2c0.1,0,0.2,0.1,0.2,0.2
		c0,0.2-0.1,0.3-0.3,0.4C366.7,66.6,366.6,66.7,366.5,66.7z"/>
	<path class="st1" d="M368.5,64.8c-0.1,0.1-0.1,0.2-0.2,0.6s-0.1,0.6-0.1,0.8c0,0.3,0.2,0.4,0.6,0.4s0.8-0.2,1.3-0.7
		c0.5-0.4,0.8-0.9,1-1.3h0.2c0.1,0.1,0.1,0.1,0.1,0.2c-0.2,0.6-0.6,1.2-1.1,1.6s-1,0.6-1.5,0.6c-0.4,0-0.6-0.1-0.8-0.4
		c-0.2-0.2-0.3-0.6-0.2-1c0-0.6,0.3-1.3,0.9-2.1c0.6-0.9,1.2-1.4,1.7-1.4c0.2,0,0.3,0.1,0.4,0.2c0.1,0.1,0.1,0.2,0.1,0.4
		c0,0.4-0.2,0.8-0.5,1.3c-0.4,0.6-0.8,0.9-1.3,0.9C368.8,65,368.6,64.9,368.5,64.8L368.5,64.8z M370.2,62.6c-0.1,0-0.3,0.1-0.4,0.3
		c-0.8,0.9-1.2,1.5-1.2,1.6c0,0,0.1,0.1,0.3,0.1c0.3,0,0.6-0.2,1-0.6c0.3-0.4,0.5-0.8,0.5-1.2C370.4,62.7,370.3,62.6,370.2,62.6z"/>
	<path class="st1" d="M372.9,63.3c0.2,0,0.4-0.1,0.6-0.1c0.1,0,0.2,0,0.4,0.1c0.2,0.1,0.3,0.2,0.3,0.4v0.1l0,0l0,0c0,0-0.1,0,0,0
		l0,0c0,0,0,0-0.1,0c0,0-0.1,0-0.1-0.1c-0.1-0.2-0.2-0.3-0.4-0.3c-0.1,0-0.1,0-0.2,0c-0.2,0-0.3,0.1-0.5,0.2c0,0,0,0,0,0.1
		c0,0.4-0.1,0.8,0,1.4c0,1,0.3,1.5,0.7,1.5c0.1,0,0.2-0.1,0.3-0.2s0.2-0.2,0.2-0.2c0.1,0,0.2,0.1,0.2,0.2s-0.1,0.3-0.3,0.4
		c-0.2,0.1-0.3,0.1-0.4,0.1c-0.3,0-0.6-0.2-0.8-0.6c-0.1-0.3-0.2-0.6-0.3-0.9c-0.1-0.6-0.1-1.2,0-1.7c-0.2,0.1-0.5,0.2-0.8,0.4h-0.1
		c-0.1,0-0.2-0.1-0.2-0.3c0-0.1,0.3-0.3,0.9-0.6h0.1c0-0.3,0.1-0.6,0.1-1.2c0.1-0.5,0.2-0.8,0.4-0.8c0.2,0,0.3,0.1,0.3,0.3
		L372.9,63.3z"/>
</g>
<g>
	<path class="st23" d="M521.9,120.8c2.9-21.3,22.7-44.3,22.7-44.3"/>
	<polyline class="st24" points="527.9,118.2 521.7,121.7 518.2,115.5 	"/>
</g>
<g class="st22">
	<path class="st3" d="M508.9,66.6c-0.3,0.4-0.7,0.7-1.1,1c-0.5,0.3-1,0.4-1.4,0.4c-0.5,0-1-0.2-1.3-0.7c-0.3-0.4-0.5-0.9-0.5-1.4
		v-0.4c0-0.6,0.2-1.2,0.5-2c0.4-0.8,0.8-1.5,1.4-2.1s1.3-0.9,1.9-0.9c0.1,0,0.3,0,0.5,0.1s0.4,0.2,0.4,0.4c0,0.1,0,0.2-0.1,0.2
		c-0.1,0.1-0.2,0.1-0.2,0.1s-0.1,0-0.3-0.1s-0.4-0.1-0.5-0.1c-0.6,0-1.3,0.6-2,1.8c-0.7,1.1-1,2-1,2.8c0,0.5,0.1,1,0.2,1.3
		c0.2,0.4,0.5,0.6,0.9,0.6s0.8-0.1,1.2-0.4c0.7-0.4,1.3-1.1,1.8-2c0.1-0.2,0.2-0.2,0.3-0.2c0.1,0,0.2,0.1,0.2,0.2s-0.1,0.4-0.4,0.8
		C509.1,66.2,509,66.5,508.9,66.6z"/>
	<path class="st3" d="M510.7,64.4c0.5-1.2,1-1.8,1.5-1.8c0.4,0,0.6,0.2,0.6,0.5c0,0.2,0,0.3-0.2,0.3c-0.1,0-0.1,0-0.1-0.1v-0.1v-0.1
		c0-0.1-0.1-0.1-0.1-0.1c-0.2,0-0.4,0.2-0.7,0.6c-0.3,0.5-0.6,0.9-0.7,1.3s-0.2,0.9-0.2,1.4c0,0,0,0.3,0,0.9c0,0.1,0,0.1-0.1,0.2
		s-0.1,0.1-0.2,0.1c-0.2,0-0.3-0.2-0.3-0.5c0.1-0.8,0.1-1.4,0.1-1.9s0-1.1-0.1-1.8c0-0.1,0-0.2,0.1-0.2s0.1-0.1,0.2-0.1
		s0.2,0.1,0.3,0.2c0,0.1,0.1,0.2,0,0.3C510.7,63.8,510.7,64.2,510.7,64.4z"/>
	<path class="st3" d="M515.3,67.1c-0.4-0.1-0.5-0.6-0.5-1.3c0-0.1,0-0.2,0-0.2c-0.4,0.5-0.8,1-1.2,1.4c-0.6,0.5-1,0.8-1.4,0.8
		c-0.1,0-0.2,0-0.3-0.1c-0.1-0.1-0.2-0.3-0.2-0.5c0-0.5,0.3-1.1,0.8-1.9s1-1.4,1.6-1.9s1.1-0.7,1.4-0.5c0.1,0.1,0.2,0.3,0.2,0.6
		c0,0.4-0.1,0.5-0.4,0.6c-0.2,0-0.3,0-0.3-0.2c0,0,0,0,0-0.1c0.1-0.2,0.1-0.3,0.1-0.5c0-0.1,0-0.1,0-0.1c-0.4,0.1-1,0.7-1.8,1.7
		c-0.8,1.1-1.3,1.9-1.3,2.3c0,0.1,0.1,0.2,0.2,0.2c0.3,0,0.9-0.4,1.6-1.3c0.5-0.6,0.8-0.9,0.8-1c0.2-0.3,0.3-0.6,0.4-0.8
		c0-0.2,0.1-0.3,0.3-0.3s0.3,0.1,0.3,0.3c-0.2,1-0.3,1.6-0.3,1.8c0,0.4,0.1,0.6,0.3,0.7c0.1,0,0.1,0,0.2,0c0.1,0,0.1-0.1,0.1-0.1
		c0-0.2,0.1-0.2,0.3-0.2c0.1,0,0.1,0,0.1,0.1c0,0,0,0.1,0,0.2c-0.1,0.3-0.3,0.4-0.6,0.4C515.5,67.1,515.4,67.1,515.3,67.1z"/>
	<path class="st3" d="M519.6,63.5c0,0-0.1,0-0.2-0.1s-0.2-0.1-0.3-0.1c-0.3,0-0.6,0.2-1.1,0.6c-0.5,0.4-0.7,0.8-0.7,1.1
		c0,0.2,0.3,0.2,0.8,0.2c1.1,0,1.6,0.3,1.6,0.9c0,0.4-0.2,0.8-0.7,1.1c-0.4,0.3-0.9,0.5-1.3,0.5c-0.2,0-0.4-0.1-0.5-0.2
		c-0.2-0.1-0.3-0.3-0.3-0.5c0-0.1,0-0.2,0.1-0.3c0.1-0.1,0.2-0.2,0.3-0.2h0.1c0,0.1,0,0.2-0.1,0.3v0.1c0,0.2,0.1,0.3,0.3,0.3
		c0.3,0,0.7-0.1,1.1-0.3c0.5-0.2,0.7-0.5,0.7-0.7s-0.1-0.3-0.2-0.4c-0.1-0.1-0.3-0.1-0.4-0.1h-1.1c-0.2,0-0.4,0-0.5-0.1
		c-0.2-0.1-0.3-0.2-0.3-0.4c0-0.4,0.3-0.9,0.9-1.4c0.6-0.6,1.1-0.9,1.5-0.9c0.1,0,0.3,0,0.4,0.1c0.2,0.1,0.3,0.2,0.3,0.4
		C519.8,63.4,519.7,63.5,519.6,63.5z"/>
	<path class="st3" d="M526.9,63.4L526.9,63.4c-0.2,0-0.6,0.5-1,1.4c-0.3,0.7-0.6,1.3-0.8,2c-0.2,0.5-0.4,0.7-0.5,0.7
		s-0.3-0.2-0.4-0.6c-0.1-0.3-0.2-0.7-0.5-1.4c-0.1-0.3-0.3-0.6-0.5-1.1c-0.1-0.2-0.3-0.5-0.4-0.7v-0.1c0-0.1,0-0.1,0.1-0.2
		c0.1,0,0.1-0.1,0.2-0.1c0.1,0,0.4,0.4,0.7,1.2c0,0,0.2,0.6,0.6,1.7c0.1,0.3,0.2,0.5,0.2,0.5l0.2-0.5c0.4-1,0.7-1.6,0.8-1.9
		c0.4-0.8,0.9-1.3,1.3-1.3c0.2,0,0.3,0.1,0.3,0.2C527.2,63.3,527.1,63.4,526.9,63.4C527,63.4,527,63.4,526.9,63.4z"/>
	<path class="st3" d="M527.3,65.3c-0.1,0.1-0.1,0.2-0.2,0.6s-0.1,0.6-0.1,0.8c0,0.3,0.2,0.4,0.6,0.4c0.4,0,0.8-0.2,1.3-0.7
		c0.5-0.4,0.8-0.9,1-1.3h0.2c0.1,0.1,0.1,0.1,0.1,0.2c-0.2,0.6-0.6,1.2-1.1,1.6s-1,0.6-1.5,0.6c-0.4,0-0.6-0.1-0.8-0.4
		c-0.2-0.2-0.3-0.6-0.2-1c0-0.6,0.3-1.3,0.9-2.1c0.6-0.9,1.2-1.4,1.7-1.4c0.2,0,0.3,0.1,0.4,0.2c0.1,0.1,0.1,0.2,0.1,0.4
		c0,0.4-0.2,0.8-0.5,1.3c-0.4,0.6-0.8,0.9-1.3,0.9C527.7,65.5,527.5,65.5,527.3,65.3L527.3,65.3z M529.1,63.1
		c-0.1,0-0.3,0.1-0.4,0.3c-0.8,0.9-1.2,1.5-1.2,1.6c0,0,0.1,0.1,0.3,0.1c0.3,0,0.6-0.2,1-0.6c0.3-0.4,0.5-0.8,0.5-1.2
		C529.3,63.2,529.2,63.1,529.1,63.1z"/>
	<path class="st3" d="M531,65.7c0-0.2,0-0.3,0-0.5c0-1,0.1-2,0.2-3c0.1-1.1,0.3-1.7,0.4-1.7c0.2,0,0.3,0.1,0.3,0.3c0,0,0,0.1,0,0.2
		l-0.1,0.4c-0.1,0.4-0.1,0.7-0.1,0.9c-0.1,0.9-0.2,1.9-0.2,3.1c0,1.4,0.2,2.1,0.7,2.1c0.1,0,0.2,0,0.2-0.1h0.1l0.1,0.1l0,0v0.1
		c-0.1,0.2-0.3,0.2-0.5,0.2c-0.3,0-0.5-0.2-0.8-0.5C531.2,66.9,531.1,66.4,531,65.7z"/>
	<path class="st3" d="M539.8,63.4L539.8,63.4c-0.2,0-0.6,0.5-1,1.4c-0.3,0.7-0.6,1.3-0.8,2c-0.2,0.5-0.4,0.7-0.5,0.7
		s-0.3-0.2-0.4-0.6c-0.1-0.3-0.2-0.7-0.5-1.4c-0.1-0.3-0.3-0.6-0.5-1.1c-0.1-0.2-0.3-0.5-0.4-0.7v-0.1c0-0.1,0-0.1,0.1-0.2
		c0.1,0,0.1-0.1,0.2-0.1c0.1,0,0.4,0.4,0.7,1.2c0,0,0.2,0.6,0.6,1.7c0.1,0.3,0.2,0.5,0.2,0.5l0.2-0.5c0.4-1,0.7-1.6,0.8-1.9
		c0.4-0.8,0.9-1.3,1.3-1.3c0.2,0,0.3,0.1,0.3,0.2C540,63.3,540,63.4,539.8,63.4C539.9,63.4,539.8,63.4,539.8,63.4z"/>
	<path class="st3" d="M542.7,65c-0.4,0.9-0.7,1.4-0.8,1.6c-0.4,0.6-0.8,0.9-1.3,0.9c-0.4,0-0.5-0.4-0.5-1.1c0-0.2,0.1-0.8,0.3-1.7
		c0.3-1,0.5-1.5,0.6-1.6c0.1,0,0.2,0,0.2,0.1c0.1,0.1,0.1,0.1,0.1,0.2v0.1l-0.1,0.3c-0.5,1.3-0.7,2.2-0.7,2.7c0,0.3,0.1,0.5,0.2,0.5
		c0.1,0,0.4-0.2,0.6-0.5c0.3-0.4,0.6-0.9,0.9-1.5c0.3-0.7,0.5-1.2,0.5-1.5c0-0.1,0-0.2,0.1-0.3s0.2-0.2,0.3-0.2
		c0.2,0,0.3,0.1,0.3,0.3c0,0,0,0.2-0.1,0.6c-0.1,0.3-0.1,0.7-0.1,1c0,1.2,0.2,1.8,0.6,1.8c0.1,0,0.2-0.1,0.3-0.2
		c0,0,0.1-0.1,0.2-0.2c0.1,0.1,0.1,0.1,0.1,0.2s-0.1,0.3-0.3,0.4s-0.3,0.1-0.4,0.1C543.1,67,542.8,66.4,542.7,65L542.7,65z"/>
	<path class="st3" d="M545.1,65.7c0-0.2,0-0.3,0-0.5c0-1,0.1-2,0.2-3c0.1-1.1,0.3-1.7,0.4-1.7c0.2,0,0.3,0.1,0.3,0.3
		c0,0,0,0.1,0,0.2l-0.1,0.4c-0.1,0.4-0.1,0.7-0.1,0.9c-0.1,0.9-0.2,1.9-0.2,3.1c0,1.4,0.2,2.1,0.7,2.1c0.1,0,0.2,0,0.2-0.1h0.1
		l0.1,0.1l0,0v0.1c-0.1,0.2-0.3,0.2-0.5,0.2c-0.3,0-0.5-0.2-0.8-0.5C545.2,66.9,545.1,66.4,545.1,65.7z"/>
	<path class="st3" d="M548.2,64.7c0.8-1.1,1.6-1.7,2.3-1.7c0.5,0,0.8,0.4,0.8,1.1c0,0.6-0.3,1.3-0.8,2c-0.6,0.8-1.1,1.1-1.6,1.1
		c-0.4,0-0.6-0.2-0.6-0.6c0-0.1,0-0.3,0.1-0.5h0.2c0,0.1,0,0.2,0,0.2c0,0.1,0,0.2,0,0.2c0,0.1,0.1,0.1,0.2,0.1c0.5,0,1-0.4,1.4-1.2
		c0.4-0.7,0.6-1.2,0.6-1.7c0-0.4-0.1-0.6-0.3-0.6c-0.4,0-0.9,0.3-1.4,1c-0.5,0.6-0.8,1.1-0.9,1.5c-0.1,0.7-0.2,1.5-0.2,2.4
		c0,1.3,0.2,1.9,0.6,1.9c0,0,0,0,0.1,0s0.1,0,0.3-0.1V70c0,0.1-0.1,0.1-0.2,0.2c-0.1,0-0.2,0.1-0.2,0.1c-0.3,0-0.6-0.3-0.7-0.7
		c-0.1-0.3-0.2-0.7-0.2-1.2c0-0.2,0-0.4,0-0.7c0-0.8,0.1-2.2,0.3-4.3c0.1-0.6,0.2-0.8,0.5-0.8c0.2,0,0.3,0.1,0.3,0.3c0,0,0,0,0,0.1
		L548.2,64.7z"/>
	<path class="st3" d="M554.4,65c-0.4,0.9-0.7,1.4-0.8,1.6c-0.4,0.6-0.8,0.9-1.3,0.9c-0.4,0-0.5-0.4-0.5-1.1c0-0.2,0.1-0.8,0.3-1.7
		c0.3-1,0.5-1.5,0.6-1.6c0.1,0,0.2,0,0.2,0.1c0.1,0.1,0.1,0.1,0.1,0.2v0.1l-0.1,0.3c-0.5,1.3-0.7,2.2-0.7,2.7c0,0.3,0.1,0.5,0.2,0.5
		c0.1,0,0.4-0.2,0.6-0.5c0.3-0.4,0.6-0.9,0.9-1.5c0.3-0.7,0.5-1.2,0.5-1.5c0-0.1,0-0.2,0.1-0.3s0.2-0.2,0.3-0.2
		c0.2,0,0.3,0.1,0.3,0.3c0,0,0,0.2-0.1,0.6c-0.1,0.3-0.1,0.7-0.1,1c0,1.2,0.2,1.8,0.6,1.8c0.1,0,0.2-0.1,0.3-0.2
		c0,0,0.1-0.1,0.2-0.2c0.1,0.1,0.1,0.1,0.1,0.2s-0.1,0.3-0.3,0.4s-0.3,0.1-0.4,0.1C554.8,67,554.5,66.4,554.4,65L554.4,65z"/>
	<path class="st3" d="M557.5,63.8c0.2,0,0.4-0.1,0.6-0.1c0.1,0,0.2,0,0.4,0.1s0.3,0.2,0.3,0.4v0.1l0,0l0,0c0,0-0.1,0,0,0l0,0
		c0,0,0,0-0.1,0c0,0-0.1,0-0.1-0.1c-0.1-0.2-0.2-0.3-0.4-0.3c-0.1,0-0.1,0-0.2,0c-0.2,0-0.3,0.1-0.5,0.2c0,0,0,0,0,0.1
		c0,0.4-0.1,0.8,0,1.4c0,1,0.3,1.5,0.7,1.5c0.1,0,0.2-0.1,0.3-0.2s0.2-0.2,0.2-0.2c0.1,0,0.2,0.1,0.2,0.2s-0.1,0.3-0.3,0.4
		s-0.3,0.1-0.4,0.1c-0.3,0-0.6-0.2-0.8-0.6c-0.1-0.3-0.2-0.6-0.3-0.9c-0.1-0.6-0.1-1.2,0-1.7c-0.2,0.1-0.5,0.2-0.8,0.4h-0.1
		c-0.1,0-0.2-0.1-0.2-0.3c0-0.1,0.3-0.3,0.9-0.6h0.1c0-0.3,0.1-0.6,0.1-1.2c0.1-0.5,0.2-0.8,0.4-0.8s0.3,0.1,0.3,0.3L557.5,63.8z"/>
	<path class="st3" d="M563,67.1c-0.4-0.1-0.5-0.6-0.5-1.3c0-0.1,0-0.2,0-0.2c-0.4,0.5-0.8,1-1.2,1.4c-0.6,0.5-1,0.8-1.4,0.8
		c-0.1,0-0.2,0-0.3-0.1s-0.2-0.3-0.2-0.5c0-0.5,0.3-1.1,0.8-1.9s1-1.4,1.6-1.9s1.1-0.7,1.4-0.5c0.1,0.1,0.2,0.3,0.2,0.6
		c0,0.4-0.1,0.5-0.4,0.6c-0.2,0-0.3,0-0.3-0.2c0,0,0,0,0-0.1c0.1-0.2,0.1-0.3,0.1-0.5c0-0.1,0-0.1,0-0.1c-0.4,0.1-1,0.7-1.8,1.7
		c-0.8,1.1-1.3,1.9-1.3,2.3c0,0.1,0.1,0.2,0.2,0.2c0.3,0,0.9-0.4,1.6-1.3c0.5-0.6,0.8-0.9,0.8-1c0.2-0.3,0.3-0.6,0.4-0.8
		c0-0.2,0.1-0.3,0.3-0.3s0.3,0.1,0.3,0.3c-0.2,1-0.3,1.6-0.3,1.8c0,0.4,0.1,0.6,0.3,0.7c0.1,0,0.1,0,0.2,0c0.1,0,0.1-0.1,0.1-0.1
		c0-0.2,0.1-0.2,0.3-0.2c0.1,0,0.1,0,0.1,0.1c0,0,0,0.1,0,0.2c-0.1,0.3-0.3,0.4-0.6,0.4C563.2,67.1,563.1,67.1,563,67.1z"/>
	<path class="st3" d="M565.6,63.8c0.2,0,0.4-0.1,0.6-0.1c0.1,0,0.2,0,0.4,0.1s0.3,0.2,0.3,0.4v0.1l0,0l0,0c0,0-0.1,0,0,0l0,0
		c0,0,0,0-0.1,0c0,0-0.1,0-0.1-0.1c-0.1-0.2-0.2-0.3-0.4-0.3c-0.1,0-0.1,0-0.2,0c-0.2,0-0.3,0.1-0.5,0.2c0,0,0,0,0,0.1
		c0,0.4-0.1,0.8,0,1.4c0,1,0.3,1.5,0.7,1.5c0.1,0,0.2-0.1,0.3-0.2s0.2-0.2,0.2-0.2c0.1,0,0.2,0.1,0.2,0.2s-0.1,0.3-0.3,0.4
		s-0.3,0.1-0.4,0.1c-0.3,0-0.6-0.2-0.8-0.6c-0.1-0.3-0.2-0.6-0.3-0.9c-0.1-0.6-0.1-1.2,0-1.7c-0.2,0.1-0.5,0.2-0.8,0.4h-0.1
		c-0.1,0-0.2-0.1-0.2-0.3c0-0.1,0.3-0.3,0.9-0.6h0.1c0-0.3,0.1-0.6,0.1-1.2c0.1-0.5,0.2-0.8,0.4-0.8s0.3,0.1,0.3,0.3L565.6,63.8z"/>
	<path class="st3" d="M568.3,65.3c-0.1,0.1-0.1,0.2-0.2,0.6s-0.1,0.6-0.1,0.8c0,0.3,0.2,0.4,0.6,0.4c0.4,0,0.8-0.2,1.3-0.7
		c0.5-0.4,0.8-0.9,1-1.3h0.2c0.1,0.1,0.1,0.1,0.1,0.2c-0.2,0.6-0.6,1.2-1.1,1.6s-1,0.6-1.5,0.6c-0.4,0-0.6-0.1-0.8-0.4
		c-0.2-0.2-0.3-0.6-0.2-1c0-0.6,0.3-1.3,0.9-2.1c0.6-0.9,1.2-1.4,1.7-1.4c0.2,0,0.3,0.1,0.4,0.2c0.1,0.1,0.1,0.2,0.1,0.4
		c0,0.4-0.2,0.8-0.5,1.3c-0.4,0.6-0.8,0.9-1.3,0.9C568.6,65.5,568.4,65.5,568.3,65.3L568.3,65.3z M570,63.1c-0.1,0-0.3,0.1-0.4,0.3
		c-0.8,0.9-1.2,1.5-1.2,1.6c0,0,0.1,0.1,0.3,0.1c0.3,0,0.6-0.2,1-0.6c0.3-0.4,0.5-0.8,0.5-1.2C570.2,63.2,570.1,63.1,570,63.1z"/>
	<path class="st3" d="M574.9,65.3c-0.1,0.1-0.1,0.2-0.2,0.6s-0.1,0.6-0.1,0.8c0,0.3,0.2,0.4,0.6,0.4c0.4,0,0.8-0.2,1.3-0.7
		c0.5-0.4,0.8-0.9,1-1.3h0.2c0.1,0.1,0.1,0.1,0.1,0.2c-0.2,0.6-0.6,1.2-1.1,1.6s-1,0.6-1.5,0.6c-0.4,0-0.6-0.1-0.8-0.4
		c-0.2-0.2-0.3-0.6-0.2-1c0-0.6,0.3-1.3,0.9-2.1c0.6-0.9,1.2-1.4,1.7-1.4c0.2,0,0.3,0.1,0.4,0.2c0.1,0.1,0.1,0.2,0.1,0.4
		c0,0.4-0.2,0.8-0.5,1.3c-0.4,0.6-0.8,0.9-1.3,0.9C575.3,65.5,575.1,65.5,574.9,65.3L574.9,65.3z M576.7,63.1
		c-0.1,0-0.3,0.1-0.4,0.3c-0.8,0.9-1.2,1.5-1.2,1.6c0,0,0.1,0.1,0.3,0.1c0.3,0,0.6-0.2,1-0.6c0.3-0.4,0.5-0.8,0.5-1.2
		C576.9,63.2,576.8,63.1,576.7,63.1z"/>
	<path class="st3" d="M581.3,63.5c0,0-0.1,0-0.2-0.1s-0.2-0.1-0.3-0.1c-0.3,0-0.6,0.2-1.1,0.6c-0.5,0.4-0.7,0.8-0.7,1.1
		c0,0.2,0.3,0.2,0.8,0.2c1.1,0,1.6,0.3,1.6,0.9c0,0.4-0.2,0.8-0.7,1.1c-0.4,0.3-0.9,0.5-1.3,0.5c-0.2,0-0.4-0.1-0.5-0.2
		c-0.2-0.1-0.3-0.3-0.3-0.5c0-0.1,0-0.2,0.1-0.3c0.1-0.1,0.2-0.2,0.3-0.2h0.1c0,0.1,0,0.2-0.1,0.3v0.1c0,0.2,0.1,0.3,0.3,0.3
		c0.3,0,0.7-0.1,1.1-0.3c0.5-0.2,0.7-0.5,0.7-0.7s-0.1-0.3-0.2-0.4c-0.1-0.1-0.3-0.1-0.4-0.1h-1.1c-0.2,0-0.4,0-0.5-0.1
		c-0.2-0.1-0.3-0.2-0.3-0.4c0-0.4,0.3-0.9,0.9-1.4c0.6-0.6,1.1-0.9,1.5-0.9c0.1,0,0.3,0,0.4,0.1c0.2,0.1,0.3,0.2,0.3,0.4
		C581.5,63.4,581.5,63.5,581.3,63.5z"/>
	<path class="st3" d="M582.9,63.8c0.2,0,0.4-0.1,0.6-0.1c0.1,0,0.2,0,0.4,0.1s0.3,0.2,0.3,0.4v0.1l0,0l0,0c0,0-0.1,0,0,0l0,0
		c0,0,0,0-0.1,0c0,0-0.1,0-0.1-0.1c-0.1-0.2-0.2-0.3-0.4-0.3c-0.1,0-0.1,0-0.2,0c-0.2,0-0.3,0.1-0.5,0.2c0,0,0,0,0,0.1
		c0,0.4-0.1,0.8,0,1.4c0,1,0.3,1.5,0.7,1.5c0.1,0,0.2-0.1,0.3-0.2s0.2-0.2,0.2-0.2c0.1,0,0.2,0.1,0.2,0.2s-0.1,0.3-0.3,0.4
		s-0.3,0.1-0.4,0.1c-0.3,0-0.6-0.2-0.8-0.6c-0.1-0.3-0.2-0.6-0.3-0.9c-0.1-0.6-0.1-1.2,0-1.7c-0.2,0.1-0.5,0.2-0.8,0.4h-0.1
		c-0.1,0-0.2-0.1-0.2-0.3c0-0.1,0.3-0.3,0.9-0.6h0.1c0-0.3,0.1-0.6,0.1-1.2c0.1-0.5,0.2-0.8,0.4-0.8s0.3,0.1,0.3,0.3L582.9,63.8z"/>
</g>
<g>
	<path class="st20" d="M263.8,178.2c13-17.1,15.3-47.4,15.3-47.4"/>
	<polyline class="st21" points="261.4,172.1 263.3,178.9 270.2,177 	"/>
</g>
<g class="st22">
	<path class="st1" d="M232.2,118.8c-0.1,0-0.2-0.1-0.3-0.2s-0.3-0.2-0.4-0.2c-0.5,0-0.9,0.4-1.4,1.3c-0.4,0.8-0.6,1.4-0.6,1.8
		c0,0.5,0.2,0.7,0.6,0.7c0.4,0,0.8-0.1,1.2-0.4c0.4-0.2,0.7-0.6,0.9-1l0.1-0.1c0,0,0.1,0,0.1,0.1s0.1,0.1,0,0.1
		c0,0.1-0.2,0.4-0.6,0.8c-0.4,0.4-0.6,0.6-0.7,0.6c-0.4,0.2-0.6,0.3-0.7,0.3h-0.1c-0.1,0-0.1,0-0.1,0c-0.4,0-0.7-0.1-0.9-0.4
		c-0.2-0.2-0.3-0.5-0.3-0.9c0-0.6,0.3-1.2,0.8-2c0.6-0.9,1.2-1.4,1.8-1.4c0.1,0,0.3,0,0.5,0.1c0.3,0.1,0.4,0.3,0.4,0.4
		s0,0.1-0.1,0.2C232.3,118.8,232.2,118.8,232.2,118.8z"/>
	<path class="st1" d="M234.1,122.7c-0.3,0-0.6-0.1-0.8-0.3c-0.2-0.2-0.3-0.5-0.3-0.9c0-0.6,0.1-1.2,0.4-1.9c0.3-0.7,0.5-1,0.8-1
		c0.2,0,0.3,0.1,0.3,0.3c0,0.1-0.1,0.2-0.2,0.3c-0.6,0.8-0.9,1.5-0.9,2.2c0,0.6,0.1,0.9,0.4,0.9c0.4,0,0.9-0.4,1.3-1.2
		c0.4-0.7,0.6-1.3,0.6-1.7c0-0.6-0.2-0.9-0.5-0.9c-0.2,0-0.5,0.1-0.8,0.4l-0.1-0.1c-0.1,0-0.1-0.1-0.1-0.1c0-0.1,0.1-0.3,0.4-0.4
		c0.2-0.1,0.4-0.2,0.5-0.2c0.6,0,0.9,0.5,1,1.4c0,0.5-0.2,1.1-0.6,1.8C235.2,122.2,234.6,122.7,234.1,122.7z"/>
	<path class="st1" d="M237.5,120.8l0.1-0.2c0.8-1.4,1.4-2.1,1.7-2.1s0.5,0.2,0.6,0.7c0,0.4,0.1,0.7,0.1,1.1c0.1,0.6,0.1,0.9,0.1,1
		c0.1,0.5,0.2,0.8,0.4,0.8c0.1,0,0.2-0.1,0.3-0.2l0.2,0.1c0,0.1-0.1,0.3-0.2,0.4c-0.1,0.1-0.2,0.1-0.3,0.1c-0.5,0-0.9-0.6-1-1.9
		c0-0.3-0.1-0.7-0.1-1.2c0-0.3-0.1-0.5-0.2-0.5c-0.1,0-0.4,0.4-1,1.2c-0.5,0.8-0.9,1.5-1.1,2.2c-0.1,0.2-0.1,0.3-0.3,0.3
		s-0.2-0.1-0.2-0.3c0-0.1,0.1-0.9,0.4-2.4c0-0.2,0-0.5,0.1-0.8c0-0.3,0.1-0.5,0.3-0.5c0.1,0,0.2,0,0.2,0.1s0,0.2,0.1,0.3
		L237.5,120.8z"/>
	<path class="st1" d="M244.5,118.6c0,0-0.1,0-0.2-0.1c-0.1-0.1-0.2-0.1-0.3-0.1c-0.3,0-0.6,0.2-1.1,0.6s-0.7,0.8-0.7,1.1
		c0,0.2,0.3,0.2,0.8,0.2c1.1,0,1.6,0.3,1.6,0.9c0,0.4-0.2,0.8-0.7,1.1c-0.4,0.3-0.9,0.5-1.3,0.5c-0.2,0-0.4-0.1-0.5-0.2
		c-0.2-0.1-0.3-0.3-0.3-0.5c0-0.1,0-0.2,0.1-0.3c0.1-0.1,0.2-0.2,0.3-0.2h0.1c0,0.1,0,0.2-0.1,0.3v0.1c0,0.2,0.1,0.3,0.3,0.3
		c0.3,0,0.7-0.1,1.1-0.3c0.5-0.2,0.7-0.5,0.7-0.7s-0.1-0.3-0.2-0.4c-0.1-0.1-0.3-0.1-0.4-0.1h-1.1c-0.2,0-0.4,0-0.5-0.1
		c-0.2-0.1-0.3-0.2-0.3-0.4c0-0.4,0.3-0.9,0.9-1.4c0.6-0.6,1.1-0.9,1.5-0.9c0.1,0,0.3,0,0.4,0.1c0.2,0.1,0.3,0.2,0.3,0.4
		C244.7,118.5,244.6,118.6,244.5,118.6z"/>
	<path class="st1" d="M246.1,120.5c-0.1,0.1-0.1,0.2-0.2,0.6s-0.1,0.6-0.1,0.8c0,0.3,0.2,0.4,0.6,0.4c0.4,0,0.8-0.2,1.3-0.7
		c0.5-0.4,0.8-0.9,1-1.3h0.2c0.1,0.1,0.1,0.1,0.1,0.2c-0.2,0.6-0.6,1.2-1.1,1.6s-1,0.6-1.5,0.6c-0.4,0-0.6-0.1-0.8-0.4
		c-0.2-0.2-0.3-0.6-0.2-1c0-0.6,0.3-1.3,0.9-2.1c0.6-0.9,1.2-1.4,1.7-1.4c0.2,0,0.3,0.1,0.4,0.2c0.1,0.1,0.1,0.2,0.1,0.4
		c0,0.4-0.2,0.8-0.5,1.3c-0.4,0.6-0.8,0.9-1.3,0.9C246.4,120.7,246.2,120.6,246.1,120.5L246.1,120.5z M247.8,118.3
		c-0.1,0-0.3,0.1-0.4,0.3c-0.8,0.9-1.2,1.5-1.2,1.6c0,0,0.1,0.1,0.3,0.1c0.3,0,0.6-0.2,1-0.6c0.3-0.4,0.5-0.8,0.5-1.2
		C248,118.3,247.9,118.3,247.8,118.3z"/>
	<path class="st1" d="M252.8,118.8c-0.1,0-0.2-0.1-0.3-0.2s-0.3-0.2-0.4-0.2c-0.5,0-0.9,0.4-1.4,1.3c-0.4,0.8-0.6,1.4-0.6,1.8
		c0,0.5,0.2,0.7,0.6,0.7c0.4,0,0.8-0.1,1.2-0.4c0.4-0.2,0.7-0.6,0.9-1l0.1-0.1c0,0,0.1,0,0.1,0.1s0.1,0.1,0,0.1
		c0,0.1-0.2,0.4-0.6,0.8c-0.4,0.4-0.6,0.6-0.7,0.6c-0.4,0.2-0.6,0.3-0.7,0.3h-0.1c-0.1,0-0.1,0-0.1,0c-0.4,0-0.7-0.1-0.9-0.4
		c-0.2-0.2-0.3-0.5-0.3-0.9c0-0.6,0.3-1.2,0.8-2c0.6-0.9,1.2-1.4,1.8-1.4c0.1,0,0.3,0,0.5,0.1c0.3,0.1,0.4,0.3,0.4,0.4
		s0,0.1-0.1,0.2C252.9,118.8,252.9,118.8,252.8,118.8z"/>
	<path class="st1" d="M254.3,118.9c0.2,0,0.4-0.1,0.6-0.1c0.1,0,0.2,0,0.4,0.1s0.3,0.2,0.3,0.4v0.1l0,0l0,0c0,0-0.1,0,0,0l0,0
		c0,0,0,0-0.1,0c0,0-0.1,0-0.1-0.1c-0.1-0.2-0.2-0.3-0.4-0.3c-0.1,0-0.1,0-0.2,0c-0.2,0-0.3,0.1-0.5,0.2c0,0,0,0,0,0.1
		c0,0.4-0.1,0.8,0,1.4c0,1,0.3,1.5,0.7,1.5c0.1,0,0.2-0.1,0.3-0.2s0.2-0.2,0.2-0.2c0.1,0,0.2,0.1,0.2,0.2s-0.1,0.3-0.3,0.4
		s-0.3,0.1-0.4,0.1c-0.3,0-0.6-0.2-0.8-0.6c-0.1-0.3-0.2-0.6-0.3-0.9c-0.1-0.6-0.1-1.2,0-1.7c-0.2,0.1-0.5,0.2-0.8,0.4H253
		c-0.1,0-0.2-0.1-0.2-0.3c0-0.1,0.3-0.3,0.9-0.6h0.1c0-0.3,0.1-0.6,0.1-1.2c0.1-0.5,0.2-0.8,0.4-0.8s0.3,0.1,0.3,0.3L254.3,118.9z"
		/>
	<path class="st1" d="M257,120.5c-0.1,0.1-0.1,0.2-0.2,0.6s-0.1,0.6-0.1,0.8c0,0.3,0.2,0.4,0.6,0.4s0.8-0.2,1.3-0.7
		c0.5-0.4,0.8-0.9,1-1.3h0.2c0.1,0.1,0.1,0.1,0.1,0.2c-0.2,0.6-0.6,1.2-1.1,1.6s-1,0.6-1.5,0.6c-0.4,0-0.6-0.1-0.8-0.4
		c-0.2-0.2-0.3-0.6-0.2-1c0-0.6,0.3-1.3,0.9-2.1c0.6-0.9,1.2-1.4,1.7-1.4c0.2,0,0.3,0.1,0.4,0.2s0.1,0.2,0.1,0.4
		c0,0.4-0.2,0.8-0.5,1.3c-0.4,0.6-0.8,0.9-1.3,0.9C257.3,120.7,257.1,120.6,257,120.5L257,120.5z M258.7,118.3
		c-0.1,0-0.3,0.1-0.4,0.3c-0.8,0.9-1.2,1.5-1.2,1.6c0,0,0.1,0.1,0.3,0.1c0.3,0,0.6-0.2,1-0.6c0.3-0.4,0.5-0.8,0.5-1.2
		C258.9,118.3,258.9,118.3,258.7,118.3z"/>
	<path class="st1" d="M261.4,118.9c0.2,0,0.4-0.1,0.6-0.1c0.1,0,0.2,0,0.4,0.1c0.2,0.1,0.3,0.2,0.3,0.4v0.1l0,0l0,0c0,0-0.1,0,0,0
		l0,0c0,0,0,0-0.1,0c0,0-0.1,0-0.1-0.1c-0.1-0.2-0.2-0.3-0.4-0.3c-0.1,0-0.1,0-0.2,0c-0.2,0-0.3,0.1-0.5,0.2c0,0,0,0,0,0.1
		c0,0.4-0.1,0.8,0,1.4c0,1,0.3,1.5,0.7,1.5c0.1,0,0.2-0.1,0.3-0.2s0.2-0.2,0.2-0.2c0.1,0,0.2,0.1,0.2,0.2s-0.1,0.3-0.3,0.4
		c-0.2,0.1-0.3,0.1-0.4,0.1c-0.3,0-0.6-0.2-0.8-0.6c-0.1-0.3-0.2-0.6-0.3-0.9c-0.1-0.6-0.1-1.2,0-1.7c-0.2,0.1-0.5,0.2-0.8,0.4h-0.1
		c-0.1,0-0.2-0.1-0.2-0.3c0-0.1,0.3-0.3,0.9-0.6h0.1c0-0.3,0.1-0.6,0.1-1.2c0.1-0.5,0.2-0.8,0.4-0.8c0.2,0,0.3,0.1,0.3,0.3
		L261.4,118.9z"/>
	<path class="st1" d="M266,120.2c-0.4,0.9-0.7,1.4-0.8,1.6c-0.4,0.6-0.8,0.9-1.3,0.9c-0.4,0-0.5-0.4-0.5-1.1c0-0.2,0.1-0.8,0.3-1.7
		c0.3-1,0.5-1.5,0.6-1.6c0.1,0,0.2,0,0.2,0.1c0.1,0.1,0.1,0.1,0.1,0.2v0.1l-0.1,0.3c-0.5,1.3-0.7,2.2-0.7,2.7c0,0.3,0.1,0.5,0.2,0.5
		s0.4-0.2,0.6-0.5c0.3-0.4,0.6-0.9,0.9-1.5c0.3-0.7,0.5-1.2,0.5-1.5c0-0.1,0-0.2,0.1-0.3c0.1-0.1,0.2-0.2,0.3-0.2
		c0.2,0,0.3,0.1,0.3,0.3c0,0,0,0.2-0.1,0.6c-0.1,0.3-0.1,0.7-0.1,1c0,1.2,0.2,1.8,0.6,1.8c0.1,0,0.2-0.1,0.3-0.2
		c0,0,0.1-0.1,0.2-0.2c0.1,0.1,0.1,0.1,0.1,0.2s-0.1,0.3-0.3,0.4c-0.2,0.1-0.3,0.1-0.4,0.1c-0.6,0-0.9-0.6-1-1.9L266,120.2z"/>
	<path class="st1" d="M269,119.6c0.5-1.2,1-1.8,1.5-1.8c0.4,0,0.6,0.2,0.6,0.5c0,0.2,0,0.3-0.2,0.3c-0.1,0-0.1,0-0.1-0.1v-0.1v-0.1
		c0-0.1-0.1-0.1-0.1-0.1c-0.2,0-0.4,0.2-0.7,0.6c-0.3,0.5-0.6,0.9-0.7,1.3s-0.2,0.9-0.2,1.4c0,0,0,0.3,0,0.9c0,0.1,0,0.1-0.1,0.2
		s-0.1,0.1-0.2,0.1c-0.2,0-0.3-0.2-0.3-0.5c0.1-0.8,0.1-1.4,0.1-1.9s0-1.1-0.1-1.8c0-0.1,0-0.2,0.1-0.2s0.1-0.1,0.2-0.1
		s0.2,0.1,0.3,0.2c0,0.1,0.1,0.2,0,0.3C269,119,269,119.3,269,119.6z"/>
	<path class="st1" d="M278.1,122.2c-0.4-0.1-0.5-0.6-0.5-1.3c0-0.1,0-0.2,0-0.2c-0.4,0.5-0.8,1-1.2,1.4c-0.6,0.5-1,0.8-1.4,0.8
		c-0.1,0-0.2,0-0.3-0.1c-0.1-0.1-0.2-0.3-0.2-0.5c0-0.5,0.3-1.1,0.8-1.9s1-1.4,1.6-1.9s1.1-0.7,1.4-0.5c0.1,0.1,0.2,0.3,0.2,0.6
		c0,0.4-0.1,0.5-0.4,0.6c-0.2,0-0.3,0-0.3-0.2c0,0,0,0,0-0.1c0.1-0.2,0.1-0.3,0.1-0.5c0-0.1,0-0.1,0-0.1c-0.4,0.1-1,0.7-1.8,1.7
		c-0.8,1.1-1.3,1.9-1.3,2.3c0,0.1,0.1,0.2,0.2,0.2c0.3,0,0.9-0.4,1.6-1.3c0.5-0.6,0.8-0.9,0.8-1c0.2-0.3,0.3-0.6,0.4-0.8
		c0-0.2,0.1-0.3,0.3-0.3c0.2,0,0.3,0.1,0.3,0.3c-0.2,1-0.3,1.6-0.3,1.8c0,0.4,0.1,0.6,0.3,0.7c0.1,0,0.1,0,0.2,0s0.1-0.1,0.1-0.1
		c0-0.2,0.1-0.2,0.3-0.2c0.1,0,0.1,0,0.1,0.1c0,0,0,0.1,0,0.2c-0.1,0.3-0.3,0.4-0.6,0.4C278.2,122.3,278.2,122.3,278.1,122.2z"/>
	<path class="st1" d="M283.1,120.4l-0.2,0.3c-1.2,1.5-2.1,2.3-2.7,2.3h-0.1c-0.4,0-0.6-0.2-0.6-0.6c0-0.3,0.2-0.8,0.5-1.5
		c0.4-0.7,0.8-1.3,1.2-1.8c0.5-0.6,1-0.9,1.5-0.9c0.2,0,0.4,0.1,0.5,0.2c0.1-0.4,0.2-1,0.3-1.8c0.1-0.8,0.3-1.1,0.5-1.1
		c0.1,0,0.1,0,0.2,0.1s0.1,0.1,0.1,0.2c0,0,0,0.2-0.1,0.5c-0.5,1.7-0.7,3.2-0.7,4.8c0,0.9,0.1,1.3,0.4,1.3c0,0,0,0,0.1,0
		c0,0,0.1-0.1,0.2-0.1c0.1,0.1,0.1,0.1,0.1,0.2s-0.1,0.2-0.2,0.2c-0.1,0.1-0.2,0.1-0.3,0.1c-0.6,0-0.8-0.6-0.8-1.9
		C283.1,120.7,283.1,120.5,283.1,120.4z M282.8,118.6c-0.4-0.1-1,0.4-1.8,1.5c-0.7,1-1.1,1.8-1.1,2.2c0,0.1,0,0.2,0.1,0.2
		c0.3,0,0.9-0.4,1.7-1.2c0.7-0.7,1.1-1.2,1.3-1.5c0.1-0.2,0.1-0.4,0.1-0.6c0-0.1,0-0.2-0.1-0.3C283,118.7,282.9,118.6,282.8,118.6z"
		/>
	<path class="st1" d="M286,122.8c-0.4,0-0.6-0.3-0.8-0.8c-0.1-0.4-0.2-0.8-0.2-1.1c0-0.3,0-0.8,0.1-1.3c0.1-0.7,0.3-1.1,0.5-1.1
		s0.3,0.1,0.3,0.3c0,0.1-0.1,0.3-0.2,0.5c-0.1,0.3-0.2,0.7-0.2,1.4c0,0.3,0,0.5,0,0.6c0,0.2,0.1,0.5,0.1,0.7
		c0.1,0.3,0.2,0.5,0.4,0.5h0.1c0.1-0.1,0.1-0.1,0.2-0.2c0.1,0.1,0.1,0.1,0.1,0.2s-0.1,0.2-0.2,0.3C286.1,122.8,286,122.8,286,122.8z
		 M285.6,117.2c-0.1,0-0.2,0-0.2-0.1s-0.1-0.1-0.1-0.2s0-0.2,0.1-0.2s0.1-0.1,0.2-0.1c0.2,0,0.3,0.1,0.3,0.3
		C285.9,117.1,285.8,117.2,285.6,117.2z"/>
	<path class="st1" d="M288,119.8c0.8-1.1,1.6-1.7,2.3-1.7c0.5,0,0.8,0.4,0.8,1.1c0,0.6-0.3,1.3-0.8,2c-0.6,0.8-1.1,1.1-1.6,1.1
		c-0.4,0-0.6-0.2-0.6-0.6c0-0.1,0-0.3,0.1-0.5h0.2c0,0.1,0,0.2,0,0.2c0,0.1,0,0.2,0,0.2c0,0.1,0.1,0.1,0.2,0.1c0.5,0,1-0.4,1.4-1.2
		c0.4-0.7,0.6-1.2,0.6-1.7c0-0.4-0.1-0.6-0.3-0.6c-0.4,0-0.9,0.3-1.4,1c-0.5,0.6-0.8,1.1-0.9,1.5c-0.1,0.7-0.2,1.5-0.2,2.4
		c0,1.3,0.2,1.9,0.6,1.9c0,0,0,0,0.1,0s0.1,0,0.3-0.1v0.2c0,0.1-0.1,0.1-0.2,0.2c-0.1,0-0.2,0.1-0.2,0.1c-0.3,0-0.6-0.3-0.7-0.7
		c-0.1-0.3-0.2-0.7-0.2-1.2c0-0.2,0-0.4,0-0.7c0-0.8,0.1-2.2,0.3-4.3c0.1-0.6,0.2-0.8,0.5-0.8c0.2,0,0.3,0.1,0.3,0.3c0,0,0,0,0,0.1
		L288,119.8z"/>
	<path class="st1" d="M292.7,122.8c-0.4,0-0.6-0.3-0.8-0.8c-0.1-0.4-0.2-0.8-0.2-1.1c0-0.3,0-0.8,0.1-1.3c0.1-0.7,0.3-1.1,0.5-1.1
		s0.3,0.1,0.3,0.3c0,0.1-0.1,0.3-0.2,0.5c-0.1,0.3-0.2,0.7-0.2,1.4c0,0.3,0,0.5,0,0.6c0,0.2,0.1,0.5,0.1,0.7
		c0.1,0.3,0.2,0.5,0.4,0.5h0.1c0.1-0.1,0.1-0.1,0.2-0.2c0.1,0.1,0.1,0.1,0.1,0.2s-0.1,0.2-0.2,0.3
		C292.9,122.8,292.8,122.8,292.7,122.8z M292.4,117.2c-0.1,0-0.2,0-0.2-0.1s-0.1-0.1-0.1-0.2s0-0.2,0.1-0.2s0.1-0.1,0.2-0.1
		c0.2,0,0.3,0.1,0.3,0.3C292.7,117.1,292.6,117.2,292.4,117.2z"/>
	<path class="st1" d="M296.5,118.6c0,0-0.1,0-0.2-0.1s-0.2-0.1-0.3-0.1c-0.3,0-0.6,0.2-1.1,0.6s-0.7,0.8-0.7,1.1
		c0,0.2,0.3,0.2,0.8,0.2c1.1,0,1.6,0.3,1.6,0.9c0,0.4-0.2,0.8-0.7,1.1c-0.4,0.3-0.9,0.5-1.3,0.5c-0.2,0-0.4-0.1-0.5-0.2
		c-0.2-0.1-0.3-0.3-0.3-0.5c0-0.1,0-0.2,0.1-0.3c0.1-0.1,0.2-0.2,0.3-0.2h0.1c0,0.1,0,0.2-0.1,0.3v0.1c0,0.2,0.1,0.3,0.3,0.3
		c0.3,0,0.7-0.1,1.1-0.3c0.5-0.2,0.7-0.5,0.7-0.7s-0.1-0.3-0.2-0.4s-0.3-0.1-0.4-0.1h-1.1c-0.2,0-0.4,0-0.5-0.1
		c-0.2-0.1-0.3-0.2-0.3-0.4c0-0.4,0.3-0.9,0.9-1.4c0.6-0.6,1.1-0.9,1.5-0.9c0.1,0,0.3,0,0.4,0.1c0.2,0.1,0.3,0.2,0.3,0.4
		C296.7,118.5,296.6,118.6,296.5,118.6z"/>
	<path class="st1" d="M300.6,118.8c-0.1,0-0.2-0.1-0.3-0.2c-0.1-0.1-0.3-0.2-0.4-0.2c-0.5,0-0.9,0.4-1.4,1.3
		c-0.4,0.8-0.6,1.4-0.6,1.8c0,0.5,0.2,0.7,0.6,0.7s0.8-0.1,1.2-0.4c0.4-0.2,0.7-0.6,0.9-1l0.1-0.1c0,0,0.1,0,0.1,0.1s0.1,0.1,0,0.1
		c0,0.1-0.2,0.4-0.6,0.8s-0.6,0.6-0.7,0.6c-0.4,0.2-0.6,0.3-0.7,0.3h-0.1c-0.1,0-0.1,0-0.1,0c-0.4,0-0.7-0.1-0.9-0.4
		c-0.2-0.2-0.3-0.5-0.3-0.9c0-0.6,0.3-1.2,0.8-2c0.6-0.9,1.2-1.4,1.8-1.4c0.1,0,0.3,0,0.5,0.1c0.3,0.1,0.4,0.3,0.4,0.4
		s0,0.1-0.1,0.2C300.7,118.8,300.6,118.8,300.6,118.8z"/>
	<path class="st1" d="M302.4,122.8c-0.4,0-0.6-0.3-0.8-0.8c-0.1-0.4-0.2-0.8-0.2-1.1c0-0.3,0-0.8,0.1-1.3c0.1-0.7,0.3-1.1,0.5-1.1
		s0.3,0.1,0.3,0.3c0,0.1-0.1,0.3-0.2,0.5c-0.1,0.3-0.2,0.7-0.2,1.4c0,0.3,0,0.5,0,0.6c0,0.2,0.1,0.5,0.1,0.7
		c0.1,0.3,0.2,0.5,0.4,0.5h0.1c0.1-0.1,0.1-0.1,0.2-0.2c0.1,0.1,0.1,0.1,0.1,0.2s-0.1,0.2-0.2,0.3
		C302.6,122.8,302.5,122.8,302.4,122.8z M302.1,117.2c-0.1,0-0.2,0-0.2-0.1s-0.1-0.1-0.1-0.2s0-0.2,0.1-0.2s0.1-0.1,0.2-0.1
		c0.2,0,0.3,0.1,0.3,0.3C302.4,117.1,302.3,117.2,302.1,117.2z"/>
	<path class="st1" d="M304.4,120.8l0.1-0.2c0.8-1.4,1.4-2.1,1.7-2.1c0.3,0,0.5,0.2,0.6,0.7c0,0.4,0.1,0.7,0.1,1.1
		c0.1,0.6,0.1,0.9,0.1,1c0.1,0.5,0.2,0.8,0.4,0.8c0.1,0,0.2-0.1,0.3-0.2l0.2,0.1c0,0.1-0.1,0.3-0.2,0.4s-0.2,0.1-0.3,0.1
		c-0.5,0-0.9-0.6-1-1.9c0-0.3-0.1-0.7-0.1-1.2c0-0.3-0.1-0.5-0.2-0.5s-0.4,0.4-1,1.2c-0.5,0.8-0.9,1.5-1.1,2.2
		c-0.1,0.2-0.1,0.3-0.3,0.3c-0.2,0-0.2-0.1-0.2-0.3c0-0.1,0.1-0.9,0.4-2.4c0-0.2,0-0.5,0.1-0.8c0-0.3,0.1-0.5,0.3-0.5
		c0.1,0,0.2,0,0.2,0.1s0,0.2,0.1,0.3L304.4,120.8z"/>
	<path class="st1" d="M310.3,126.2c-0.5,0-0.9-0.2-1.3-0.7c-0.4-0.4-0.6-0.9-0.6-1.4c0-0.2,0.1-0.3,0.2-0.3s0.2,0.1,0.2,0.2
		c0,0.4,0.1,0.8,0.4,1.2c0.3,0.3,0.6,0.5,1,0.5c0.8,0,1.3-0.6,1.7-1.7c0.2-0.7,0.3-1.4,0.3-2.1c0-1.4-0.1-2.1-0.4-2.1
		c0,0-0.1,0.1-0.3,0.4c-0.5,0.7-0.8,1.2-1,1.4c-0.5,0.6-0.9,0.9-1.3,0.9c-0.2,0-0.4-0.1-0.5-0.2s-0.2-0.3-0.2-0.5
		c0-0.6,0.4-1.5,1.2-2.5s1.5-1.5,2-1.5c0.2,0,0.4,0.1,0.5,0.3c0.1,0.2,0.1,0.4,0.1,0.5c0,0.3-0.1,0.5-0.3,0.5
		c-0.2,0-0.3-0.2-0.3-0.6c0-0.2,0-0.4-0.1-0.4c-0.3,0-0.7,0.3-1.1,0.8c-0.4,0.4-0.6,0.8-0.8,1.1c-0.2,0.2-0.3,0.4-0.5,0.8
		s-0.3,0.7-0.3,0.9c0,0.2,0,0.2,0.1,0.2c0.3,0,0.6-0.2,1.1-0.7c0.2-0.2,0.5-0.6,1.1-1.3c0.4-0.5,0.6-0.7,0.7-0.7
		c0.3,0,0.4,0.4,0.6,1.1c0.1,0.5,0.1,1,0.1,1.5c0,1.2-0.2,2.2-0.7,3.1S310.9,126.2,310.3,126.2z"/>
	<path class="st1" d="M316.8,120.5c-0.1,0.1-0.1,0.2-0.2,0.6s-0.1,0.6-0.1,0.8c0,0.3,0.2,0.4,0.6,0.4s0.8-0.2,1.3-0.7
		c0.5-0.4,0.8-0.9,1-1.3h0.2c0.1,0.1,0.1,0.1,0.1,0.2c-0.2,0.6-0.6,1.2-1.1,1.6s-1,0.6-1.5,0.6c-0.4,0-0.6-0.1-0.8-0.4
		c-0.2-0.2-0.3-0.6-0.2-1c0-0.6,0.3-1.3,0.9-2.1c0.6-0.9,1.2-1.4,1.7-1.4c0.2,0,0.3,0.1,0.4,0.2s0.1,0.2,0.1,0.4
		c0,0.4-0.2,0.8-0.5,1.3c-0.4,0.6-0.8,0.9-1.3,0.9C317.1,120.7,317,120.6,316.8,120.5L316.8,120.5z M318.6,118.3
		c-0.1,0-0.3,0.1-0.4,0.3c-0.8,0.9-1.2,1.5-1.2,1.6c0,0,0.1,0.1,0.3,0.1c0.3,0,0.6-0.2,1-0.6c0.3-0.4,0.5-0.8,0.5-1.2
		C318.7,118.3,318.7,118.3,318.6,118.3z"/>
	<path class="st1" d="M320.5,120.8c0-0.2,0-0.3,0-0.5c0-1,0.1-2,0.2-3c0.1-1.1,0.3-1.7,0.4-1.7c0.2,0,0.3,0.1,0.3,0.3
		c0,0,0,0.1,0,0.2l-0.1,0.4c-0.1,0.4-0.1,0.7-0.1,0.9c-0.1,0.9-0.2,1.9-0.2,3.1c0,1.4,0.2,2.1,0.7,2.1c0.1,0,0.2,0,0.2-0.1h0.1
		l0.1,0.1l0,0v0.1c-0.1,0.2-0.3,0.2-0.5,0.2c-0.3,0-0.5-0.2-0.8-0.5C320.7,122.1,320.5,121.5,320.5,120.8z"/>
	<path class="st1" d="M323.4,122.8c-0.4,0-0.6-0.3-0.8-0.8c-0.1-0.4-0.2-0.8-0.2-1.1c0-0.3,0-0.8,0.1-1.3c0.1-0.7,0.3-1.1,0.5-1.1
		s0.3,0.1,0.3,0.3c0,0.1-0.1,0.3-0.2,0.5c-0.1,0.3-0.2,0.7-0.2,1.4c0,0.3,0,0.5,0,0.6c0,0.2,0.1,0.5,0.1,0.7
		c0.1,0.3,0.2,0.5,0.4,0.5h0.1c0.1-0.1,0.1-0.1,0.2-0.2c0.1,0.1,0.1,0.1,0.1,0.2s-0.1,0.2-0.2,0.3
		C323.6,122.8,323.5,122.8,323.4,122.8z M323.1,117.2c-0.1,0-0.2,0-0.2-0.1s-0.1-0.1-0.1-0.2s0-0.2,0.1-0.2s0.1-0.1,0.2-0.1
		c0.2,0,0.3,0.1,0.3,0.3C323.4,117.1,323.3,117.2,323.1,117.2z"/>
	<path class="st1" d="M325.4,118.9c0.2,0,0.4-0.1,0.6-0.1c0.1,0,0.2,0,0.4,0.1c0.2,0.1,0.3,0.2,0.3,0.4v0.1l0,0l0,0c0,0-0.1,0,0,0
		l0,0c0,0,0,0-0.1,0c0,0-0.1,0-0.1-0.1c-0.1-0.2-0.2-0.3-0.4-0.3c-0.1,0-0.1,0-0.2,0c-0.2,0-0.3,0.1-0.5,0.2c0,0,0,0,0,0.1
		c0,0.4-0.1,0.8,0,1.4c0,1,0.3,1.5,0.7,1.5c0.1,0,0.2-0.1,0.3-0.2s0.2-0.2,0.2-0.2c0.1,0,0.2,0.1,0.2,0.2s-0.1,0.3-0.3,0.4
		c-0.2,0.1-0.3,0.1-0.4,0.1c-0.3,0-0.6-0.2-0.8-0.6c-0.1-0.3-0.2-0.6-0.3-0.9c-0.1-0.6-0.1-1.2,0-1.7c-0.2,0.1-0.5,0.2-0.8,0.4h-0.1
		c-0.1,0-0.2-0.1-0.2-0.3c0-0.1,0.3-0.3,0.9-0.6h0.1c0-0.3,0.1-0.6,0.1-1.2c0.1-0.5,0.2-0.8,0.4-0.8c0.2,0,0.3,0.1,0.3,0.3
		L325.4,118.9z"/>
</g>
<g>
	<circle class="st1" cx="261.2" cy="64.2" r="5.8"/>
	<g class="st22">
		<path class="st3" d="M261.6,66.7h-0.7v-2.8c0-0.3,0-0.6,0-0.8c0,0-0.1,0.1-0.2,0.2s-0.3,0.2-0.7,0.5l-0.3-0.4l1.3-1h0.6
			L261.6,66.7L261.6,66.7z"/>
	</g>
</g>
<g>
	<circle class="st1" cx="217.9" cy="119.7" r="5.8"/>
	<g class="st22">
		<path class="st3" d="M219.5,121.7h-2.9v-0.5l1.1-1.1c0.3-0.3,0.5-0.6,0.6-0.7s0.2-0.3,0.2-0.4s0.1-0.3,0.1-0.4
			c0-0.2-0.1-0.3-0.2-0.5s-0.3-0.2-0.5-0.2s-0.3,0-0.5,0.1s-0.3,0.2-0.5,0.3l-0.4-0.5c0.2-0.2,0.5-0.3,0.7-0.4s0.5-0.1,0.7-0.1
			c0.4,0,0.7,0.1,1,0.3c0.2,0.2,0.4,0.5,0.4,0.8c0,0.2,0,0.4-0.1,0.6s-0.2,0.4-0.3,0.5c-0.1,0.2-0.4,0.4-0.7,0.7l-0.7,0.7l0,0h2
			L219.5,121.7L219.5,121.7z"/>
	</g>
</g>
<g>
	<circle class="st3" cx="492.5" cy="64.3" r="5.8"/>
	<g class="st22">
		<path class="st1" d="M493.9,63c0,0.3-0.1,0.5-0.2,0.7c-0.2,0.2-0.4,0.3-0.7,0.4l0,0c0.3,0,0.6,0.2,0.8,0.3
			c0.2,0.2,0.3,0.4,0.3,0.7c0,0.4-0.1,0.7-0.4,1c-0.3,0.2-0.7,0.3-1.2,0.3s-0.9-0.1-1.2-0.2v-0.6c0.2,0.1,0.4,0.2,0.6,0.2
			s0.4,0.1,0.6,0.1c0.3,0,0.6-0.1,0.7-0.2s0.2-0.3,0.2-0.6c0-0.2-0.1-0.4-0.3-0.5s-0.5-0.2-0.9-0.2h-0.4v-0.6h0.4c0.7,0,1-0.2,1-0.7
			c0-0.2-0.1-0.3-0.2-0.4s-0.3-0.1-0.5-0.1s-0.3,0-0.5,0.1c-0.2,0-0.3,0.1-0.5,0.3l-0.3-0.5c0.4-0.3,0.8-0.4,1.4-0.4
			c0.4,0,0.8,0.1,1,0.3S493.9,62.7,493.9,63z"/>
	</g>
</g>
<g>
	<g>
		<path class="st25" d="M364.2,302.8c0.4-0.8,0.7-1.6,0.7-2.5c0-2.8-2.4-5.1-5.2-5.1l-15.9,0.2c-2.8,0-5.1,2.4-5.1,5.2
			c0,0.9,0.3,1.8,0.7,2.5L364.2,302.8z"/>
		<path class="st26" d="M338.9,301.8c0.1,0.5,0.3,0.9,0.5,1.3l24.7-0.3c0.2-0.4,0.4-0.8,0.5-1.3L338.9,301.8z"/>
	</g>
	<path class="st27" d="M365.8,224.2c0,0-2.7,44.9-6.1,71c0,0-10.9,5.4-20.9,5.4c0,0,3.5-72.9,0-77.5L365.8,224.2z"/>
	<rect x="345.6" y="156.2" class="st13" width="10.9" height="11.5"/>
	<path class="st13" d="M363.8,138.7c0,0,1.6,7.1,4.4,10.4l-3.8,1.4c0,0,3,10.6,0.7,11.3s-18.1-2.4-20.7-6.4l0.2-3.2
		c0,0-3.4,0.9-1.7-6.1c1.6-6.4,4.1,0.8,4.1,0.8l0.1-9.2C347,137.8,361.2,127.3,363.8,138.7z"/>
	<path class="st28" d="M346.5,148h1.3c0,0,1.4-6,0-9.8c0,0,21.6,4.6,19.1-2.9c-2.5-7.4-24.4-9.6-24.9-1.1c0,0-11.6,3.8-1.7,17.5
		c0,0,1.9,2.1,1.4,4.4l1.1-1l2,0.7l-0.1-3.6c0,0-3-0.1-1.9-5.1C343.7,142.3,346.4,144.2,346.5,148z"/>
	<polygon class="st14" points="358.6,168.6 341.8,168.6 341.8,163.1 358.6,166.7 	"/>
	<path class="st29" d="M358.6,168.6c0,0,10.7,5,9.8,21.3c-0.9,16.3,0.1,36.8,0.1,36.8s-21.9-4.2-31.1-0.8c0,0-1.1-50.3,4.4-57.4
		h16.8L358.6,168.6L358.6,168.6z"/>
	<polyline class="st30" points="340.6,176.6 324.7,198.1 338.8,211.3 	"/>
	
		<ellipse transform="matrix(0.5928 -0.8054 0.8054 0.5928 -33.7299 364.0182)" class="st13" cx="343.1" cy="215.4" rx="5.8" ry="7.1"/>
	
		<linearGradient id="SVGID_3_" gradientUnits="userSpaceOnUse" x1="352.95" y1="-415.49" x2="352.95" y2="-371.59" gradientTransform="matrix(1 0 0 -1 0 -67.933)">
		<stop  offset="0" style="stop-color:#FFFFFF"/>
		<stop  offset="1" style="stop-color:#010202"/>
	</linearGradient>
	<path class="st31" d="M360.4,311.5c3.5,26.1,6.1,34.8,6.1,34.8l-27.1,1.2c3.5-4.6,0-41.4,0-41.4c0-0.7,0.2-1.3,0.4-1.9l0,0
		c0.1-0.2,0.2-0.4,0.3-0.6l24.7,0.3c0.1,0.2,0.2,0.4,0.3,0.6l0,0c0.1,0.2,0.2,0.4,0.2,0.7l0,0l0,0c0.1,0.4,0.2,0.8,0.1,1.2
		C365.6,309.2,363.3,311.5,360.4,311.5z"/>
</g>
<g>
	<path class="st32" d="M630.4,163.1c0,0-16.1,13.9-18.2,37.9"/>
	
		<ellipse transform="matrix(0.1557 -0.9878 0.9878 0.1557 318.2226 774.4893)" class="st33" cx="612.2" cy="201.1" rx="5.8" ry="4.9"/>
	<g>
		<path class="st34" d="M710,163.4c0,0,14.6,13.1,24.9,28.1"/>
		<path class="st34" d="M676.4,163.4c0,0-14.6,13.1-24.9,28.1"/>
	</g>
	<path class="st35" d="M769.9,163.4c0,0-14.6,13.1-24.9,28.1"/>
	<g>
		<path class="st36" d="M722.6,163.4c0,0-14.6,13.1-24.9,28.1"/>
		<path class="st36" d="M756.2,163.4c0,0,14.6,13.1,24.9,28.1"/>
	</g>
	<path class="st33" d="M746.6,158.6c-4.3-3.1-1.2-8.3-1.2-8.3l-6-0.2l-6,0.2c0,0,2.9,5.3-1.2,8.3c-5,3.6,7.2,3.3,7.2,3.3
		S751.5,162.2,746.6,158.6z"/>
	<polygon class="st37" points="739.4,207.8 722.6,206.8 722.6,267.5 733.6,267.5 739.4,226 739.4,226 745.2,267.5 756.2,267.5 
		756.2,206.8 	"/>
	<path class="st38" d="M735,269.2c0.1-0.4,0.1-0.8,0.1-1.2c0-3.9-3.2-7-7-7c-3.9,0-7,3.2-7,7c0,0.4,0.1,0.8,0.1,1.2H735z"/>
	<path class="st39" d="M721,268.3c0,0.3,0.1,0.7,0.1,1H735c0.1-0.3,0.1-0.7,0.1-1H721z"/>
	<path class="st38" d="M743.8,269.2c-0.1-0.4-0.1-0.8-0.1-1.2c0-3.9,3.2-7,7-7c3.9,0,7,3.2,7,7c0,0.4-0.1,0.8-0.1,1.2H743.8z"/>
	<path class="st39" d="M743.6,268.3c0,0.3,0.1,0.7,0.1,1h13.9c0.1-0.3,0.1-0.7,0.1-1H743.6z"/>
	<g>
		<ellipse class="st33" cx="728.7" cy="139.9" rx="2.5" ry="3.3"/>
		<ellipse class="st33" cx="750.2" cy="139.9" rx="2.5" ry="3.3"/>
	</g>
	<path class="st33" d="M733.2,153.3h12.3c2.7-3.4,4.3-7.1,4.3-12.8c0-7.6-1.5-13.8-10.5-13.8s-10.5,6.2-10.5,13.8
		C728.9,146,730.4,149.9,733.2,153.3z"/>
	<path class="st40" d="M757.4,159.3l-11.9-1.9c-2.5,4.7-6.1,3.8-6.1,3.8s-3.7,0.8-6.1-3.8l-13,1.9c0,0,3.4,20,1,49.1h18.2h18.2
		C755.1,179.3,757.4,159.3,757.4,159.3z"/>
	<path class="st38" d="M743.4,208.4l1.5-50.2c0.2-0.2,0.3-0.6,0.6-0.9l11.9,1.9c0,0-2.4,20,0.1,49.1L743.4,208.4L743.4,208.4z"/>
	<path class="st38" d="M735.3,208.4l-1.5-50.2c-0.2-0.2-0.3-0.6-0.6-0.9l-13,1.9c0,0,3.4,20,1,49.1L735.3,208.4L735.3,208.4z"/>
	<path class="st33" d="M779.5,158.6c4.3-3.1,1.2-8.3,1.2-8.3l6-0.2l6,0.2c0,0-2.9,5.3,1.2,8.3c5,3.6-7.2,10-7.2,10
		S774.5,162.2,779.5,158.6z"/>
	<polygon class="st41" points="786.7,207.8 803.5,206.8 803.5,267.5 792.4,267.5 786.2,226 786.2,226 780.9,267.5 769.9,267.5 
		769.9,206.8 	"/>
	<g>
		<path class="st42" d="M791.2,269.2c-0.1-0.4-0.1-0.8-0.1-1.2c0-3.9,3.2-7,7-7c3.9,0,7,3.2,7,7c0,0.4-0.1,0.8-0.1,1.2H791.2z"/>
		<path class="st39" d="M805.2,268.3c0,0.3-0.1,0.7-0.1,1h-13.9c-0.1-0.3-0.1-0.7-0.1-1H805.2z"/>
	</g>
	<g>
		<path class="st42" d="M782.4,269.2c0.1-0.4,0.1-0.8,0.1-1.2c0-3.9-3.2-7-7-7c-3.9,0-7,3.2-7,7c0,0.4,0.1,0.8,0.1,1.2H782.4z"/>
		<path class="st39" d="M782.5,268.3c0,0.3-0.1,0.7-0.1,1h-13.9c-0.1-0.3-0.1-0.7-0.1-1H782.5z"/>
	</g>
	<g>
		<ellipse class="st33" cx="797.4" cy="139.9" rx="2.5" ry="3.3"/>
		<ellipse class="st33" cx="775.9" cy="139.9" rx="2.5" ry="3.3"/>
	</g>
	<path class="st33" d="M792.8,153.3h-12.3c-2.7-3.4-4.3-7.1-4.3-12.8c0-7.6,1.5-13.8,10.5-13.8s10.5,6.2,10.5,13.8
		C797.2,146,795.5,149.9,792.8,153.3z"/>
	<path class="st43" d="M768.6,159.3l11.9-1.9c2.5,4.7,6.1,11.2,6.1,11.2s3.7-6.5,6.1-11.2l12.4,1.9c0,0-2.9,20-0.4,49.1h-18.2h-18.2
		C771,179.3,768.6,159.3,768.6,159.3z"/>
	<path class="st44" d="M749.7,128.7l0.9,7.9l-1,0.1v2.9l-2-0.2c0,0-0.2-5.2-1.5-7.4c0,0-2.9,0.9-6.9,0.9s-6.9-0.9-6.9-0.9
		c-1.3,2.3-1.5,7.5-1.5,7.5l-2,0.2v-3l-1-0.1l0.9-7.9c0,0,0.8-4.1,10.4-4.1C748.9,124.7,749.7,128.7,749.7,128.7z"/>
	<path class="st45" d="M797.9,136.6c0,0,1-5.9-1.4-8.9c-2.4-3-11.7,0.8-16.1-12.3c0,0-1.2,5.5,0.4,7.8c0,0-2.4-0.2-3.2-1.6
		c0,0-0.3,3.5,1.1,4.1c0,0-2.9,0.8-4.4-0.9c0,0,0.6,3.6,1.9,4.1c0,0-0.6,1.6-1.9,1.2l1.9,1.9c0,0-1,2.9-0.7,4.8c0,0,0.9-0.2,0.8,0.6
		c0,0,2-4.7,2.6-5c0,0,6.9,4.3,15.5-1c0,0-0.5,3.4,2.7,5.6C797,136.9,796.9,136.7,797.9,136.6z"/>
	<path class="st32" d="M662.8,163.4c0,0,14.6,13.1,24.9,28.1"/>
	<path class="st33" d="M686.1,158.6c4.3-3.1,1.2-8.3,1.2-8.3l6-0.2l6,0.2c0,0-2.9,5.3,1.2,8.3c5,3.6-7.2,3.3-7.2,3.3
		S681.1,162.2,686.1,158.6z"/>
	<polygon class="st46" points="693.2,207.8 710,206.8 710,267.5 699,267.5 693.2,226 693.2,226 687.4,267.5 676.4,267.5 
		676.4,206.8 	"/>
	<path class="st47" d="M697.6,269.2c-0.1-0.4-0.1-0.8-0.1-1.2c0-3.9,3.2-7,7-7c3.9,0,7,3.2,7,7c0,0.4-0.1,0.8-0.1,1.2H697.6z"/>
	<path class="st39" d="M711.6,268.3c0,0.3-0.1,0.7-0.1,1h-13.9c-0.1-0.3-0.1-0.7-0.1-1H711.6z"/>
	<path class="st47" d="M688.8,269.2c0.1-0.4,0.1-0.8,0.1-1.2c0-3.9-3.2-7-7-7c-3.9,0-7,3.2-7,7c0,0.4,0.1,0.8,0.1,1.2H688.8z"/>
	<path class="st39" d="M688.9,268.3c0,0.3-0.1,0.7-0.1,1H675c-0.1-0.3-0.1-0.7-0.1-1H688.9z"/>
	<g>
		<ellipse class="st33" cx="704" cy="139.9" rx="2.5" ry="3.3"/>
		<ellipse class="st33" cx="682.5" cy="139.9" rx="2.5" ry="3.3"/>
	</g>
	<path class="st33" d="M699.4,153.3H687c-2.7-3.4-4.3-7.1-4.3-12.8c0-7.6,1.5-13.8,10.5-13.8s10.5,6.2,10.5,13.8
		C703.7,146,702.1,149.9,699.4,153.3z"/>
	<path class="st48" d="M675.2,159.1l11.9-1.8c2.5,4.7,6.1,3.8,6.1,3.8s3.7,0.8,6.1-3.8l12.3,1.8c0,0-2.7,20.2-0.2,49.3h-18.2H675
		C677.6,179.3,675.2,159.1,675.2,159.1z"/>
	<path class="st33" d="M653.1,158.6c-4.3-3.1-1.2-8.3-1.2-8.3l-6-0.2l-6,0.2c0,0,2.9,5.3-1.2,8.3c-5,3.6,7.2,14,7.2,14
		S658.1,162.2,653.1,158.6z"/>
	<polygon class="st49" points="645.9,207.8 629.1,206.8 629.1,267.5 640.1,267.5 645.9,226 645.9,226 651.7,267.5 662.8,267.5 
		662.8,206.8 	"/>
	<g>
		<path class="st50" d="M641.4,269.2c0.1-0.4,0.1-0.8,0.1-1.2c0-3.9-3.2-7-7-7c-3.9,0-7,3.2-7,7c0,0.4,0.1,0.8,0.1,1.2H641.4z"/>
		<path class="st39" d="M627.4,268.3c0,0.3,0.1,0.7,0.1,1h13.9c0.1-0.3,0.1-0.7,0.1-1H627.4z"/>
	</g>
	<g>
		<path class="st50" d="M650.1,269.2c-0.1-0.4-0.1-0.8-0.1-1.2c0-3.9,3.2-7,7-7c3.9,0,7,3.2,7,7c0,0.4-0.1,0.8-0.1,1.2H650.1z"/>
		<path class="st39" d="M650,268.3c0,0.3,0.1,0.7,0.1,1H664c0.1-0.3,0.1-0.7,0.1-1H650z"/>
	</g>
	<g class="st51">
		
			<linearGradient id="SVGID_4_" gradientUnits="userSpaceOnUse" x1="739.6" y1="-400.5549" x2="739.6" y2="-338.1724" gradientTransform="matrix(1 0 0 -1 0 -67.933)">
			<stop  offset="0" style="stop-color:#FFFFFF"/>
			<stop  offset="1" style="stop-color:#010202"/>
		</linearGradient>
		<path class="st52" d="M743.8,270.2c-0.1,0.4-0.1,0.8-0.1,1.2c0,1.4,0.4,2.7,1.1,3.8l-5.3,38.3l-5.3-38.3c0.7-1.1,1.1-2.4,1.1-3.8
			c0-0.4-0.1-0.8-0.1-1.2h-13.9c-0.1,0.3-0.1,0.7-0.1,1l0,0l0,0c0,0.1,0,0.2,0,0.2c0,1.6,0.6,3.2,1.6,4.4v56.7l16.8-1l16.8,1v-56.7
			c1-1.2,1.6-2.7,1.6-4.4c0-0.4-0.1-0.8-0.1-1.2H743.8z"/>
		
			<linearGradient id="SVGID_5_" gradientUnits="userSpaceOnUse" x1="786.85" y1="-400.5331" x2="786.8502" y2="-338.1545" gradientTransform="matrix(1 0 0 -1 0 -67.933)">
			<stop  offset="0" style="stop-color:#FFFFFF"/>
			<stop  offset="1" style="stop-color:#010202"/>
		</linearGradient>
		<path class="st53" d="M805.2,271.2L805.2,271.2L805.2,271.2c0-0.3-0.1-0.7-0.1-1h-13.9c-0.1,0.4-0.1,0.8-0.1,1.2
			c0,1.2,0.3,2.5,0.9,3.4l-5.8,38.5l-4.8-38c0.8-1.1,1.2-2.5,1.2-4c0-0.4-0.1-0.8-0.1-1.2h-13.9c-0.1,0.4-0.1,0.8-0.1,1.2
			c0,1.6,0.5,3,1.4,4.2v57.1l16.8-1l16.8,1V276c1.1-1.2,1.7-2.9,1.7-4.6C805.2,271.4,805.2,271.3,805.2,271.2z"/>
		
			<linearGradient id="SVGID_6_" gradientUnits="userSpaceOnUse" x1="693.3" y1="-400.5549" x2="693.3" y2="-338.1724" gradientTransform="matrix(1 0 0 -1 0 -67.933)">
			<stop  offset="0" style="stop-color:#FFFFFF"/>
			<stop  offset="1" style="stop-color:#010202"/>
		</linearGradient>
		<path class="st54" d="M711.6,271.2L711.6,271.2c0-0.3-0.1-0.7-0.1-1h-13.9c-0.1,0.4-0.1,0.8-0.1,1.2c0,1.4,0.4,2.7,1.1,3.8
			l-5.3,38.3l-5.3-38.3c0.7-1.1,1.1-2.4,1.1-3.8c0-0.4-0.1-0.8-0.1-1.2h-14c-0.1,0.4-0.1,0.8-0.1,1.2c0,1.6,0.6,3.2,1.6,4.4v56.7
			l16.8-1l16.8,1v-56.7c1-1.2,1.6-2.7,1.6-4.4C711.6,271.4,711.6,271.3,711.6,271.2L711.6,271.2z"/>
		
			<linearGradient id="SVGID_7_" gradientUnits="userSpaceOnUse" x1="645.7499" y1="-400.5331" x2="645.7501" y2="-338.133" gradientTransform="matrix(1 0 0 -1 0 -67.933)">
			<stop  offset="0" style="stop-color:#FFFFFF"/>
			<stop  offset="1" style="stop-color:#010202"/>
		</linearGradient>
		<path class="st55" d="M650.1,270.2c-0.1,0.4-0.1,0.8-0.1,1.2c0,1.5,0.5,2.9,1.2,4l-5.3,38l-5.4-38.5c0.6-1.1,1-2.2,1-3.5
			c0-0.4-0.1-0.8-0.1-1.2h-13.9c-0.1,0.4-0.1,0.8-0.1,1.2c0,1.8,0.7,3.4,1.7,4.6v56.6l16.8-1l16.8,1v-57c0.9-1.1,1.4-2.6,1.4-4.2
			c0-0.4-0.1-0.8-0.1-1.2H650.1L650.1,270.2z"/>
	</g>
	<g>
		<ellipse class="st33" cx="635.2" cy="139.9" rx="2.5" ry="3.3"/>
		<ellipse class="st33" cx="656.7" cy="139.9" rx="2.5" ry="3.3"/>
	</g>
	<path class="st33" d="M639.8,153.3h12.3c2.7-3.4,4.3-7.1,4.3-12.8c0-7.6-1.5-13.8-10.5-13.8s-10.5,6.2-10.5,13.8
		C635.4,146,637,149.9,639.8,153.3z"/>
	<path class="st56" d="M664.2,157.3H652c-2.5,4.7-9.7,4.7-12.2,0h-12.3c0,0,2.6,22,0.2,51.1h18.2h18.2
		C661.6,179.3,664.2,157.3,664.2,157.3z"/>
	<path class="st43" d="M703.6,128.1l-1,0.2l-0.2-0.8l-1.2-0.6l-0.5-1.2l-1,0.2l-0.6-1.8l-0.9,0.5l-0.7-1.3l-1.3,0.9l-0.7-1.9
		l-1.4,1.7l-0.7-2c-0.2-0.5-0.2-0.8-0.2-0.8s-0.1,0.3-0.2,0.8l-0.7,2l-1.4-1.7l-0.7,1.9l-1.4-0.9l-0.7,1.3l-0.9-0.5l-0.6,1.8l-1-0.2
		l-0.5,1.2l-1.2,0.6l-0.2,0.8l-1-0.2l-1,8.4l1,0.1v5.8l2-0.2c0,0,0.2-8,1.5-10.2c0,0,2.9,0.9,6.9,0.9s6.9-0.9,6.9-0.9
		c1.3,2.3,1.5,10.2,1.5,10.2l2,0.2v-5.8l1-0.1L703.6,128.1z"/>
	<path class="st57" d="M650,206.8l1.5-50.2c0.2-0.2,0.3-0.6,0.6-0.9h13c0,0-3.4,22-1,51.1L650,206.8L650,206.8z"/>
	<path class="st57" d="M641.8,206.8l-1.5-50.2c-0.2-0.2-0.3-0.6-0.6-0.9h-13c0,0,3.4,22,1,51.1L641.8,206.8L641.8,206.8z"/>
	<path class="st58" d="M803.1,163.1c0,0,16.1,13.9,18.2,37.9"/>
	
		<ellipse transform="matrix(0.9878 -0.1557 0.1557 0.9878 -21.2807 130.3122)" class="st33" cx="821.2" cy="201" rx="4.9" ry="5.8"/>
</g>
<linearGradient id="SVGID_8_" gradientUnits="userSpaceOnUse" x1="173.8497" y1="1292.844" x2="173.8497" y2="1143.03" gradientTransform="matrix(1 0 0 1 0 -838.4301)">
	<stop  offset="0" style="stop-color:#FFFFFF"/>
	<stop  offset="0.3726" style="stop-color:#FEFEFE"/>
	<stop  offset="0.5069" style="stop-color:#F6F6F6"/>
	<stop  offset="0.6026" style="stop-color:#EBEBEB"/>
	<stop  offset="0.68" style="stop-color:#DADADA"/>
	<stop  offset="0.7463" style="stop-color:#C5C5C4"/>
	<stop  offset="0.805" style="stop-color:#A8A8A8"/>
	<stop  offset="0.8581" style="stop-color:#888889"/>
	<stop  offset="0.9069" style="stop-color:#636363"/>
	<stop  offset="0.9523" style="stop-color:#383737"/>
	<stop  offset="0.9926" style="stop-color:#08090A"/>
	<stop  offset="1" style="stop-color:#010202"/>
</linearGradient>
<path class="st59" d="M258.9,333.3h-0.5l-9.7-0.5v-25c0-1.8-1.4-3.2-3.2-3.2h-21.1c-1.8,0-3.2,1.4-3.2,3.2v23.4l-98.8-5.5v-17.9
	c0-1.8,3-3.2-3.2-3.2H96.4c-4.5,0-1.5,1.4-1.5,3.2v16.3l-2.5-0.1h-0.5c-1.8-0.1-3.3,1.3-3.4,3l-2.9,51c-0.1,1.3,13.2,62.3,13.2,62.3
	s16.9,10.4,69.6,13.4c55.7,3.1,72-4.9,72-4.9s18.7-59.7,18.8-61l2.9-51C262.1,335,260.7,333.4,258.9,333.3z M232.3,439.2
	c0,0-21,6.6-63.4,4.2c-49.8-2.8-61.1-11.2-61.1-11.2L98,382l149.1,8.4L232.3,439.2z"/>
<path class="st14" d="M544.9,188.8l8.9-8.1h-1.5C552.3,180.7,547.2,183.5,544.9,188.8z"/>
<path class="st60" d="M563.4,261.4h-5.3c-4.3,0-7.8-3.5-7.8-7.8l0,0c0-4.3,3.5-7.8,7.8-7.8h5.3c4.3,0,7.8,3.5,7.8,7.8l0,0
	C571.2,257.8,567.7,261.4,563.4,261.4z"/>
<ellipse transform="matrix(0.8054 -0.5928 0.5928 0.8054 -35.7374 380.1672)" class="st13" cx="561.1" cy="244.5" rx="7.1" ry="5.8"/>
<path class="st61" d="M583.7,288.4h-46c-2.8,0-5-2.2-5-5v-24.8c0-2.7,2.2-5,5-5h46c2.8,0,5,2.2,5,5v24.8
	C588.7,286.1,586.4,288.4,583.7,288.4z"/>
<g>
	<path class="st62" d="M559.7,271c-4.3,0-8.1-0.3-11.3-0.8c-10-1.4-15.4-4-15.7-4.1V264c0.2,0.1,24.3,10.9,56,0v2.1
		C577.6,269.9,567.9,271,559.7,271z"/>
</g>
<path class="st62" d="M560.7,273.8L560.7,273.8c-1.2,0-2.2-1-2.2-2.2v-2c0-1.2,1-2.2,2.2-2.2l0,0c1.2,0,2.2,1,2.2,2.2v2
	C562.9,272.9,561.9,273.8,560.7,273.8z"/>
<g>
	
		<rect x="471.4" y="201.9" transform="matrix(0.5971 -0.8022 0.8022 0.5971 21.8832 466.4916)" class="st3" width="7.8" height="19.1"/>
	<g>
		<path class="st63" d="M480.5,219.4l-14.4-10.7l4-5.4l14.4,10.7L480.5,219.4z M467,208.6l13.3,9.9l3.2-4.3l-13.3-9.9L467,208.6z"/>
	</g>
	
		<ellipse transform="matrix(0.5971 -0.8022 0.8022 0.5971 25.5314 459.5989)" class="st63" cx="470.3" cy="204.4" rx="0.7" ry="0.7"/>
	
		<ellipse transform="matrix(0.5971 -0.8022 0.8022 0.5971 20.9328 458.6834)" class="st63" cx="467.1" cy="208.5" rx="0.7" ry="0.7"/>
	
		<ellipse transform="matrix(0.5971 -0.8022 0.8022 0.5971 23.0044 474.1859)" class="st63" cx="483.5" cy="214.2" rx="0.7" ry="0.7"/>
	
		<ellipse transform="matrix(0.5971 -0.8022 0.8022 0.5971 18.2898 473.3047)" class="st63" cx="480.3" cy="218.4" rx="0.7" ry="0.7"/>
	<ellipse transform="matrix(0.5971 -0.8022 0.8022 0.5971 22.6221 462.2947)" class="st63" cx="471.5" cy="208.6" rx="1" ry="1"/>
	<ellipse transform="matrix(0.5971 -0.8022 0.8022 0.5971 21.236 470.6469)" class="st63" cx="479.1" cy="214.2" rx="1" ry="1"/>
	
		<ellipse transform="matrix(0.5971 -0.8022 0.8022 0.5971 21.929 466.4708)" class="st63" cx="475.3" cy="211.4" rx="2.2" ry="2.2"/>
	<g>
		<path class="st3" d="M475.8,211.3c0.1-0.2,0-0.5-0.2-0.6s-0.4-0.1-0.4,0c-0.1,0.2,0.1,0.4,0.2,0.6c0.2,0.3,0.4,0.7,0.2,1
			c-0.2,0.3-0.6,0.4-1,0.2l-0.2,0.2l-0.4-0.3l0.2-0.2c-0.3-0.3-0.3-0.6-0.2-1l0.4,0.2c-0.1,0.2-0.1,0.5,0.2,0.7
			c0.2,0.2,0.4,0.1,0.5,0c0.1-0.2-0.1-0.4-0.3-0.7c-0.2-0.3-0.4-0.6-0.1-0.9c0.2-0.3,0.6-0.3,0.9-0.1l0.2-0.2l0.4,0.3l-0.2,0.2
			c0.2,0.3,0.3,0.6,0.2,0.9L475.8,211.3z"/>
	</g>
</g>
<g>
	
		<rect x="521.7" y="217.1" transform="matrix(0.5971 -0.8022 0.8022 0.5971 29.9628 512.9668)" class="st3" width="7.8" height="19.1"/>
	<g>
		<path class="st63" d="M530.8,234.6l-14.4-10.7l4-5.4l14.4,10.7L530.8,234.6z M517.3,223.8l13.3,9.9l3.2-4.3l-13.3-9.9L517.3,223.8
			z"/>
	</g>
	
		<ellipse transform="matrix(0.5971 -0.8022 0.8022 0.5971 33.7121 506.0441)" class="st63" cx="520.6" cy="219.5" rx="0.7" ry="0.7"/>
	
		<ellipse transform="matrix(0.5971 -0.8022 0.8022 0.5971 28.982 505.2514)" class="st63" cx="517.5" cy="223.8" rx="0.7" ry="0.7"/>
	
		<ellipse transform="matrix(0.5971 -0.8022 0.8022 0.5971 31.0692 520.6653)" class="st63" cx="533.8" cy="229.4" rx="0.7" ry="0.7"/>
	
		<ellipse transform="matrix(0.5971 -0.8022 0.8022 0.5971 26.443 519.7998)" class="st63" cx="530.7" cy="233.6" rx="0.7" ry="0.7"/>
	<ellipse transform="matrix(0.5971 -0.8022 0.8022 0.5971 30.6868 508.7742)" class="st63" cx="521.8" cy="223.8" rx="1" ry="1"/>
	<ellipse transform="matrix(0.5971 -0.8022 0.8022 0.5971 29.3008 517.1265)" class="st63" cx="529.4" cy="229.4" rx="1" ry="1"/>
	
		<ellipse transform="matrix(0.5971 -0.8022 0.8022 0.5971 29.9938 512.9504)" class="st63" cx="525.6" cy="226.6" rx="2.2" ry="2.2"/>
	<g>
		<path class="st3" d="M526.2,226.5c0.1-0.2,0-0.5-0.2-0.6s-0.4-0.1-0.4,0c-0.1,0.2,0.1,0.4,0.2,0.6c0.2,0.3,0.4,0.7,0.2,1
			s-0.6,0.4-1,0.2l-0.2,0.2l-0.4-0.3l0.2-0.2c-0.3-0.3-0.3-0.6-0.2-1l0.4,0.2c-0.1,0.2-0.1,0.5,0.2,0.7c0.2,0.2,0.4,0.1,0.5,0
			c0.1-0.2-0.1-0.4-0.3-0.7s-0.4-0.6-0.1-0.9c0.2-0.3,0.6-0.3,0.9-0.1l0.2-0.2l0.4,0.3l-0.2,0.2c0.2,0.3,0.3,0.6,0.2,0.9
			L526.2,226.5z"/>
	</g>
</g>
<g>
	
		<rect x="522.7" y="213.7" transform="matrix(0.8426 -0.5385 0.5385 0.8426 -37.3663 318.7072)" class="st3" width="7.8" height="19.1"/>
	<g>
		<path class="st63" d="M528.7,232.7l-9.6-15.1l5.6-3.6l9.6,15.1L528.7,232.7z M519.9,217.8l9,14l4.6-2.9l-9-14L519.9,217.8z"/>
	</g>
	
		<ellipse transform="matrix(0.8426 -0.5385 0.5385 0.8426 -33.1982 316.1944)" class="st63" cx="524.4" cy="214.9" rx="0.7" ry="0.7"/>
	
		<ellipse transform="matrix(0.8426 -0.5385 0.5385 0.8426 -35.4612 314.2933)" class="st63" cx="520" cy="217.8" rx="0.7" ry="0.7"/>
	
		<ellipse transform="matrix(0.8426 -0.5385 0.5385 0.8426 -39.2812 323.18)" class="st63" cx="533.3" cy="228.8" rx="0.7" ry="0.7"/>
	
		<ellipse transform="matrix(0.8426 -0.5385 0.5385 0.8426 -41.4787 321.2498)" class="st63" cx="528.9" cy="231.6" rx="0.7" ry="0.7"/>
	<ellipse transform="matrix(0.8426 -0.5385 0.5385 0.8426 -35.6771 316.7538)" class="st63" cx="524.1" cy="219.4" rx="1" ry="1"/>
	<ellipse transform="matrix(0.8426 -0.5385 0.5385 0.8426 -39.1212 320.7452)" class="st63" cx="529.2" cy="227.3" rx="1" ry="1"/>
	
		<ellipse transform="matrix(0.8426 -0.5385 0.5385 0.8426 -37.4178 318.7445)" class="st63" cx="526.6" cy="223.4" rx="2.2" ry="2.2"/>
	<g>
		<path class="st3" d="M527.2,223.4c0.2-0.2,0.2-0.4,0.1-0.6c-0.1-0.2-0.3-0.2-0.4-0.2c-0.2,0.1-0.1,0.4,0,0.7
			c0.1,0.4,0.1,0.8-0.2,1s-0.7,0.1-1-0.2l-0.2,0.2l-0.3-0.4l0.2-0.2c-0.1-0.4-0.1-0.7,0.2-1l0.4,0.3c-0.2,0.2-0.2,0.4-0.1,0.7
			c0.1,0.2,0.3,0.3,0.5,0.2s0.1-0.4,0-0.8c-0.1-0.3-0.1-0.7,0.2-0.9s0.6-0.1,0.9,0.2l0.2-0.2l0.3,0.4l-0.2,0.2
			c0.1,0.3,0,0.7-0.2,0.9L527.2,223.4z"/>
	</g>
</g>
<ellipse transform="matrix(0.8054 -0.5928 0.5928 0.8054 -34.2667 328.1715)" class="st13" cx="482.6" cy="216.3" rx="7.1" ry="5.8"/>
<ellipse transform="matrix(0.8054 -0.5928 0.5928 0.8054 -33.0301 358.636)" class="st13" cx="529.6" cy="229.6" rx="7.1" ry="5.8"/>
</svg>
