<?xml version="1.0" encoding="utf-8"?>
<!-- Generator: Adobe Illustrator 19.2.0, SVG Export Plug-In . SVG Version: 6.00 Build 0)  -->
<svg version="1.1" id="Calque_1" xmlns="http://www.w3.org/2000/svg" xmlns:xlink="http://www.w3.org/1999/xlink" x="0px" y="0px"
	 viewBox="0 0 879.1 348" style="enable-background:new 0 0 879.1 348;" xml:space="preserve">
<style type="text/css">
	.st0{fill:#E8F5FD;}
	.st1{fill:#2488C9;}
	.st2{fill:none;stroke:#FFFFFF;stroke-width:2;stroke-miterlimit:10;}
	.st3{fill:#FFFFFF;}
	.st4{fill:#3C3C3B;}
	.st5{fill:#3DB49C;}
	.st6{fill:#F0E08A;}
	.st7{fill:#349B86;}
	.st8{fill:none;stroke:#F0E089;stroke-width:4;stroke-linecap:round;stroke-miterlimit:10;}
	.st9{fill:none;stroke:#2488C9;stroke-linecap:round;stroke-miterlimit:10;}
	.st10{fill:none;stroke:#2488C9;stroke-linecap:round;stroke-linejoin:round;stroke-miterlimit:10;}
	.st11{font-family:'Angelina';}
	.st12{font-size:12px;}
	.st13{fill:none;stroke:#FFFFFF;stroke-linecap:round;stroke-miterlimit:10;}
	.st14{fill:none;stroke:#FFFFFF;stroke-linecap:round;stroke-linejoin:round;stroke-miterlimit:10;}
	.st15{font-family:'OpenSans-Semibold';}
	.st16{font-size:6px;}
	.st17{fill:#754D24;}
	.st18{fill:#412413;}
	.st19{fill:#035D53;}
	.st20{fill:#FCC880;}
	.st21{fill:#532810;}
	.st22{fill:#F0F0F0;}
	.st23{fill:#1D1C3E;}
	.st24{fill:none;stroke:#1D1D3D;stroke-width:16;stroke-linecap:round;stroke-linejoin:round;stroke-miterlimit:10;}
	.st25{opacity:0.1;fill:url(#SVGID_1_);enable-background:new    ;}
	.st26{fill:#754E24;}
	.st27{fill:#412618;}
	.st28{fill:#0C0F18;}
	.st29{opacity:0.1;fill:url(#SVGID_2_);enable-background:new    ;}
	.st30{fill:#2DAF81;}
	.st31{fill:none;stroke:#2DAF81;stroke-width:12;stroke-linecap:round;stroke-miterlimit:10;}
	.st32{fill:#608C78;}
	.st33{fill:#14172A;}
	.st34{fill:#232F5A;}
	.st35{opacity:0.1;fill:url(#SVGID_3_);enable-background:new    ;}
	.st36{fill:none;stroke:#F0F0F0;stroke-width:12;stroke-linecap:round;stroke-miterlimit:10;}
	.st37{fill:#020304;}
	.st38{fill:#2E2D2E;}
	.st39{fill:#4B4A4A;}
	.st40{opacity:0.1;fill:url(#SVGID_4_);enable-background:new    ;}
	.st41{fill:none;stroke:#27537E;stroke-width:12;stroke-linecap:round;stroke-miterlimit:10;}
	.st42{fill:#010202;}
	.st43{opacity:0.1;fill:url(#SVGID_5_);enable-background:new    ;}
	.st44{fill:none;stroke:#010202;stroke-width:12;stroke-linecap:round;stroke-miterlimit:10;}
	.st45{fill:#281E12;}
	.st46{fill:none;stroke:#723B10;stroke-width:3;stroke-miterlimit:10;}
	.st47{fill:#723B10;}
	.st48{fill:#5F3115;}
	.st49{fill:#27537D;}
	.st50{fill:#0A7591;}
	.st51{opacity:0.1;fill:url(#SVGID_6_);enable-background:new    ;}
	.st52{fill:#904393;}
	.st53{fill:none;stroke:#904393;stroke-width:12;stroke-linecap:round;stroke-miterlimit:10;}
	.st54{fill:#EFDF89;}
	.st55{fill:none;stroke:#904392;stroke-width:12;stroke-linecap:round;stroke-miterlimit:10;}
	.st56{fill:#522914;}
	.st57{fill:#0F8C95;}
	.st58{fill:#4FBBBD;}
	.st59{opacity:0.1;fill:url(#SVGID_7_);enable-background:new    ;}
	.st60{fill:none;stroke:#EFDF88;stroke-width:12;stroke-linecap:round;stroke-miterlimit:10;}
	.st61{fill:#F19134;}
	.st62{fill:none;stroke:#BA105C;stroke-width:12;stroke-linecap:round;stroke-miterlimit:10;}
	.st63{fill:#FBC681;}
	.st64{fill:none;stroke:#26557E;stroke-width:12;stroke-linecap:round;stroke-miterlimit:10;}
	.st65{fill:#DDC07B;}
	.st66{fill:#343434;}
	.st67{fill:#222A52;}
	.st68{opacity:0.1;}
	.st69{fill:url(#SVGID_8_);}
	.st70{fill:url(#SVGID_9_);}
	.st71{fill:none;stroke:#FCC880;stroke-width:4.6765;stroke-linecap:round;stroke-miterlimit:10;}
	.st72{fill:none;stroke:#FCC880;stroke-width:5.4559;stroke-miterlimit:10;}
	.st73{fill:#F19234;}
	.st74{fill:url(#SVGID_10_);}
	.st75{fill:url(#SVGID_11_);}
	.st76{opacity:0.1;fill:url(#SVGID_12_);}
	.st77{fill:#0D8D95;}
	.st78{fill:#B8D378;}
	.st79{fill:#F1E08A;}
	.st80{fill:#B9105C;}
	.st81{fill:#581A4C;}
</style>
<rect class="st0" width="516.7" height="255.8"/>
<polygon class="st1" points="879.1,255.8 412.9,255.8 466.1,0 879.1,0 "/>
<circle class="st2" cx="655" cy="92.2" r="56.3"/>
<g>
	<path class="st3" d="M623.8,97.5v4.2c0,2.9,0.5,3.8,2,3.8c1.2,0,1.8-0.7,1.8-2.2v-3.2h5.3v2.9c0,4.7-2.1,6.7-7.1,6.7
		c-2.8,0-4.8-0.7-5.9-2.2c-1.1-1.5-1.5-3.1-1.5-7.1v-6.7c0-5.1,0.2-6.4,1.2-8.1c1.1-1.7,3.2-2.6,6.1-2.6c5.1,0,7.1,2.1,7.1,8.2v6.1
		L623.8,97.5L623.8,97.5z M627.6,90.3c0-2.1-0.6-2.9-2-2.9s-2,0.9-2,2.9v3.2h3.8L627.6,90.3L627.6,90.3z"/>
	<path class="st3" d="M645.5,88.1h-2.2v14.8c0,2,0.2,2.3,1.5,2.3h0.9v4.3H642c-1.7,0-2.7-0.4-3.2-1c-0.9-0.7-1-1.6-1-4.7V88.1h-2.1
		v-4.5h2.1v-6.9h5.3v6.7h2.2L645.5,88.1L645.5,88.1z"/>
	<path class="st3" d="M654,75.2v10.3c1.8-1.6,2.9-2.2,4.8-2.2c1.5,0,2.7,0.6,3.6,1.6c0.7,1,1,2.1,1,4.4v20.2h-5.3V90.8
		c0-2-0.5-2.9-1.7-2.9c-1.5,0-2.2,1.2-2.2,3.9v17.6h-5.3V75.1L654,75.2L654,75.2z"/>
	<path class="st3" d="M672.9,80.1h-5.3v-4.9h5.3V80.1z M672.9,109.5h-5.3v-26h5.3V109.5z"/>
	<path class="st3" d="M686.2,92.6v-2.1c0-2.3-0.5-3.2-2-3.2c-1.6,0-2.1,1-2.1,4.5v8.6c0.1,3.4,0.1,3.4,0.4,4.2c0.2,0.6,1,1,1.8,1
		c1.6,0,2-0.6,2-3.2V99h5.3v3.6c0,2.3-0.4,3.7-1.1,4.8c-1.1,1.6-3.3,2.4-6.2,2.4c-2.4,0-4.4-0.6-5.6-2s-1.7-3.2-1.7-7.1v-9.1
		c0-5.9,2.3-8.4,7.5-8.4c4.8,0,7.1,2.2,7.1,7v2.4H686.2z"/>
</g>
<path class="st4" d="M248.2,300.2c0,1.8-1.4,3.2-3.2,3.2h-21.1c-1.8,0-3.2-1.4-3.2-3.2v-32.4c0-1.8,1.4-3.2,3.2-3.2H245
	c1.8,0,3.2,1.4,3.2,3.2V300.2z"/>
<path class="st4" d="M121.9,300.2c0,1.8,3,3.2-3.2,3.2H95.8c-4.5,0-1.5-1.4-1.5-3.2v-32.4c0-1.8,1.4-3.2,3.2-3.2h21.1
	c1.8,0,3.2,1.4,3.2,3.2V300.2z"/>
<path class="st5" d="M82.8,239.5c1.2,1.4,1,3.4-0.4,4.5l-7.9,6.7c-1.4,1.2-3.4,1-4.5-0.4l-5.5-6.4c-1.2-1.4-1-3.4,0.4-4.5l7.9-6.7
	c1.4-1.2,3.4-1,4.5,0.4L82.8,239.5z"/>
<path class="st5" d="M89.5,233.9c0.6,1.7-0.2,3.5-1.9,4.2l-10.6,4c-1.7,0.6-3.5-0.2-4.2-1.9l0,0c-0.6-1.7,0.2-3.5,1.9-4.2l10.6-4
	C87,231.4,88.9,232.2,89.5,233.9L89.5,233.9z"/>
<path class="st5" d="M260.8,227.5c0.1,1.8,1.6,3.1,3.4,3l10.4-0.6c1.8-0.1,3.1-1.6,3-3.4l-0.5-8.5c-0.1-1.8-1.6-3.1-3.4-3l-10.4,0.6
	c-1.8,0.1-3.1,1.6-3,3.4L260.8,227.5z"/>
<path class="st5" d="M252.5,224c0.1,1.8,1.6,3.1,3.4,3l11.3-0.6c1.8-0.1,3.1-1.6,3-3.4l0,0c-0.1-1.8-1.6-3.1-3.4-3l-11.3,0.6
	C253.8,220.7,252.4,222.2,252.5,224L252.5,224z"/>
<path class="st5" d="M239.8,159.2c0,0-16.3-8-72-4.9c-52.7,3-69.6,13.4-69.6,13.4S84.9,228.7,85,230l2.9,51c0.1,1.8,1.6,3.1,3.4,3
	l0.5,0l166.1-9.3l0.5,0c1.8-0.1,3.1-1.6,3-3.4l-2.9-51C258.5,218.9,239.8,159.2,239.8,159.2z M231.8,168.8l14.9,48.9L97.6,226
	l9.8-50.2c0,0,11.3-8.4,61.1-11.2C210.7,162.2,231.8,168.8,231.8,168.8z"/>
<path class="st6" d="M247.4,249.3c0.3,5.9-4.2,10.9-10.1,11.3c-5.9,0.3-10.9-4.2-11.3-10.1c-0.3-5.9,5,2.8,10.8,2.5
	C242.8,252.7,247.1,243.4,247.4,249.3z"/>
<path class="st7" d="M209.8,245c0.1,1.2-0.8,2.2-2,2.3l-69.3,3.9c-1.2,0.1-2.2-0.8-2.3-2l0,0c-0.1-1.2,0.8-2.2,2-2.3l69.3-3.9
	C208.7,242.9,209.8,243.8,209.8,245L209.8,245z"/>
<path class="st7" d="M210.2,252.3c0.1,1.2-0.8,2.2-2,2.3l-69.3,3.9c-1.2,0.1-2.2-0.8-2.3-2l0,0c-0.1-1.2,0.8-2.2,2-2.3l69.3-3.9
	C209.2,250.2,210.2,251.1,210.2,252.3L210.2,252.3z"/>
<path class="st7" d="M210.7,259.7c0.1,1.2-0.8,2.2-2,2.3l-69.3,3.9c-1.2,0.1-2.2-0.8-2.3-2l0,0c-0.1-1.2,0.8-2.2,2-2.3l69.3-3.9
	C209.6,257.6,210.6,258.5,210.7,259.7L210.7,259.7z"/>
<g>
	<line class="st8" x1="101.8" y1="262.6" x2="114.3" y2="250.1"/>
	<line class="st8" x1="113.8" y1="262.6" x2="101.3" y2="250.1"/>
</g>
<g>
	<path class="st9" d="M347.4,118.3C344.5,97,324.7,74,324.7,74"/>
	<polyline class="st10" points="341.5,115.7 347.7,119.2 351.2,113 	"/>
</g>
<path class="st9" d="M304.7,117.3"/>
<text transform="matrix(1 0 0 1 273.1576 68.4958)" class="st1 st11 st12">lorem ipsum dolor sit amet</text>
<g>
	<path class="st13" d="M550.5,113.3c-7.4-16.3-9.9-34.6-9.9-34.6"/>
	<polyline class="st14" points="552.5,108.7 551,114.2 545.4,112.7 	"/>
</g>
<text transform="matrix(1 0 0 1 504.8918 71.0019)" class="st3 st11 st12">Cras vel vulputate est</text>
<g>
	<path class="st9" d="M263.8,178.2c13-17.1,15.3-47.4,15.3-47.4"/>
	<polyline class="st10" points="261.4,172.1 263.3,178.9 270.2,177 	"/>
</g>
<text transform="matrix(1 0 0 1 229.0786 124.1572)" class="st1 st11 st12">consectetur adipiscing elit</text>
<g>
	<circle class="st1" cx="261.2" cy="66.2" r="5.8"/>
	<text transform="matrix(1 0 0 1 259.3245 68.6624)" class="st3 st15 st16">1</text>
</g>
<g>
	<circle class="st1" cx="217.9" cy="121.7" r="5.8"/>
	<text transform="matrix(1 0 0 1 216.2859 123.6656)" class="st3 st15 st16">2</text>
</g>
<g>
	<circle class="st3" cx="492.5" cy="68.3" r="5.8"/>
	<text transform="matrix(1 0 0 1 490.9072 70.2906)" class="st1 st15 st16">3</text>
</g>
<g>
	<g>
		<path class="st17" d="M364.2,302.8c0.4-0.8,0.7-1.6,0.7-2.5c0-2.8-2.4-5.1-5.2-5.1l-15.9,0.2c-2.8,0-5.1,2.4-5.1,5.2
			c0,0.9,0.3,1.8,0.7,2.5L364.2,302.8z"/>
		<path class="st18" d="M338.9,301.8c0.1,0.5,0.3,0.9,0.5,1.3l24.7-0.3c0.2-0.4,0.4-0.8,0.5-1.3L338.9,301.8z"/>
	</g>
	<path class="st19" d="M365.8,224.2c0,0-2.7,44.9-6.1,71c0,0-10.9,5.4-20.9,5.4c0,0,3.5-72.9,0-77.5L365.8,224.2z"/>
	<rect x="345.6" y="156.2" class="st20" width="10.9" height="11.5"/>
	<path class="st20" d="M363.8,138.7c0,0,1.6,7.1,4.4,10.4l-3.8,1.4c0,0,3,10.6,0.7,11.3c-2.3,0.7-18.1-2.4-20.7-6.4l0.2-3.2
		c0,0-3.4,0.9-1.7-6.1c1.6-6.4,4.1,0.8,4.1,0.8l0.1-9.2C347,137.8,361.2,127.3,363.8,138.7z"/>
	<path class="st21" d="M346.5,148l1.3,0c0,0,1.4-6,0-9.8c0,0,21.6,4.6,19.1-2.9c-2.5-7.4-24.4-9.6-24.9-1.1c0,0-11.6,3.8-1.7,17.5
		c0,0,1.9,2.1,1.4,4.4l1.1-1l2,0.7l-0.1-3.6c0,0-3-0.1-1.9-5.1C343.7,142.3,346.4,144.2,346.5,148z"/>
	<polygon class="st22" points="358.6,168.6 341.8,168.6 341.8,163.1 358.6,166.7 	"/>
	<path class="st23" d="M358.6,168.6c0,0,10.7,5,9.8,21.3c-0.9,16.3,0.1,36.8,0.1,36.8s-21.9-4.2-31.1-0.8c0,0-1.1-50.3,4.4-57.4
		H358.6z"/>
	<polyline class="st24" points="340.6,176.6 324.7,198.1 338.8,211.3 	"/>
	<ellipse transform="matrix(0.5928 -0.8054 0.8054 0.5928 -33.7546 363.968)" class="st20" cx="343" cy="215.4" rx="5.8" ry="7.1"/>
	
		<linearGradient id="SVGID_1_" gradientUnits="userSpaceOnUse" x1="352.9319" y1="1.51" x2="352.9319" y2="45.422" gradientTransform="matrix(1 0 0 -1 0 350.067)">
		<stop  offset="0" style="stop-color:#FFFFFF"/>
		<stop  offset="1" style="stop-color:#010202"/>
	</linearGradient>
	<path class="st25" d="M360.4,312.5c3.5,26.1,6.1,34.8,6.1,34.8l-27.1,1.2c3.5-4.6,0-41.4,0-41.4c0-0.7,0.2-1.3,0.4-1.9l0,0
		c0.1-0.2,0.2-0.4,0.3-0.6l24.7,0.3c0.1,0.2,0.2,0.4,0.3,0.6l0,0c0.1,0.2,0.2,0.4,0.2,0.7l0,0l0,0c0.1,0.4,0.2,0.8,0.1,1.2
		C365.6,310.2,363.3,312.5,360.4,312.5z"/>
</g>
<g>
	<path class="st26" d="M531.6,291.7c-0.4-0.8-0.7-1.6-0.7-2.4c0-2.7,2.3-5,5.1-5l15.5,0.2c2.7,0,5,2.3,5,5.1c0,0.9-0.3,1.8-0.7,2.4
		L531.6,291.7z"/>
	<path class="st27" d="M556.2,290.7c-0.1,0.5-0.3,0.9-0.5,1.3l-24.1-0.3c-0.2-0.4-0.4-0.8-0.5-1.3L556.2,290.7z"/>
	<path class="st28" d="M530,215c0,0,2.6,43.8,6,69.3c0,0,10.6,5.3,20.4,5.3c0,0-3.4-71.1,0-75.6L530,215z"/>
	
		<linearGradient id="SVGID_2_" gradientUnits="userSpaceOnUse" x1="-18.9283" y1="964.3403" x2="-18.9283" y2="920.5414" gradientTransform="matrix(-1 0 0 1 524.299 -627.933)">
		<stop  offset="0" style="stop-color:#FFFFFF"/>
		<stop  offset="1" style="stop-color:#020304"/>
	</linearGradient>
	<path class="st29" d="M536,300.3c-3.4,25.5-6,34.9-6,34.9l26.4,1.2c-3.4-4.5,0-41.4,0-41.4c0-0.7-0.2-1.3-0.4-1.9l0,0
		c-0.1-0.2-0.2-0.4-0.3-0.6l-24.1,0.3c-0.1,0.2-0.2,0.4-0.3,0.6l0,0c-0.1,0.2-0.2,0.4-0.2,0.7l0,0l0,0c-0.1,0.4-0.2,0.8-0.1,1.2
		C531,298,533.2,300.3,536,300.3z"/>
	<rect x="539.1" y="148.7" class="st20" width="10.6" height="16.7"/>
	<path class="st20" d="M531.9,131.6c0,0-1.6,6.9-4.3,10.1l3.7,1.4c0,0-2.9,10.3-0.7,11s17.7-2.3,20.2-6.2l-0.2-3.1
		c0,0,3.3,0.9,1.7-6c-1.6-6.2-4,0.8-4,0.8l-0.1-9C548.3,130.6,534.4,120.4,531.9,131.6z"/>
	<path class="st30" d="M537,160.7c0,0-10.4,4.9-9.6,20.8c0.9,15.9-0.1,35.9-0.1,35.9s21.4-4.1,30.3-0.8c0,0,1.1-49.1-4.3-56
		L537,160.7L537,160.7z"/>
	
		<ellipse transform="matrix(0.8054 -0.5928 0.5928 0.8054 -25.9141 366.6902)" class="st20" cx="545.4" cy="222.8" rx="6.9" ry="5.7"/>
	<polyline class="st31" points="544.5,170.8 536.8,193.4 518.5,206.7 	"/>
	<g>
		
			<rect x="504.1" y="194.3" transform="matrix(0.5971 -0.8022 0.8022 0.5971 41.2672 489.4613)" class="st3" width="7.6" height="18.6"/>
		<g>
			<path class="st32" d="M512.9,211.4l-14-10.4l3.9-5.3l14,10.4L512.9,211.4z M499.8,200.9l13,9.7l3.1-4.2l-13-9.7L499.8,200.9z"/>
		</g>
		
			<ellipse transform="matrix(0.5971 -0.8022 0.8022 0.5971 44.8538 482.7673)" class="st32" cx="503" cy="196.7" rx="0.7" ry="0.7"/>
		
			<ellipse transform="matrix(0.5971 -0.8022 0.8022 0.5971 40.3801 481.8587)" class="st32" cx="499.9" cy="200.7" rx="0.7" ry="0.7"/>
		
			<ellipse transform="matrix(0.5971 -0.8022 0.8022 0.5971 42.3409 496.9803)" class="st32" cx="515.9" cy="206.3" rx="0.7" ry="0.7"/>
		
			<ellipse transform="matrix(0.5971 -0.8022 0.8022 0.5971 37.7796 496.0807)" class="st32" cx="512.7" cy="210.4" rx="0.7" ry="0.7"/>
		<ellipse transform="matrix(0.5971 -0.8022 0.8022 0.5971 41.9976 485.3547)" class="st32" cx="504.2" cy="200.9" rx="1" ry="1"/>
		<ellipse transform="matrix(0.5971 -0.8022 0.8022 0.5971 40.6206 493.537)" class="st32" cx="511.6" cy="206.3" rx="1" ry="1"/>
		
			<ellipse transform="matrix(0.5971 -0.8022 0.8022 0.5971 41.3091 489.4458)" class="st32" cx="507.9" cy="203.6" rx="2.1" ry="2.1"/>
		<g>
			<path class="st3" d="M508.4,203.5c0.1-0.2,0-0.5-0.2-0.6c-0.2-0.1-0.4-0.1-0.4,0c-0.1,0.2,0.1,0.4,0.2,0.6c0.2,0.3,0.4,0.7,0.2,1
				c-0.2,0.3-0.6,0.4-1,0.2l-0.2,0.2l-0.4-0.3l0.2-0.2c-0.3-0.3-0.3-0.6-0.2-1l0.4,0.2c-0.1,0.2-0.1,0.5,0.2,0.7
				c0.2,0.2,0.4,0.1,0.5,0c0.1-0.2-0.1-0.4-0.3-0.7c-0.2-0.3-0.4-0.6-0.1-0.9c0.2-0.3,0.6-0.3,0.9-0.1l0.2-0.2l0.4,0.3l-0.2,0.2
				c0.2,0.3,0.3,0.6,0.2,0.9L508.4,203.5z"/>
		</g>
	</g>
	
		<ellipse transform="matrix(0.8054 -0.5928 0.5928 0.8054 -23.2716 345.8507)" class="st20" cx="515" cy="208.4" rx="6.9" ry="5.7"/>
	<path class="st20" d="M556.3,135.5c-1.1,15.3-5.5,12.2-12.2,12.2s-12.2-5.5-12.2-12.2c0-6.7,2.2-11.1,12.2-11.2
		C550.9,124.2,556.8,128.8,556.3,135.5z"/>
</g>
<g>
	<path class="st33" d="M495.6,302.2c-0.4-0.8-0.7-1.6-0.7-2.5c0-2.8,2.4-5.1,5.2-5.1l15.9,0.2c2.8,0,5.1,2.4,5.1,5.2
		c0,0.9-0.3,1.8-0.7,2.5L495.6,302.2z"/>
	<path class="st27" d="M520.9,301.2c-0.1,0.5-0.3,0.9-0.5,1.3l-24.7-0.3c-0.2-0.4-0.4-0.8-0.5-1.3L520.9,301.2z"/>
	<path class="st34" d="M494,223.6c0,0,2.7,44.9,6.1,71c0,0,10.9,5.4,20.9,5.4c0,0-3.5-72.9,0-77.5L494,223.6z"/>
	
		<linearGradient id="SVGID_3_" gradientUnits="userSpaceOnUse" x1="16.7046" y1="975.9954" x2="16.7046" y2="931.0954" gradientTransform="matrix(-1 0 0 1 524.299 -627.933)">
		<stop  offset="0" style="stop-color:#FFFFFF"/>
		<stop  offset="1" style="stop-color:#020304"/>
	</linearGradient>
	<path class="st35" d="M500.1,311c-3.5,26.1-6.1,35.8-6.1,35.8l27.1,1.2c-3.5-4.6,0-42.4,0-42.4c0-0.7-0.2-1.3-0.4-1.9l0,0
		c-0.1-0.2-0.2-0.4-0.3-0.6l-24.7,0.3c-0.1,0.2-0.2,0.4-0.3,0.6l0,0c-0.1,0.2-0.2,0.4-0.2,0.7l0,0l0,0c-0.1,0.4-0.2,0.8-0.1,1.2
		C495,308.7,497.3,311,500.1,311z"/>
	<rect x="503.3" y="155.6" class="st20" width="10.9" height="11.5"/>
	<path class="st20" d="M495.9,138.1c0,0-1.6,7.1-4.4,10.4l3.8,1.4c0,0-3,10.6-0.7,11.3s18.1-2.4,20.7-6.4l-0.2-3.2
		c0,0,3.4,0.9,1.7-6.1c-1.6-6.4-4.1,0.8-4.1,0.8l-0.1-9.2C512.7,137.1,498.5,126.6,495.9,138.1z"/>
	<polygon class="st22" points="501.2,167.9 518,167.9 518,162.4 501.2,166 	"/>
	<path class="st22" d="M501.2,167.9c0,0-10.7,5-9.8,21.3s-0.1,36.8-0.1,36.8s21.9-4.2,31.1-0.8c0,0,1.1-50.3-4.4-57.4h-16.8V167.9z"
		/>
	<polyline class="st36" points="508.9,178.3 501,201.5 482.2,215.1 	"/>
	<path class="st37" d="M513.1,147.2h-1.2c0,0-1.3-5.9,0-9.6c0,0-27.3,8.8-20-10.1c0,0,0.3-0.4,1-0.8c0.4-0.3,0.3,1.9,0.9,1.7
		c0.3-0.1,1.2-2.7,1.6-2.8c0.6-0.2,0.6,2.2,1.3,2.1c0.4,0,1.4-2.5,1.7-2.5c0.8,0,0.8,2.7,1.3,2.9c1,0.5,1.8-1.2,1.8-1.2
		s-1.1,3.5,5.5,2c6.5-1.5,10.3,1.8,10.6,4.9c0,0,11.4,3.7,1.7,17.2c0,0-1.9,2-1.4,4.3l-1.1-1l-2,0.7l0.1-3.5c0,0,2.9-0.1,1.9-5
		C515.8,141.6,513.1,143.5,513.1,147.2z"/>
	<g>
		
			<rect x="467.5" y="202.4" transform="matrix(0.5971 -0.8022 0.8022 0.5971 19.8799 463.5158)" class="st3" width="7.8" height="19.1"/>
		<g>
			<path class="st32" d="M476.5,219.9l-14.4-10.7l4-5.4l14.4,10.7L476.5,219.9z M463,209.1l13.3,9.9l3.2-4.3l-13.3-9.9L463,209.1z"
				/>
		</g>
		
			<ellipse transform="matrix(0.5971 -0.8022 0.8022 0.5971 23.5566 456.6535)" class="st32" cx="466.4" cy="204.9" rx="0.7" ry="0.7"/>
		<ellipse transform="matrix(0.5971 -0.8022 0.8022 0.5971 18.9705 455.722)" class="st32" cx="463.1" cy="209" rx="0.7" ry="0.7"/>
		
			<ellipse transform="matrix(0.5971 -0.8022 0.8022 0.5971 20.9806 471.2238)" class="st32" cx="479.6" cy="214.7" rx="0.7" ry="0.7"/>
		
			<ellipse transform="matrix(0.5971 -0.8022 0.8022 0.5971 16.3046 470.3016)" class="st32" cx="476.3" cy="218.9" rx="0.7" ry="0.7"/>
		<ellipse transform="matrix(0.5971 -0.8022 0.8022 0.5971 20.6286 459.306)" class="st32" cx="467.5" cy="209.1" rx="1" ry="1"/>
		<ellipse transform="matrix(0.5971 -0.8022 0.8022 0.5971 19.217 467.694)" class="st32" cx="475.2" cy="214.7" rx="1" ry="1"/>
		
			<ellipse transform="matrix(0.5971 -0.8022 0.8022 0.5971 19.9228 463.4999)" class="st32" cx="471.4" cy="211.9" rx="2.2" ry="2.2"/>
		<g>
			<path class="st3" d="M471.8,211.8c0.1-0.2,0-0.5-0.2-0.6s-0.4-0.1-0.4,0c-0.1,0.2,0.1,0.4,0.2,0.6c0.2,0.3,0.4,0.7,0.2,1
				c-0.2,0.3-0.6,0.4-1,0.2l-0.2,0.2l-0.4-0.3l0.2-0.2c-0.3-0.3-0.3-0.6-0.2-1l0.4,0.2c-0.1,0.2-0.1,0.5,0.2,0.7
				c0.2,0.2,0.4,0.1,0.5,0c0.1-0.2-0.1-0.4-0.3-0.7c-0.2-0.3-0.4-0.6-0.1-0.9c0.2-0.3,0.6-0.3,0.9-0.1l0.2-0.2l0.4,0.3l-0.2,0.2
				c0.2,0.3,0.3,0.6,0.2,0.9L471.8,211.8z"/>
		</g>
	</g>
	
		<ellipse transform="matrix(0.8054 -0.5928 0.5928 0.8054 -35.3456 325.9501)" class="st20" cx="478.7" cy="216.8" rx="7.1" ry="5.8"/>
	<polyline class="st36" points="508.8,174.5 512.8,196.1 510.7,229 	"/>
	
		<ellipse transform="matrix(0.8054 -0.5928 0.5928 0.8054 -38.0546 347.3135)" class="st20" cx="509.9" cy="231.6" rx="7.1" ry="5.8"/>
</g>
<g>
	<path class="st38" d="M583.7,274.6c-0.4-0.7-0.6-1.4-0.6-2.2c0-2.5,2.1-4.5,4.6-4.5l14,0.2c2.5,0,4.5,2.1,4.5,4.6
		c0,0.8-0.3,1.6-0.6,2.2L583.7,274.6z"/>
	<path class="st27" d="M606,273.7c-0.1,0.4-0.3,0.8-0.4,1.1l-21.8-0.3c-0.2-0.4-0.4-0.7-0.4-1.1L606,273.7z"/>
	<path class="st39" d="M582.3,205.3c0,0,2.4,39.6,5.4,62.6c0,0,9.6,4.8,18.4,4.8c0,0-3.1-64.3,0-68.3L582.3,205.3z"/>
	
		<linearGradient id="SVGID_4_" gradientUnits="userSpaceOnUse" x1="-69.9373" y1="942.9325" x2="-69.9373" y2="903.343" gradientTransform="matrix(-1 0 0 1 524.299 -627.933)">
		<stop  offset="0" style="stop-color:#FFFFFF"/>
		<stop  offset="1" style="stop-color:#020304"/>
	</linearGradient>
	<path class="st40" d="M587.7,282.3c-3.1,23-5.4,31.6-5.4,31.6l23.9,1.1c-3.1-4.1,0-37.4,0-37.4c0-0.6-0.2-1.1-0.4-1.7l0,0
		c-0.1-0.2-0.2-0.4-0.3-0.5l-21.8,0.3c-0.1,0.2-0.2,0.4-0.3,0.5l0,0c-0.1,0.2-0.2,0.4-0.2,0.6l0,0l0,0c-0.1,0.4-0.2,0.7-0.1,1.1
		C583.2,280.3,585.2,282.3,587.7,282.3z"/>
	<rect x="590.5" y="145.3" class="st20" width="9.6" height="13.4"/>
	<polyline class="st41" points="595.4,165.3 588.5,185.8 571.9,197.8 	"/>
	<g>
		
			<rect x="558.8" y="186.6" transform="matrix(0.5971 -0.8022 0.8022 0.5971 70.1266 529.6202)" class="st3" width="6.9" height="16.8"/>
		<g>
			<path class="st32" d="M566.9,202l-12.7-9.4l3.5-4.8l12.7,9.4L566.9,202z M555,192.5l11.7,8.7l2.8-3.8l-11.7-8.7L555,192.5z"/>
		</g>
		
			<ellipse transform="matrix(0.5971 -0.8022 0.8022 0.5971 73.3685 523.5695)" class="st32" cx="557.9" cy="188.7" rx="0.6" ry="0.6"/>
		
			<ellipse transform="matrix(0.5971 -0.8022 0.8022 0.5971 69.3247 522.7482)" class="st32" cx="555" cy="192.4" rx="0.6" ry="0.6"/>
		
			<ellipse transform="matrix(0.5971 -0.8022 0.8022 0.5971 71.0971 536.4166)" class="st32" cx="569.5" cy="197.4" rx="0.6" ry="0.6"/>
		
			<ellipse transform="matrix(0.5971 -0.8022 0.8022 0.5971 66.9742 535.6034)" class="st32" cx="566.7" cy="201.1" rx="0.6" ry="0.6"/>
		
			<ellipse transform="matrix(0.5971 -0.8022 0.8022 0.5971 70.7868 525.9083)" class="st32" cx="558.9" cy="192.5" rx="0.9" ry="0.9"/>
		
			<ellipse transform="matrix(0.5971 -0.8022 0.8022 0.5971 69.5421 533.3042)" class="st32" cx="565.7" cy="197.4" rx="0.9" ry="0.9"/>
		
			<ellipse transform="matrix(0.5971 -0.8022 0.8022 0.5971 70.1644 529.6062)" class="st32" cx="562.3" cy="195" rx="1.9" ry="1.9"/>
		<g>
			<path class="st3" d="M562.7,194.9c0.1-0.2,0-0.4-0.2-0.5c-0.2-0.1-0.4-0.1-0.4,0c-0.1,0.2,0.1,0.4,0.2,0.5
				c0.2,0.3,0.4,0.6,0.2,0.9c-0.2,0.3-0.5,0.4-0.9,0.2l-0.2,0.2l-0.4-0.3l0.2-0.2c-0.3-0.3-0.3-0.5-0.2-0.9l0.4,0.2
				c-0.1,0.2-0.1,0.4,0.2,0.6c0.2,0.2,0.4,0.1,0.4,0c0.1-0.2-0.1-0.4-0.3-0.6c-0.2-0.3-0.4-0.5-0.1-0.8c0.2-0.3,0.5-0.3,0.8-0.1
				l0.2-0.2l0.4,0.3l-0.2,0.2c0.2,0.3,0.3,0.5,0.2,0.8L562.7,194.9z"/>
		</g>
	</g>
	
		<ellipse transform="matrix(0.8054 -0.5928 0.5928 0.8054 -7.4207 375.9225)" class="st20" cx="568.7" cy="199.3" rx="6.3" ry="5.1"/>
	<polyline class="st41" points="595.3,161.9 598.8,181 596.9,210 	"/>
	
		<ellipse transform="matrix(0.8054 -0.5928 0.5928 0.8054 -9.8092 394.7592)" class="st20" cx="596.2" cy="212.3" rx="6.3" ry="5.1"/>
</g>
<g>
	<path class="st33" d="M551.6,317.1c-0.4-0.8-0.7-1.6-0.7-2.5c0-2.8,2.4-5.1,5.2-5.1l15.9,0.2c2.8,0,5.1,2.4,5.1,5.2
		c0,0.9-0.3,1.8-0.7,2.5L551.6,317.1z"/>
	<path class="st27" d="M576.9,316.1c-0.1,0.5-0.3,0.9-0.5,1.3l-24.7-0.3c-0.2-0.4-0.4-0.8-0.5-1.3L576.9,316.1z"/>
	<path class="st42" d="M550,238.5c0,0,2.7,44.9,6.1,71c0,0,10.9,5.4,20.9,5.4c0,0-3.5-72.9,0-77.5L550,238.5z"/>
	
		<linearGradient id="SVGID_5_" gradientUnits="userSpaceOnUse" x1="-39.6407" y1="978.4954" x2="-39.6407" y2="945.8954" gradientTransform="matrix(-1 0 0 1 524.299 -627.933)">
		<stop  offset="0" style="stop-color:#FFFFFF"/>
		<stop  offset="1" style="stop-color:#020304"/>
	</linearGradient>
	<path class="st43" d="M556.1,325.9c-3.5,26.1-5.7,23.5-5.7,23.5l27.1,1.2c-3.5-4.6-0.4-30.1-0.4-30.1c0-0.7-0.2-1.3-0.4-1.9l0,0
		c-0.1-0.2-0.2-0.4-0.3-0.6l-24.7,0.3c-0.1,0.2-0.2,0.4-0.3,0.6l0,0c-0.1,0.2-0.2,0.4-0.2,0.7l0,0l0,0c-0.1,0.4-0.2,0.8-0.1,1.2
		C551,323.6,553.3,325.9,556.1,325.9z"/>
	<rect x="559.3" y="170.5" class="st20" width="10.9" height="11.5"/>
	<path class="st20" d="M551.9,153c0,0-1.6,7.1-4.4,10.4l3.8,1.4c0,0-3,10.6-0.7,11.3s18.1-2.4,20.7-6.4l-0.2-3.2
		c0,0,3.4,0.9,1.7-6.1c-1.6-6.4-4.1,0.8-4.1,0.8l-0.1-9.2C568.7,152,554.5,141.5,551.9,153z"/>
	<polygon class="st22" points="557.2,182.8 574,182.8 574,177.3 557.2,180.9 	"/>
	<path class="st42" d="M557.2,182.8c0,0-4.2,2-7.1,7.4c-1.7,3.3-3,7.8-2.7,13.9c0.9,16.3-0.1,36.8-0.1,36.8s21.9-4.2,31.1-0.8
		c0,0,1.1-50.3-4.4-57.4h-16.8V182.8z"/>
	<polyline class="st44" points="564.2,190.8 568.2,212.4 566.1,245.3 	"/>
	<polyline class="st44" points="564.9,193.2 557,216.4 538.2,230 	"/>
	<path class="st45" d="M569.1,162.1h-1.2c0,0-1.3-5.9,0-9.6c0,0-15.9-1.4-15.3-1.6c-1.1,0.1-5.1-3.9,10.4-7.1
		c6.5-1.5,10.3,1.8,10.6,4.9c0,0,11.4,3.7,1.7,17.2l-2.5,3.3l-2.7,1.7l0.8-4.5c0,0,2.9-0.1,1.9-5
		C571.8,156.5,569.1,158.4,569.1,162.1z"/>
	<path class="st22" d="M549.8,190.8l8.9-8.1h-1.5C557.2,182.7,552.1,185.5,549.8,190.8z"/>
	<path class="st46" d="M568.3,263.4H563c-4.3,0-7.8-3.5-7.8-7.8l0,0c0-4.3,3.5-7.8,7.8-7.8h5.3c4.3,0,7.8,3.5,7.8,7.8l0,0
		C576.1,259.8,572.6,263.4,568.3,263.4z"/>
	
		<ellipse transform="matrix(0.8054 -0.5928 0.5928 0.8054 -35.9408 383.4839)" class="st20" cx="566" cy="246.5" rx="7.1" ry="5.8"/>
	<path class="st47" d="M588.6,290.4h-46c-2.8,0-5-2.2-5-5v-24.8c0-2.7,2.2-5,5-5h46c2.8,0,5,2.2,5,5v24.8
		C593.6,288.1,591.3,290.4,588.6,290.4z"/>
	<g>
		<path class="st48" d="M564.6,273c-4.3,0-8.1-0.3-11.3-0.8c-10-1.4-15.4-4-15.7-4.1V266c0.2,0.1,24.3,10.9,56,0v2.1
			C582.5,271.9,572.8,273,564.6,273z"/>
	</g>
	<path class="st48" d="M565.6,275.8L565.6,275.8c-1.2,0-2.2-1-2.2-2.2v-2c0-1.2,1-2.2,2.2-2.2l0,0c1.2,0,2.2,1,2.2,2.2v2
		C567.8,274.9,566.8,275.8,565.6,275.8z"/>
	<g>
		
			<rect x="526.6" y="219.1" transform="matrix(0.5971 -0.8022 0.8022 0.5971 30.3166 517.6955)" class="st3" width="7.8" height="19.1"/>
		<g>
			<path class="st32" d="M535.7,236.6l-14.4-10.7l4-5.4l14.4,10.7L535.7,236.6z M522.2,225.8l13.3,9.9l3.2-4.3l-13.3-9.9
				L522.2,225.8z"/>
		</g>
		
			<ellipse transform="matrix(0.5971 -0.8022 0.8022 0.5971 34.0737 510.8138)" class="st32" cx="525.5" cy="221.5" rx="0.7" ry="0.7"/>
		
			<ellipse transform="matrix(0.5971 -0.8022 0.8022 0.5971 29.3933 510.0187)" class="st32" cx="522.4" cy="225.7" rx="0.7" ry="0.7"/>
		
			<ellipse transform="matrix(0.5971 -0.8022 0.8022 0.5971 31.408 525.3933)" class="st32" cx="538.7" cy="231.4" rx="0.7" ry="0.7"/>
		
			<ellipse transform="matrix(0.5971 -0.8022 0.8022 0.5971 26.8434 524.5639)" class="st32" cx="535.6" cy="235.6" rx="0.7" ry="0.7"/>
		<ellipse transform="matrix(0.5971 -0.8022 0.8022 0.5971 31.0559 513.4755)" class="st32" cx="526.7" cy="225.8" rx="1" ry="1"/>
		<ellipse transform="matrix(0.5971 -0.8022 0.8022 0.5971 29.6442 521.8636)" class="st32" cx="534.3" cy="231.4" rx="1" ry="1"/>
		
			<ellipse transform="matrix(0.5971 -0.8022 0.8022 0.5971 30.35 517.6695)" class="st32" cx="530.5" cy="228.6" rx="2.2" ry="2.2"/>
		<g>
			<path class="st3" d="M531.1,228.5c0.1-0.2,0-0.5-0.2-0.6s-0.4-0.1-0.4,0c-0.1,0.2,0.1,0.4,0.2,0.6c0.2,0.3,0.4,0.7,0.2,1
				s-0.6,0.4-1,0.2l-0.2,0.2l-0.4-0.3l0.2-0.2c-0.3-0.3-0.3-0.6-0.2-1l0.4,0.2c-0.1,0.2-0.1,0.5,0.2,0.7c0.2,0.2,0.4,0.1,0.5,0
				c0.1-0.2-0.1-0.4-0.3-0.7s-0.4-0.6-0.1-0.9c0.2-0.3,0.6-0.3,0.9-0.1l0.2-0.2l0.4,0.3l-0.2,0.2c0.2,0.3,0.3,0.6,0.2,0.9
				L531.1,228.5z"/>
		</g>
	</g>
	<g>
		
			<rect x="527.6" y="215.7" transform="matrix(0.8426 -0.5385 0.5385 0.8426 -37.6575 321.6457)" class="st3" width="7.8" height="19.1"/>
		<g>
			<path class="st32" d="M533.6,234.7l-9.6-15.1l5.6-3.6l9.6,15.1L533.6,234.7z M524.8,219.8l9,14l4.6-2.9l-9-14L524.8,219.8z"/>
		</g>
		
			<ellipse transform="matrix(0.8426 -0.5385 0.5385 0.8426 -33.4969 319.1543)" class="st32" cx="529.3" cy="216.9" rx="0.7" ry="0.7"/>
		
			<ellipse transform="matrix(0.8426 -0.5385 0.5385 0.8426 -35.7589 317.2383)" class="st32" cx="524.9" cy="219.8" rx="0.7" ry="0.7"/>
		
			<ellipse transform="matrix(0.8426 -0.5385 0.5385 0.8426 -39.5841 326.1361)" class="st32" cx="538.2" cy="230.8" rx="0.7" ry="0.7"/>
		
			<ellipse transform="matrix(0.8426 -0.5385 0.5385 0.8426 -41.7831 324.2086)" class="st32" cx="533.8" cy="233.6" rx="0.7" ry="0.7"/>
		<ellipse transform="matrix(0.8426 -0.5385 0.5385 0.8426 -35.9756 319.6984)" class="st32" cx="529" cy="221.4" rx="1" ry="1"/>
		<ellipse transform="matrix(0.8426 -0.5385 0.5385 0.8426 -39.4269 323.6923)" class="st32" cx="534.1" cy="229.3" rx="1" ry="1"/>
		
			<ellipse transform="matrix(0.8426 -0.5385 0.5385 0.8426 -37.7411 321.6872)" class="st32" cx="531.5" cy="225.4" rx="2.2" ry="2.2"/>
		<g>
			<path class="st3" d="M532.1,225.4c0.2-0.2,0.2-0.4,0.1-0.6c-0.1-0.2-0.3-0.2-0.4-0.2c-0.2,0.1-0.1,0.4,0,0.7
				c0.1,0.4,0.1,0.8-0.2,1s-0.7,0.1-1-0.2l-0.2,0.2l-0.3-0.4l0.2-0.2c-0.1-0.4-0.1-0.7,0.2-1l0.4,0.3c-0.2,0.2-0.2,0.4-0.1,0.7
				c0.1,0.2,0.3,0.3,0.5,0.2s0.1-0.4,0-0.8c-0.1-0.3-0.1-0.7,0.2-0.9s0.6-0.1,0.9,0.2l0.2-0.2l0.3,0.4l-0.2,0.2
				c0.1,0.3,0,0.7-0.2,0.9L532.1,225.4z"/>
		</g>
	</g>
	
		<ellipse transform="matrix(0.8054 -0.5928 0.5928 0.8054 -33.2631 361.9222)" class="st20" cx="534.5" cy="231.6" rx="7.1" ry="5.8"/>
</g>
<path class="st49" d="M588.6,156.2c0,0-9.4,4.4-8.6,18.8s-0.1,32.4-0.1,32.4s19.3-3.7,27.4-0.7c0,0,1-44.4-3.9-50.6L588.6,156.2
	L588.6,156.2z"/>
<path class="st50" d="M581.7,163.9l8.6-7.9h-1.7C588.6,156.1,584,158.1,581.7,163.9z"/>
<g>
	<path class="st38" d="M625.2,274.5c-0.3-0.7-0.6-1.3-0.6-2.1c0-2.3,2-4.2,4.3-4.2l13.2,0.2c2.3,0,4.2,2,4.2,4.3
		c0,0.7-0.2,1.5-0.6,2.1L625.2,274.5z"/>
	<path class="st27" d="M646.3,273.7c-0.1,0.4-0.2,0.7-0.4,1.1l-20.6-0.2c-0.2-0.3-0.3-0.7-0.4-1.1L646.3,273.7z"/>
	<path class="st39" d="M623.9,209.1c0,0,2.2,37.4,5.1,59.1c0,0,9.1,4.5,17.4,4.5c0,0-2.9-60.7,0-64.6L623.9,209.1z"/>
	
		<linearGradient id="SVGID_6_" gradientUnits="userSpaceOnUse" x1="-110.8413" y1="940.6727" x2="-110.8413" y2="903.2748" gradientTransform="matrix(-1 0 0 1 524.299 -627.933)">
		<stop  offset="0" style="stop-color:#FFFFFF"/>
		<stop  offset="1" style="stop-color:#020304"/>
	</linearGradient>
	<path class="st51" d="M628.9,281.9c-2.9,21.7-5.1,29.8-5.1,29.8l22.6,1c-2.9-3.8,0-35.3,0-35.3c0-0.6-0.2-1.1-0.3-1.6l0,0
		c-0.1-0.2-0.2-0.3-0.2-0.5l-20.6,0.2c-0.1,0.2-0.2,0.3-0.2,0.5l0,0c-0.1,0.2-0.2,0.3-0.2,0.6l0,0l0,0c-0.1,0.3-0.2,0.7-0.1,1
		C624.7,280,626.6,281.9,628.9,281.9z"/>
	<rect x="631.6" y="152.4" class="st20" width="9.1" height="17.5"/>
	<path class="st20" d="M625.4,137.9c0,0-1.3,5.9-3.7,8.7l3.2,1.2c0,0-2.5,8.8-0.6,9.4c1.9,0.6,15.1-2,17.2-5.3l-0.2-2.7
		c0,0,2.8,0.7,1.4-5.1c-1.3-5.3-3.4,0.7-3.4,0.7l-0.1-7.7C639.4,137,627.6,128.3,625.4,137.9z"/>
	<path class="st52" d="M629.9,162.7c0,0-8.9,4.2-8.2,17.7c0.7,13.6-0.1,30.7-0.1,30.7s18.2-3.5,25.9-0.7c0,0,0.9-41.9-3.7-47.8
		L629.9,162.7L629.9,162.7z"/>
	<polyline class="st53" points="636.3,171.3 629.7,190.7 614,202 	"/>
	<path class="st54" d="M639.8,145.4h-1c0,0-1.1-4.9,0-8c0,0-22.7,7.3-16.7-8.4c0,0,0.2-0.3,0.8-0.7c0.3-0.2,0.2,1.6,0.7,1.4
		c0.2-0.1,1-2.2,1.3-2.3c0.5-0.2,0.5,1.8,1.1,1.7c0.3,0,1.2-2.1,1.4-2.1c0.7,0,0.7,2.2,1.1,2.4c0.8,0.4,1.5-1,1.5-1
		s-0.9,2.9,4.6,1.7c5.4-1.2,8.6,1.5,8.8,4.1c0,0,9.5,3.1,1.4,14.3c0,0-1.6,1.7-1.2,3.6l-0.9-0.8l-1.7,0.6l0.1-2.9
		c0,0,2.4-0.1,1.6-4.2C642,140.8,639.8,142.4,639.8,145.4z"/>
	<g>
		
			<rect x="601.7" y="191.4" transform="matrix(0.5971 -0.8022 0.8022 0.5971 83.8041 565.6176)" class="st3" width="6.5" height="15.9"/>
		<g>
			<path class="st32" d="M609.3,206l-12-8.9l3.3-4.5l12,8.9L609.3,206z M598,197l11.1,8.2l2.7-3.6l-11.1-8.2L598,197z"/>
		</g>
		
			<ellipse transform="matrix(0.5971 -0.8022 0.8022 0.5971 86.8665 559.9019)" class="st32" cx="600.8" cy="193.5" rx="0.6" ry="0.6"/>
		
			<ellipse transform="matrix(0.5971 -0.8022 0.8022 0.5971 83.0466 559.126)" class="st32" cx="598.1" cy="196.9" rx="0.6" ry="0.6"/>
		
			<ellipse transform="matrix(0.5971 -0.8022 0.8022 0.5971 84.7209 572.0377)" class="st32" cx="611.8" cy="201.7" rx="0.6" ry="0.6"/>
		
			<ellipse transform="matrix(0.5971 -0.8022 0.8022 0.5971 80.8262 571.2696)" class="st32" cx="609.1" cy="205.2" rx="0.6" ry="0.6"/>
		
			<ellipse transform="matrix(0.5971 -0.8022 0.8022 0.5971 84.4277 562.1111)" class="st32" cx="601.8" cy="197" rx="0.8" ry="0.8"/>
		
			<ellipse transform="matrix(0.5971 -0.8022 0.8022 0.5971 83.252 569.0977)" class="st32" cx="608.1" cy="201.7" rx="0.8" ry="0.8"/>
		
			<ellipse transform="matrix(0.5971 -0.8022 0.8022 0.5971 83.8398 565.6044)" class="st32" cx="605" cy="199.3" rx="1.8" ry="1.8"/>
		<g>
			<path class="st3" d="M605.4,199.2c0.1-0.2,0-0.4-0.2-0.5s-0.3-0.1-0.3,0c-0.1,0.2,0.1,0.3,0.2,0.5c0.2,0.2,0.3,0.6,0.2,0.8
				c-0.2,0.2-0.5,0.3-0.8,0.2l-0.2,0.2l-0.3-0.2l0.2-0.2c-0.2-0.2-0.2-0.5-0.2-0.8l0.3,0.2c-0.1,0.2-0.1,0.4,0.2,0.6
				c0.2,0.2,0.3,0.1,0.4,0c0.1-0.2-0.1-0.3-0.2-0.6s-0.3-0.5-0.1-0.7c0.2-0.2,0.5-0.2,0.7-0.1l0.2-0.2l0.3,0.2l-0.2,0.2
				c0.2,0.2,0.2,0.5,0.2,0.7L605.4,199.2z"/>
		</g>
	</g>
	
		<ellipse transform="matrix(0.8054 -0.5928 0.5928 0.8054 -1.6432 401.8131)" class="st20" cx="611.1" cy="203.4" rx="5.9" ry="4.8"/>
	<polyline class="st55" points="636.1,168.1 639.4,186.1 637.7,213.5 	"/>
	<ellipse transform="matrix(0.8054 -0.5928 0.5928 0.8054 -3.8995 419.6071)" class="st20" cx="637" cy="215.7" rx="5.9" ry="4.8"/>
</g>
<path class="st20" d="M583.1,127.8c0,0-1.6,7.1-4.4,10.4l3.8,1.4c0,0-3,10.6-0.7,11.3s18.1-2.4,20.7-6.4l-0.2-3.2
	c0,0,3.4,0.9,1.7-6.1c-1.6-6.4-4.1,0.8-4.1,0.8l-0.1-9.2C599.9,126.8,585.7,116.3,583.1,127.8z"/>
<path class="st56" d="M600.3,136.9h-1.2c0,0-1.3-5.9,0-9.6c0,0-15.9-1.4-15.3-1.6c-1.1,0.1-5.1-3.9,10.4-7.1
	c6.5-1.5,10.3,1.8,10.6,4.9c0,0,11.4,3.7,1.7,17.2L604,144l-2.7,1.7l0.8-4.5c0,0,2.9-0.1,1.9-5C603,131.3,600.3,133.2,600.3,136.9z"
	/>
<g>
	<path class="st57" d="M609.4,305.3c-0.4-0.8-0.7-1.6-0.7-2.5c0-2.9,2.4-5.2,5.3-5.2l16.2,0.2c2.9,0,5.2,2.4,5.2,5.3
		c0,0.9-0.3,1.8-0.7,2.5L609.4,305.3z"/>
	<path class="st27" d="M635.2,304.3c-0.1,0.5-0.3,0.9-0.5,1.3l-25.2-0.3c-0.2-0.4-0.4-0.8-0.5-1.3L635.2,304.3z"/>
	<path class="st58" d="M607.8,225.2c0,0,2.8,45.8,6.2,72.4c0,0,11.1,5.5,21.3,5.5c0,0-3.6-74.3,0-79L607.8,225.2z"/>
	
		<linearGradient id="SVGID_7_" gradientUnits="userSpaceOnUse" x1="-97.2848" y1="979.9773" x2="-97.2848" y2="934.2201" gradientTransform="matrix(-1 0 0 1 524.299 -627.933)">
		<stop  offset="0" style="stop-color:#FFFFFF"/>
		<stop  offset="1" style="stop-color:#020304"/>
	</linearGradient>
	<path class="st59" d="M614,314.3c-3.6,26.6-6.2,36.5-6.2,36.5l27.6,1.2c-3.6-4.7,0-43.2,0-43.2c0-0.7-0.2-1.3-0.4-1.9l0,0
		c-0.1-0.2-0.2-0.4-0.3-0.6l-25.2,0.3c-0.1,0.2-0.2,0.4-0.3,0.6l0,0c-0.1,0.2-0.2,0.4-0.2,0.7l0,0l0,0c-0.1,0.4-0.2,0.8-0.1,1.2
		C608.8,311.9,611.1,314.3,614,314.3z"/>
	<rect x="617.3" y="155.9" class="st20" width="11.1" height="21.4"/>
	<path class="st20" d="M609.7,138.1c0,0-1.6,7.2-4.5,10.6l3.9,1.4c0,0-3.1,10.8-0.7,11.5c2.3,0.7,18.4-2.4,21.1-6.5l-0.2-3.3
		c0,0,3.5,0.9,1.7-6.2c-1.6-6.5-4.2,0.8-4.2,0.8l-0.1-9.4C626.8,137.1,612.4,126.4,609.7,138.1z"/>
	<path class="st54" d="M615.1,168.4c0,0-10.9,5.1-10,21.7c0.9,16.6-0.1,37.5-0.1,37.5s22.3-4.3,31.7-0.8c0,0,1.1-51.3-4.5-58.5
		h-17.1V168.4z"/>
	<polyline class="st60" points="623,179 614.9,202.7 595.7,216.5 	"/>
	<path class="st61" d="M627.2,147.4H626c0,0-1.3-6,0-9.8c0,0-27.8,9-20.4-10.3c0,0,0.3-0.4,1-0.8c0.4-0.3,0.3,1.9,0.9,1.7
		c0.3-0.1,1.2-2.8,1.6-2.9c0.6-0.2,0.6,2.2,1.3,2.1c0.4,0,1.4-2.5,1.7-2.5c0.8,0,0.8,2.8,1.3,3c1,0.5,1.8-1.2,1.8-1.2
		s-1.1,3.6,5.6,2c6.6-1.5,10.5,1.8,10.8,5c0,0,11.6,3.8,1.7,17.5c0,0-1.9,2-1.4,4.4l-1.1-1l-2,0.7l0.1-3.6c0,0,3-0.1,1.9-5.1
		C630,141.6,627.2,143.6,627.2,147.4z"/>
	<g>
		
			<rect x="580.7" y="203.6" transform="matrix(0.5971 -0.8022 0.8022 0.5971 64.4193 554.9581)" class="st3" width="7.9" height="19.5"/>
		<g>
			<path class="st32" d="M589.9,221.4l-14.7-10.9l4.1-5.5l14.7,10.9L589.9,221.4z M576.2,210.4l13.6,10.1l3.3-4.4l-13.6-10.1
				L576.2,210.4z"/>
		</g>
		
			<ellipse transform="matrix(0.5971 -0.8022 0.8022 0.5971 68.1663 547.9648)" class="st32" cx="579.6" cy="206.1" rx="0.7" ry="0.7"/>
		
			<ellipse transform="matrix(0.5971 -0.8022 0.8022 0.5971 63.4926 547.0156)" class="st32" cx="576.3" cy="210.3" rx="0.7" ry="0.7"/>
		
			<ellipse transform="matrix(0.5971 -0.8022 0.8022 0.5971 65.5411 562.8133)" class="st32" cx="593" cy="216.2" rx="0.7" ry="0.7"/>
		
			<ellipse transform="matrix(0.5971 -0.8022 0.8022 0.5971 60.7758 561.8734)" class="st32" cx="589.7" cy="220.4" rx="0.7" ry="0.7"/>
		<ellipse transform="matrix(0.5971 -0.8022 0.8022 0.5971 65.1824 550.6679)" class="st32" cx="580.8" cy="210.4" rx="1" ry="1"/>
		<ellipse transform="matrix(0.5971 -0.8022 0.8022 0.5971 63.7438 559.2161)" class="st32" cx="588.6" cy="216.2" rx="1" ry="1"/>
		
			<ellipse transform="matrix(0.5971 -0.8022 0.8022 0.5971 64.4631 554.9419)" class="st32" cx="584.7" cy="213.3" rx="2.2" ry="2.2"/>
		<g>
			<path class="st3" d="M585.2,213.2c0.1-0.2,0-0.5-0.2-0.6c-0.2-0.1-0.4-0.1-0.4,0c-0.1,0.2,0.1,0.4,0.2,0.6c0.2,0.3,0.4,0.7,0.2,1
				c-0.2,0.3-0.6,0.4-1,0.2l-0.2,0.2l-0.4-0.3l0.2-0.2c-0.3-0.3-0.3-0.6-0.2-1l0.4,0.2c-0.1,0.2-0.1,0.5,0.2,0.7
				c0.2,0.2,0.4,0.1,0.5,0c0.1-0.2-0.1-0.4-0.3-0.7c-0.2-0.3-0.4-0.6-0.1-0.9c0.2-0.3,0.6-0.3,0.9-0.1l0.2-0.2l0.4,0.3l-0.2,0.2
				c0.2,0.3,0.3,0.6,0.2,0.9L585.2,213.2z"/>
		</g>
	</g>
	
		<ellipse transform="matrix(0.8054 -0.5928 0.5928 0.8054 -14.1419 393.4803)" class="st20" cx="592.1" cy="218.3" rx="7.2" ry="5.9"/>
	<polyline class="st60" points="622.8,175.1 626.8,197.1 624.7,230.7 	"/>
	
		<ellipse transform="matrix(0.8054 -0.5928 0.5928 0.8054 -16.9025 415.2516)" class="st20" cx="623.9" cy="233.4" rx="7.2" ry="5.9"/>
</g>
<path class="st62" d="M688.2,156.9c0,0-16.1,13.9-18.2,37.9"/>
<ellipse transform="matrix(0.1557 -0.9878 0.9878 0.1557 373.0913 826.3276)" class="st63" cx="669.9" cy="194.9" rx="5.8" ry="4.9"/>
<g>
	<path class="st64" d="M770.4,157.2c0,0-14.6,13.1-24.9,28.1"/>
	<path class="st64" d="M804,157.2c0,0,14.6,13.1,24.9,28.1"/>
</g>
<path class="st63" d="M794.3,152.4c-4.3-3.1-1.2-8.3-1.2-8.3l-6-0.2l-6,0.2c0,0,2.9,5.3-1.2,8.3c-5,3.6,7.2,3.3,7.2,3.3
	S799.3,156,794.3,152.4z"/>
<polygon class="st65" points="787.2,201.6 770.4,200.7 770.4,261.3 781.3,261.3 787.2,219.9 787.2,219.9 793,261.3 804,261.3 
	804,200.7 "/>
<path class="st49" d="M782.8,263c0.1-0.4,0.1-0.8,0.1-1.2c0-3.9-3.2-7-7-7c-3.9,0-7,3.2-7,7c0,0.4,0.1,0.8,0.1,1.2H782.8z"/>
<path class="st66" d="M768.8,262.1c0,0.3,0.1,0.7,0.1,1h13.9c0.1-0.3,0.1-0.7,0.1-1H768.8z"/>
<path class="st49" d="M791.6,263c-0.1-0.4-0.1-0.8-0.1-1.2c0-3.9,3.2-7,7-7c3.9,0,7,3.2,7,7c0,0.4-0.1,0.8-0.1,1.2H791.6z"/>
<path class="st66" d="M791.4,262.1c0,0.3,0.1,0.7,0.1,1h13.9c0.1-0.3,0.1-0.7,0.1-1H791.4z"/>
<g>
	<ellipse class="st63" cx="776.4" cy="133.8" rx="2.5" ry="3.3"/>
	<ellipse class="st63" cx="797.9" cy="133.8" rx="2.5" ry="3.3"/>
</g>
<path class="st63" d="M781,147.2h12.3c2.7-3.4,4.3-7.1,4.3-12.8c0-7.6-1.5-13.8-10.5-13.8s-10.5,6.2-10.5,13.8
	C776.7,139.9,778.2,143.7,781,147.2z"/>
<path class="st56" d="M797.5,122.6l0.9,7.9l-1,0.1v2.9l-2-0.2c0,0-0.2-5.2-1.5-7.4c0,0-2.9,0.9-6.9,0.9c-4,0-6.9-0.9-6.9-0.9
	c-1.3,2.3-1.5,7.5-1.5,7.5l-2,0.2v-3l-1-0.1l0.9-7.9c0,0,0.8-4.1,10.4-4.1C796.7,118.6,797.5,122.6,797.5,122.6z"/>
<path class="st62" d="M720.5,157.2c0,0,14.6,13.1,24.9,28.1"/>
<path class="st63" d="M710.9,152.4c-4.3-3.1-1.2-8.3-1.2-8.3l-6-0.2l-6,0.2c0,0,2.9,5.3-1.2,8.3c-5,3.6,7.2,14,7.2,14
	S715.9,156,710.9,152.4z"/>
<polygon class="st67" points="703.7,201.6 686.9,200.7 686.9,261.3 697.9,261.3 703.7,219.9 703.7,219.9 709.5,261.3 720.5,261.3 
	720.5,200.7 "/>
<g>
	<path class="st26" d="M699.2,263c0.1-0.4,0.1-0.8,0.1-1.2c0-3.9-3.2-7-7-7c-3.9,0-7,3.2-7,7c0,0.4,0.1,0.8,0.1,1.2H699.2z"/>
	<path class="st66" d="M685.2,262.1c0,0.3,0.1,0.7,0.1,1h13.9c0.1-0.3,0.1-0.7,0.1-1H685.2z"/>
</g>
<g>
	<path class="st26" d="M707.9,263c-0.1-0.4-0.1-0.8-0.1-1.2c0-3.9,3.2-7,7-7c3.9,0,7,3.2,7,7c0,0.4-0.1,0.8-0.1,1.2H707.9z"/>
	<path class="st66" d="M707.8,262.1c0,0.3,0.1,0.7,0.1,1h13.9c0.1-0.3,0.1-0.7,0.1-1H707.8z"/>
</g>
<g class="st68">
	
		<linearGradient id="SVGID_8_" gradientUnits="userSpaceOnUse" x1="787.1931" y1="23.5882" x2="787.1931" y2="85.9707" gradientTransform="matrix(1 0 0 -1 0 350.067)">
		<stop  offset="0" style="stop-color:#FFFFFF"/>
		<stop  offset="1" style="stop-color:#010202"/>
	</linearGradient>
	<path class="st69" d="M791.5,264.1c-0.1,0.4-0.1,0.8-0.1,1.2c0,1.4,0.4,2.7,1.1,3.8l-5.3,38.3l-5.3-38.3c0.7-1.1,1.1-2.4,1.1-3.8
		c0-0.4-0.1-0.8-0.1-1.2H769c-0.1,0.3-0.1,0.7-0.1,1l0,0l0,0c0,0.1,0,0.2,0,0.2c0,1.6,0.6,3.2,1.6,4.4v56.7l16.8-1l16.8,1v-56.7
		c1-1.2,1.6-2.7,1.6-4.4c0-0.4-0.1-0.8-0.1-1.2H791.5z"/>
	
		<linearGradient id="SVGID_9_" gradientUnits="userSpaceOnUse" x1="703.5785" y1="23.5882" x2="703.5785" y2="85.9708" gradientTransform="matrix(1 0 0 -1 0 350.067)">
		<stop  offset="0" style="stop-color:#FFFFFF"/>
		<stop  offset="1" style="stop-color:#010202"/>
	</linearGradient>
	<path class="st70" d="M707.9,264.1c-0.1,0.4-0.1,0.8-0.1,1.2c0,1.5,0.5,2.9,1.2,4l-5.3,38l-5.4-38.5c0.6-1.1,1-2.2,1-3.5
		c0-0.4-0.1-0.8-0.1-1.2h-13.9c-0.1,0.4-0.1,0.8-0.1,1.2c0,1.8,0.7,3.4,1.7,4.6v56.6l16.8-1l16.8,1v-57c0.9-1.1,1.4-2.6,1.4-4.2
		c0-0.4-0.1-0.8-0.1-1.2L707.9,264.1L707.9,264.1z"/>
</g>
<g>
	<ellipse class="st63" cx="693" cy="133.8" rx="2.5" ry="3.3"/>
	<ellipse class="st63" cx="714.5" cy="133.8" rx="2.5" ry="3.3"/>
</g>
<path class="st63" d="M697.6,147.2h12.3c2.7-3.4,4.3-7.1,4.3-12.8c0-7.6-1.5-13.8-10.5-13.8s-10.5,6.2-10.5,13.8
	C693.2,139.9,694.8,143.7,697.6,147.2z"/>
<g>
	<path class="st71" d="M813.7,168.1c0,0-6.6,13.4-26.1,22.1"/>
	<line class="st72" x1="818.5" y1="214.5" x2="818.5" y2="262.6"/>
	<path class="st6" d="M823.1,263.4c0-0.3,0.1-0.5,0.1-0.8c0-2.6-2.1-4.7-4.7-4.7c-2.6,0-4.7,2.1-4.7,4.7c0,0.3,0,0.5,0.1,0.8H823.1z
		"/>
	<line class="st72" x1="832.7" y1="214.5" x2="832.7" y2="262.6"/>
	<path class="st73" d="M835.5,194.8h-9.9h-9.9c0,0-7.1,8.8-3,37.6h12.9h12.9C842.6,203.7,835.5,194.8,835.5,194.8z"/>
	<path class="st71" d="M837.5,168.1c0,0,27,16.2-1.5,30.6"/>
	<path class="st73" d="M836.9,171.9c0.8-4,4.3-4.4,4.3-4.4c-3.9-5.3-10.5-3.8-10.5-3.8l-5.2,8.5l-5.2-8.5c0,0-6.6-1.5-10.5,3.8
		c0,0,3.5,0.4,4.3,4.4c0,0.1,0,0.2,0.1,0.3c0.6,4.2-1.3,6.3,0.6,10.1c0,0,1.8,6,0.8,10.2h9.9h9.9c-0.9-4.5,0.8-10.2,0.8-10.2
		c1.9-3.8,0-5.8,0.6-10.1C836.9,172.1,836.9,172,836.9,171.9z"/>
	<path class="st20" d="M828.6,162.8c0,0-0.7-4.6,0.1-7.1c0.8-2.4-3.1,2-3.1,2s-3.8-4.4-3.1-2c0.8,2.4,0.1,7.1,0.1,7.1l-2.2,0.9
		c1.1,6.5,5.2,8.5,5.2,8.5s4.1-1.9,5.2-8.5L828.6,162.8z"/>
	<polygon class="st6" points="825.6,192.4 815.7,192.4 815.7,194.8 825.6,194.8 835.5,194.8 835.5,192.4 	"/>
	<path class="st6" d="M828.1,263.4c0-0.3-0.1-0.5-0.1-0.8c0-2.6,2.1-4.7,4.7-4.7c2.6,0,4.7,2.1,4.7,4.7c0,0.3,0,0.5-0.1,0.8H828.1z"
		/>
	<g class="st68">
		<linearGradient id="SVGID_10_" gradientUnits="userSpaceOnUse" x1="832.6808" y1="313.0103" x2="832.6808" y2="264.0963">
			<stop  offset="0" style="stop-color:#FFFFFF"/>
			<stop  offset="0.2711" style="stop-color:#FCFCFC"/>
			<stop  offset="0.4097" style="stop-color:#F0F0F1"/>
			<stop  offset="0.5184" style="stop-color:#DDDBDE"/>
			<stop  offset="0.6115" style="stop-color:#C3C1C4"/>
			<stop  offset="0.6947" style="stop-color:#A3A1A5"/>
			<stop  offset="0.7707" style="stop-color:#807D82"/>
			<stop  offset="0.8413" style="stop-color:#5A585E"/>
			<stop  offset="0.9077" style="stop-color:#343439"/>
			<stop  offset="0.9684" style="stop-color:#121317"/>
			<stop  offset="1" style="stop-color:#010202"/>
		</linearGradient>
		<path class="st74" d="M830,268.7V313h5.5v-44.4c1.2-0.8,1.9-2.2,1.9-3.8c0-0.3,0-0.5-0.1-0.8h-9.2c0,0.3-0.1,0.5-0.1,0.8
			C828,266.4,828.8,267.8,830,268.7z"/>
		<linearGradient id="SVGID_11_" gradientUnits="userSpaceOnUse" x1="818.5004" y1="313.0103" x2="818.5004" y2="264.0963">
			<stop  offset="0" style="stop-color:#FFFFFF"/>
			<stop  offset="0.2711" style="stop-color:#FCFCFC"/>
			<stop  offset="0.4097" style="stop-color:#F0F0F1"/>
			<stop  offset="0.5184" style="stop-color:#DDDBDE"/>
			<stop  offset="0.6115" style="stop-color:#C3C1C4"/>
			<stop  offset="0.6947" style="stop-color:#A3A1A5"/>
			<stop  offset="0.7707" style="stop-color:#807D82"/>
			<stop  offset="0.8413" style="stop-color:#5A585E"/>
			<stop  offset="0.9077" style="stop-color:#343439"/>
			<stop  offset="0.9684" style="stop-color:#121317"/>
			<stop  offset="1" style="stop-color:#010202"/>
		</linearGradient>
		<path class="st75" d="M815.8,268.7V313h5.5v-44.4c1.2-0.8,1.9-2.2,1.9-3.8c0-0.3,0-0.5-0.1-0.8h-9.2c0,0.3-0.1,0.5-0.1,0.8
			C813.8,266.4,814.6,267.8,815.8,268.7z"/>
	</g>
	<circle class="st6" cx="825.6" cy="132" r="4.5"/>
	<ellipse class="st20" cx="815.4" cy="147.5" rx="2.3" ry="3.1"/>
	<ellipse class="st20" cx="835.3" cy="147.5" rx="2.3" ry="3.1"/>
	<path class="st20" d="M835.3,148.1c0,9-6.8,12.8-9.7,12.8c-2.9,0-9.7-4.1-9.7-12.8c0-7.1,1.4-12.8,9.7-12.8
		C833.9,135.3,835.3,141,835.3,148.1z"/>
	<g>
		<circle class="st73" cx="815.2" cy="150.5" r="1.4"/>
		<circle class="st73" cx="836" cy="150.5" r="1.4"/>
	</g>
	<path class="st6" d="M831.2,142c0,0-7.1,6.3-15.1,2.5c0,0-1.4-9.9,9.6-9.9c10.9,0,9.6,9.8,9.6,9.8S832.4,144.6,831.2,142z"/>
	<linearGradient id="SVGID_12_" gradientUnits="userSpaceOnUse" x1="744.502" y1="332.72" x2="744.502" y2="264.0963">
		<stop  offset="0" style="stop-color:#FFFFFF"/>
		<stop  offset="0.2711" style="stop-color:#FCFCFC"/>
		<stop  offset="0.4097" style="stop-color:#F0F0F1"/>
		<stop  offset="0.5184" style="stop-color:#DDDBDE"/>
		<stop  offset="0.6115" style="stop-color:#C3C1C4"/>
		<stop  offset="0.6947" style="stop-color:#A3A1A5"/>
		<stop  offset="0.7707" style="stop-color:#807D82"/>
		<stop  offset="0.8413" style="stop-color:#5A585E"/>
		<stop  offset="0.9077" style="stop-color:#343439"/>
		<stop  offset="0.9684" style="stop-color:#121317"/>
		<stop  offset="1" style="stop-color:#010202"/>
	</linearGradient>
	<path class="st76" d="M731.6,274.4c-4.1,49.5,3,58.4,3,58.4h9.9h9.9c0,0,7.1-8.8,3-58.4h-3.1v-5.7c1.2-0.8,1.9-2.2,1.9-3.8
		c0-0.3,0-0.5-0.1-0.8H747c0,0.3-0.1,0.5-0.1,0.8c0,1.6,0.8,2.9,1.9,3.8v5.7h-8.7v-5.7c1.2-0.8,1.9-2.2,1.9-3.8c0-0.3,0-0.5-0.1-0.8
		h-9.2c0,0.3-0.1,0.5-0.1,0.8c0,1.6,0.8,2.9,1.9,3.8v5.7H731.6z"/>
	<g>
		<path class="st71" d="M756.4,168.1c0,0-1.5,1.3,23.8,23.1"/>
		<path class="st71" d="M732.6,168.1c0,0,1.5,1.3-23.8,23.1"/>
		<path class="st17" d="M758.5,156.3c0,7.8-6.3,14-14,14l0,0c-7.8,0-14-6.3-14-14v-10.1c0-7.8,6.3-14,14-14l0,0c7.8,0,14,6.3,14,14
			V156.3z"/>
		<line class="st72" x1="737.4" y1="214.5" x2="737.4" y2="262.7"/>
		<path class="st77" d="M742,263.4c0-0.3,0.1-0.5,0.1-0.8c0-2.6-2.1-4.7-4.7-4.7c-2.6,0-4.7,2.1-4.7,4.7c0,0.3,0,0.5,0.1,0.8H742z"
			/>
		<line class="st72" x1="751.6" y1="214.5" x2="751.6" y2="262.7"/>
		<path class="st77" d="M747,263.4c0-0.3-0.1-0.5-0.1-0.8c0-2.6,2.1-4.7,4.7-4.7c2.6,0,4.7,2.1,4.7,4.7c0,0.3,0,0.5-0.1,0.8H747z"/>
		<path class="st78" d="M754.4,194.8h-9.9h-9.9c0,0-7.1,8.8-3,58.4h25.8C761.5,203.7,754.4,194.8,754.4,194.8z"/>
		<polygon class="st79" points="744.5,192.4 734.6,192.4 734.6,194.8 744.5,194.8 754.4,194.8 754.4,192.4 		"/>
		<ellipse class="st20" cx="734.1" cy="147.2" rx="2.3" ry="3.1"/>
		<ellipse class="st20" cx="754.5" cy="147.2" rx="2.3" ry="3.1"/>
		<path class="st78" d="M755.9,171.9c0.8-4,4.3-4.4,4.3-4.4c-3.9-5.3-10.5-3.8-10.5-3.8l-5.2,4.4l-5.2-4.4c0,0-6.6-1.5-10.5,3.8
			c0,0,3.5,0.4,4.3,4.4c0,0.1,0,0.2,0.1,0.3c0.6,4.2-1.3,6.3,0.6,10.1c0,0,1.8,6,0.8,10.2h9.9h9.9c-0.9-4.5,0.8-10.2,0.8-10.2
			c1.9-3.8,0-5.8,0.6-10.1C755.8,172.1,755.9,172,755.9,171.9z"/>
		<path class="st20" d="M747.5,162.8c0,0-0.7-4.6,0.1-7.1c0.8-2.4-3.1,2-3.1,2s-3.8-4.4-3.1-2c0.8,2.4,0.1,7.1,0.1,7.1l-2.2,0.9
			c1.1,6.5,5.2,5,5.2,5s4.1,1.5,5.2-5L747.5,162.8z"/>
		<path class="st20" d="M754.5,147.7c0,9.2-7,13.1-10,13.1c-3,0-10-4.2-10-13.1c0-7.2,1.4-13.1,10-13.1
			C753.1,134.6,754.5,140.5,754.5,147.7z"/>
		<path class="st17" d="M750.2,141.6c0,0-7.2,6.4-15.5,2.6c0,0-1.4-10.2,9.8-10.2c11.2,0,9.8,10.1,9.8,10.1S751.5,144.2,750.2,141.6
			z"/>
	</g>
</g>
<path class="st80" d="M722,151.2h-12.2c-2.5,4.7-9.7,4.7-12.2,0h-12.3c0,0,2.6,22,0.2,51.1h18.2h18.2
	C719.4,173.2,722,151.2,722,151.2z"/>
<path class="st81" d="M707.8,200.7l1.5-50.2c0.2-0.2,0.3-0.6,0.6-0.9h13c0,0-3.4,22-1,51.1H707.8z"/>
<path class="st81" d="M699.6,200.7l-1.5-50.2c-0.2-0.2-0.3-0.6-0.6-0.9h-13c0,0,3.4,22,1,51.1H699.6z"/>
<path class="st50" d="M805.2,153.1l-11.9-1.9c-2.5,4.7-6.1,3.8-6.1,3.8s-3.7,0.8-6.1-3.8l-13,1.9c0,0,3.4,20,1,49.1h18.2h18.2
	C802.9,173.2,805.2,153.1,805.2,153.1z"/>
<path class="st49" d="M791.2,202.3l1.5-50.2c0.2-0.2,0.3-0.6,0.6-0.9l11.9,1.9c0,0-2.4,20,0.1,49.1L791.2,202.3L791.2,202.3z"/>
<path class="st49" d="M783.1,202.3l-1.5-50.2c-0.2-0.2-0.3-0.6-0.6-0.9l-13,1.9c0,0,3.4,20,1,49.1L783.1,202.3L783.1,202.3z"/>
</svg>
