<?xml version="1.0" encoding="utf-8"?>
<!-- Generator: Adobe Illustrator 19.2.0, SVG Export Plug-In . SVG Version: 6.00 Build 0)  -->
<svg version="1.1" id="Calque_1" xmlns="http://www.w3.org/2000/svg" xmlns:xlink="http://www.w3.org/1999/xlink" x="0px" y="0px"
	 viewBox="0 0 879.1 348" style="enable-background:new 0 0 879.1 348;" xml:space="preserve">
<style type="text/css">
	.st0{fill:none;stroke:#BA105C;stroke-width:12;stroke-linecap:round;stroke-miterlimit:10;}
	.st1{fill:#FBC680;}
	.st2{fill:none;stroke:#8F4291;stroke-width:12;stroke-linecap:round;stroke-miterlimit:10;}
	.st3{fill:none;stroke:#EFDF89;stroke-width:12;stroke-linecap:round;stroke-miterlimit:10;}
	.st4{fill:none;stroke:#26547D;stroke-width:12;stroke-linecap:round;stroke-miterlimit:10;}
	.st5{fill:#DCBF7B;}
	.st6{fill:#26527C;}
	.st7{fill:#333333;}
	.st8{fill:#007390;}
	.st9{fill:#4DBBBD;}
	.st10{fill:#088C94;}
	.st11{fill:#EFDF89;}
	.st12{fill:#522710;}
	.st13{fill:#F09034;}
	.st14{fill:#4A4A49;}
	.st15{fill:#2D2D2D;}
	.st16{fill:#8F4291;}
	.st17{fill:#212952;}
	.st18{fill:#754D24;}
	.st19{opacity:0.1;}
	.st20{fill:url(#SVGID_1_);}
	.st21{fill:url(#SVGID_2_);}
	.st22{fill:url(#SVGID_3_);}
	.st23{fill:url(#SVGID_4_);}
	.st24{fill:#B9105C;}
	.st25{fill:#58194C;}
	.st26{fill:none;stroke:#EFDF88;stroke-width:12;stroke-linecap:round;stroke-miterlimit:10;}
	.st27{fill:#27537C;}
	.st28{fill:#343434;}
	.st29{fill:#0D8D95;}
	.st30{fill:#3C3C3B;}
	.st31{fill:#3DB49C;}
	.st32{opacity:0.1;fill:url(#SVGID_5_);enable-background:new    ;}
	.st33{fill:#F0E08A;}
	.st34{fill:#349B86;}
	.st35{fill:#412413;}
	.st36{fill:#035D53;}
	.st37{opacity:0.1;fill:url(#SVGID_6_);enable-background:new    ;}
	.st38{fill:#FCC880;}
	.st39{fill:#532810;}
	.st40{fill:#F0F0F0;}
	.st41{fill:#1D1C3E;}
	.st42{fill:none;stroke:#1D1D3D;stroke-width:16;stroke-linecap:round;stroke-linejoin:round;stroke-miterlimit:10;}
	.st43{fill:none;stroke:#F0E089;stroke-width:4;stroke-linecap:round;stroke-miterlimit:10;}
	.st44{fill:#5F5E5E;}
	.st45{fill:#23201D;}
	.st46{fill:#2E2B28;}
	.st47{fill:#2488C9;}
	.st48{fill:#383432;}
	.st49{fill:#15140F;}
	.st50{fill:#FFFFFF;}
	.st51{opacity:0.4;fill:#262321;enable-background:new    ;}
	.st52{fill:none;stroke:#383432;stroke-width:0.25;stroke-miterlimit:10;}
</style>
<g>
	<path class="st0" d="M28.4,143.6c0,0-19.7,17-22.2,46.4"/>
	<ellipse transform="matrix(0.1557 -0.9878 0.9878 0.1557 -182.5315 166.5223)" class="st1" cx="6.1" cy="190" rx="7.1" ry="6"/>
	<g>
		<path class="st2" d="M125.8,144c0,0,17.8,16,30.5,34.4"/>
		<path class="st2" d="M84.7,144c0,0-17.8,16-30.5,34.4"/>
	</g>
	<path class="st3" d="M199,144c0,0-17.8,16-30.5,34.4"/>
	<g>
		<path class="st4" d="M141.2,144c0,0-17.8,16-30.5,34.4"/>
		<path class="st4" d="M182.3,144c0,0,17.8,16,30.5,34.4"/>
	</g>
	<path class="st1" d="M170.5,138.1c-5.2-3.8-1.5-10.2-1.5-10.2l-7.3-0.2l-7.3,0.2c0,0,3.6,6.5-1.5,10.2c-6.1,4.4,8.8,4,8.8,4
		S176.6,142.5,170.5,138.1z"/>
	<polygon class="st5" points="161.7,198.3 141.2,197.1 141.2,271.3 154.6,271.3 161.7,220.6 161.7,220.6 168.8,271.3 182.3,271.3 
		182.3,197.1 	"/>
	<path class="st6" d="M156.4,273.4c0.1-0.5,0.1-1,0.1-1.5c0-4.8-3.9-8.6-8.6-8.6c-4.8,0-8.6,3.9-8.6,8.6c0,0.5,0.1,1,0.1,1.5H156.4z
		"/>
	<path class="st7" d="M139.3,272.3c0,0.4,0.1,0.8,0.1,1.2h17c0.1-0.4,0.1-0.8,0.1-1.2H139.3z"/>
	<path class="st6" d="M167.1,273.4c-0.1-0.5-0.1-1-0.1-1.5c0-4.8,3.9-8.6,8.6-8.6c4.8,0,8.6,3.9,8.6,8.6c0,0.5-0.1,1-0.1,1.5H167.1z
		"/>
	<path class="st7" d="M166.9,272.3c0,0.4,0.1,0.8,0.1,1.2h17c0.1-0.4,0.1-0.8,0.1-1.2H166.9z"/>
	<g>
		<ellipse class="st1" cx="148.6" cy="115.3" rx="3" ry="4"/>
		<ellipse class="st1" cx="174.9" cy="115.3" rx="3" ry="4"/>
	</g>
	<path class="st1" d="M154.2,131.7h15.1c3.3-4.2,5.2-8.7,5.2-15.7c0-9.3-1.8-16.9-12.8-16.9c-11,0-12.8,7.6-12.8,16.9
		C148.9,122.8,150.8,127.5,154.2,131.7z"/>
	<path class="st8" d="M183.8,139l-14.6-2.3c-3,5.7-7.5,4.7-7.5,4.7s-4.5,1-7.5-4.7l-15.9,2.3c0,0,4.2,24.5,1.2,60.1h22.2h22.2
		C180.9,163.5,183.8,139,183.8,139z"/>
	<path class="st6" d="M166.7,199.1l1.8-61.4c0.2-0.3,0.4-0.7,0.7-1.1l14.6,2.3c0,0-2.9,24.5,0.1,60.1H166.7z"/>
	<path class="st6" d="M156.7,199.1l-1.8-61.4c-0.2-0.3-0.4-0.7-0.7-1.1l-15.9,2.3c0,0,4.2,24.5,1.2,60.1H156.7z"/>
	<path class="st1" d="M210.8,138.1c5.2-3.8,1.5-10.2,1.5-10.2l7.3-0.2l7.3,0.2c0,0-3.6,6.5,1.5,10.2c6.1,4.4-8.8,12.2-8.8,12.2
		S204.7,142.5,210.8,138.1z"/>
	<polygon class="st9" points="219.6,198.3 240.1,197.1 240.1,271.3 226.6,271.3 219,220.6 219,220.6 212.5,271.3 199,271.3 
		199,197.1 	"/>
	<g>
		<path class="st10" d="M225.1,273.4c-0.1-0.5-0.1-1-0.1-1.5c0-4.8,3.9-8.6,8.6-8.6c4.8,0,8.6,3.9,8.6,8.6c0,0.5-0.1,1-0.1,1.5
			H225.1z"/>
		<path class="st7" d="M242.2,272.3c0,0.4-0.1,0.8-0.1,1.2h-17c-0.1-0.4-0.1-0.8-0.1-1.2H242.2z"/>
	</g>
	<g>
		<path class="st10" d="M214.4,273.4c0.1-0.5,0.1-1,0.1-1.5c0-4.8-3.9-8.6-8.6-8.6c-4.8,0-8.6,3.9-8.6,8.6c0,0.5,0.1,1,0.1,1.5
			H214.4z"/>
		<path class="st7" d="M214.5,272.3c0,0.4-0.1,0.8-0.1,1.2h-17c-0.1-0.4-0.1-0.8-0.1-1.2H214.5z"/>
	</g>
	<g>
		<ellipse class="st1" cx="232.7" cy="115.3" rx="3" ry="4"/>
		<ellipse class="st1" cx="206.4" cy="115.3" rx="3" ry="4"/>
	</g>
	<path class="st1" d="M227.1,131.7h-15.1c-3.3-4.2-5.2-8.7-5.2-15.7c0-9.3,1.8-16.9,12.8-16.9c11,0,12.8,7.6,12.8,16.9
		C232.4,122.8,230.4,127.5,227.1,131.7z"/>
	<path class="st11" d="M197.5,139l14.6-2.3c3,5.7,7.5,13.7,7.5,13.7s4.5-7.9,7.5-13.7l15.2,2.3c0,0-3.5,24.5-0.5,60.1h-22.2h-22.2
		C200.4,163.5,197.5,139,197.5,139z"/>
	<path class="st12" d="M174.4,101.6l1.1,9.7l-1.2,0.1v3.6l-2.4-0.3c0,0-0.3-6.3-1.8-9.1c0,0-3.5,1.1-8.4,1.1c-4.9,0-8.4-1.1-8.4-1.1
		c-1.6,2.8-1.8,9.2-1.8,9.2l-2.4,0.3v-3.7l-1.2-0.1l1.1-9.7c0,0,1-5,12.7-5C173.4,96.7,174.4,101.6,174.4,101.6z"/>
	<path class="st13" d="M233.3,111.3c0,0,1.2-7.2-1.7-10.9c-2.9-3.7-14.3,1-19.7-15.1c0,0-1.5,6.7,0.5,9.5c0,0-2.9-0.2-3.9-2
		c0,0-0.4,4.3,1.3,5c0,0-3.5,1-5.4-1.1c0,0,0.7,4.4,2.3,5c0,0-0.7,2-2.3,1.5l2.3,2.3c0,0-1.2,3.6-0.9,5.9c0,0,1.1-0.2,1,0.7
		c0,0,2.4-5.7,3.2-6.1c0,0,8.5,5.3,18.9-1.2c0,0-0.6,4.2,3.3,6.8C232.2,111.6,232.1,111.4,233.3,111.3z"/>
	<path class="st0" d="M68,144c0,0,17.8,16,30.5,34.4"/>
	<path class="st1" d="M96.5,138.1c5.2-3.8,1.5-10.2,1.5-10.2l7.3-0.2l7.3,0.2c0,0-3.6,6.5,1.5,10.2c6.1,4.4-8.8,4-8.8,4
		S90.4,142.5,96.5,138.1z"/>
	<polygon class="st14" points="105.3,198.3 125.8,197.1 125.8,271.3 112.3,271.3 105.3,220.6 105.3,220.6 98.2,271.3 84.7,271.3 
		84.7,197.1 	"/>
	<path class="st15" d="M110.6,273.4c-0.1-0.5-0.1-1-0.1-1.5c0-4.8,3.9-8.6,8.6-8.6c4.8,0,8.6,3.9,8.6,8.6c0,0.5-0.1,1-0.1,1.5H110.6
		z"/>
	<path class="st7" d="M127.7,272.3c0,0.4-0.1,0.8-0.1,1.2h-17c-0.1-0.4-0.1-0.8-0.1-1.2H127.7z"/>
	<path class="st15" d="M99.9,273.4c0.1-0.5,0.1-1,0.1-1.5c0-4.8-3.9-8.6-8.6-8.6c-4.8,0-8.6,3.9-8.6,8.6c0,0.5,0.1,1,0.1,1.5H99.9z"
		/>
	<path class="st7" d="M100,272.3c0,0.4-0.1,0.8-0.1,1.2H83c-0.1-0.4-0.1-0.8-0.1-1.2H100z"/>
	<g>
		<ellipse class="st1" cx="118.4" cy="115.3" rx="3" ry="4"/>
		<ellipse class="st1" cx="92.1" cy="115.3" rx="3" ry="4"/>
	</g>
	<path class="st1" d="M112.8,131.7H97.6c-3.3-4.2-5.2-8.7-5.2-15.7c0-9.3,1.8-16.9,12.8-16.9c11,0,12.8,7.6,12.8,16.9
		C118.1,122.8,116.1,127.5,112.8,131.7z"/>
	<path class="st16" d="M83.2,138.8l14.6-2.2c3,5.7,7.5,4.7,7.5,4.7s4.5,1,7.5-4.7l15,2.2c0,0-3.3,24.7-0.3,60.3h-22.2H83.1
		C86.1,163.5,83.2,138.8,83.2,138.8z"/>
	<path class="st1" d="M56.2,138.1c-5.2-3.8-1.5-10.2-1.5-10.2l-7.3-0.2l-7.3,0.2c0,0,3.6,6.5-1.5,10.2c-6.1,4.4,8.8,17.1,8.8,17.1
		S62.3,142.5,56.2,138.1z"/>
	<polygon class="st17" points="47.4,198.3 26.9,197.1 26.9,271.3 40.3,271.3 47.4,220.6 47.4,220.6 54.5,271.3 68,271.3 68,197.1 	
		"/>
	<g>
		<path class="st18" d="M41.9,273.4c0.1-0.5,0.1-1,0.1-1.5c0-4.8-3.9-8.6-8.6-8.6c-4.8,0-8.6,3.9-8.6,8.6c0,0.5,0.1,1,0.1,1.5H41.9z
			"/>
		<path class="st7" d="M24.8,272.3c0,0.4,0.1,0.8,0.1,1.2h17c0.1-0.4,0.1-0.8,0.1-1.2H24.8z"/>
	</g>
	<g>
		<path class="st18" d="M52.5,273.4c-0.1-0.5-0.1-1-0.1-1.5c0-4.8,3.9-8.6,8.6-8.6c4.8,0,8.6,3.9,8.6,8.6c0,0.5-0.1,1-0.1,1.5H52.5z
			"/>
		<path class="st7" d="M52.4,272.3c0,0.4,0.1,0.8,0.1,1.2h17c0.1-0.4,0.1-0.8,0.1-1.2H52.4z"/>
	</g>
	<g class="st19">
		<linearGradient id="SVGID_1_" gradientUnits="userSpaceOnUse" x1="161.7098" y1="351.0086" x2="161.7098" y2="274.7135">
			<stop  offset="0" style="stop-color:#FFFFFF"/>
			<stop  offset="1" style="stop-color:#000000"/>
		</linearGradient>
		<path class="st20" d="M167.1,274.7c-0.1,0.5-0.1,1-0.1,1.5c0,1.7,0.5,3.3,1.3,4.6l-6.5,46.8l-6.5-46.8c0.8-1.3,1.3-2.9,1.3-4.6
			c0-0.5-0.1-1-0.1-1.5h-17c-0.1,0.4-0.1,0.8-0.1,1.2c0,0,0,0,0,0h0c0,0.1,0,0.2,0,0.3c0,2,0.7,3.9,1.9,5.4V351l20.5-1.2l20.5,1.2
			v-69.4c1.2-1.5,1.9-3.3,1.9-5.4c0-0.5-0.1-1-0.1-1.5H167.1z"/>
		<linearGradient id="SVGID_2_" gradientUnits="userSpaceOnUse" x1="219.7602" y1="351.0086" x2="219.7602" y2="274.7135">
			<stop  offset="0" style="stop-color:#FFFFFF"/>
			<stop  offset="1" style="stop-color:#000000"/>
		</linearGradient>
		<path class="st21" d="M242.2,275.9L242.2,275.9C242.2,275.9,242.2,275.9,242.2,275.9c0-0.4-0.1-0.8-0.1-1.2h-17
			c-0.1,0.5-0.1,1-0.1,1.5c0,1.5,0.4,3,1.1,4.2l-7.1,47.1l-5.9-46.5c1-1.4,1.5-3.1,1.5-4.9c0-0.5-0.1-1-0.1-1.5h-17
			c-0.1,0.5-0.1,1-0.1,1.5c0,1.9,0.6,3.7,1.7,5.1V351l20.5-1.2l20.5,1.2v-69.2c1.3-1.5,2.1-3.5,2.1-5.6
			C242.2,276.1,242.2,276,242.2,275.9z"/>
		<linearGradient id="SVGID_3_" gradientUnits="userSpaceOnUse" x1="105.2548" y1="351.0086" x2="105.2548" y2="274.7135">
			<stop  offset="0" style="stop-color:#FFFFFF"/>
			<stop  offset="1" style="stop-color:#000000"/>
		</linearGradient>
		<path class="st22" d="M127.7,275.9C127.7,275.9,127.7,275.9,127.7,275.9c0-0.4-0.1-0.8-0.1-1.2h-17c-0.1,0.5-0.1,1-0.1,1.5
			c0,1.7,0.5,3.3,1.3,4.6l-6.5,46.8l-6.5-46.8c0.8-1.3,1.3-2.9,1.3-4.6c0-0.5-0.1-1-0.1-1.5H83c-0.1,0.5-0.1,1-0.1,1.5
			c0,2,0.7,3.9,1.9,5.4V351l20.5-1.2l20.5,1.2v-69.4c1.2-1.5,1.9-3.3,1.9-5.4C127.7,276.1,127.7,276,127.7,275.9L127.7,275.9z"/>
		<linearGradient id="SVGID_4_" gradientUnits="userSpaceOnUse" x1="47.2042" y1="351.0086" x2="47.2042" y2="274.7135">
			<stop  offset="0" style="stop-color:#FFFFFF"/>
			<stop  offset="1" style="stop-color:#000000"/>
		</linearGradient>
		<path class="st23" d="M52.5,274.7c-0.1,0.5-0.1,1-0.1,1.5c0,1.8,0.6,3.5,1.5,4.9l-6.5,46.5l-6.6-47.1c0.7-1.3,1.2-2.7,1.2-4.3
			c0-0.5-0.1-1-0.1-1.5h-17c-0.1,0.5-0.1,1-0.1,1.5c0,2.2,0.8,4.1,2.1,5.6V351l20.5-1.2L68,351v-69.7c1.1-1.4,1.7-3.2,1.7-5.1
			c0-0.5-0.1-1-0.1-1.5H52.5z"/>
	</g>
	<g>
		<ellipse class="st1" cx="34.3" cy="115.3" rx="3" ry="4"/>
		<ellipse class="st1" cx="60.6" cy="115.3" rx="3" ry="4"/>
	</g>
	<path class="st1" d="M39.9,131.7h15.1c3.3-4.2,5.2-8.7,5.2-15.7c0-9.3-1.8-16.9-12.8-16.9c-11,0-12.8,7.6-12.8,16.9
		C34.6,122.8,36.5,127.5,39.9,131.7z"/>
	<path class="st24" d="M69.8,136.6H54.9c-3,5.7-11.9,5.7-14.9,0H25c0,0,3.2,26.9,0.2,62.5h22.2h22.2
		C66.6,163.5,69.8,136.6,69.8,136.6z"/>
	<path class="st11" d="M117.9,100.9l-1.2,0.3l-0.3-1l-1.5-0.7l-0.6-1.5l-1.2,0.2l-0.7-2.2l-1.1,0.6l-0.8-1.6l-1.6,1.1l-0.8-2.3
		l-1.7,2.1l-0.8-2.4c-0.2-0.6-0.3-1-0.3-1s-0.1,0.4-0.3,1l-0.8,2.4l-1.7-2.1l-0.8,2.3L100,95l-0.8,1.6L98.1,96l-0.7,2.2L96.2,98
		l-0.6,1.5l-1.5,0.7l-0.3,1l-1.2-0.3l-1.2,10.3l1.2,0.1v7.1l2.4-0.3c0,0,0.3-9.8,1.8-12.5c0,0,3.5,1.1,8.4,1.1
		c4.9,0,8.4-1.1,8.4-1.1c1.6,2.8,1.8,12.5,1.8,12.5l2.4,0.3v-7.1l1.2-0.1L117.9,100.9z"/>
	<path class="st25" d="M52.4,197.1l1.8-61.4c0.2-0.3,0.4-0.7,0.7-1.1h15.9c0,0-4.2,26.9-1.2,62.5H52.4z"/>
	<path class="st25" d="M42.4,197.1l-1.8-61.4c-0.2-0.3-0.4-0.7-0.7-1.1H24c0,0,4.2,26.9,1.2,62.5H42.4z"/>
	<path class="st26" d="M239.6,143.6c0,0,19.7,17,22.2,46.4"/>
	<ellipse transform="matrix(0.9878 -0.1557 0.1557 0.9878 -26.3922 43.0761)" class="st1" cx="261.8" cy="190" rx="6" ry="7.1"/>
</g>
<path class="st27" d="M156.3,273.4c0.1-0.5,0.1-1,0.1-1.5c0-4.8-3.9-8.6-8.6-8.6c-4.8,0-8.6,3.9-8.6,8.6c0,0.5,0.1,1,0.1,1.5H156.3z
	"/>
<path class="st28" d="M139.2,272.2c0,0.4,0.1,0.8,0.1,1.2h17c0.1-0.4,0.1-0.8,0.1-1.2H139.2z"/>
<path class="st28" d="M166.8,272.2c0,0.4,0.1,0.8,0.1,1.2h17c0.1-0.4,0.1-0.8,0.1-1.2H166.8z"/>
<g>
	<path class="st29" d="M225,273.4c-0.1-0.5-0.1-1-0.1-1.5c0-4.8,3.9-8.6,8.6-8.6c4.8,0,8.6,3.9,8.6,8.6c0,0.5-0.1,1-0.1,1.5H225z"/>
	<path class="st28" d="M242.1,272.2c0,0.4-0.1,0.8-0.1,1.2h-17c-0.1-0.4-0.1-0.8-0.1-1.2H242.1z"/>
</g>
<g>
	<path class="st29" d="M214.3,273.4c0.1-0.5,0.1-1,0.1-1.5c0-4.8-3.9-8.6-8.6-8.6c-4.8,0-8.6,3.9-8.6,8.6c0,0.5,0.1,1,0.1,1.5H214.3
		z"/>
	<path class="st28" d="M214.4,272.2c0,0.4-0.1,0.8-0.1,1.2h-17c-0.1-0.4-0.1-0.8-0.1-1.2H214.4z"/>
</g>
<path class="st15" d="M110.5,273.4c-0.1-0.5-0.1-1-0.1-1.5c0-4.8,3.9-8.6,8.6-8.6c4.8,0,8.6,3.9,8.6,8.6c0,0.5-0.1,1-0.1,1.5H110.5z
	"/>
<path class="st28" d="M127.6,272.2c0,0.4-0.1,0.8-0.1,1.2h-17c-0.1-0.4-0.1-0.8-0.1-1.2H127.6z"/>
<path class="st15" d="M99.8,273.4c0.1-0.5,0.1-1,0.1-1.5c0-4.8-3.9-8.6-8.6-8.6c-4.8,0-8.6,3.9-8.6,8.6c0,0.5,0.1,1,0.1,1.5H99.8z"
	/>
<path class="st28" d="M99.9,272.2c0,0.4-0.1,0.8-0.1,1.2h-17c-0.1-0.4-0.1-0.8-0.1-1.2H99.9z"/>
<g>
	<path class="st18" d="M41.8,273.4c0.1-0.5,0.1-1,0.1-1.5c0-4.8-3.9-8.6-8.6-8.6c-4.8,0-8.6,3.9-8.6,8.6c0,0.5,0.1,1,0.1,1.5H41.8z"
		/>
	<path class="st28" d="M24.7,272.2c0,0.4,0.1,0.8,0.1,1.2h17c0.1-0.4,0.1-0.8,0.1-1.2H24.7z"/>
</g>
<g>
	<path class="st18" d="M52.4,273.4c-0.1-0.5-0.1-1-0.1-1.5c0-4.8,3.9-8.6,8.6-8.6c4.8,0,8.6,3.9,8.6,8.6c0,0.5-0.1,1-0.1,1.5H52.4z"
		/>
	<path class="st28" d="M52.3,272.2c0,0.4,0.1,0.8,0.1,1.2h17c0.1-0.4,0.1-0.8,0.1-1.2H52.3z"/>
</g>
<path class="st30" d="M849.6,270.2c0,1.8-1.4,3.2-3.2,3.2h-21.1c-1.8,0-3.2-1.4-3.2-3.2v-32.4c0-1.8,1.4-3.2,3.2-3.2h21.1
	c1.8,0,3.2,1.4,3.2,3.2V270.2z"/>
<path class="st30" d="M723.3,270.2c0,1.8,3,3.2-3.2,3.2h-22.8c-4.5,0-1.5-1.4-1.5-3.2v-32.4c0-1.8,1.4-3.2,3.2-3.2h21.1
	c1.8,0,3.2,1.4,3.2,3.2V270.2z"/>
<path class="st31" d="M684.2,209.6c1.2,1.4,1,3.4-0.4,4.5l-7.9,6.7c-1.4,1.2-3.4,1-4.5-0.4l-5.5-6.4c-1.2-1.4-1-3.4,0.4-4.5l7.9-6.7
	c1.4-1.2,3.4-1,4.5,0.4L684.2,209.6z"/>
<path class="st31" d="M691,204c0.6,1.7-0.2,3.5-1.9,4.2l-10.6,4c-1.7,0.6-3.5-0.2-4.2-1.9l0,0c-0.6-1.7,0.2-3.5,1.9-4.2l10.6-4
	C688.5,201.4,690.3,202.3,691,204L691,204z"/>
<path class="st31" d="M862.2,197.6c0.1,1.8,1.6,3.1,3.4,3L876,200c1.8-0.1,3.1-1.6,3-3.4l-0.5-8.5c-0.1-1.8-1.6-3.1-3.4-3l-10.4,0.6
	c-1.8,0.1-3.1,1.6-3,3.4L862.2,197.6z"/>
<path class="st31" d="M854,194.1c0.1,1.8,1.6,3.1,3.4,3l11.3-0.6c1.8-0.1,3.1-1.6,3-3.4l0,0c-0.1-1.8-1.6-3.1-3.4-3l-11.3,0.6
	C855.2,190.7,853.9,192.3,854,194.1L854,194.1z"/>
<path class="st31" d="M841.2,129.2c0,0-16.3-8-72-4.9c-52.7,3-69.6,13.4-69.6,13.4s-13.3,61-13.2,62.3l2.9,51c0.1,1.8,1.6,3.1,3.4,3
	h0.5l166.1-9.3h0.5c1.8-0.1,3.1-1.6,3-3.4l-2.9-51C859.9,189,841.2,129.2,841.2,129.2z M833.2,138.8l14.9,48.9L699,196.1l9.8-50.2
	c0,0,11.3-8.4,61.1-11.2C812.2,132.3,833.2,138.8,833.2,138.8z"/>
<linearGradient id="SVGID_5_" gradientUnits="userSpaceOnUse" x1="774.7496" y1="-77.0438" x2="774.7496" y2="72.77" gradientTransform="matrix(1 0 0 -1 0 347.5699)">
	<stop  offset="0" style="stop-color:#FFFFFF"/>
	<stop  offset="0.3726" style="stop-color:#FDFDFD"/>
	<stop  offset="0.5069" style="stop-color:#F6F6F6"/>
	<stop  offset="0.6026" style="stop-color:#EBEBEB"/>
	<stop  offset="0.68" style="stop-color:#DADADA"/>
	<stop  offset="0.7463" style="stop-color:#C4C4C4"/>
	<stop  offset="0.805" style="stop-color:#A8A8A8"/>
	<stop  offset="0.8581" style="stop-color:#888888"/>
	<stop  offset="0.9069" style="stop-color:#626262"/>
	<stop  offset="0.9523" style="stop-color:#373737"/>
	<stop  offset="0.9926" style="stop-color:#090909"/>
	<stop  offset="1" style="stop-color:#000000"/>
</linearGradient>
<path class="st32" d="M859.8,303.5h-0.5l-9.7-0.5v-25c0-1.8-1.4-3.2-3.2-3.2h-21.1c-1.8,0-3.2,1.4-3.2,3.2v23.4l-98.8-5.5V278
	c0-1.8,3-3.2-3.2-3.2h-22.8c-4.5,0-1.5,1.4-1.5,3.2v16.3l-2.5-0.1h-0.5c-1.8-0.1-3.3,1.3-3.4,3l-2.9,51
	c-0.1,1.3,13.2,62.3,13.2,62.3s16.9,10.4,69.6,13.4c55.7,3.1,72-4.9,72-4.9s18.7-59.7,18.8-61l2.9-51
	C863,305.2,861.6,303.6,859.8,303.5z M833.2,409.4c0,0-21,6.6-63.4,4.2c-49.8-2.8-61.1-11.2-61.1-11.2l-9.8-50.2l149.1,8.4
	L833.2,409.4z"/>
<path class="st33" d="M848.9,219.3c0.3,5.9-4.2,10.9-10.1,11.3c-5.9,0.3-10.9-4.2-11.3-10.1c-0.3-5.9,5,2.8,10.8,2.5
	C844.3,222.7,848.5,213.4,848.9,219.3z"/>
<path class="st34" d="M811.2,215c0.1,1.2-0.8,2.2-2,2.3l-69.3,3.9c-1.2,0.1-2.2-0.8-2.3-2l0,0c-0.1-1.2,0.8-2.2,2-2.3L809,213
	C810.2,212.9,811.2,213.8,811.2,215L811.2,215z"/>
<path class="st34" d="M811.7,222.4c0.1,1.2-0.8,2.2-2,2.3l-69.3,3.9c-1.2,0.1-2.2-0.8-2.3-2l0,0c-0.1-1.2,0.8-2.2,2-2.3l69.3-3.9
	C810.6,220.3,811.6,221.2,811.7,222.4L811.7,222.4z"/>
<path class="st34" d="M812.1,229.7c0.1,1.2-0.8,2.2-2,2.3l-69.3,3.9c-1.2,0.1-2.2-0.8-2.3-2l0,0c-0.1-1.2,0.8-2.2,2-2.3l69.3-3.9
	C811,227.6,812,228.6,812.1,229.7L812.1,229.7z"/>
<g>
	<path class="st18" d="M655,272.9c0.4-0.8,0.7-1.6,0.7-2.5c0-2.8-2.4-5.1-5.2-5.1l-15.9,0.2c-2.8,0-5.1,2.4-5.1,5.2
		c0,0.9,0.3,1.8,0.7,2.5L655,272.9z"/>
	<path class="st35" d="M629.7,271.9c0.1,0.5,0.3,0.9,0.5,1.3l24.7-0.3c0.2-0.4,0.4-0.8,0.5-1.3L629.7,271.9z"/>
</g>
<path class="st36" d="M656.6,194.3c0,0-2.7,44.9-6.1,71c0,0-10.9,5.4-20.9,5.4c0,0,3.5-72.9,0-77.5L656.6,194.3z"/>
<linearGradient id="SVGID_6_" gradientUnits="userSpaceOnUse" x1="642.95" y1="0.57" x2="642.95" y2="72.77" gradientTransform="matrix(1 0 0 -1 0 347.5699)">
	<stop  offset="0" style="stop-color:#FFFFFF"/>
	<stop  offset="1" style="stop-color:#000000"/>
</linearGradient>
<path class="st37" d="M650.4,282.7c3.5,26.1,6.1,63.1,6.1,63.1l-27.1,1.2c3.5-4.6,0-69.7,0-69.7c0-0.7,0.2-1.3,0.4-1.9l0,0
	c0.1-0.2,0.2-0.4,0.3-0.6l24.7,0.3c0.1,0.2,0.2,0.4,0.3,0.6l0,0c0.1,0.2,0.2,0.4,0.2,0.7l0,0l0,0c0.1,0.4,0.2,0.8,0.1,1.2
	C655.6,280.4,653.3,282.7,650.4,282.7z"/>
<rect x="636.4" y="126.3" class="st38" width="10.9" height="11.5"/>
<path class="st38" d="M654.6,108.8c0,0,1.6,7.1,4.4,10.4l-3.8,1.4c0,0,3,10.6,0.7,11.3s-18.1-2.4-20.7-6.4l0.2-3.2
	c0,0-3.4,0.9-1.7-6.1c1.6-6.4,4.1,0.8,4.1,0.8l0.1-9.2C637.8,107.8,652,97.3,654.6,108.8z"/>
<path class="st39" d="M637.3,118h1.3c0,0,1.4-6,0-9.8c0,0,21.6,4.6,19.1-2.9c-2.5-7.4-24.4-9.6-24.9-1.1c0,0-11.6,3.8-1.7,17.5
	c0,0,1.9,2.1,1.4,4.4l1.1-1l2,0.7l-0.1-3.6c0,0-3-0.1-1.9-5.1C634.5,112.3,637.2,114.3,637.3,118z"/>
<polygon class="st40" points="649.4,138.6 632.6,138.6 632.6,133.1 649.4,136.7 "/>
<path class="st41" d="M649.4,138.6c0,0,10.7,5,9.8,21.3s0.1,36.8,0.1,36.8s-21.9-4.2-31.1-0.8c0,0-1.1-50.3,4.4-57.4h16.8V138.6z"/>
<polyline class="st42" points="631.4,146.6 615.5,168.2 629.6,181.3 "/>
<ellipse transform="matrix(0.5928 -0.8054 0.8054 0.5928 108.8743 585.9892)" class="st38" cx="633.9" cy="185.3" rx="5.8" ry="7.1"/>
<g>
	<line class="st43" x1="703.3" y1="232.6" x2="715.8" y2="220.1"/>
	<line class="st43" x1="715.3" y1="232.6" x2="702.8" y2="220.1"/>
</g>
<path class="st44" d="M748.7,212.5c0,0-10.3-10.6,4.5-33.5s16.1-26.3,13-36.4c0,0,30,27.9,21.5,44.1s-23.9,30.9-20.5,40.8
	c0,0-17.2-6.3-7.3-17c9.9-10.8,20.2-21.5,9.4-36.7c0,0-5.2,11.4-11.2,17.6C748.4,201.5,748.7,212.5,748.7,212.5z"/>
<path class="st44" d="M775,228.2c0,0-4.3-9.9,2.8-17c7.2-7.2,16.9-20.8,15.7-25.1c0,0,12.8,8.8,5.4,22.3
	C791.4,221.8,779.8,227.1,775,228.2z"/>
<g>
	<path class="st45" d="M512.7,338.9H368.2c-11.7,0-21.2-10.2-21.2-22.8v9c0,12.6,9.5,22.8,21.2,22.8h144.5
		c11.7,0,21.2-10.2,21.2-22.8v-9C533.9,328.7,524.4,338.9,512.7,338.9z"/>
	<g id="Button_14_">
		<path id="Button_03_4_" class="st46" d="M348.4,90c0,1.2-0.9,2.1-2,2.1l0,0c-1.1,0-2-1-2-2.1v-8.1c0-1.2,0.9-2.1,2-2.1l0,0
			c1.1,0,2,1,2,2.1V90z"/>
		<path id="Button_02_4_" class="st46" d="M346.4,43.8c-1.1,0-2,1-2,2.1v3.8V54v3.8c0,1.2,0.9,2.1,2,2.1s2-1,2-2.1V54v-4.3v-3.8
			C348.4,44.7,347.5,43.8,346.4,43.8z"/>
		<path id="Button_01_4_" class="st46" d="M348.4,109c0,1.2-0.9,2.1-2,2.1l0,0c-1.1,0-2-1-2-2.1v-8.1c0-1.2,0.9-2.1,2-2.1l0,0
			c1.1,0,2,1,2,2.1V109z"/>
	</g>
	<path id="Base_4_" class="st46" d="M534,317c0,12.6-9.5,22.8-21.2,22.8H368.2c-11.7,0-21.2-10.2-21.2-22.8V22.8
		C347,10.2,356.5,0,368.2,0h144.6C524.5,0,534,10.2,534,22.8V317z"/>
	<rect id="Screen_6_" x="365" y="43.8" class="st47" width="151.1" height="252.4"/>
	<g id="Topo_4_">
		<path id="Phone_4_" class="st48" d="M464.2,23.5c0,0.9-0.7,1.7-1.5,1.7H425c-0.9,0-1.5-0.7-1.5-1.7l0,0c0-0.9,0.7-1.7,1.5-1.7
			h37.6C463.5,21.9,464.2,22.6,464.2,23.5L464.2,23.5z"/>
		<ellipse id="Button_6_" class="st48" cx="418.8" cy="23.5" rx="1.9" ry="2.1"/>
	</g>
	<path id="Detalhe-Esquerda" class="st49" d="M385.8,343.9c0,0.6-0.5,1-1,1h-9.9c-0.6,0-1-0.5-1-1l0,0c0-0.6,0.5-1,1-1h9.9
		C385.3,342.9,385.8,343.3,385.8,343.9L385.8,343.9z"/>
	<g>
		<path class="st50" d="M401.1,182v5.1c0,3.6,0.6,4.7,2.4,4.7c1.5,0,2.3-0.9,2.3-2.7v-3.9h6.5v3.6c0,5.7-2.6,8.3-8.8,8.3
			c-3.5,0-5.9-0.9-7.2-2.7c-1.4-1.8-1.8-3.8-1.8-8.8v-8.3c0-6.3,0.3-7.9,1.5-10c1.4-2.1,3.9-3.2,7.6-3.2c6.3,0,8.8,2.6,8.8,10.1v7.6
			L401.1,182L401.1,182z M405.8,173.1c0-2.6-0.8-3.6-2.4-3.6c-1.7,0-2.4,1.1-2.4,3.6v3.9h4.7L405.8,173.1L405.8,173.1z"/>
		<path class="st50" d="M427.8,170.4h-2.7v18.3c0,2.4,0.3,2.9,1.8,2.9h1.1v5.3h-4.4c-2.1,0-3.3-0.5-3.9-1.2c-1.1-0.9-1.2-2-1.2-5.7
			v-19.5h-2.6v-5.6h2.6v-8.5h6.5v8.3h2.7L427.8,170.4L427.8,170.4z"/>
		<path class="st50" d="M438.4,154.5v12.7c2.3-2,3.6-2.7,5.9-2.7c1.8,0,3.3,0.8,4.4,2c0.9,1.2,1.2,2.6,1.2,5.4v24.9h-6.5v-23.1
			c0-2.4-0.6-3.6-2.1-3.6c-1.8,0-2.7,1.5-2.7,4.8v21.7h-6.5v-42.3L438.4,154.5L438.4,154.5z"/>
		<path class="st50" d="M461.7,160.5h-6.5v-6h6.5V160.5z M461.7,196.8h-6.5v-32h6.5V196.8z"/>
		<path class="st50" d="M478.1,175.9v-2.6c0-2.9-0.6-3.9-2.4-3.9c-2,0-2.6,1.2-2.6,5.6v10.6c0.2,4.2,0.2,4.2,0.5,5.1
			c0.3,0.8,1.2,1.2,2.3,1.2c2,0,2.4-0.8,2.4-3.9v-4.2h6.5v4.4c0,2.9-0.5,4.5-1.4,5.9c-1.4,2-4.1,3-7.7,3c-3,0-5.4-0.8-6.9-2.4
			c-1.5-1.7-2.1-3.9-2.1-8.8v-11.2c0-7.2,2.9-10.4,9.2-10.4c5.9,0,8.8,2.7,8.8,8.6v3L478.1,175.9L478.1,175.9z"/>
	</g>
</g>
<g>
	<path id="Button_13_" class="st51" d="M431.2,320.4c0-5,4.1-9.1,9.3-9.1c5.1,0,9.3,4.1,9.3,9.1"/>
	<ellipse id="Button_12_" class="st52" cx="440.5" cy="320.4" rx="9.3" ry="9.1"/>
	<rect x="436.9" y="316.9" class="st52" width="7.1" height="6.9"/>
</g>
</svg>
