<?xml version="1.0" encoding="utf-8"?>
<!-- Generator: Adobe Illustrator 19.2.1, SVG Export Plug-In . SVG Version: 6.00 Build 0)  -->
<svg version="1.1" id="Calque_1" xmlns="http://www.w3.org/2000/svg" xmlns:xlink="http://www.w3.org/1999/xlink" x="0px" y="0px"
	 viewBox="0 0 124 243.9" style="enable-background:new 0 0 124 243.9;" xml:space="preserve">
<style type="text/css">
	.st0{fill:none;stroke:#1D1D3D;stroke-width:13;stroke-linecap:round;stroke-miterlimit:10;}
	.st1{fill:#FCC880;}
	.st2{fill:none;stroke:#1D1D3D;stroke-width:14;stroke-linecap:round;stroke-miterlimit:10;}
	.st3{fill:#F0F0F0;}
	.st4{fill:#035D53;}
	.st5{fill:#754D24;}
	.st6{fill:#412413;}
	.st7{fill:#1D1C3E;}
	.st8{fill:#532810;}
	.st9{fill:#B27C3A;}
	.st10{fill:#E61F5D;}
	.st11{opacity:0.5;fill:#B4DFEE;}
	.st12{fill:#B6C3C6;}
	.st13{opacity:0.1;fill:url(#SVGID_1_);}
	.st14{opacity:0.1;fill:url(#SVGID_2_);}
</style>
<path class="st0" d="M39.7,71.7c0,0-12.2,19.2-9.4,49.2"/>
<g>
	<path class="st1" d="M36.8,105.8c-0.3,4.7-0.3,8.9,0.1,14.4c0.3,3.8-0.5,6.8-3.7,7.2L30.1,108L36.8,105.8z"/>
</g>
<ellipse transform="matrix(3.625013e-03 -1 1 3.625013e-03 -91.359 154.0602)" class="st1" cx="31.6" cy="122.9" rx="7" ry="5.9"/>
<path class="st2" d="M80.5,72.2c0,0,14.9,17.1,16.7,47.2"/>
<ellipse transform="matrix(0.9878 -0.1557 0.1557 0.9878 -17.7018 16.6274)" class="st1" cx="97.3" cy="121.3" rx="5.9" ry="7"/>
<path class="st1" d="M68.9,66.3c-5.1-3.7-1.5-12.7-1.5-12.7l-7.1,2.4l-7.1-2.4c0,0,3.6,9-1.5,12.7c-6,4.4,8.6,16.9,8.6,16.9
	S74.9,70.7,68.9,66.3z"/>
<path class="st3" d="M50.3,60.7c-0.7,7.6,10,22.5,10,22.5s10.8-14.9,10-22.5l-10,2L50.3,60.7z"/>
<path class="st4" d="M60.3,125.6l-20.2-1.2v73h13.3l7-58.5c0,0-5.9,0,0,0c5.9,0,0,0,0,0l7,58.5h13.3l-1-73L60.3,125.6z"/>
<g>
	<path class="st5" d="M54.9,199.5c0.1-0.5,0.1-1,0.1-1.4c0-4.7-3.8-8.5-8.5-8.5c-4.7,0-8.5,3.8-8.5,8.5c0,0.5,0.1,1,0.1,1.4H54.9z"
		/>
	<path class="st6" d="M38.1,198.3c0,0.4,0.1,0.8,0.1,1.2h16.7c0.1-0.4,0.1-0.8,0.1-1.2H38.1z"/>
</g>
<g>
	<path class="st5" d="M65.4,199.5c-0.1-0.5-0.1-1-0.1-1.4c0-4.7,3.8-8.5,8.5-8.5c4.7,0,8.5,3.8,8.5,8.5c0,0.5-0.1,1-0.1,1.4H65.4z"
		/>
	<path class="st6" d="M65.2,198.3c0,0.4,0.1,0.8,0.1,1.2H82c0.1-0.4,0.1-0.8,0.1-1.2H65.2z"/>
</g>
<g>
	<path class="st1" d="M50.2,43.9c0,2.2-1.3,4-2.8,4c-1.6,0-1.4-2-1.4-4.2c0-2.2-0.2-3.7,1.4-3.7C49,40,50.2,41.7,50.2,43.9z"/>
	<path class="st1" d="M73.6,43.7c0,2.2,0.3,4.2-1.3,4.2c-1.6,0-2.9-1.8-2.9-4c0-2.2,1.3-4,2.9-4C73.9,40,73.6,41.5,73.6,43.7z"/>
</g>
<path class="st1" d="M57.6,60.2h5c2.8-4.1,8.4-8.6,8.4-15.4c0-9.2-1.6-16.6-11-16.6c-9.5,0-11,7.4-11,16.6
	C48.9,51.5,54.8,56.1,57.6,60.2z"/>
<path class="st7" d="M81.3,65.2h-42c0,0,3.4,5.4,0.5,40.3l41.2-8.8C78,61.8,81.3,65.2,81.3,65.2z"/>
<path class="st8" d="M60,24.9c-17.4,0-12.7,15.3-12.7,15.3c0.5-0.3,0.4,0,0.4,0c-0.8,4.5-0.5,4.1-0.5,4.1l1.2-0.4
	c1.4-5,2.8-9.9,2.8-9.9c4.6,2,6.9,2.2,8.7,2.2c1.8,0,3.9-0.2,8.5-2.2c0,0,1.3,4.3,2.8,8.9l1.2,0.4c0,0,0.4,1.4-0.5-3.1
	c0,0-0.1-0.3,0.4,0C72.6,40.2,77.4,24.9,60,24.9z"/>
<path class="st1" d="M80.9,96.7l-41.2,8.8c0,0,0.3-0.1,0.3,20.9h20.2h20.2C80.9,96.7,80.9,96.7,80.9,96.7z"/>
<circle class="st9" cx="60.3" cy="120" r="0.8"/>
<path class="st1" d="M60.3,126.4H40.1v28.5l8.6,29.6h6.2l5.4-43.7c0,0-5.9,0,0,0c5.9,0,0,0,0,0l4.8,40l15.5-3.5v-50.9H60.3z"/>
<polygon class="st3" points="60.4,126.4 40.1,126.4 40.1,154.9 58.5,157.3 60.1,143.6 60.1,143.6 62.1,157 82.1,154.3 80.6,126.4 
	"/>
<path class="st10" d="M43.5,128.1c-1.6-0.7-2.2,0.4-2.2,1.3c0,0.8,1.6,2.4,2.2,2.6c0.6-0.3,2.2-1.8,2.2-2.6
	C45.7,128.5,45.1,127.4,43.5,128.1z"/>
<path class="st10" d="M54.6,143.2c-1.3-0.6-1.8,0.3-1.8,1c0,0.7,1.3,1.9,1.8,2.1c0.5-0.2,1.8-1.5,1.8-2.1
	C56.4,143.5,55.9,142.6,54.6,143.2z"/>
<path class="st10" d="M50.5,135.1c-1.6-0.7-2.2,0.4-2.2,1.3c0,0.8,1.6,2.4,2.2,2.6c0.6-0.3,2.2-1.8,2.2-2.6
	C52.7,135.5,52.1,134.4,50.5,135.1z"/>
<path class="st10" d="M70.5,133c-1.6-0.7-2.2,0.4-2.2,1.3c0,0.8,1.6,2.4,2.2,2.6c0.6-0.3,2.2-1.8,2.2-2.6
	C72.7,133.5,72.2,132.4,70.5,133z"/>
<path class="st10" d="M70,151.5c-1.2-0.5-1.6,0.3-1.6,0.9c0,0.6,1.2,1.8,1.6,1.9c0.4-0.2,1.6-1.3,1.6-1.9
	C71.6,151.8,71.2,151,70,151.5z"/>
<path class="st10" d="M65.2,142.5c-1.6-0.7-2.2,0.4-2.2,1.3c0,0.8,1.6,2.4,2.2,2.6c0.6-0.3,2.2-1.8,2.2-2.6
	C67.4,142.9,66.9,141.8,65.2,142.5z"/>
<path class="st10" d="M56.7,130.5c-1.4-0.6-1.8,0.4-1.8,1s1.4,2,1.8,2.2c0.5-0.2,1.8-1.5,1.8-2.2S58,129.9,56.7,130.5z"/>
<path class="st10" d="M75.7,143.2c-1-0.4-1.4,0.3-1.4,0.8c0,0.5,1,1.5,1.4,1.7c0.4-0.2,1.4-1.1,1.4-1.7
	C77.1,143.4,76.7,142.7,75.7,143.2z"/>
<path class="st10" d="M65.2,128.8c-1-0.4-1.4,0.3-1.4,0.8s1,1.5,1.4,1.7c0.4-0.2,1.4-1.1,1.4-1.7S66.3,128.3,65.2,128.8z"/>
<path class="st10" d="M53.9,152.7c-0.5-0.2-0.7,0.1-0.7,0.4s0.5,0.8,0.7,0.8c0.2-0.1,0.7-0.6,0.7-0.8S54.4,152.5,53.9,152.7z"/>
<path class="st10" d="M77.8,129.4c-0.5-0.2-0.7,0.1-0.7,0.4s0.5,0.8,0.7,0.8c0.2-0.1,0.7-0.6,0.7-0.8S78.3,129.2,77.8,129.4z"/>
<path class="st10" d="M60.7,136.3c-0.5-0.2-0.7,0.1-0.7,0.4s0.5,0.8,0.7,0.8c0.2-0.1,0.7-0.6,0.7-0.8S61.2,136.1,60.7,136.3z"/>
<path class="st10" d="M44.3,145.2c-1-0.4-1.4,0.3-1.4,0.8s1,1.5,1.4,1.7c0.4-0.2,1.4-1.1,1.4-1.7S45.3,144.8,44.3,145.2z"/>
<g>
	
		<rect x="38.2" y="100.7" transform="matrix(0.9753 -0.2211 0.2211 0.9753 -29.474 18.1618)" class="st11" width="56.4" height="80"/>
	<path class="st12" d="M46.8,187.5L28.6,107L86,94l18.2,80.5L46.8,187.5z M31.5,108.9l17.1,75.6l52.6-11.9L84.1,97L31.5,108.9z"/>
</g>
<linearGradient id="SVGID_1_" gradientUnits="userSpaceOnUse" x1="48.1692" y1="275.3058" x2="48.1692" y2="200.248">
	<stop  offset="0" style="stop-color:#FFFFFF"/>
	<stop  offset="0.455" style="stop-color:#FFFFFF"/>
	<stop  offset="1" style="stop-color:#000000"/>
</linearGradient>
<path class="st13" d="M53.8,206c0.8-1.3,1.2-2.7,1.2-4.3c0-0.1,0-0.2,0-0.3h0c0,0,0,0,0,0c0-0.4-0.1-0.8-0.1-1.1H38.2
	c-0.1,0.5-0.1,1-0.1,1.4c0,2.1,0.8,4.1,2.1,5.5v36.7h18.2L53.8,206z"/>
<linearGradient id="SVGID_2_" gradientUnits="userSpaceOnUse" x1="72.2606" y1="275.3058" x2="72.2606" y2="200.248">
	<stop  offset="0" style="stop-color:#FFFFFF"/>
	<stop  offset="0.455" style="stop-color:#FFFFFF"/>
	<stop  offset="1" style="stop-color:#000000"/>
</linearGradient>
<path class="st14" d="M80.5,206.7c1-1.4,1.7-3.1,1.7-5c0-0.5-0.1-1-0.1-1.4H65.4c-0.1,0.5-0.1,1-0.1,1.4c0,1.8,0.6,3.5,1.5,4.9
	l-4.4,37.4h18.2V206.7z"/>
</svg>
