<?xml version="1.0" encoding="utf-8"?>
<!-- Generator: Adobe Illustrator 19.1.0, SVG Export Plug-In . SVG Version: 6.00 Build 0)  -->
<svg version="1.1" id="Calque_1" xmlns="http://www.w3.org/2000/svg" xmlns:xlink="http://www.w3.org/1999/xlink" x="0px" y="0px"
	 viewBox="-119 36 60 30" style="enable-background:new -119 36 60 30;" xml:space="preserve">
<style type="text/css">
	.st0{fill:#1E88C9;}
</style>
<g>
	<path class="st0" d="M-114.5,54.8v3.4c0,2.4,0.4,3.1,1.6,3.1c1,0,1.5-0.6,1.5-1.8v-2.6h4.3v2.4c0,3.8-1.7,5.5-5.8,5.5
		c-2.3,0-3.9-0.6-4.8-1.8c-0.9-1.2-1.2-2.5-1.2-5.8v-5.5c0-4.2,0.2-5.2,1-6.6c0.9-1.4,2.6-2.1,5-2.1c4.2,0,5.8,1.7,5.8,6.7v5
		L-114.5,54.8L-114.5,54.8z M-111.4,48.9c0-1.7-0.5-2.4-1.6-2.4s-1.6,0.7-1.6,2.4v2.6h3.1L-111.4,48.9L-111.4,48.9z"/>
	<path class="st0" d="M-96.8,47.1h-1.8v12.1c0,1.6,0.2,1.9,1.2,1.9h0.7v3.5h-2.9c-1.4,0-2.2-0.3-2.6-0.8c-0.7-0.6-0.8-1.3-0.8-3.8
		V47.1h-1.7v-3.7h1.7v-5.6h4.3v5.5h1.8L-96.8,47.1L-96.8,47.1z"/>
	<path class="st0" d="M-89.8,36.6V45c1.5-1.3,2.4-1.8,3.9-1.8c1.2,0,2.2,0.5,2.9,1.3c0.6,0.8,0.8,1.7,0.8,3.6v16.5h-4.3V49.3
		c0-1.6-0.4-2.4-1.4-2.4c-1.2,0-1.8,1-1.8,3.2v14.4H-94v-28L-89.8,36.6L-89.8,36.6z"/>
	<path class="st0" d="M-74.4,40.6h-4.3v-4h4.3V40.6z M-74.4,64.6h-4.3V43.4h4.3V64.6z"/>
	<path class="st0" d="M-63.5,50.8v-1.7c0-1.9-0.4-2.6-1.6-2.6c-1.3,0-1.7,0.8-1.7,3.7v7c0.1,2.8,0.1,2.8,0.3,3.4
		c0.2,0.5,0.8,0.8,1.5,0.8c1.3,0,1.6-0.5,1.6-2.6V56h4.3v2.9c0,1.9-0.3,3-0.9,3.9c-0.9,1.3-2.7,2-5.1,2c-2,0-3.6-0.5-4.6-1.6
		c-1-1.1-1.4-2.6-1.4-5.8V50c0-4.8,1.9-6.9,6.1-6.9c3.9,0,5.8,1.8,5.8,5.7v2C-59.2,50.8-63.5,50.8-63.5,50.8z"/>
</g>
</svg>
