<?xml version="1.0" encoding="utf-8"?>
<!-- Generator: Adobe Illustrator 19.1.0, SVG Export Plug-In . SVG Version: 6.00 Build 0)  -->
<svg version="1.1" id="Calque_1" xmlns="http://www.w3.org/2000/svg" xmlns:xlink="http://www.w3.org/1999/xlink" x="0px" y="0px"
	 viewBox="0 0 50 50" style="enable-background:new 0 0 50 50;" xml:space="preserve">
<style type="text/css">
	.st0{fill:#1E88C9;}
</style>
<g>
	<g>
		<path class="st0" d="M37.4,42.9c1.1-2.6,4.1-3.9,6.7-2.9s3.9,4.1,2.9,6.7c-1.1,2.6-4.1,3.9-6.7,2.9C37.6,48.6,36.4,45.6,37.4,42.9
			z M38.7,43.4c-0.8,2,0.2,4.2,2.1,5c2,0.8,4.2-0.2,5-2.1c0.8-2-0.2-4.2-2.1-5C41.7,40.5,39.4,41.5,38.7,43.4z"/>
	</g>
</g>
<g>
	<g>
		<path class="st0" d="M2,3.3C3,0.6,6-0.7,8.7,0.4s3.9,4.1,2.9,6.7S7.5,11,4.9,10S0.9,5.9,2,3.3z M3.2,3.8c-0.8,2,0.2,4.2,2.1,5
			s4.2-0.2,5-2.1c0.8-2-0.2-4.2-2.1-5S4,1.8,3.2,3.8z"/>
	</g>
</g>
<g>
	<g>
		<path class="st0" d="M10.6,19.2c1.1-2.6,4.1-3.9,6.7-2.9s3.9,4.1,2.9,6.7c-1.1,2.6-4.1,3.9-6.7,2.9S9.5,21.9,10.6,19.2z
			 M11.9,19.7c-0.8,2,0.2,4.2,2.1,5c2,0.8,4.2-0.2,5-2.1s-0.2-4.2-2.1-5S12.6,17.8,11.9,19.7z"/>
	</g>
</g>
<g>
	<g>
		<path class="st0" d="M23,31.9c1.1-2.6,4.1-3.9,6.7-2.9c2.6,1.1,3.9,4.1,2.9,6.7s-4.1,3.9-6.7,2.9C23.2,37.5,21.9,34.5,23,31.9z
			 M24.2,32.4c-0.8,2,0.2,4.2,2.1,5c2,0.8,4.2-0.2,5-2.1c0.8-2-0.2-4.2-2.1-5C27.2,29.5,25,30.4,24.2,32.4z"/>
	</g>
</g>
<g>
	<g>
		<path class="st0" d="M12.2,18.1c0.2,0.1,0.4,0.1,0.6-0.1c0.3-0.2,0.4-0.6,0.2-0.9c-1.7-2.6-3.1-5.2-4.1-7.7C8.8,9,8.4,8.9,8.1,9
			C7.8,9.2,7.6,9.6,7.7,9.9c1,2.6,2.4,5.2,4.2,7.9C12,17.9,12.1,18,12.2,18.1z"/>
	</g>
</g>
<g>
	<g>
		<path class="st0" d="M24,31.6c0.2,0.1,0.5,0,0.7-0.2c0.2-0.3,0.2-0.7,0-0.9c-2.1-2-4.1-4.1-5.9-6.1c-0.2-0.3-0.7-0.3-0.9-0.1
			c-0.3,0.2-0.3,0.6-0.1,0.9c1.8,2,3.8,4.1,6,6.1C23.8,31.5,23.9,31.5,24,31.6z"/>
	</g>
</g>
<g>
	<g>
		<path class="st0" d="M38.1,43c0.3,0.1,0.6,0,0.8-0.3c0.2-0.3,0.1-0.7-0.2-0.9c0,0-2.8-1.8-7-5.2c-0.3-0.2-0.7-0.2-0.9,0.1
			c-0.2,0.3-0.2,0.7,0.1,0.9c4.3,3.5,7,5.2,7.2,5.3C38,42.9,38.1,42.9,38.1,43z"/>
	</g>
</g>
<g>
	<path class="st0" d="M48.4,35.2c-0.1,0-0.2,0-0.3-0.1C23.6,19.9,19.1,1.7,19,1.5C19,1.3,19.1,1,19.4,0.9C19.7,0.9,19.9,1,20,1.3
		c0,0,1.1,4.5,5.1,10.8c3.7,5.8,10.9,14.3,23.5,22.2c0.2,0.1,0.3,0.5,0.2,0.7C48.7,35.1,48.5,35.2,48.4,35.2z"/>
</g>
<g>
	<path class="st0" d="M46.3,36.2c-0.2,0-0.5-0.2-0.5-0.4c0-0.3,0.2-0.5,0.4-0.6l2.2-0.3l-0.2-2.2c0-0.3,0.2-0.5,0.4-0.6
		c0.3,0,0.5,0.2,0.6,0.4l0.3,2.7c0,0.3-0.2,0.5-0.4,0.6L46.3,36.2C46.3,36.2,46.3,36.2,46.3,36.2z"/>
</g>
</svg>
