<?xml version="1.0" standalone="no"?>
<!DOCTYPE svg PUBLIC "-//W3C//DTD SVG 1.1//EN" "http://www.w3.org/Graphics/SVG/1.1/DTD/svg11.dtd" >
<svg xmlns="http://www.w3.org/2000/svg">
<metadata></metadata>
<defs>
<font id="peugeotregular" horiz-adv-x="1183" >
<font-face units-per-em="2048" ascent="1638" descent="-410" />
<missing-glyph horiz-adv-x="516" />
<glyph unicode="&#xfb01;" horiz-adv-x="1130" d="M-229 -387l32 147q50 -22 113 -22q44 0 69.5 24t37.5 82l210 992h-139l29 137h139l25 112q43 205 167.5 301.5t329.5 96.5q184 0 316 -68l-33 -153q-131 77 -299 77q-262 0 -317 -254l-23 -112h588l-207 -973h-166l178 836h-424l-211 -992q-27 -132 -88.5 -197 t-175.5 -65q-80 0 -151 31z" />
<glyph unicode="&#xfb02;" horiz-adv-x="1173" d="M-229 -387l32 147q50 -22 113 -22q44 0 69.5 24t37.5 82l208 992h-139l29 137h139l25 112q43 205 167.5 301.5t329.5 96.5q180 0 328 -70l-252 -1196q-4 -24 -4 -33q0 -63 72 -63q46 0 98 20l-2 -143q-64 -27 -139 -27q-91 0 -144 49t-53 142q0 38 8 71l228 1082 q-70 24 -156 24q-262 0 -317 -254l-23 -112h254l-29 -137h-254l-211 -992q-27 -132 -88.5 -197t-175.5 -65q-80 0 -151 31z" />
<glyph horiz-adv-x="0" />
<glyph horiz-adv-x="682" />
<glyph unicode=" "  horiz-adv-x="516" />
<glyph unicode="&#x09;" horiz-adv-x="516" />
<glyph unicode="&#xa0;" horiz-adv-x="516" />
<glyph unicode="!" horiz-adv-x="600" d="M55 0l41 190h193l-39 -190h-195zM158 391l190 993h197l-234 -993h-153z" />
<glyph unicode="&#x22;" horiz-adv-x="872" d="M215 868l90 516h168l-125 -516h-133zM563 868l92 516h166l-125 -516h-133z" />
<glyph unicode="#" horiz-adv-x="1241" d="M29 377l28 133h205l82 383h-207l29 133h207l76 358h153l-78 -358h326l78 358h151l-78 -358h209l-28 -135h-209l-80 -381h207l-27 -133h-209l-80 -377h-151l80 377h-326l-80 -377h-153l79 377h-204zM416 510h323l82 383h-325z" />
<glyph unicode="$" d="M49 102l35 152q169 -90 381 -90q313 0 313 225q0 47 -24.5 85.5t-64 64.5t-90.5 53t-103.5 50t-103.5 56t-90.5 71t-64 95.5t-24.5 128.5q0 87 36.5 156t99 112t137.5 67t161 30l47 233h140l-50 -227q176 -9 291 -70l-35 -151q-142 69 -313 69q-342 0 -342 -215 q0 -52 31.5 -93.5t81.5 -70.5t110 -57t120.5 -60t110.5 -71.5t81.5 -100.5t31.5 -138q0 -93 -34 -166t-93.5 -119.5t-134.5 -73t-164 -33.5l-49 -239h-137l51 239q-183 12 -342 88z" />
<glyph unicode="%" horiz-adv-x="1816" d="M141 848q0 154 53.5 283t151.5 205.5t219 76.5q114 0 182 -78t68 -227q0 -112 -31 -215.5t-85.5 -181t-135.5 -124t-174 -46.5q-112 0 -180 80t-68 227zM274 850q0 -178 138 -178q108 0 188.5 122.5t81.5 309.5q0 178 -137 178q-108 0 -189 -122.5t-82 -309.5zM305 0 l1057 1384h147l-1054 -1384h-150zM1004 279q0 153 53 282t150 206t218 77q114 0 182 -78t68 -227q0 -151 -52 -280t-151 -208.5t-223 -79.5q-112 2 -178.5 81t-66.5 227zM1137 281q0 -179 135 -179q109 0 189 123t81 310q0 178 -137 178q-108 0 -188 -122.5t-80 -309.5z" />
<glyph unicode="&#x26;" horiz-adv-x="1380" d="M57 356q0 92 30.5 166t84.5 123.5t116.5 81.5t137.5 51q-77 30 -127.5 90t-50.5 152q0 124 74.5 214t198 133.5t280.5 43.5q92 0 193.5 -21.5t158.5 -52.5l-37 -159q-147 77 -340 77q-95 0 -170 -22.5t-124.5 -76.5t-49.5 -132q0 -93 73 -137.5t183 -44.5h78l-33 -154 h-76q-113 0 -204 -32t-150 -104t-59 -175q0 -116 85 -182t228 -66q87 0 161 23.5t136 72.5t103 133.5t53 198.5h-193l33 152h539l-33 -152h-170q-36 -280 -206.5 -433t-457.5 -153q-206 0 -335.5 107t-129.5 278z" />
<glyph unicode="'" horiz-adv-x="524" d="M215 868l92 516h166l-125 -516h-133z" />
<glyph unicode="(" horiz-adv-x="575" d="M80 328q0 114 15.5 220t38.5 191t64 172t78.5 150.5t96.5 140.5t102 127t111 125h164q-20 -23 -58 -69q-54 -64 -81 -96.5t-75 -94t-73 -100t-63 -101t-58 -112t-45 -118t-37 -133.5t-20.5 -144t-8.5 -164q0 -339 134 -711h-146q-62 165 -100.5 353.5t-38.5 363.5z" />
<glyph unicode=")" horiz-adv-x="581" d="M-174 -389q19 23 57 68q54 64 81 96.5t75 94t73 100t63 101t58 112t45 118t37 134t20.5 144.5t8.5 164q0 342 -133 711h145q63 -166 101.5 -354.5t38.5 -362.5q0 -114 -15.5 -220t-38.5 -191t-64 -172t-78.5 -150.5t-96.5 -140.5t-102 -127t-111 -125h-164z" />
<glyph unicode="*" horiz-adv-x="765" d="M152 1112l59 131l207 -88l22 229h150l-74 -231l244 90l6 -133l-244 -41l121 -201l-119 -84l-84 220l-170 -218l-98 88l199 195z" />
<glyph unicode="+" d="M115 569v136h405v399h142v-399h407v-136h-407v-399h-142v399h-405z" />
<glyph unicode="," horiz-adv-x="532" d="M-193 -285q285 136 285 441q0 5 -1 16.5t-1 17.5h170q2 -25 2 -69q-6 -172 -108 -306t-277 -214z" />
<glyph unicode="-" horiz-adv-x="808" d="M129 514l33 154h500l-33 -154h-500z" />
<glyph unicode="." horiz-adv-x="532" d="M31 0l43 193h192l-41 -193h-194z" />
<glyph unicode="/" horiz-adv-x="716" d="M-150 0l865 1384h151l-864 -1384h-152z" />
<glyph unicode="0" d="M61 463q0 124 23.5 251.5t76.5 254t128.5 224.5t189 159t248.5 61q187 0 285 -132.5t98 -358.5q0 -102 -17 -208.5t-51 -214t-89.5 -202t-126.5 -168t-169 -116t-211 -42.5q-187 0 -286 133t-99 359zM242 467q0 -163 57.5 -250.5t173.5 -87.5q93 1 172 56t130 140.5 t87.5 192.5t52 208.5t15.5 191.5q0 163 -57.5 250t-172.5 87q-93 0 -172 -55t-130.5 -140.5t-87.5 -193t-52 -209t-16 -190.5z" />
<glyph unicode="1" d="M360 1284l371 100h168l-293 -1384h-180l258 1214l-322 -88z" />
<glyph unicode="2" d="M25 0l30 141q359 265 475 361q218 182 293 320q54 99 54 202q0 113 -80 172t-197 59q-161 0 -307 -75l-35 149q161 84 363 84q88 0 165 -21t140.5 -64t100 -116.5t36.5 -169.5q0 -85 -22 -163t-71 -152.5t-108 -140t-152 -141t-183 -140t-220 -151.5h639l-35 -154h-886z " />
<glyph unicode="3" d="M25 57l34 154q145 -82 324 -82q81 0 149.5 17.5t125 53.5t88.5 98.5t32 145.5q0 111 -82.5 163t-220.5 52h-129l33 152h117q157 0 264.5 61.5t107.5 171.5q0 57 -21 98.5t-58 65.5t-83 35.5t-102 11.5q-167 0 -313 -77l-35 149q162 86 379 86q85 0 158.5 -19.5 t132.5 -58.5t93 -105.5t34 -152.5q0 -137 -84.5 -223.5t-216.5 -120.5q96 -30 158.5 -101.5t62.5 -189.5q0 -116 -48.5 -207.5t-132.5 -148t-190 -86t-227 -29.5q-95 0 -193.5 25.5t-156.5 60.5z" />
<glyph unicode="4" d="M-20 367l26 139l840 878h213l-185 -872h170l-30 -145h-170l-78 -367h-170l80 367h-696zM215 512h490l143 662z" />
<glyph unicode="5" d="M35 59l33 154q128 -84 315 -84q180 0 292.5 85.5t112.5 246.5q0 65 -21.5 114t-55.5 78t-85 46.5t-101.5 23.5t-112.5 6q-72 0 -144 -10l-39 47l168 618h725l-32 -155h-562l-96 -359q16 2 49 2q76 0 145 -12.5t133 -42t110 -74t74 -112.5t28 -152q0 -225 -156.5 -366.5 t-427.5 -141.5q-98 0 -193 23.5t-159 64.5z" />
<glyph unicode="6" d="M131 467q0 145 29.5 282t91 258t147.5 211t207.5 142.5t263.5 52.5q177 0 293 -55l-35 -154q-117 51 -266 51q-191 0 -328.5 -123.5t-191.5 -359.5q46 49 138 91t206 42q163 0 270 -105.5t107 -283.5q0 -245 -149 -395t-377 -150q-107 0 -188 41.5t-127 113t-68.5 157 t-22.5 184.5zM307 438q0 -61 12.5 -113.5t40.5 -98t79 -71.5t120 -26q131 0 227.5 97.5t96.5 256.5q0 127 -61.5 197t-176.5 70q-142 0 -240 -84.5t-98 -227.5z" />
<glyph unicode="7" d="M143 0q122 369 334 678.5t477 550.5h-688l31 155h905l-28 -143q-115 -110 -206 -206t-188.5 -217.5t-173.5 -242t-146.5 -268t-121.5 -307.5h-195z" />
<glyph unicode="8" d="M37 324q0 291 371 401q-101 69 -154 140t-53 173q0 167 132.5 271t356.5 104q177 0 291.5 -88.5t114.5 -239.5q0 -269 -338 -378q121 -69 183.5 -145.5t62.5 -190.5q0 -176 -145 -288t-363 -112q-87 0 -167 21t-146.5 62t-106 111t-39.5 159zM213 344q0 -75 41.5 -124.5 t105 -70t144.5 -20.5q50 0 101 12t100 37.5t79.5 72.5t30.5 109q0 40 -14 75t-36 62t-58 53.5t-70.5 45.5t-83.5 43q-52 -15 -91 -29t-89 -39.5t-82.5 -55t-55 -74t-22.5 -97.5zM383 1057q0 -26 6 -50t13.5 -42t25 -37.5t28.5 -31t37 -29.5t37.5 -25.5t42.5 -26t41 -24.5 q301 87 301 274q0 97 -68.5 143.5t-182.5 46.5q-120 0 -200.5 -52.5t-80.5 -145.5z" />
<glyph unicode="9" d="M39 25l35 153q117 -51 266 -51q191 0 328.5 123.5t191.5 359.5q-46 -49 -138 -91t-206 -42q-163 0 -270 105.5t-107 283.5q0 245 149.5 395t377.5 150q86 0 155.5 -27.5t115.5 -74t76.5 -111t44 -135t13.5 -148.5q0 -145 -29.5 -282t-91 -258t-147.5 -211t-207.5 -142.5 t-263.5 -52.5q-175 0 -293 56zM319 899q0 -127 61.5 -196.5t176.5 -69.5q142 0 240 84t98 227q0 61 -12.5 113.5t-40.5 98t-79 71.5t-120 26q-131 0 -227.5 -97.5t-96.5 -256.5z" />
<glyph unicode=":" horiz-adv-x="532" d="M29 0l43 193h192l-41 -193h-194zM195 780l43 193h192l-41 -193h-194z" />
<glyph unicode=";" horiz-adv-x="532" d="M-195 -285q285 136 285 441q0 5 -1 16.5t-1 17.5h170q2 -25 2 -69q-6 -172 -108 -306t-277 -214zM195 780l43 193h192l-41 -193h-194z" />
<glyph unicode="&#x3c;" d="M115 571v140l954 426v-156l-772 -340l772 -340v-156z" />
<glyph unicode="=" d="M115 350v135h954v-135h-954zM115 786v136h954v-136h-954z" />
<glyph unicode="&#x3e;" d="M115 145v156l772 340l-772 340v156l954 -426v-140z" />
<glyph unicode="?" horiz-adv-x="851" d="M137 0l41 190h193l-41 -190h-193zM186 1333q132 80 308 80q153 0 251.5 -77.5t98.5 -217.5q0 -87 -38 -156.5t-94.5 -118t-115 -93t-107.5 -103.5t-63 -127l-27 -129h-166l31 141q15 66 45 123.5t66 98.5t76.5 77.5t78 67t68 61t48.5 66t18 74.5q0 79 -54.5 119.5 t-138.5 40.5q-148 0 -262 -72z" />
<glyph unicode="@" horiz-adv-x="1593" d="M78 373q0 158 44.5 293t122 232t182 166t225 102.5t249.5 33.5q159 0 286 -59t203 -176.5t76 -276.5q0 -228 -110.5 -370t-270.5 -142q-74 0 -123 36t-61 95q-102 -131 -244 -131q-96 0 -149 63.5t-53 174.5q0 187 120.5 300t298.5 113q118 0 224 -45l-72 -319 q-10 -42 -10 -74q0 -92 88 -92q39 0 79 25.5t75.5 71.5t58 123t22.5 169q0 185 -123.5 287t-326.5 102q-106 0 -204.5 -27t-185.5 -84t-152 -138t-102.5 -197t-37.5 -254q0 -95 26 -171t70.5 -126t105.5 -83.5t128.5 -48t142.5 -14.5q205 0 375 72l14 -119 q-170 -75 -391 -75q-90 0 -173.5 18.5t-162 61t-136.5 106t-93 160.5t-35 217zM596 424q0 -58 24.5 -91.5t73.5 -33.5q73 0 128.5 60.5t72.5 136.5l45 204q-35 9 -72 9q-112 0 -192 -79.5t-80 -205.5z" />
<glyph unicode="A" horiz-adv-x="1282" d="M-154 0l844 1384h180l258 -1384h-184l-63 342h-641l-203 -342h-191zM334 496h520l-119 665z" />
<glyph unicode="B" horiz-adv-x="1271" d="M74 0l293 1384h385q213 0 331.5 -86t118.5 -241q0 -65 -21.5 -120.5t-54.5 -94t-78.5 -68.5t-88.5 -47.5t-89 -28.5q42 -10 80 -30t73 -52t56 -81.5t21 -110.5q0 -206 -171 -315t-464 -109h-391zM285 154h211q118 0 208 26t146.5 85.5t56.5 146.5q0 106 -77 161.5 t-232 55.5h-213zM418 778h205q170 0 278.5 67t108.5 195q0 99 -71.5 144t-219.5 45h-205z" />
<glyph unicode="C" horiz-adv-x="1316" d="M106 563q0 251 107 445t298.5 299.5t436.5 105.5q228 0 361 -70l-35 -159q-142 71 -326 71q-140 0 -258 -46t-205.5 -131.5t-136.5 -217t-49 -293.5q0 -202 120.5 -319t321.5 -117q179 0 344 74l11 -158q-162 -76 -385 -76q-129 0 -240.5 42t-192 118t-126.5 187.5 t-46 244.5z" />
<glyph unicode="D" horiz-adv-x="1533" d="M78 0l293 1384h415q130 0 244 -36.5t202.5 -106t139.5 -179.5t51 -247q0 -256 -117 -441.5t-324.5 -279.5t-483.5 -94h-420zM291 154h239q151 0 279 42.5t223 123.5t149 206t54 281q0 202 -121 312t-356 110h-240z" />
<glyph unicode="E" horiz-adv-x="1189" d="M117 244q0 46 28 172l203 968h828l-33 -155h-645l-92 -438h587l-32 -154h-590l-62 -303q-8 -46 -8 -64q0 -116 148 -116h497l-33 -154h-524q-135 0 -203.5 66t-68.5 178z" />
<glyph unicode="F" horiz-adv-x="1159" d="M74 0l293 1384h815l-33 -155h-633l-98 -463h575l-30 -156h-578l-129 -610h-182z" />
<glyph unicode="G" horiz-adv-x="1622" d="M104 580q0 172 52 314t138.5 236.5t202.5 159.5t241 94t257 29q300 0 527 -127l-35 -160q-95 59 -222.5 94t-260.5 35q-109 0 -207.5 -20.5t-192 -70t-160.5 -124.5t-108 -192t-41 -264q0 -221 137.5 -338t372.5 -117q201 0 344 68l86 401h-430l31 152h606l-139 -664 q-239 -115 -519 -115q-116 0 -219 25.5t-187.5 76t-145.5 123t-94.5 170.5t-33.5 214z" />
<glyph unicode="H" horiz-adv-x="1609" d="M74 0l295 1384h180l-125 -589h803l123 589h180l-293 -1384h-180l135 637h-803l-135 -637h-180z" />
<glyph unicode="I" horiz-adv-x="626" d="M74 0l293 1384h180l-293 -1384h-180z" />
<glyph unicode="J" horiz-adv-x="786" d="M-102 16l34 154q84 -41 179 -41t148 55.5t77 165.5l219 1034h180l-219 -1030q-43 -198 -142.5 -290.5t-269.5 -92.5q-105 0 -206 45z" />
<glyph unicode="K" horiz-adv-x="1265" d="M74 0l293 1384h180l-129 -612l756 612h231l-836 -679l549 -705h-219l-510 645l-137 -645h-178z" />
<glyph unicode="L" horiz-adv-x="1056" d="M119 244q0 40 10 92l221 1048h180l-221 -1048q-8 -33 -8 -66q0 -116 148 -116h454l-33 -154h-479q-134 0 -203 66.5t-69 177.5z" />
<glyph unicode="M" horiz-adv-x="1925" d="M74 0l293 1384h184l348 -931l750 931h196l-293 -1384h-180l234 1087l-652 -817h-168l-303 817l-231 -1087h-178z" />
<glyph unicode="N" horiz-adv-x="1595" d="M74 0l293 1384h161l578 -1118l237 1118h173l-293 -1384h-160l-580 1118l-235 -1118h-174z" />
<glyph unicode="O" horiz-adv-x="1669" d="M106 567q0 177 60.5 332t169 268.5t269 179.5t351.5 66q275 0 440 -162t165 -432q0 -183 -61.5 -340t-171.5 -269t-269.5 -175.5t-347.5 -63.5q-275 0 -440 162.5t-165 433.5zM295 573q0 -204 115.5 -324t324.5 -120q189 0 335 89t224 244t78 351q0 203 -115.5 322.5 t-324.5 119.5q-189 0 -335 -89.5t-224 -244t-78 -348.5z" />
<glyph unicode="P" horiz-adv-x="1284" d="M72 0l295 1384h434q203 0 317.5 -103.5t114.5 -274.5q0 -158 -82.5 -270.5t-220 -166t-314.5 -53.5h-254l-108 -516h-182zM395 670h248q85 0 157 19.5t128.5 57.5t88.5 101.5t32 146.5q0 117 -73.5 175.5t-213.5 58.5h-248z" />
<glyph unicode="Q" horiz-adv-x="1669" d="M106 567q0 177 60.5 332t169 268.5t269 179.5t351.5 66q275 0 440 -162t165 -432q0 -307 -165.5 -527.5t-445.5 -291.5l264 -322h-225l-211 297q-46 -4 -67 -4q-275 0 -440 162.5t-165 433.5zM295 573q0 -204 115.5 -324t324.5 -120q189 0 335 89t224 244t78 351 q0 203 -115.5 322.5t-324.5 119.5q-189 0 -335 -89.5t-224 -244t-78 -348.5z" />
<glyph unicode="R" horiz-adv-x="1300" d="M74 0l293 1384h421q213 0 330 -99t117 -275q0 -192 -122.5 -312.5t-319.5 -154.5l315 -543h-203l-299 520h-239l-113 -520h-180zM397 674h246q86 0 158 19t128.5 57t88 101t31.5 146q0 232 -287 232h-246z" />
<glyph unicode="S" horiz-adv-x="1140" d="M12 68l35 161q184 -100 385 -100q65 0 121 13.5t102.5 41t73.5 76.5t27 115q0 55 -31 99.5t-80.5 76t-109.5 61.5t-120.5 64.5t-110 77t-80.5 107.5t-31 147q0 98 43 176.5t117 127.5t168.5 75t201.5 26q104 0 205 -22t164 -54l-37 -159q-62 33 -153.5 55t-180.5 22 q-65 0 -123 -13t-108 -40t-79.5 -75.5t-29.5 -112.5q0 -54 31 -97.5t81 -75t110.5 -61.5t120.5 -65t110 -77t81 -106t31 -143q0 -86 -28.5 -157t-77.5 -119t-116 -80.5t-141.5 -47t-156.5 -14.5q-117 0 -226 27t-188 70z" />
<glyph unicode="T" horiz-adv-x="1196" d="M152 1229l32 155h1116l-30 -155h-469l-260 -1229h-181l261 1229h-469z" />
<glyph unicode="U" horiz-adv-x="1427" d="M133 367q0 57 10 108l193 909h180l-190 -895q-13 -63 -13 -110q0 -125 75 -187.5t208 -62.5q161 0 274.5 89.5t151.5 270.5l190 895h179l-193 -897q-55 -254 -218 -384t-415 -130q-196 0 -314 104.5t-118 289.5z" />
<glyph unicode="V" horiz-adv-x="1277" d="M147 1384h185l209 -1161l698 1161h186l-850 -1384h-172z" />
<glyph unicode="W" horiz-adv-x="2004" d="M164 1384h184l86 -1161l627 1161h170l137 -1163l578 1163h188l-694 -1384h-197l-139 1155l-629 -1155h-201z" />
<glyph unicode="X" horiz-adv-x="1257" d="M-137 0l659 713l-344 671h201l272 -534l496 534h223l-645 -686l362 -698h-202l-287 561l-510 -561h-225z" />
<glyph unicode="Y" horiz-adv-x="1193" d="M145 1384h191l264 -663l543 663h196l-686 -829l-116 -555h-181l117 555z" />
<glyph unicode="Z" horiz-adv-x="1222" d="M-59 0l26 133l1008 1096h-797l33 155h1024l-31 -143l-997 -1087h821l-33 -154h-1054z" />
<glyph unicode="[" horiz-adv-x="638" d="M16 -389l392 1843h370l-28 -135h-218l-333 -1573h217l-29 -135h-371z" />
<glyph unicode="\" horiz-adv-x="892" d="M92 1384h137l572 -1384h-137z" />
<glyph unicode="]" horiz-adv-x="638" d="M-162 -389l29 135h217l334 1573h-217l28 135h371l-391 -1843h-371z" />
<glyph unicode="^" d="M63 504l611 880h121l233 -880h-141l-182 694l-482 -694h-160z" />
<glyph unicode="_" horiz-adv-x="1187" d="M-123 -150l27 121h1110l-29 -121h-1108z" />
<glyph unicode="`" horiz-adv-x="1044" d="M311 1454h166l166 -309h-129z" />
<glyph unicode="a" horiz-adv-x="1157" d="M49 299q0 204 85.5 365t235 249t335.5 88q166 0 296 -59l-153 -713q-6 -24 -6 -43q0 -61 63 -61q47 0 90 18l-2 -145q-60 -27 -139 -27t-124.5 43.5t-45.5 118.5q0 15 4 47q-55 -88 -152.5 -148.5t-207.5 -60.5q-136 0 -207.5 87t-71.5 241zM219 319q0 -98 39 -146 t121 -48q131 0 229.5 111t132.5 270l70 328q-64 20 -139 20q-192 0 -322.5 -152.5t-130.5 -382.5z" />
<glyph unicode="b" horiz-adv-x="1107" d="M33 33l303 1421h166l-142 -639q57 77 147 131.5t191 54.5q136 0 210.5 -89.5t74.5 -239.5q0 -153 -49.5 -284.5t-136 -222.5t-207.5 -142.5t-260 -51.5q-146 0 -297 62zM221 141q64 -20 131 -20q128 0 234.5 72.5t166.5 194t60 263.5q0 195 -160 195q-131 0 -230 -112.5 t-132 -268.5z" />
<glyph unicode="c" horiz-adv-x="954" d="M51 322q0 145 51 273t136.5 216t199.5 139t238 51q123 0 207 -43l-33 -151q-77 47 -184 47q-125 0 -228 -69.5t-161 -187.5t-58 -259q0 -113 53.5 -165t147.5 -52q142 0 289 86l24 -139q-157 -97 -344 -97q-72 0 -131.5 20t-106.5 61t-73.5 110t-26.5 160z" />
<glyph unicode="d" horiz-adv-x="1157" d="M51 299q0 204 85.5 365t235 249t335.5 88q53 0 139 -14l98 467h168l-262 -1225q-6 -24 -6 -43q0 -61 63 -61q47 0 90 18l-2 -145q-60 -27 -139 -27t-124.5 43.5t-45.5 118.5q0 15 4 47q-55 -88 -152.5 -148.5t-207.5 -60.5q-136 0 -207.5 87t-71.5 241zM221 319 q0 -98 39 -146t121 -48q131 0 229.5 111t132.5 270l70 328q-64 20 -139 20q-192 0 -322.5 -152.5t-130.5 -382.5z" />
<glyph unicode="e" horiz-adv-x="1021" d="M51 334q0 144 47.5 270t127 212t184.5 135.5t219 49.5q150 0 228.5 -66.5t78.5 -176.5q0 -82 -36 -146t-94 -103.5t-137 -65.5t-157.5 -36t-163.5 -10q-68 0 -127 6q-2 -18 -2 -49q0 -233 225 -233q165 0 304 88l26 -139q-162 -99 -362 -99q-172 0 -266.5 97.5 t-94.5 265.5zM242 532q54 -4 92 -4q74 0 145 10t140.5 32t112 65.5t42.5 103.5q0 55 -40 85t-116 30q-130 0 -233.5 -85.5t-142.5 -236.5z" />
<glyph unicode="f" horiz-adv-x="638" d="M-231 -387l32 147q49 -22 113 -22q44 0 69 24t37 82l211 992h-139l29 137h139l43 194q72 316 387 316q71 0 129 -21l-33 -153q-43 22 -108 22q-81 0 -139.5 -49t-79.5 -149l-33 -160h268l-28 -137h-269l-213 -992q-29 -133 -89.5 -197.5t-174.5 -64.5q-80 0 -151 31z" />
<glyph unicode="g" horiz-adv-x="1116" d="M-35 -338l35 150q117 -80 279 -80q139 0 233 71t125 217l29 132q-60 -78 -149.5 -129.5t-188.5 -51.5q-136 0 -207.5 87t-71.5 241q0 204 85.5 365t235 249t335.5 88q166 0 296 -59l-196 -915q-45 -214 -189 -329.5t-350 -115.5q-176 0 -301 80zM219 319q0 -98 39 -146 t121 -48q131 0 229.5 111t132.5 270l70 328q-64 20 -139 20q-192 0 -322.5 -152.5t-130.5 -382.5z" />
<glyph unicode="h" horiz-adv-x="1157" d="M27 0l307 1454h166l-144 -659q61 88 160 147t217 59q121 0 189.5 -73.5t68.5 -202.5q0 -51 -12 -113l-131 -612h-166l129 612q10 55 10 88q0 150 -147 150q-91 0 -173.5 -55t-135 -139.5t-72.5 -180.5l-100 -475h-166z" />
<glyph unicode="i" horiz-adv-x="514" d="M25 0l206 973h166l-207 -973h-165zM279 1194l43 203h165l-43 -203h-165z" />
<glyph unicode="j" horiz-adv-x="514" d="M-260 -387l33 147q49 -22 112 -22q44 0 69.5 24t37.5 82l239 1129h166l-241 -1129q-29 -132 -90 -197t-175 -65q-80 0 -151 31zM279 1194l43 203h165l-43 -203h-165z" />
<glyph unicode="k" horiz-adv-x="985" d="M25 0l309 1454h166l-187 -876l459 395h223l-542 -453l399 -520h-197l-366 467l-99 -467h-165z" />
<glyph unicode="l" horiz-adv-x="550" d="M63 162q0 15 9 71l258 1221h166l-260 -1237q-5 -30 -5 -33q0 -63 72 -63q46 0 98 20l-2 -143q-65 -27 -139 -27q-91 0 -144 49t-53 142z" />
<glyph unicode="m" horiz-adv-x="1761" d="M25 0l206 973h158l-35 -180q58 90 151 149t210 59q107 0 171.5 -57t76.5 -162q59 89 161 154t219 65q120 0 187 -72t67 -200q0 -44 -14 -119l-131 -610h-166l129 610q10 52 10 86q0 144 -137 144q-135 0 -236.5 -109.5t-133.5 -265.5l-97 -465h-166l131 610q9 44 9 84 q0 146 -136 146q-135 0 -237 -112t-133 -263l-99 -465h-165z" />
<glyph unicode="n" horiz-adv-x="1155" d="M25 0l206 973h158l-35 -178q61 88 160 147t217 59q121 0 189.5 -73.5t68.5 -202.5q0 -51 -12 -113l-131 -612h-166l129 612q10 55 10 88q0 150 -147 150q-91 0 -173.5 -55t-135 -139.5t-72.5 -180.5l-101 -475h-165z" />
<glyph unicode="o" horiz-adv-x="1093" d="M57 344q0 143 47.5 267t126 208.5t182 133t214.5 48.5q165 0 250.5 -101.5t85.5 -272.5q0 -142 -47.5 -266t-127 -208.5t-183 -133t-214.5 -48.5q-163 0 -248.5 102t-85.5 271zM225 358q0 -117 51.5 -177t143.5 -60q68 0 134.5 34.5t119.5 96t86 156.5t33 206 q0 117 -51 178.5t-140 61.5q-69 0 -136.5 -35t-121 -97t-86.5 -157.5t-33 -206.5z" />
<glyph unicode="p" horiz-adv-x="1107" d="M-55 -389l286 1362h158l-31 -164q61 82 151 137t189 55q134 0 208.5 -88t74.5 -241t-49.5 -284t-135 -222t-205 -143t-255.5 -52q-74 0 -148 21l-82 -381h-161zM219 141q64 -20 131 -20q128 0 234.5 72.5t166.5 194t60 263.5q0 199 -160 199q-88 0 -165.5 -56 t-126.5 -141.5t-70 -185.5z" />
<glyph unicode="q" horiz-adv-x="1116" d="M49 299q0 153 49.5 284t136 222.5t207.5 143.5t260 52q166 0 299 -59l-282 -1331h-168l121 553q-57 -82 -148.5 -137.5t-195.5 -55.5q-135 0 -207 87.5t-72 240.5zM219 319q0 -98 39 -146t121 -48q132 0 230 110.5t132 270.5l70 328q-64 20 -135 20q-195 0 -326 -150.5 t-131 -384.5z" />
<glyph unicode="r" horiz-adv-x="776" d="M25 0l206 973h160l-45 -219q54 98 168.5 172.5t245.5 74.5l-39 -180q-154 0 -277.5 -106t-164.5 -299l-89 -416h-165z" />
<glyph unicode="s" horiz-adv-x="876" d="M-18 59l28 144q56 -39 138.5 -62.5t158.5 -23.5q91 0 147 34t56 107q0 41 -22 73.5t-57 55t-77 43t-84.5 44t-77.5 51.5t-57 71t-22 98q0 76 32.5 136t88.5 96.5t126.5 55.5t151.5 19q153 0 262 -53l-31 -147q-98 53 -247 53q-94 0 -153.5 -33t-59.5 -106q0 -33 22 -59 t57 -45.5t77.5 -39.5t85.5 -44.5t78 -55t57 -78.5t22 -108q0 -80 -32.5 -142t-87.5 -98.5t-123 -55t-144 -18.5q-88 0 -172 23.5t-141 64.5z" />
<glyph unicode="t" horiz-adv-x="718" d="M72 836l28 137h142l86 309h145l-65 -309h288l-28 -137h-289l-117 -549q-6 -27 -6 -54q0 -110 121 -110q35 0 82 12.5t78 28.5v-150q-87 -43 -191 -43q-111 0 -184.5 60t-73.5 176q0 41 8 82l115 547h-139z" />
<glyph unicode="u" horiz-adv-x="1157" d="M74 248q0 42 14 114l129 611h166l-129 -611q-10 -52 -10 -86q0 -70 37 -109.5t110 -39.5q88 0 167 54t129.5 137.5t70.5 179.5l100 475h164l-156 -744q-6 -24 -6 -43q0 -61 64 -61q47 0 90 18l-2 -145q-60 -27 -140 -27q-79 0 -124.5 43.5t-45.5 118.5q0 7 5 47 q-57 -90 -154 -148.5t-215 -58.5q-121 0 -192.5 72.5t-71.5 202.5z" />
<glyph unicode="v" horiz-adv-x="974" d="M63 973h168l140 -778l473 778h174l-610 -973h-164z" />
<glyph unicode="w" horiz-adv-x="1595" d="M76 973h168l80 -772l436 772h166l114 -772l412 772h174l-528 -973h-170l-117 780l-449 -780h-172z" />
<glyph unicode="x" horiz-adv-x="925" d="M-129 0l459 494l-246 479h180l182 -359l330 359h199l-459 -477l260 -496h-182l-193 373l-331 -373h-199z" />
<glyph unicode="y" horiz-adv-x="1138" d="M-16 -338l34 150q117 -80 279 -80q138 0 231.5 71.5t126.5 216.5l31 134q-60 -80 -150 -130.5t-198 -50.5q-121 0 -192.5 72.5t-71.5 202.5q0 42 14 114l129 611h166l-129 -611q-10 -52 -10 -86q0 -70 37 -109.5t110 -39.5q88 0 167 54t129.5 137.5t70.5 179.5l100 475 h164l-199 -946q-45 -215 -188.5 -330t-349.5 -115q-176 0 -301 80z" />
<glyph unicode="z" horiz-adv-x="956" d="M-47 0l24 117l662 712h-510l31 144h727l-25 -119l-661 -711h551l-31 -143h-768z" />
<glyph unicode="{" horiz-adv-x="667" d="M18 475l31 150q92 18 142.5 47.5t82.5 86.5t56 163l43 194q19 85 45 143t70.5 104.5t113.5 68.5t166 22h47l-29 -135h-53q-93 0 -141.5 -54.5t-71.5 -166.5l-41 -203q-32 -158 -101.5 -238t-203.5 -114q88 -29 128 -84.5t40 -161.5q0 -50 -10 -94l-56 -248 q-10 -52 -10 -84q0 -125 131 -125h54l-27 -135h-53q-126 0 -192 67t-66 181q0 37 10 92l53 250q12 54 12 112q0 75 -41.5 112t-128.5 50z" />
<glyph unicode="|" horiz-adv-x="569" d="M217 -389v2027h133v-2027h-133z" />
<glyph unicode="}" horiz-adv-x="669" d="M-154 -389l29 135h53q93 0 141.5 54.5t71.5 166.5l41 203q32 158 101.5 238t203.5 114q-88 29 -128 84.5t-40 161.5q0 46 11 94l55 248q10 52 10 84q0 125 -131 125h-53l27 135h53q126 0 192 -67t66 -181q0 -37 -10 -92l-54 -250q-12 -54 -12 -112q0 -75 41.5 -112 t128.5 -50l-31 -150q-69 -14 -112 -31.5t-76 -52t-53.5 -84t-38.5 -129.5l-43 -194q-19 -85 -45 -143t-70.5 -104.5t-113.5 -68.5t-166 -22h-48z" />
<glyph unicode="~" d="M104 494q0 127 61 205.5t167 78.5q64 0 168 -35t203 -69.5t149 -34.5q96 0 96 135h131q0 -125 -61 -203.5t-166 -78.5q-63 0 -166.5 35t-202.5 69.5t-151 34.5q-96 0 -96 -137h-132z" />
<glyph unicode="&#xa1;" horiz-adv-x="600" d="M-33 -389l230 985h151l-186 -985h-195zM215 780l41 193h193l-39 -193h-195z" />
<glyph unicode="&#xa2;" d="M160 569q0 271 148 464.5t399 238.5l67 319h137l-67 -307q85 -2 162 -20t120 -47l-43 -152q-92 61 -270 61q-117 0 -210.5 -46.5t-151.5 -124.5t-88.5 -176t-30.5 -206q0 -83 26 -145t71.5 -98t101.5 -53t122 -17q137 0 271 62l14 -146q-138 -72 -340 -72l-68 -329h-137 l74 350q-143 42 -225 156.5t-82 287.5z" />
<glyph unicode="&#xa3;" d="M37 0l29 135q57 35 91 58.5t73 55.5t60.5 62t41 70t27.5 88.5t8 108.5q0 7 -7 63h-219l27 125h180q-1 16 -4.5 57t-3.5 64q0 238 141.5 382t392.5 144q156 0 277 -59l-45 -154q-112 55 -248 55q-162 0 -252 -91t-90 -279q0 -44 10 -119h430l-26 -125h-393q2 -14 2 -39 q0 -173 -51.5 -273.5t-168.5 -174.5h625l-33 -154h-874z" />
<glyph unicode="&#xa5;" d="M70 262l22 109h332l47 219h-332l25 108h297l-260 686h182l223 -593l481 593h181l-561 -686h301l-25 -108h-332l-45 -219h330l-23 -109h-331l-56 -262h-180l55 262h-331z" />
<glyph unicode="&#xa6;" horiz-adv-x="569" d="M217 -389v840h133v-840h-133zM217 799v839h133v-839h-133z" />
<glyph unicode="&#xa7;" horiz-adv-x="1114" d="M-135 -328l37 160q167 -100 393 -100q66 0 120.5 12.5t100 39.5t71 75t25.5 114q0 59 -31.5 104.5t-81.5 75t-111 56.5t-121.5 58.5t-110.5 71t-81.5 103t-31.5 146.5q0 189 182 284q-30 62 -30 146q0 101 46.5 179.5t125 124t172.5 68.5t198 23q103 0 202.5 -20.5 t158.5 -55.5l-35 -155q-133 73 -336 73q-67 0 -125 -11.5t-109 -37t-80.5 -72.5t-29.5 -112q0 -56 31.5 -99t82 -72.5t112 -56.5t122.5 -59t111.5 -71.5t82 -102t31.5 -143.5q0 -199 -178 -301q27 -62 27 -127q0 -105 -43 -186.5t-117 -130t-166 -73t-196 -24.5 q-228 0 -418 96zM211 604q0 -58 35.5 -103.5t94.5 -78t122 -61t132.5 -67t111.5 -79.5q79 60 79 176q0 49 -25 90t-64.5 68t-93.5 55t-105 50t-106 54t-91 66q-90 -63 -90 -170z" />
<glyph unicode="&#xa8;" horiz-adv-x="1044" d="M244 1206l43 197h153l-43 -197h-153zM602 1206l41 197h154l-41 -197h-154z" />
<glyph unicode="&#xa9;" horiz-adv-x="1673" d="M111 588q0 189 67 346.5t182 261t268 160.5t326 57q182 0 322 -80t214.5 -220t74.5 -316q0 -189 -67 -346.5t-182.5 -261.5t-268 -161t-324.5 -57q-184 0 -324 80.5t-214 220t-74 316.5zM211 586q0 -232 143.5 -375t384.5 -143q147 0 278 50t230 141.5t157 231.5t58 308 q0 232 -143.5 375t-384.5 143q-147 0 -278 -50t-230 -141.5t-157 -231.5t-58 -308zM473 616q0 115 42.5 208t112.5 151.5t157.5 89.5t181.5 31q132 0 211 -52l-31 -131q-76 50 -193 50q-66 0 -123.5 -19.5t-105.5 -58.5t-76 -106.5t-28 -155.5q0 -100 58.5 -150.5 t151.5 -50.5q123 0 220 65l24 -122q-117 -74 -260 -74q-69 0 -129 19.5t-108.5 58t-76.5 102t-28 145.5z" />
<glyph unicode="&#xaa;" horiz-adv-x="841" d="M176 985q0 133 61 232t158.5 147.5t216.5 48.5q81 0 168 -35l-92 -430q-4 -16 -4 -22q0 -37 43 -37q18 0 51 14l-4 -108q-38 -19 -82 -19q-54 0 -87.5 27.5t-33.5 85.5q0 14 2 20q-92 -133 -213 -133q-86 0 -135 57.5t-49 151.5zM303 995q0 -51 23.5 -77.5t64.5 -26.5 q73 0 127.5 58.5t75.5 148.5l45 200q-35 7 -66 7q-123 0 -196.5 -91t-73.5 -219z" />
<glyph unicode="&#xab;" horiz-adv-x="1050" d="M47 508l367 407h170l-353 -413l193 -402h-145zM498 508l366 407h170l-352 -413l192 -402h-145z" />
<glyph unicode="&#xac;" d="M115 786v136h954v-570h-141v434h-813z" />
<glyph unicode="&#xad;" horiz-adv-x="808" d="M129 514l33 154h500l-33 -154h-500z" />
<glyph unicode="&#xae;" horiz-adv-x="1114" d="M166 889q0 151 74 272.5t194 186.5t258 65q157 -1 253.5 -98.5t96.5 -249.5q0 -151 -74 -272.5t-194 -186.5t-258 -65q-157 0 -253.5 98t-96.5 250zM248 893q0 -127 77.5 -201t209.5 -74q111 0 208.5 55.5t158.5 158.5t61 229q0 125 -79 198.5t-210 73.5q-82 0 -159 -33 t-136 -90t-95 -140t-36 -177zM395 752l94 446h175q76 0 116.5 -33t40.5 -92q0 -55 -36.5 -88.5t-100.5 -44.5l84 -188h-113l-69 174h-51l-37 -174h-103zM551 1004h74q87 0 90 65q0 53 -66 53h-74z" />
<glyph unicode="&#xaf;" horiz-adv-x="1044" d="M238 1241l26 119h541l-27 -119h-540z" />
<glyph unicode="&#xb0;" horiz-adv-x="665" d="M170 1098q0 136 87.5 225.5t197.5 89.5q90 0 144 -60t54 -159q0 -136 -87.5 -225.5t-196.5 -89.5q-90 0 -144.5 60t-54.5 159zM266 1102q0 -58 29.5 -91.5t81.5 -33.5q73 0 126.5 61t53.5 152q0 56 -30 90.5t-81 34.5q-73 0 -126.5 -61t-53.5 -152z" />
<glyph unicode="&#xb1;" d="M115 0v135h954v-135h-954zM115 612v136h405v385h142v-385h407v-136h-407v-385h-142v385h-405z" />
<glyph unicode="&#xb2;" horiz-adv-x="737" d="M47 541l19 96q114 86 182.5 140t133 112t97 100.5t51.5 87.5t19 90q0 63 -44 93t-110 30q-108 0 -194 -49l-29 115q99 57 238 57q119 0 201.5 -57.5t82.5 -173.5q0 -128 -105 -256t-321 -269h355l-27 -116h-549z" />
<glyph unicode="&#xb3;" horiz-adv-x="739" d="M66 582l32 110q90 -55 205 -55q97 0 160 42t63 126q0 129 -202 129h-62l23 113h73q91 0 152 33.5t61 99.5q0 60 -44.5 87t-112.5 27q-103 0 -199 -49l-25 115q100 53 238 53q118 0 197.5 -54.5t79.5 -162.5q0 -82 -52.5 -135t-130.5 -74q64 -20 102 -66t38 -118 q0 -89 -51 -155t-130 -97t-174 -31q-136 0 -241 62z" />
<glyph unicode="&#xb4;" horiz-adv-x="1044" d="M330 1145l231 309h184l-280 -309h-135z" />
<glyph unicode="&#xb6;" horiz-adv-x="1449" d="M170 872q0 129 46.5 228.5t129.5 160.5t193 92t243 31h256l-379 -1773h-135l187 881h-119q-117 0 -211 42t-152.5 129.5t-58.5 208.5zM879 -389l378 1773h134l-379 -1773h-133z" />
<glyph unicode="&#xb7;" horiz-adv-x="540" d="M150 492l43 192h192l-41 -192h-194z" />
<glyph unicode="&#xb8;" horiz-adv-x="1044" d="M346 -385l37 109q56 -25 106 -25q39 0 62.5 16.5t23.5 46.5q0 75 -153 78l74 193h127l-39 -109q57 -15 93 -54t36 -101q0 -90 -65.5 -138.5t-158.5 -48.5q-36 0 -78 10t-65 23z" />
<glyph unicode="&#xb9;" horiz-adv-x="585" d="M152 1196v125l266 63h123l-179 -843h-137l152 708z" />
<glyph unicode="&#xba;" horiz-adv-x="835" d="M199 1014q0 174 104.5 286.5t249.5 112.5q105 0 165 -67t60 -172q0 -173 -103.5 -285.5t-246.5 -112.5q-107 0 -168 66t-61 172zM324 1026q0 -141 114 -141q84 0 149.5 75t65.5 201q0 71 -29 106.5t-83 35.5q-86 0 -151.5 -75.5t-65.5 -201.5z" />
<glyph unicode="&#xbb;" horiz-adv-x="1050" d="M-4 100l352 414l-192 401h145l231 -407l-366 -408h-170zM446 100l353 414l-193 401h146l231 -407l-367 -408h-170z" />
<glyph unicode="&#xbc;" horiz-adv-x="1591" d="M152 1196v125l266 63h123l-179 -843h-137l152 708zM160 0l1050 1384h140l-1053 -1384h-137zM801 199l20 100l510 561h156l-115 -547h115l-23 -114h-116l-43 -199h-125l41 199h-420zM985 313h260l82 379z" />
<glyph unicode="&#xbd;" horiz-adv-x="1665" d="M152 1196v125l266 63h123l-179 -843h-137l152 708zM160 0l1050 1384h140l-1053 -1384h-137zM911 0l19 96q113 85 182 140t133.5 112.5t97 100.5t51.5 88t19 90q0 63 -43.5 93t-109.5 30q-107 0 -195 -50l-29 115q99 57 238 57q76 0 138 -22t104.5 -76t42.5 -133 q0 -128 -105 -255.5t-321 -268.5h354l-27 -117h-549z" />
<glyph unicode="&#xbe;" horiz-adv-x="1701" d="M66 582l32 110q90 -55 205 -55q97 0 160 42t63 126q0 129 -202 129h-62l23 113h73q91 0 152 33.5t61 99.5q0 60 -44.5 87t-112.5 27q-103 0 -199 -49l-25 115q100 53 238 53q118 0 197.5 -54.5t79.5 -162.5q0 -82 -52.5 -135t-130.5 -74q64 -20 102 -66t38 -118 q0 -89 -51 -155t-130 -97t-174 -31q-136 0 -241 62zM319 0l1051 1384h139l-1052 -1384h-138zM911 199l21 100l510 561h155l-114 -547h114l-22 -114h-117l-43 -199h-125l41 199h-420zM1096 313h260l82 379z" />
<glyph unicode="&#xbf;" horiz-adv-x="757" d="M-98 -123q0 87 38 156.5t94.5 118t114.5 93t107 103.5t63 127l25 121h166l-29 -133q-15 -66 -45 -123.5t-66 -98t-76 -77t-77.5 -67.5t-68 -61t-48.5 -65.5t-18 -74.5q0 -79 54 -119.5t138 -40.5q151 0 263 71l22 -145q-132 -80 -307 -80q-153 0 -251.5 77.5t-98.5 217.5 zM369 782l41 191h192l-41 -191h-192z" />
<glyph unicode="&#xc0;" horiz-adv-x="1282" d="M-154 0l844 1384h180l258 -1384h-184l-63 342h-641l-203 -342h-191zM334 496h520l-119 665zM532 1833h166l166 -309h-129z" />
<glyph unicode="&#xc1;" horiz-adv-x="1282" d="M-154 0l844 1384h180l258 -1384h-184l-63 342h-641l-203 -342h-191zM334 496h520l-119 665zM756 1524l231 309h184l-280 -309h-135z" />
<glyph unicode="&#xc2;" horiz-adv-x="1282" d="M-154 0l844 1384h180l258 -1384h-184l-63 342h-641l-203 -342h-191zM334 496h520l-119 665zM530 1524l277 309h137l148 -309h-123l-105 196l-186 -196h-148z" />
<glyph unicode="&#xc3;" horiz-adv-x="1282" d="M-154 0l844 1384h180l258 -1384h-184l-63 342h-641l-203 -342h-191zM334 496h520l-119 665zM514 1550q9 114 63.5 183t147.5 69q41 0 77.5 -20t58.5 -43.5t50.5 -43.5t55.5 -20q77 0 82 123h118q-11 -118 -65.5 -185t-153.5 -67q-36 0 -71.5 21t-59 45.5t-53 45.5 t-53.5 21q-33 0 -54 -32t-24 -97h-119z" />
<glyph unicode="&#xc4;" horiz-adv-x="1282" d="M-154 0l844 1384h180l258 -1384h-184l-63 342h-641l-203 -342h-191zM334 496h520l-119 665zM569 1577l43 197h154l-43 -197h-154zM928 1577l41 197h153l-41 -197h-153z" />
<glyph unicode="&#xc5;" horiz-adv-x="1282" d="M-154 0l844 1384h180l258 -1384h-184l-63 342h-641l-203 -342h-191zM334 496h520l-119 665zM592 1659q0 92 71.5 147.5t170.5 55.5q84 0 139 -43t55 -121q0 -92 -71.5 -148.5t-168.5 -56.5q-84 0 -140 44t-56 122zM700 1661q0 -37 27.5 -58.5t71.5 -21.5q55 0 88 31 t33 84q0 37 -26.5 57.5t-70.5 20.5q-56 0 -89.5 -30t-33.5 -83z" />
<glyph unicode="&#xc6;" horiz-adv-x="1841" d="M-219 0l1108 1384h936l-33 -155h-645l-92 -438h587l-32 -154h-590l-62 -303q-8 -46 -8 -64q0 -116 148 -116h497l-32 -154h-525q-135 0 -203.5 66t-68.5 178q0 41 14 98h-522l-270 -342h-207zM379 496h432l152 725z" />
<glyph unicode="&#xc7;" horiz-adv-x="1316" d="M106 563q0 251 107 445t298.5 299.5t436.5 105.5q228 0 361 -70l-35 -159q-142 71 -326 71q-140 0 -258 -46t-205.5 -131.5t-136.5 -217t-49 -293.5q0 -202 120.5 -319t321.5 -117q179 0 344 74l11 -158q-162 -76 -385 -76q-9 0 -27 1t-27 1l-16 -49q57 -15 93 -54 t36 -101q0 -90 -65 -138.5t-158 -48.5q-37 0 -79 10t-65 23l37 109q56 -25 107 -25q39 0 62.5 16.5t23.5 46.5q0 75 -154 78l58 152q-196 48 -313.5 199.5t-117.5 371.5z" />
<glyph unicode="&#xc8;" horiz-adv-x="1189" d="M117 244q0 46 28 172l203 968h828l-33 -155h-645l-92 -438h587l-32 -154h-590l-62 -303q-8 -46 -8 -64q0 -116 148 -116h497l-33 -154h-524q-135 0 -203.5 66t-68.5 178zM547 1833h166l166 -309h-129z" />
<glyph unicode="&#xc9;" horiz-adv-x="1189" d="M117 244q0 46 28 172l203 968h828l-33 -155h-645l-92 -438h587l-32 -154h-590l-62 -303q-8 -46 -8 -64q0 -116 148 -116h497l-33 -154h-524q-135 0 -203.5 66t-68.5 178zM700 1524l232 309h184l-280 -309h-136z" />
<glyph unicode="&#xca;" horiz-adv-x="1189" d="M117 244q0 46 28 172l203 968h828l-33 -155h-645l-92 -438h587l-32 -154h-590l-62 -303q-8 -46 -8 -64q0 -116 148 -116h497l-33 -154h-524q-135 0 -203.5 66t-68.5 178zM508 1524l276 309h138l147 -309h-123l-104 196l-187 -196h-147z" />
<glyph unicode="&#xcb;" horiz-adv-x="1189" d="M117 244q0 46 28 172l203 968h828l-33 -155h-645l-92 -438h587l-32 -154h-590l-62 -303q-8 -46 -8 -64q0 -116 148 -116h497l-33 -154h-524q-135 0 -203.5 66t-68.5 178zM547 1579l43 197h153l-43 -197h-153zM905 1579l41 197h154l-41 -197h-154z" />
<glyph unicode="&#xcc;" horiz-adv-x="626" d="M74 0l293 1384h180l-293 -1384h-180zM221 1833h166l166 -309h-129z" />
<glyph unicode="&#xcd;" horiz-adv-x="626" d="M74 0l293 1384h180l-293 -1384h-180zM420 1524l231 309h185l-281 -309h-135z" />
<glyph unicode="&#xce;" horiz-adv-x="626" d="M74 0l293 1384h180l-293 -1384h-180zM207 1524l276 309h138l147 -309h-123l-104 196l-187 -196h-147z" />
<glyph unicode="&#xcf;" horiz-adv-x="626" d="M74 0l293 1384h180l-293 -1384h-180zM246 1579l43 197h153l-43 -197h-153zM604 1579l41 197h154l-41 -197h-154z" />
<glyph unicode="&#xd0;" horiz-adv-x="1550" d="M63 651l31 131h166l127 602h416q130 0 244 -36.5t202.5 -106t139.5 -179.5t51 -247q0 -256 -117.5 -441.5t-325 -279.5t-483.5 -94h-420l137 651h-168zM307 154h240q151 0 278.5 42.5t223 123.5t149 206t53.5 281q0 202 -121 312t-356 110h-239l-95 -447h408l-29 -131 h-407z" />
<glyph unicode="&#xd1;" horiz-adv-x="1593" d="M74 0l293 1384h161l578 -1118l237 1118h173l-293 -1384h-160l-580 1118l-235 -1118h-174zM670 1550q9 114 63.5 183t147.5 69q41 0 77 -20t58 -43.5t50.5 -43.5t55.5 -20q77 0 82 123h119q-11 -118 -65.5 -185t-153.5 -67q-36 0 -71.5 21t-59.5 45.5t-53.5 45.5t-53.5 21 q-33 0 -54 -32t-24 -97h-118z" />
<glyph unicode="&#xd2;" horiz-adv-x="1669" d="M106 567q0 177 60.5 332t169 268.5t269 179.5t351.5 66q275 0 440 -162t165 -432q0 -183 -61.5 -340t-171.5 -269t-269.5 -175.5t-347.5 -63.5q-275 0 -440 162.5t-165 433.5zM295 573q0 -204 115.5 -324t324.5 -120q189 0 335 89t224 244t78 351q0 203 -115.5 322.5 t-324.5 119.5q-189 0 -335 -89.5t-224 -244t-78 -348.5zM750 1833h165l166 -309h-129z" />
<glyph unicode="&#xd3;" horiz-adv-x="1669" d="M106 567q0 177 60.5 332t169 268.5t269 179.5t351.5 66q275 0 440 -162t165 -432q0 -183 -61.5 -340t-171.5 -269t-269.5 -175.5t-347.5 -63.5q-275 0 -440 162.5t-165 433.5zM295 573q0 -204 115.5 -324t324.5 -120q189 0 335 89t224 244t78 351q0 203 -115.5 322.5 t-324.5 119.5q-189 0 -335 -89.5t-224 -244t-78 -348.5zM913 1524l232 309h184l-280 -309h-136z" />
<glyph unicode="&#xd4;" horiz-adv-x="1669" d="M106 567q0 177 60.5 332t169 268.5t269 179.5t351.5 66q275 0 440 -162t165 -432q0 -183 -61.5 -340t-171.5 -269t-269.5 -175.5t-347.5 -63.5q-275 0 -440 162.5t-165 433.5zM295 573q0 -204 115.5 -324t324.5 -120q189 0 335 89t224 244t78 351q0 203 -115.5 322.5 t-324.5 119.5q-189 0 -335 -89.5t-224 -244t-78 -348.5zM725 1524l276 309h138l147 -309h-123l-104 196l-187 -196h-147z" />
<glyph unicode="&#xd5;" horiz-adv-x="1669" d="M106 567q0 177 60.5 332t169 268.5t269 179.5t351.5 66q275 0 440 -162t165 -432q0 -183 -61.5 -340t-171.5 -269t-269.5 -175.5t-347.5 -63.5q-275 0 -440 162.5t-165 433.5zM295 573q0 -204 115.5 -324t324.5 -120q189 0 335 89t224 244t78 351q0 203 -115.5 322.5 t-324.5 119.5q-189 0 -335 -89.5t-224 -244t-78 -348.5zM709 1550q9 114 63.5 183t147.5 69q41 0 77 -20t58 -43.5t50.5 -43.5t55.5 -20q77 0 82 123h119q-11 -118 -65.5 -185t-153.5 -67q-36 0 -71.5 21t-59.5 45.5t-53.5 45.5t-53.5 21q-33 0 -54 -32t-24 -97h-118z" />
<glyph unicode="&#xd6;" horiz-adv-x="1669" d="M106 567q0 177 60.5 332t169 268.5t269 179.5t351.5 66q275 0 440 -162t165 -432q0 -183 -61.5 -340t-171.5 -269t-269.5 -175.5t-347.5 -63.5q-275 0 -440 162.5t-165 433.5zM295 573q0 -204 115.5 -324t324.5 -120q189 0 335 89t224 244t78 351q0 203 -115.5 322.5 t-324.5 119.5q-189 0 -335 -89.5t-224 -244t-78 -348.5zM764 1579l43 197h154l-43 -197h-154zM1122 1579l41 197h154l-41 -197h-154z" />
<glyph unicode="&#xd7;" d="M131 270l365 367l-365 369l94 96l365 -369l364 369l97 -96l-365 -369l365 -367l-97 -96l-364 369l-365 -369z" />
<glyph unicode="&#xd8;" horiz-adv-x="1669" d="M55 -25l187 189q-136 161 -136 401q0 183 61.5 340t171.5 269t269.5 175.5t347.5 63.5q231 0 392 -123l186 191l72 -76l-183 -184q138 -164 138 -404q0 -177 -60.5 -332t-169 -268.5t-269 -179.5t-351.5 -66q-239 0 -394 121l-190 -194zM295 571q0 -164 78 -274l850 866 q-112 92 -291 92q-190 0 -335 -87t-223.5 -242.5t-78.5 -354.5zM440 219q113 -90 295 -90q189 0 335 89.5t224 244t78 348.5q0 163 -80 276z" />
<glyph unicode="&#xd9;" horiz-adv-x="1427" d="M133 367q0 57 10 108l193 909h180l-190 -895q-13 -63 -13 -110q0 -125 75 -187.5t208 -62.5q161 0 274.5 89.5t151.5 270.5l190 895h179l-193 -897q-55 -254 -218 -384t-415 -130q-196 0 -314 104.5t-118 289.5zM635 1833h166l166 -309h-129z" />
<glyph unicode="&#xda;" horiz-adv-x="1427" d="M133 367q0 57 10 108l193 909h180l-190 -895q-13 -63 -13 -110q0 -125 75 -187.5t208 -62.5q161 0 274.5 89.5t151.5 270.5l190 895h179l-193 -897q-55 -254 -218 -384t-415 -130q-196 0 -314 104.5t-118 289.5zM799 1524l231 309h184l-280 -309h-135z" />
<glyph unicode="&#xdb;" horiz-adv-x="1427" d="M133 367q0 57 10 108l193 909h180l-190 -895q-13 -63 -13 -110q0 -125 75 -187.5t208 -62.5q161 0 274.5 89.5t151.5 270.5l190 895h179l-193 -897q-55 -254 -218 -384t-415 -130q-196 0 -314 104.5t-118 289.5zM612 1524l277 309h137l148 -309h-123l-105 196l-186 -196 h-148z" />
<glyph unicode="&#xdc;" horiz-adv-x="1427" d="M133 367q0 57 10 108l193 909h180l-190 -895q-13 -63 -13 -110q0 -125 75 -187.5t208 -62.5q161 0 274.5 89.5t151.5 270.5l190 895h179l-193 -897q-55 -254 -218 -384t-415 -130q-196 0 -314 104.5t-118 289.5zM643 1577l43 197h154l-43 -197h-154zM1001 1577l41 197 h154l-41 -197h-154z" />
<glyph unicode="&#xdd;" horiz-adv-x="1193" d="M145 1384h191l264 -663l543 663h196l-686 -829l-116 -555h-181l117 555zM715 1524l231 309h184l-280 -309h-135z" />
<glyph unicode="&#xde;" horiz-adv-x="1284" d="M72 0l295 1384h180l-51 -254h249q203 0 318 -103.5t115 -274.5q0 -158 -82.5 -270.5t-220 -166t-314.5 -53.5h-254l-55 -262h-180zM340 416h248q85 0 157 19.5t128 57.5t88 101.5t32 146.5q0 234 -286 234h-248z" />
<glyph unicode="&#xdf;" horiz-adv-x="1089" d="M-6 0l231 1085q42 200 154.5 298t318.5 98q152 0 244 -78.5t92 -196.5q0 -62 -18.5 -115.5t-48.5 -91.5t-66 -70.5t-72 -59t-66 -51t-48.5 -51.5t-18.5 -56t27.5 -62.5t66 -68.5t77.5 -75.5t66.5 -98t27.5 -121.5q0 -154 -101.5 -234t-261.5 -80q-146 0 -276 70l32 149 q116 -71 248 -71q86 0 141.5 40.5t55.5 114.5q0 49 -27 93t-65 78t-76 68.5t-65 80.5t-27 98q0 47 18.5 88t47.5 72t64 60t70.5 58t64.5 58.5t47.5 68.5t18.5 83q0 67 -53.5 111t-144.5 44q-104 0 -178.5 -55.5t-98.5 -165.5l-237 -1114h-164z" />
<glyph unicode="&#xe0;" horiz-adv-x="1157" d="M49 299q0 204 85.5 365t235 249t335.5 88q166 0 296 -59l-153 -713q-6 -24 -6 -43q0 -61 63 -61q47 0 90 18l-2 -145q-60 -27 -139 -27t-124.5 43.5t-45.5 118.5q0 15 4 47q-55 -88 -152.5 -148.5t-207.5 -60.5q-136 0 -207.5 87t-71.5 241zM219 319q0 -98 39 -146 t121 -48q131 0 229.5 111t132.5 270l70 328q-64 20 -139 20q-192 0 -322.5 -152.5t-130.5 -382.5zM446 1454h166l166 -309h-129z" />
<glyph unicode="&#xe1;" horiz-adv-x="1157" d="M49 299q0 204 85.5 365t235 249t335.5 88q166 0 296 -59l-153 -713q-6 -24 -6 -43q0 -61 63 -61q47 0 90 18l-2 -145q-60 -27 -139 -27t-124.5 43.5t-45.5 118.5q0 15 4 47q-55 -88 -152.5 -148.5t-207.5 -60.5q-136 0 -207.5 87t-71.5 241zM219 319q0 -98 39 -146 t121 -48q131 0 229.5 111t132.5 270l70 328q-64 20 -139 20q-192 0 -322.5 -152.5t-130.5 -382.5zM614 1145l232 309h184l-280 -309h-136z" />
<glyph unicode="&#xe2;" horiz-adv-x="1157" d="M49 299q0 204 85.5 365t235 249t335.5 88q166 0 296 -59l-153 -713q-6 -24 -6 -43q0 -61 63 -61q47 0 90 18l-2 -145q-60 -27 -139 -27t-124.5 43.5t-45.5 118.5q0 15 4 47q-55 -88 -152.5 -148.5t-207.5 -60.5q-136 0 -207.5 87t-71.5 241zM219 319q0 -98 39 -146 t121 -48q131 0 229.5 111t132.5 270l70 328q-64 20 -139 20q-192 0 -322.5 -152.5t-130.5 -382.5zM395 1145l277 309h137l147 -309h-122l-105 196l-186 -196h-148z" />
<glyph unicode="&#xe3;" horiz-adv-x="1157" d="M49 299q0 204 85.5 365t235 249t335.5 88q166 0 296 -59l-153 -713q-6 -24 -6 -43q0 -61 63 -61q47 0 90 18l-2 -145q-60 -27 -139 -27t-124.5 43.5t-45.5 118.5q0 15 4 47q-55 -88 -152.5 -148.5t-207.5 -60.5q-136 0 -207.5 87t-71.5 241zM219 319q0 -98 39 -146 t121 -48q131 0 229.5 111t132.5 270l70 328q-64 20 -139 20q-192 0 -322.5 -152.5t-130.5 -382.5zM385 1174q9 114 63.5 182.5t147.5 68.5q41 0 77.5 -20t58.5 -43.5t50.5 -43.5t55.5 -20q77 0 82 123h118q-11 -118 -65.5 -185t-153.5 -67q-36 0 -71.5 21t-59 46t-53 46 t-53.5 21q-33 0 -54 -32t-24 -97h-119z" />
<glyph unicode="&#xe4;" horiz-adv-x="1157" d="M49 299q0 204 85.5 365t235 249t335.5 88q166 0 296 -59l-153 -713q-6 -24 -6 -43q0 -61 63 -61q47 0 90 18l-2 -145q-60 -27 -139 -27t-124.5 43.5t-45.5 118.5q0 15 4 47q-55 -88 -152.5 -148.5t-207.5 -60.5q-136 0 -207.5 87t-71.5 241zM219 319q0 -98 39 -146 t121 -48q131 0 229.5 111t132.5 270l70 328q-64 20 -139 20q-192 0 -322.5 -152.5t-130.5 -382.5zM446 1206l43 197h154l-43 -197h-154zM805 1206l41 197h153l-41 -197h-153z" />
<glyph unicode="&#xe5;" horiz-adv-x="1157" d="M49 299q0 204 85.5 365t235 249t335.5 88q166 0 296 -59l-153 -713q-6 -24 -6 -43q0 -61 63 -61q47 0 90 18l-2 -145q-60 -27 -139 -27t-124.5 43.5t-45.5 118.5q0 15 4 47q-55 -88 -152.5 -148.5t-207.5 -60.5q-136 0 -207.5 87t-71.5 241zM219 319q0 -98 39 -146 t121 -48q131 0 229.5 111t132.5 270l70 328q-64 20 -139 20q-192 0 -322.5 -152.5t-130.5 -382.5zM496 1280q0 92 71.5 147.5t169.5 55.5q84 0 139.5 -43t55.5 -121q0 -92 -71.5 -148.5t-168.5 -56.5q-84 0 -140 44t-56 122zM604 1282q0 -37 27 -58.5t71 -21.5q55 0 88 31 t33 84q0 37 -26 57.5t-70 20.5q-56 0 -89.5 -30t-33.5 -83z" />
<glyph unicode="&#xe6;" horiz-adv-x="1601" d="M49 299q0 204 85.5 365t235 249t335.5 88q148 0 278 -51q108 51 225 51q150 0 229 -66.5t79 -176.5q0 -82 -36 -146t-94 -103.5t-137 -65.5t-157.5 -36t-163.5 -10q-68 0 -127 6q-2 -18 -2 -49q0 -233 225 -233q164 0 303 88l27 -139q-162 -99 -363 -99q-221 0 -311 154 q-59 -69 -153 -111.5t-199 -42.5q-136 0 -207.5 87t-71.5 241zM219 319q0 -98 39 -146t121 -48q146 0 256 143q-4 20 -4 66q0 287 176 485l4 15q-64 20 -139 20q-192 0 -322.5 -152.5t-130.5 -382.5zM821 532q54 -4 92 -4q74 0 145 10t141 32t112.5 65.5t42.5 103.5 q0 55 -40 85t-116 30q-130 0 -234 -85.5t-143 -236.5z" />
<glyph unicode="&#xe7;" horiz-adv-x="954" d="M51 322q0 145 51 273t136.5 216t199.5 139t238 51q123 0 207 -43l-33 -151q-77 47 -184 47q-125 0 -228 -69.5t-161 -187.5t-58 -259q0 -113 53.5 -165t147.5 -52q142 0 289 86l24 -139q-146 -89 -315 -97l-17 -47q57 -15 93 -54t36 -101q0 -90 -65 -138.5t-158 -48.5 q-36 0 -78 10t-65 23l37 109q56 -25 106 -25q39 0 62.5 16.5t23.5 46.5q0 75 -153 78l53 142q-111 23 -176.5 107.5t-65.5 232.5z" />
<glyph unicode="&#xe8;" horiz-adv-x="1021" d="M51 334q0 144 47.5 270t127 212t184.5 135.5t219 49.5q150 0 228.5 -66.5t78.5 -176.5q0 -82 -36 -146t-94 -103.5t-137 -65.5t-157.5 -36t-163.5 -10q-68 0 -127 6q-2 -18 -2 -49q0 -233 225 -233q165 0 304 88l26 -139q-162 -99 -362 -99q-172 0 -266.5 97.5 t-94.5 265.5zM242 532q54 -4 92 -4q74 0 145 10t140.5 32t112 65.5t42.5 103.5q0 55 -40 85t-116 30q-130 0 -233.5 -85.5t-142.5 -236.5zM406 1454h165l166 -309h-129z" />
<glyph unicode="&#xe9;" horiz-adv-x="1021" d="M51 334q0 144 47.5 270t127 212t184.5 135.5t219 49.5q150 0 228.5 -66.5t78.5 -176.5q0 -82 -36 -146t-94 -103.5t-137 -65.5t-157.5 -36t-163.5 -10q-68 0 -127 6q-2 -18 -2 -49q0 -233 225 -233q165 0 304 88l26 -139q-162 -99 -362 -99q-172 0 -266.5 97.5 t-94.5 265.5zM242 532q54 -4 92 -4q74 0 145 10t140.5 32t112 65.5t42.5 103.5q0 55 -40 85t-116 30q-130 0 -233.5 -85.5t-142.5 -236.5zM592 1145l231 309h185l-281 -309h-135z" />
<glyph unicode="&#xea;" horiz-adv-x="1021" d="M51 334q0 144 47.5 270t127 212t184.5 135.5t219 49.5q150 0 228.5 -66.5t78.5 -176.5q0 -82 -36 -146t-94 -103.5t-137 -65.5t-157.5 -36t-163.5 -10q-68 0 -127 6q-2 -18 -2 -49q0 -233 225 -233q165 0 304 88l26 -139q-162 -99 -362 -99q-172 0 -266.5 97.5 t-94.5 265.5zM242 532q54 -4 92 -4q74 0 145 10t140.5 32t112 65.5t42.5 103.5q0 55 -40 85t-116 30q-130 0 -233.5 -85.5t-142.5 -236.5zM373 1145l276 309h137l148 -309h-123l-104 196l-187 -196h-147z" />
<glyph unicode="&#xeb;" horiz-adv-x="1021" d="M51 334q0 144 47.5 270t127 212t184.5 135.5t219 49.5q150 0 228.5 -66.5t78.5 -176.5q0 -82 -36 -146t-94 -103.5t-137 -65.5t-157.5 -36t-163.5 -10q-68 0 -127 6q-2 -18 -2 -49q0 -233 225 -233q165 0 304 88l26 -139q-162 -99 -362 -99q-172 0 -266.5 97.5 t-94.5 265.5zM242 532q54 -4 92 -4q74 0 145 10t140.5 32t112 65.5t42.5 103.5q0 55 -40 85t-116 30q-130 0 -233.5 -85.5t-142.5 -236.5zM420 1206l43 197h153l-43 -197h-153zM778 1206l41 197h154l-41 -197h-154z" />
<glyph unicode="&#xec;" horiz-adv-x="514" d="M27 0l206 973h166l-206 -973h-166zM86 1454h166l166 -309h-129z" />
<glyph unicode="&#xed;" horiz-adv-x="514" d="M27 0l206 973h166l-206 -973h-166zM283 1145l231 309h184l-280 -309h-135z" />
<glyph unicode="&#xee;" horiz-adv-x="514" d="M27 0l206 973h166l-206 -973h-166zM68 1145l276 309h137l148 -309h-123l-105 196l-186 -196h-147z" />
<glyph unicode="&#xef;" horiz-adv-x="514" d="M27 0l206 973h166l-206 -973h-166zM113 1206l43 197h153l-43 -197h-153zM471 1206l41 197h154l-41 -197h-154z" />
<glyph unicode="&#xf0;" horiz-adv-x="1085" d="M49 342q0 144 45.5 269t121 209.5t174 132.5t204.5 48q161 0 231 -118q-7 170 -53 325l-422 -69l23 104l375 60q-7 27 -28 83.5t-24 67.5h146q29 -74 47 -127l246 41l-23 -102l-197 -33q58 -227 58 -436q0 -37 -4 -111q-23 -325 -183 -520t-399 -195q-162 0 -250 100.5 t-88 270.5zM217 358q0 -117 51.5 -178t143.5 -61q68 0 134 35t119.5 97t86 157t32.5 206q0 117 -50.5 178.5t-139.5 61.5q-69 0 -136.5 -35t-121 -97t-86.5 -157.5t-33 -206.5z" />
<glyph unicode="&#xf1;" horiz-adv-x="1155" d="M25 0l206 973h158l-35 -178q61 88 160 147t217 59q121 0 189.5 -73.5t68.5 -202.5q0 -51 -12 -113l-131 -612h-166l129 612q10 55 10 88q0 150 -147 150q-91 0 -173.5 -55t-135 -139.5t-72.5 -180.5l-101 -475h-165zM371 1174q9 114 63.5 182.5t147.5 68.5q41 0 77 -20 t58 -43.5t50.5 -43.5t55.5 -20q77 0 82 123h119q-11 -118 -65.5 -185t-153.5 -67q-36 0 -71.5 21t-59.5 46t-53.5 46t-53.5 21q-33 0 -54 -32t-24 -97h-118z" />
<glyph unicode="&#xf2;" horiz-adv-x="1093" d="M57 344q0 143 47.5 267t126 208.5t182 133t214.5 48.5q165 0 250.5 -101.5t85.5 -272.5q0 -142 -47.5 -266t-127 -208.5t-183 -133t-214.5 -48.5q-163 0 -248.5 102t-85.5 271zM225 358q0 -117 51.5 -177t143.5 -60q68 0 134.5 34.5t119.5 96t86 156.5t33 206 q0 117 -51 178.5t-140 61.5q-69 0 -136.5 -35t-121 -97t-86.5 -157.5t-33 -206.5zM416 1454h166l166 -309h-130z" />
<glyph unicode="&#xf3;" horiz-adv-x="1093" d="M57 344q0 143 47.5 267t126 208.5t182 133t214.5 48.5q165 0 250.5 -101.5t85.5 -272.5q0 -142 -47.5 -266t-127 -208.5t-183 -133t-214.5 -48.5q-163 0 -248.5 102t-85.5 271zM225 358q0 -117 51.5 -177t143.5 -60q68 0 134.5 34.5t119.5 96t86 156.5t33 206 q0 117 -51 178.5t-140 61.5q-69 0 -136.5 -35t-121 -97t-86.5 -157.5t-33 -206.5zM561 1145l232 309h184l-281 -309h-135z" />
<glyph unicode="&#xf4;" horiz-adv-x="1093" d="M57 344q0 143 47.5 267t126 208.5t182 133t214.5 48.5q165 0 250.5 -101.5t85.5 -272.5q0 -142 -47.5 -266t-127 -208.5t-183 -133t-214.5 -48.5q-163 0 -248.5 102t-85.5 271zM225 358q0 -117 51.5 -177t143.5 -60q68 0 134.5 34.5t119.5 96t86 156.5t33 206 q0 117 -51 178.5t-140 61.5q-69 0 -136.5 -35t-121 -97t-86.5 -157.5t-33 -206.5zM358 1145l277 309h137l148 -309h-123l-105 196l-186 -196h-148z" />
<glyph unicode="&#xf5;" horiz-adv-x="1093" d="M57 344q0 143 47.5 267t126 208.5t182 133t214.5 48.5q165 0 250.5 -101.5t85.5 -272.5q0 -142 -47.5 -266t-127 -208.5t-183 -133t-214.5 -48.5q-163 0 -248.5 102t-85.5 271zM225 358q0 -117 51.5 -177t143.5 -60q68 0 134.5 34.5t119.5 96t86 156.5t33 206 q0 117 -51 178.5t-140 61.5q-69 0 -136.5 -35t-121 -97t-86.5 -157.5t-33 -206.5zM352 1174q9 114 63.5 182.5t147.5 68.5q41 0 77.5 -20t58.5 -43.5t50.5 -43.5t55.5 -20q77 0 82 123h119q-11 -117 -66 -184.5t-154 -67.5q-36 0 -71.5 21t-59 46t-53 46t-53.5 21 q-33 0 -54 -32t-24 -97h-119z" />
<glyph unicode="&#xf6;" horiz-adv-x="1093" d="M57 344q0 143 47.5 267t126 208.5t182 133t214.5 48.5q165 0 250.5 -101.5t85.5 -272.5q0 -142 -47.5 -266t-127 -208.5t-183 -133t-214.5 -48.5q-163 0 -248.5 102t-85.5 271zM225 358q0 -117 51.5 -177t143.5 -60q68 0 134.5 34.5t119.5 96t86 156.5t33 206 q0 117 -51 178.5t-140 61.5q-69 0 -136.5 -35t-121 -97t-86.5 -157.5t-33 -206.5zM406 1206l43 197h153l-43 -197h-153zM764 1206l41 197h153l-40 -197h-154z" />
<glyph unicode="&#xf7;" d="M115 569v136h954v-136h-954zM500 154v180h184v-180h-184zM500 940v180h184v-180h-184z" />
<glyph unicode="&#xf8;" horiz-adv-x="1093" d="M-12 -25l125 138q-56 92 -56 231q0 143 47.5 267t126 208.5t182 133t214.5 48.5q135 0 219 -71l121 133l67 -66l-127 -139q56 -95 56 -231q0 -142 -47.5 -266t-127 -208.5t-183 -133t-214.5 -48.5q-131 0 -217 70l-119 -131zM225 358q0 -57 13 -104l495 549 q-51 51 -131 51q-69 0 -136.5 -35t-121 -97t-86.5 -157.5t-33 -206.5zM287 168q47 -47 133 -47q68 0 134.5 34.5t119.5 96t86 156.5t33 206q0 53 -13 103z" />
<glyph unicode="&#xf9;" horiz-adv-x="1157" d="M74 248q0 42 14 114l129 611h166l-129 -611q-10 -52 -10 -86q0 -70 37 -109.5t110 -39.5q88 0 167 54t129.5 137.5t70.5 179.5l100 475h164l-156 -744q-6 -24 -6 -43q0 -61 64 -61q47 0 90 18l-2 -145q-60 -27 -140 -27q-79 0 -124.5 43.5t-45.5 118.5q0 7 5 47 q-57 -90 -154 -148.5t-215 -58.5q-121 0 -192.5 72.5t-71.5 202.5zM401 1454h166l166 -309h-129z" />
<glyph unicode="&#xfa;" horiz-adv-x="1157" d="M74 248q0 42 14 114l129 611h166l-129 -611q-10 -52 -10 -86q0 -70 37 -109.5t110 -39.5q88 0 167 54t129.5 137.5t70.5 179.5l100 475h164l-156 -744q-6 -24 -6 -43q0 -61 64 -61q47 0 90 18l-2 -145q-60 -27 -140 -27q-79 0 -124.5 43.5t-45.5 118.5q0 7 5 47 q-57 -90 -154 -148.5t-215 -58.5q-121 0 -192.5 72.5t-71.5 202.5zM580 1145l231 309h184l-280 -309h-135z" />
<glyph unicode="&#xfb;" horiz-adv-x="1157" d="M74 248q0 42 14 114l129 611h166l-129 -611q-10 -52 -10 -86q0 -70 37 -109.5t110 -39.5q88 0 167 54t129.5 137.5t70.5 179.5l100 475h164l-156 -744q-6 -24 -6 -43q0 -61 64 -61q47 0 90 18l-2 -145q-60 -27 -140 -27q-79 0 -124.5 43.5t-45.5 118.5q0 7 5 47 q-57 -90 -154 -148.5t-215 -58.5q-121 0 -192.5 72.5t-71.5 202.5zM375 1145l276 309h137l148 -309h-123l-104 196l-187 -196h-147z" />
<glyph unicode="&#xfc;" horiz-adv-x="1157" d="M74 248q0 42 14 114l129 611h166l-129 -611q-10 -52 -10 -86q0 -70 37 -109.5t110 -39.5q88 0 167 54t129.5 137.5t70.5 179.5l100 475h164l-156 -744q-6 -24 -6 -43q0 -61 64 -61q47 0 90 18l-2 -145q-60 -27 -140 -27q-79 0 -124.5 43.5t-45.5 118.5q0 7 5 47 q-57 -90 -154 -148.5t-215 -58.5q-121 0 -192.5 72.5t-71.5 202.5zM420 1206l43 197h153l-43 -197h-153zM778 1206l41 197h154l-41 -197h-154z" />
<glyph unicode="&#xfd;" horiz-adv-x="1136" d="M-16 -338l34 150q117 -80 279 -80q138 0 231.5 71.5t126.5 216.5l31 134q-60 -80 -150 -130.5t-198 -50.5q-121 0 -192.5 72.5t-71.5 202.5q0 42 14 114l129 611h166l-129 -611q-10 -52 -10 -86q0 -70 37 -109.5t110 -39.5q88 0 167 54t129.5 137.5t70.5 179.5l100 475 h164l-199 -946q-45 -215 -188.5 -330t-349.5 -115q-176 0 -301 80zM584 1145l231 309h184l-280 -309h-135z" />
<glyph unicode="&#xfe;" horiz-adv-x="1110" d="M-55 -389q272 1294 389 1843h164l-138 -649q56 83 150 138.5t201 55.5q133 0 201.5 -86t68.5 -241q0 -153 -49 -283.5t-134.5 -221.5t-204.5 -142.5t-255 -51.5q-76 0 -152 21l-80 -383h-161zM219 141q59 -22 135 -22q195 0 326 145.5t131 386.5q0 100 -37.5 148.5 t-118.5 48.5q-87 0 -166 -55.5t-130 -142t-72 -185.5z" />
<glyph unicode="&#xff;" horiz-adv-x="1136" d="M-16 -338l34 150q117 -80 279 -80q138 0 231.5 71.5t126.5 216.5l31 134q-60 -80 -150 -130.5t-198 -50.5q-121 0 -192.5 72.5t-71.5 202.5q0 42 14 114l129 611h166l-129 -611q-10 -52 -10 -86q0 -70 37 -109.5t110 -39.5q88 0 167 54t129.5 137.5t70.5 179.5l100 475 h164l-199 -946q-45 -215 -188.5 -330t-349.5 -115q-176 0 -301 80zM412 1206l43 197h153l-43 -197h-153zM770 1206l41 197h154l-41 -197h-154z" />
<glyph unicode="&#x152;" horiz-adv-x="2334" d="M104 565q0 183 62 339.5t172 268t269 175t347 63.5q184 0 312 -79.5t186 -223.5q50 230 59 276h824l-33 -155h-645q-17 -73 -47.5 -219.5t-46.5 -218.5h589l-34 -154h-588l-64 -303q-6 -35 -6 -64q0 -59 35 -87.5t111 -28.5h499l-32 -154h-525q-64 0 -108.5 14 t-72.5 44.5t-44 61t-33 81.5q-218 -228 -581 -228q-275 0 -440 161t-165 431zM293 569q0 -203 115.5 -322.5t324.5 -119.5q190 0 336 89.5t223.5 244t77.5 348.5q0 205 -115 325.5t-325 120.5q-189 0 -334 -87t-224 -243t-79 -356z" />
<glyph unicode="&#x153;" horiz-adv-x="1734" d="M57 344q0 143 47.5 267t126 208.5t182 133t214.5 48.5q234 0 295 -219q77 104 186.5 161.5t232.5 57.5q150 0 229 -66.5t79 -176.5q0 -82 -36 -146t-94 -103.5t-137 -65.5t-157.5 -36t-163.5 -10q-69 0 -127 6q-2 -18 -2 -49q0 -233 225 -233q164 0 303 88l27 -139 q-162 -99 -363 -99q-256 0 -321 215q-77 -102 -184 -158.5t-228 -56.5q-163 0 -248.5 102t-85.5 271zM225 358q0 -117 51.5 -177t143.5 -60q68 0 134.5 34.5t119.5 96t86 156.5t33 206q0 117 -51 178.5t-140 61.5q-69 0 -136.5 -35t-121 -97t-86.5 -157.5t-33 -206.5z M954 532q54 -4 93 -4q74 0 145 10t140.5 32t112 65.5t42.5 103.5q0 55 -40 85t-116 30q-130 0 -234 -85.5t-143 -236.5z" />
<glyph unicode="&#x178;" horiz-adv-x="1193" d="M145 1384h191l264 -663l543 663h196l-686 -829l-116 -555h-181l117 555zM528 1585l43 197h154l-43 -197h-154zM887 1585l41 197h153l-41 -197h-153z" />
<glyph unicode="&#x2c6;" horiz-adv-x="1044" d="M207 1145l276 309h138l147 -309h-123l-104 196l-187 -196h-147z" />
<glyph unicode="&#x2dc;" horiz-adv-x="1044" d="M188 1174q9 114 63.5 182.5t147.5 68.5q41 0 77.5 -20t58.5 -43.5t50.5 -43.5t55.5 -20q77 0 82 123h119q-11 -118 -65.5 -185t-153.5 -67q-36 0 -71.5 21t-59.5 46t-53.5 46t-53.5 21q-33 0 -54 -32t-24 -97h-119z" />
<glyph unicode="&#x2000;" horiz-adv-x="931" />
<glyph unicode="&#x2001;" horiz-adv-x="1862" />
<glyph unicode="&#x2002;" horiz-adv-x="931" />
<glyph unicode="&#x2003;" horiz-adv-x="1862" />
<glyph unicode="&#x2004;" horiz-adv-x="620" />
<glyph unicode="&#x2005;" horiz-adv-x="465" />
<glyph unicode="&#x2006;" horiz-adv-x="310" />
<glyph unicode="&#x2007;" horiz-adv-x="310" />
<glyph unicode="&#x2008;" horiz-adv-x="232" />
<glyph unicode="&#x2009;" horiz-adv-x="372" />
<glyph unicode="&#x200a;" horiz-adv-x="103" />
<glyph unicode="&#x2010;" horiz-adv-x="808" d="M129 514l33 154h500l-33 -154h-500z" />
<glyph unicode="&#x2011;" horiz-adv-x="808" d="M129 514l33 154h500l-33 -154h-500z" />
<glyph unicode="&#x2012;" horiz-adv-x="808" d="M129 514l33 154h500l-33 -154h-500z" />
<glyph unicode="&#x2013;" horiz-adv-x="1208" d="M129 522l29 140h903l-29 -140h-903z" />
<glyph unicode="&#x2014;" horiz-adv-x="2095" d="M129 522l29 140h1790l-31 -140h-1788z" />
<glyph unicode="&#x2018;" horiz-adv-x="524" d="M195 936q0 152 86 283t235 194l55 -98q-105 -58 -163 -156t-58 -217q0 -39 8 -72h-157q-6 30 -6 66z" />
<glyph unicode="&#x2019;" horiz-adv-x="524" d="M115 938q217 127 217 405v41h157q3 -21 3 -38q0 -159 -80.5 -295t-235.5 -211z" />
<glyph unicode="&#x201a;" horiz-adv-x="524" d="M-121 -219q217 127 217 405v41h158q2 -14 2 -39q0 -159 -80 -294.5t-235 -210.5z" />
<glyph unicode="&#x201c;" horiz-adv-x="872" d="M197 907q0 160 80 295.5t235 210.5l61 -98q-217 -127 -217 -406v-41h-157q-2 14 -2 39zM547 907q0 160 80 295.5t235 210.5l62 -98q-217 -127 -217 -406v-41h-158q-2 14 -2 39z" />
<glyph unicode="&#x201d;" horiz-adv-x="872" d="M115 938q217 127 217 405v41h157q3 -21 3 -38q0 -159 -80.5 -295t-235.5 -211zM463 938q217 127 217 405v41h158q2 -14 2 -38q0 -159 -80.5 -295t-235.5 -211z" />
<glyph unicode="&#x201e;" horiz-adv-x="872" d="M-121 -219q217 127 217 405v41h158q2 -14 2 -39q0 -159 -80 -294.5t-235 -210.5zM227 -219q217 127 217 405v41h158q2 -14 2 -39q0 -159 -80 -294.5t-235 -210.5z" />
<glyph unicode="&#x2022;" horiz-adv-x="743" d="M141 655q0 100 64.5 162t167.5 62t167 -62t64 -162q0 -99 -64 -160t-167 -61t-167.5 61t-64.5 160z" />
<glyph unicode="&#x2026;" horiz-adv-x="1531" d="M31 0l41 193h194l-41 -193h-194zM532 0l41 193h193l-41 -193h-193zM1032 0l41 193h195l-43 -193h-193z" />
<glyph unicode="&#x202f;" horiz-adv-x="372" />
<glyph unicode="&#x2039;" horiz-adv-x="600" d="M47 508l367 407h170l-353 -413l193 -402h-145z" />
<glyph unicode="&#x203a;" horiz-adv-x="600" d="M-4 100l352 414l-192 401h145l231 -407l-366 -408h-170z" />
<glyph unicode="&#x205f;" horiz-adv-x="465" />
<glyph unicode="&#x20ac;" d="M-2 489l25 111h147q6 114 29 215h-131l24 107h139q86 230 263.5 360.5t414.5 130.5q184 0 322 -55l-37 -158q-133 55 -283 55q-170 0 -297 -86t-198 -247h608l-25 -107h-622q-30 -112 -35 -215h614l-24 -111h-586q26 -360 346 -360q78 0 165.5 19.5t150.5 52.5l18 -154 q-152 -76 -346 -76q-217 0 -356 136t-154 382h-172z" />
<glyph unicode="&#x2122;" horiz-adv-x="1533" d="M170 1284l23 100h507l-20 -100h-195l-98 -467h-125l100 467h-192zM721 817l121 567h153l109 -348l252 348h170l-121 -567h-123l90 426l-231 -317h-111l-96 317l-90 -426h-123z" />
<glyph unicode="&#x25fc;" horiz-adv-x="972" d="M0 0v973h973v-973h-973z" />
</font>
</defs>
</svg>
