<?xml version="1.0" standalone="no"?>
<!DOCTYPE svg PUBLIC "-//W3C//DTD SVG 1.1//EN" "http://www.w3.org/Graphics/SVG/1.1/DTD/svg11.dtd" >
<svg xmlns="http://www.w3.org/2000/svg">
<metadata></metadata>
<defs>
<font id="peugeotbold" horiz-adv-x="1183" >
<font-face units-per-em="2048" ascent="1638" descent="-410" />
<missing-glyph horiz-adv-x="548" />
<glyph unicode="&#xfb01;" horiz-adv-x="1282" d="M49 721v252h131v90q0 96 30.5 171t80.5 122t120.5 77.5t145.5 43t160 12.5q211 0 387 -72v-287q-76 40 -180 66.5t-193 26.5q-254 0 -254 -158v-92h656v-973h-297v721h-359v-721h-297v721h-131z" />
<glyph unicode="&#xfb02;" horiz-adv-x="1333" d="M49 721v252h131v86q0 118 43.5 204.5t119 134t163.5 69.5t192 22q114 0 226.5 -24t193.5 -62v-1075q0 -50 17 -70t55 -20q50 0 104 26v-266q-78 -33 -180 -33q-155 0 -223 89.5t-68 256.5v899q-63 13 -116 13q-60 0 -108 -12.5t-85 -50.5t-37 -99v-88h182v-252h-182v-721 h-297v721h-131z" />
<glyph horiz-adv-x="2048" />
<glyph horiz-adv-x="2048" />
<glyph unicode="&#xd;" horiz-adv-x="2048" />
<glyph unicode=" "  horiz-adv-x="548" />
<glyph unicode="&#x09;" horiz-adv-x="548" />
<glyph unicode="&#xa0;" horiz-adv-x="548" />
<glyph unicode="!" horiz-adv-x="665" d="M160 1384h344l-37 -948h-268zM180 0v307h305v-307h-305z" />
<glyph unicode="&#x22;" horiz-adv-x="1005" d="M135 1384h295l-35 -567h-223zM575 1384h295l-34 -567h-222z" />
<glyph unicode="#" horiz-adv-x="1382" d="M25 317l41 232h227l55 307h-227l43 231h225l53 297h240l-51 -297h256l53 297h240l-52 -297h226l-41 -231h-228l-55 -307h227l-43 -232h-225l-57 -317h-242l58 317h-256l-58 -317h-241l57 317h-225zM532 549h259l55 307h-258z" />
<glyph unicode="$" d="M119 971q0 162 102.5 265t284.5 134v223h196v-209q185 -6 324 -59v-274q-146 73 -348 73q-219 0 -219 -133q0 -35 33.5 -62.5t87 -48t118.5 -42.5t130 -54t118.5 -74.5t87 -111.5t33.5 -158q0 -97 -28 -173.5t-79.5 -127t-115 -81.5t-142.5 -46v-237h-196v225 q-210 9 -371 86v264q84 -38 187 -64t196 -26q209 0 209 143q0 40 -33.5 72t-87 55.5t-118.5 47.5t-130 57t-118.5 74.5t-87 109t-33.5 152.5z" />
<glyph unicode="%" horiz-adv-x="1867" d="M76 977q0 195 94 318.5t256 123.5t256 -123.5t94 -318.5t-94 -318.5t-256 -123.5t-256 123.5t-94 318.5zM291 977q0 -103 34.5 -166t100.5 -63t100.5 63t34.5 166t-34.5 166t-100.5 63t-100.5 -63t-34.5 -166zM444 0l760 1384h219l-757 -1384h-222zM1092 408 q0 195 94 318.5t256 123.5t256 -123.5t94 -318.5t-94 -319t-256 -124t-256 124t-94 319zM1307 408q0 -103 34.5 -166.5t100.5 -63.5t100.5 63.5t34.5 166.5t-34.5 166t-100.5 63t-100.5 -63t-34.5 -166z" />
<glyph unicode="&#x26;" horiz-adv-x="1466" d="M94 410q0 128 64.5 220t163.5 126q-177 80 -177 288q0 175 149.5 275t412.5 100q85 0 181.5 -17t158.5 -44v-283q-140 70 -342 70q-105 0 -165.5 -31.5t-60.5 -97.5q0 -67 49 -102t136 -35h98v-271h-105q-62 0 -111 -14t-84.5 -54t-35.5 -104q0 -101 74 -149.5t198 -48.5 q314 0 314 311h-142v266h562v-266h-132q0 -125 -38.5 -230t-113 -184.5t-193.5 -124.5t-271 -45q-180 0 -311 49t-205 150t-74 246z" />
<glyph unicode="'" horiz-adv-x="565" d="M135 1384h295l-35 -567h-223z" />
<glyph unicode="(" horiz-adv-x="632" d="M84 532q0 140 22.5 273t64 249.5t85.5 209t102 190.5h263q-10 -20 -45 -85.5t-49 -93.5t-44.5 -93t-44.5 -107t-35.5 -112t-31 -130.5t-17.5 -139.5t-8 -161t8 -161t17.5 -139.5t31 -130t35.5 -111.5t44.5 -107t44.5 -93.5t48.5 -93t45.5 -85.5h-263q-58 98 -102 190.5 t-85.5 209t-64 249t-22.5 272.5z" />
<glyph unicode=")" horiz-adv-x="651" d="M12 -389q11 21 45.5 85.5t48.5 93t44.5 93.5t44.5 107t35.5 111.5t31 130t17.5 139.5t8 161t-8 161t-17.5 139.5t-31 130.5t-35.5 112t-44.5 107t-44.5 93t-49 93.5t-45 85.5h262q58 -98 102 -190.5t86 -209t64.5 -250t22.5 -272.5t-22.5 -272t-64.5 -250t-86 -209 t-102 -190h-262z" />
<glyph unicode="*" horiz-adv-x="806" d="M31 1051l59 223l225 -113l-36 223h249l-34 -223l223 113l59 -223l-223 -50l158 -172l-185 -149l-123 229l-120 -229l-185 149l156 172z" />
<glyph unicode="+" d="M115 516v242h362v356h223v-356h369v-242h-369v-356h-223v356h-362z" />
<glyph unicode="," horiz-adv-x="593" d="M-35 -201q203 116 203 316q0 95 -31 192h287q25 -87 25 -186q0 -186 -102.5 -332t-285.5 -213z" />
<glyph unicode="-" horiz-adv-x="804" d="M119 436v262h567v-262h-567z" />
<glyph unicode="." horiz-adv-x="593" d="M143 0v307h306v-307h-306z" />
<glyph unicode="/" horiz-adv-x="817" d="M0 0l573 1384h244l-573 -1384h-244z" />
<glyph unicode="0" d="M0 692q0 119 23.5 227t72 199.5t118 158.5t166.5 104.5t212 37.5t212 -37.5t166.5 -104.5t118 -158.5t72 -199.5t23.5 -227t-23.5 -227t-72 -199.5t-118 -158.5t-166.5 -104.5t-212 -37.5t-212 37.5t-166.5 104.5t-118 158.5t-72 199.5t-23.5 227zM326 692 q0 -213 65.5 -333.5t200.5 -120.5t200.5 120.5t65.5 333.5t-65.5 333t-200.5 120t-200.5 -120t-65.5 -333z" />
<glyph unicode="1" d="M236 1116v268h577v-1384h-319v1116h-258z" />
<glyph unicode="2" d="M109 0v256l438 412q82 77 118.5 145.5t36.5 147.5q0 99 -62 142.5t-161 43.5q-83 0 -176 -25.5t-143 -58.5v283q162 73 360 73q102 0 191 -24t163.5 -74t118 -137.5t43.5 -204.5q0 -157 -59 -263.5t-182 -209.5l-285 -238h541v-268h-942z" />
<glyph unicode="3" d="M104 53v283q77 -41 175.5 -69.5t189.5 -28.5q109 0 172.5 45.5t63.5 138.5q0 174 -259 174q-87 0 -149 -10v219l352 311h-524v268h905v-239l-368 -338q57 -4 109.5 -20t101.5 -46.5t85 -73.5t58 -105t22 -136q0 -114 -41 -203t-114.5 -144.5t-171.5 -84.5t-215 -29 q-228 0 -392 88z" />
<glyph unicode="4" d="M27 338v270l596 776h372v-784h148v-262h-148v-338h-295v338h-673zM340 600h360v467z" />
<glyph unicode="5" d="M119 53v283q75 -40 180 -69t197 -29q245 0 245 182q0 192 -266 192q-149 0 -280 -43l-62 60l98 755h807v-268h-542l-33 -252q58 4 92 4q82 0 154 -12t141 -42.5t117.5 -77t78 -121t29.5 -169.5q0 -124 -43 -218t-118.5 -150.5t-171.5 -84.5t-210 -28q-249 0 -413 88z" />
<glyph unicode="6" d="M123 662q0 162 34.5 291.5t94 215.5t142 143t174 82t194.5 25q216 0 362 -73v-283q-53 33 -144.5 57.5t-191.5 24.5q-342 0 -342 -344q50 39 126 63.5t163 24.5q71 0 136 -14.5t125 -47t104 -81t70 -120.5t26 -161q0 -225 -138.5 -362.5t-385.5 -137.5q-119 0 -217.5 41 t-173.5 123.5t-116.5 218t-41.5 314.5zM457 530q0 -67 13 -119t34 -84t50 -52.5t58 -28.5t62 -8q84 0 142 50t58 144q0 95 -55 140.5t-147 45.5q-61 0 -121.5 -24.5t-93.5 -63.5z" />
<glyph unicode="7" d="M123 1116v268h967v-249q-208 -235 -321 -495.5t-157 -639.5h-348q31 300 165.5 608.5t307.5 507.5h-614z" />
<glyph unicode="8" d="M70 379q0 251 225 342q-42 20 -74 43t-61.5 59t-45.5 88.5t-16 118.5q0 181 142 286t378 105t378.5 -105t142.5 -286q0 -66 -16 -118.5t-46.5 -88.5t-62 -59t-72.5 -43q225 -91 225 -342q0 -184 -145.5 -299t-403.5 -115t-403 115t-145 299zM401 410q0 -89 60.5 -137 t156.5 -48q95 0 156.5 48t61.5 137q0 88 -61 133t-157 45q-97 0 -157 -45t-60 -133zM430 995q0 -159 188 -159q189 0 189 159q0 85 -52 124.5t-137 39.5t-136.5 -39t-51.5 -125z" />
<glyph unicode="9" d="M57 918q0 225 139 362t386 137q95 0 176.5 -25t150.5 -79.5t117.5 -135t76 -196.5t27.5 -260q0 -162 -34.5 -291.5t-93.5 -215.5t-141.5 -143.5t-174 -82.5t-194.5 -25q-215 0 -363 74v282q53 -33 144.5 -57t191.5 -24q342 0 342 344q-50 -39 -126 -63.5t-163 -24.5 q-71 0 -136 14.5t-125 47t-104 81t-70 120.5t-26 161zM379 950q0 -95 55.5 -140.5t147.5 -45.5q61 0 121.5 24.5t93.5 63.5q0 83 -19 142.5t-52 91t-69 45.5t-77 14q-84 0 -142.5 -50.5t-58.5 -144.5z" />
<glyph unicode=":" horiz-adv-x="593" d="M143 0v307h306v-307h-306zM143 666v307h306v-307h-306z" />
<glyph unicode=";" horiz-adv-x="593" d="M-35 -201q203 116 203 316q0 95 -31 192h287q25 -87 25 -186q0 -186 -102.5 -332t-285.5 -213zM143 666v307h306v-307h-306z" />
<glyph unicode="&#x3c;" d="M115 508v258l954 387v-250l-688 -266l688 -266v-252z" />
<glyph unicode="=" d="M115 274v242h954v-242h-954zM115 758v241h954v-241h-954z" />
<glyph unicode="&#x3e;" d="M115 119v252l688 266l-688 266v250l954 -387v-258z" />
<glyph unicode="?" horiz-adv-x="899" d="M98 1092v278q111 49 281 49q87 0 163 -20.5t139 -62.5t99.5 -113.5t36.5 -165.5q0 -108 -41 -184.5t-108 -139.5q-32 -31 -44.5 -44t-33.5 -39.5t-29 -51t-8 -53.5v-109h-287v146q0 65 10 113.5t33.5 87t43 60.5t57.5 58q42 38 64 68.5t22 66.5q0 62 -45 85.5t-121 23.5 q-60 0 -124.5 -15.5t-107.5 -37.5zM258 0v307h305v-307h-305z" />
<glyph unicode="@" horiz-adv-x="1583" d="M76 537q0 206 94.5 365.5t257.5 245t365 85.5q168 0 304 -49t225 -135t137 -202.5t48 -252.5q0 -211 -87 -321.5t-255 -110.5q-69 0 -119.5 25t-78.5 63q-95 -86 -209 -86q-137 0 -224.5 89.5t-87.5 250.5q0 73 20 132t53.5 98t79.5 66t97 38.5t107 11.5q164 0 293 -82 v-297q0 -119 106 -119q125 0 125 236q0 208 -139.5 335.5t-394.5 127.5q-239 0 -387 -136.5t-148 -377.5q0 -122 28.5 -219t78.5 -161t121 -106.5t151 -61t174 -18.5q243 0 426 78v-192q-90 -38 -206.5 -57t-225.5 -19q-122 0 -229.5 27.5t-199.5 87.5t-158.5 147.5 t-104 213.5t-37.5 280zM662 510q0 -79 33.5 -118.5t90.5 -39.5q40 0 70.5 27.5t40.5 62.5v189q-47 26 -98 26q-61 0 -99 -34.5t-38 -112.5z" />
<glyph unicode="A" horiz-adv-x="1396" d="M0 0l559 1384h283l555 -1384h-350l-91 238h-559l-90 -238h-307zM494 496h364l-180 479z" />
<glyph unicode="B" horiz-adv-x="1370" d="M197 0v1384h475q273 0 421 -92t148 -286q0 -115 -58.5 -187t-146.5 -108q97 -21 168.5 -101.5t71.5 -210.5q0 -106 -44.5 -184.5t-127.5 -124.5t-190 -68t-242 -22h-475zM516 268h166q262 0 262 154q0 151 -262 151h-166v-305zM516 831h156q119 0 178 30.5t59 113.5 q0 82 -58.5 111.5t-178.5 29.5h-156v-285z" />
<glyph unicode="C" horiz-adv-x="1280" d="M92 692q0 210 81 373t244 258.5t388 95.5q117 0 224.5 -21.5t162.5 -54.5v-276q-58 34 -157.5 56t-205.5 22q-187 0 -296 -118t-109 -335t109 -335.5t296 -118.5q96 0 195 24t176 70v-277q-163 -90 -395 -90q-225 0 -388 95.5t-244 258.5t-81 373z" />
<glyph unicode="D" horiz-adv-x="1513" d="M197 0v1384h497q166 0 299 -43t229 -127.5t147.5 -217t51.5 -304.5t-51.5 -304.5t-147.5 -217t-229 -127.5t-299 -43h-497zM516 268h178q396 0 396 426q0 422 -396 422h-178v-848z" />
<glyph unicode="E" horiz-adv-x="1253" d="M180 375v1009h932v-268h-612v-282h542v-269h-542v-190q0 -57 20.5 -82t73.5 -25h541v-268h-598q-185 0 -271 93.5t-86 281.5z" />
<glyph unicode="F" horiz-adv-x="1247" d="M197 0v1384h933v-268h-614v-328h545v-268h-545v-520h-319z" />
<glyph unicode="G" horiz-adv-x="1607" d="M92 692q0 151 45.5 274t123 206t183 139.5t221.5 82t242 25.5q288 0 508 -98v-287q-99 46 -230.5 78.5t-271.5 32.5q-78 0 -145.5 -13t-132.5 -45t-110.5 -82t-73 -130t-27.5 -183q0 -98 24.5 -176.5t66 -129.5t98.5 -85t119 -48.5t132 -14.5q69 0 142.5 13.5t123.5 35.5 v266h-313v262h625v-686q-114 -74 -278.5 -119t-319.5 -45q-121 0 -229.5 26t-205 82.5t-166.5 140t-110.5 206t-40.5 272.5z" />
<glyph unicode="H" horiz-adv-x="1624" d="M197 0v1384h319v-538h592v538h319v-1384h-319v567h-592v-567h-319z" />
<glyph unicode="I" horiz-adv-x="712" d="M197 0v1384h319v-1384h-319z" />
<glyph unicode="J" horiz-adv-x="886" d="M70 14v277q87 -53 184 -53q72 0 103.5 33t31.5 116v997h320v-974q0 -224 -102.5 -334.5t-297.5 -110.5q-132 0 -239 49z" />
<glyph unicode="K" horiz-adv-x="1413" d="M190 0v1384h322v-571l514 571h373l-596 -661l610 -723h-409l-492 588v-588h-322z" />
<glyph unicode="L" horiz-adv-x="1130" d="M180 375v1009h320v-1009q0 -57 20.5 -82t73.5 -25h506v-268h-563q-185 0 -271 93.5t-86 281.5z" />
<glyph unicode="M" horiz-adv-x="1933" d="M197 0v1384h311l459 -778l458 778h312v-1384h-316v840l-311 -570h-287l-311 570v-840h-315z" />
<glyph unicode="N" horiz-adv-x="1603" d="M197 0v1384h272l627 -845v845h311v-1384h-272l-627 846v-846h-311z" />
<glyph unicode="O" horiz-adv-x="1654" d="M92 692q0 224 92.5 389.5t258 251.5t384.5 86q218 0 384 -86t259 -251.5t93 -389.5t-93 -389.5t-259 -251.5t-384 -86q-219 0 -384.5 86t-258 251.5t-92.5 389.5zM426 692q0 -209 103.5 -331.5t297.5 -122.5q193 0 297.5 123t104.5 331t-104.5 330.5t-297.5 122.5 q-194 0 -297.5 -122t-103.5 -331z" />
<glyph unicode="P" horiz-adv-x="1382" d="M197 0v1384h508q274 0 430.5 -118.5t156.5 -347.5t-156.5 -348t-430.5 -119h-189v-451h-319zM516 719h189q253 0 253 199q0 198 -253 198h-189v-397z" />
<glyph unicode="Q" horiz-adv-x="1654" d="M92 694q0 224 93 389t258.5 250.5t383.5 85.5t384 -85.5t259 -250.5t93 -389q0 -260 -123.5 -439t-339.5 -249l317 -352h-387l-219 311q-325 5 -522 200t-197 529zM426 694q0 -209 104.5 -332.5t296.5 -123.5q193 0 297.5 123.5t104.5 332.5q0 208 -104.5 329.5 t-297.5 121.5t-297 -121.5t-104 -329.5z" />
<glyph unicode="R" horiz-adv-x="1388" d="M197 0v1384h528q259 0 413 -120t154 -338q0 -153 -79 -253.5t-224 -142.5l326 -530h-361l-270 463h-168v-463h-319zM516 731h189q54 0 96 8.5t79.5 28.5t57.5 59.5t20 96.5q0 46 -14 80.5t-36.5 55.5t-56 34t-68.5 17.5t-78 4.5h-189v-385z" />
<glyph unicode="S" horiz-adv-x="1175" d="M123 985q0 206 147 320t394 114q200 0 348 -61v-289q-144 76 -340 76q-217 0 -217 -139q0 -41 33 -72.5t85.5 -53.5t116.5 -44.5t128 -55t116.5 -75.5t85.5 -114.5t33 -164.5q0 -102 -28.5 -182.5t-76 -132t-114 -85t-137.5 -47.5t-152 -14q-111 0 -218 24t-186 64v279 q80 -39 181.5 -66.5t191.5 -27.5q207 0 207 149q0 43 -25.5 76t-67.5 53.5t-96 43t-110 42t-110 53t-96 74t-67.5 106.5t-25.5 150z" />
<glyph unicode="T" horiz-adv-x="1239" d="M31 1116v268h1177v-268h-428v-1116h-321v1116h-428z" />
<glyph unicode="U" horiz-adv-x="1474" d="M162 510v874h319v-876q0 -135 70.5 -202.5t185.5 -67.5q116 0 188 67.5t72 202.5v876h316v-874q0 -260 -157.5 -402.5t-418.5 -142.5q-170 0 -299 61.5t-202.5 186t-73.5 297.5z" />
<glyph unicode="V" horiz-adv-x="1394" d="M0 1384h350l369 -970l368 970h308l-568 -1384h-274z" />
<glyph unicode="W" horiz-adv-x="2031" d="M0 1384h336l242 -976l294 976h287l295 -976l242 976h336l-375 -1384h-340l-301 973l-299 -973h-342z" />
<glyph unicode="X" horiz-adv-x="1337" d="M0 0l492 709l-453 675h364l275 -403l278 403h347l-455 -657l489 -727h-368l-307 459l-316 -459h-346z" />
<glyph unicode="Y" horiz-adv-x="1300" d="M0 1384h356l312 -553l311 553h321l-491 -837v-547h-320v547z" />
<glyph unicode="Z" horiz-adv-x="1265" d="M74 0v221l706 895h-692v268h1081v-241l-688 -875h709v-268h-1116z" />
<glyph unicode="[" horiz-adv-x="727" d="M197 -389v1843h481v-266h-225v-1307h225v-270h-481z" />
<glyph unicode="\" horiz-adv-x="815" d="M-2 1384h244l573 -1384h-244z" />
<glyph unicode="]" horiz-adv-x="727" d="M49 -119h225v1307h-225v266h481v-1843h-481v270z" />
<glyph unicode="^" d="M68 477l432 907h184l432 -907h-246l-278 590l-279 -590h-245z" />
<glyph unicode="_" horiz-adv-x="1224" d="M31 -35h1161v-215h-1161v215z" />
<glyph unicode="`" horiz-adv-x="1044" d="M217 1454h324l151 -309h-221z" />
<glyph unicode="a" horiz-adv-x="1163" d="M76 467q0 255 144 398t390 143q115 0 207 -17t197 -53v-938h-234l-22 86q-100 -121 -262 -121q-80 0 -153.5 30t-134 89t-96.5 158t-36 225zM377 481q0 -125 52 -184t140 -59q91 0 148 51v452q-50 13 -96 13q-106 0 -175 -65.5t-69 -207.5z" />
<glyph unicode="b" horiz-adv-x="1163" d="M150 53v1401h296v-493q92 47 209 47q84 0 158.5 -28t137.5 -85.5t99.5 -157t36.5 -229.5q0 -255 -142.5 -399t-385.5 -144q-141 0 -245 27t-164 61zM446 236q42 -17 103 -17q107 0 172 65.5t65 204.5q0 127 -52.5 189.5t-139.5 62.5q-86 0 -148 -49v-456z" />
<glyph unicode="c" horiz-adv-x="964" d="M76 487q0 237 138.5 379t379.5 142q160 0 264 -52v-264q-63 35 -116 49.5t-121 14.5q-118 0 -180 -74t-62 -197q0 -122 62 -194t180 -72q128 0 247 68v-264q-116 -58 -282 -58q-121 0 -219 40.5t-161 111.5t-96.5 165.5t-33.5 204.5z" />
<glyph unicode="d" horiz-adv-x="1163" d="M76 467q0 255 144 398t390 143q49 0 107 -7v453h297v-1454h-234l-22 86q-100 -121 -262 -121q-80 0 -153.5 30t-134 89t-96.5 158t-36 225zM377 481q0 -125 52 -184t140 -59q91 0 148 51v452q-50 13 -96 13q-106 0 -175 -65.5t-69 -207.5z" />
<glyph unicode="e" horiz-adv-x="1116" d="M76 494q0 162 66 280t177 176t252 58q94 0 172.5 -24.5t132 -66.5t91 -99t54.5 -121.5t17 -133.5v-178h-647q26 -166 277 -166q89 0 184 20.5t156 47.5v-252q-57 -31 -168 -51.5t-209 -20.5q-116 0 -212.5 28.5t-175.5 89t-123 166t-44 247.5zM389 582h348 q-5 194 -174 194q-73 0 -119 -47.5t-55 -146.5z" />
<glyph unicode="f" horiz-adv-x="718" d="M49 721v252h131v106q0 87 21 157t57.5 116.5t87.5 78t108.5 45t123.5 13.5q63 0 141 -19v-264q-47 17 -96 17q-146 0 -146 -148v-102h234v-252h-234v-721h-297v721h-131z" />
<glyph unicode="g" horiz-adv-x="1163" d="M76 481q0 242 145 384.5t389 142.5q115 0 207 -17t197 -53v-903q0 -229 -134 -344t-368 -115q-227 0 -383 78v278q70 -46 163 -74t189 -28q111 0 172.5 45.5t61.5 153.5v43q-79 -72 -219 -72q-81 0 -153.5 27t-133.5 81.5t-97 150.5t-36 222zM377 500q0 -121 51 -180.5 t143 -59.5q89 0 146 51v430q-54 13 -99 13q-106 0 -173.5 -60.5t-67.5 -193.5z" />
<glyph unicode="h" horiz-adv-x="1214" d="M150 0v1454h296v-541q54 44 129.5 69.5t149.5 25.5q156 0 253 -100.5t97 -303.5v-604h-295v575q0 79 -42.5 115.5t-110.5 36.5q-100 0 -181 -51v-676h-296z" />
<glyph unicode="i" horiz-adv-x="595" d="M150 0v973h296v-973h-296zM150 1151v268h296v-268h-296z" />
<glyph unicode="j" horiz-adv-x="595" d="M-27 -125q56 -27 105 -27q38 0 55 20.5t17 70.5v1034h296v-1034q0 -363 -290 -363q-105 0 -183 33v266zM150 1151v268h296v-268h-296z" />
<glyph unicode="k" horiz-adv-x="1120" d="M150 0v1454h296v-833l326 352h348l-403 -422l407 -551h-362l-316 436v-436h-296z" />
<glyph unicode="l" horiz-adv-x="675" d="M133 311v1143h297v-1126q0 -50 17 -70t55 -20q50 0 104 26v-266q-78 -33 -182 -33q-154 0 -222.5 90t-68.5 256z" />
<glyph unicode="m" horiz-adv-x="1779" d="M150 0v973h264l18 -74q126 109 281 109q178 0 268 -134q147 134 334 134q153 0 239 -94t86 -277v-637h-297v598q0 67 -37.5 98t-95.5 31q-88 0 -170 -51q2 -12 2 -39v-637h-294v598q0 67 -38 98t-96 31q-85 0 -168 -51v-676h-296z" />
<glyph unicode="n" horiz-adv-x="1214" d="M150 0v973h264l18 -74q53 51 133 80t160 29q156 0 253 -100.5t97 -303.5v-604h-295v575q0 79 -42.5 115.5t-110.5 36.5q-100 0 -181 -51v-676h-296z" />
<glyph unicode="o" d="M76 487q0 245 141 383t375 138t375 -138t141 -383t-141 -383.5t-375 -138.5t-375 138.5t-141 383.5zM379 487q0 -123 58.5 -195.5t154.5 -72.5t154.5 72.5t58.5 195.5t-58.5 195t-154.5 72t-154.5 -72t-58.5 -195z" />
<glyph unicode="p" horiz-adv-x="1163" d="M150 -389v1362h264l18 -74q43 45 108.5 77t141.5 32q58 0 113.5 -16t108.5 -54t92.5 -95t64 -146t24.5 -199q0 -127 -39 -229t-108 -168t-161.5 -101t-201.5 -35q-64 0 -129 12v-366h-296zM446 236q42 -17 103 -17q105 0 170 65.5t65 204.5q0 128 -51.5 190t-138.5 62 q-90 0 -148 -49v-456z" />
<glyph unicode="q" horiz-adv-x="1163" d="M76 467q0 255 143 398t389 143q116 0 208.5 -17t197.5 -53v-1327h-299v432q-95 -78 -221 -78q-80 0 -153 30t-133 89t-96 158t-36 225zM377 481q0 -125 52 -184t140 -59q91 0 148 51v452q-50 13 -96 13q-106 0 -175 -65.5t-69 -207.5z" />
<glyph unicode="r" horiz-adv-x="794" d="M150 0v973h264l18 -123q37 34 63 55t68 48t89.5 40.5t99.5 14.5v-314q-194 0 -306 -80v-614h-296z" />
<glyph unicode="s" horiz-adv-x="995" d="M82 666q0 89 35.5 156.5t99.5 107t144.5 59t177.5 19.5q187 0 323 -47v-252q-62 31 -149.5 48t-169.5 17q-73 0 -118.5 -19t-45.5 -59q0 -25 22.5 -40.5t59.5 -23t84.5 -16.5t96.5 -18t96.5 -30.5t84.5 -51.5t59.5 -84t22.5 -125q0 -89 -36.5 -156.5t-100 -107t-141 -59 t-166.5 -19.5q-198 0 -359 74v260q175 -88 353 -88q153 0 153 80q0 23 -22.5 39t-59.5 24.5t-84.5 18.5t-96.5 20t-96.5 31.5t-84.5 50t-59.5 78t-22.5 113.5z" />
<glyph unicode="t" horiz-adv-x="802" d="M47 721v252h131l43 309h254v-309h250v-252h-250v-371q0 -112 103 -112q76 0 161 49v-264q-97 -58 -241 -58q-320 0 -320 365v391h-131z" />
<glyph unicode="u" horiz-adv-x="1165" d="M129 354v619h297v-598q0 -68 34 -102.5t95 -34.5q93 0 162 69v666h297v-973h-236l-22 86q-121 -121 -283 -121q-165 0 -254.5 101t-89.5 288z" />
<glyph unicode="v" horiz-adv-x="1050" d="M14 973h312l206 -619l207 619h299l-374 -973h-289z" />
<glyph unicode="w" horiz-adv-x="1665" d="M14 973h305l164 -604l193 604h311l193 -604l163 604h308l-312 -973h-284l-224 651l-223 -651h-284z" />
<glyph unicode="x" horiz-adv-x="1054" d="M14 0l332 492l-330 481h357l162 -260l157 260h334l-324 -486l336 -487h-352l-174 262l-168 -262h-330z" />
<glyph unicode="y" horiz-adv-x="1165" d="M129 389v584h297v-563q0 -68 34 -103t95 -35q92 0 162 70v631h297v-938q0 -120 -39 -210.5t-107.5 -143.5t-154 -79t-187.5 -26q-109 0 -191 18.5t-169 57.5v278q57 -42 151 -72t181 -30q104 0 161.5 44.5t57.5 156.5v53q-105 -82 -244 -82q-165 0 -254.5 101t-89.5 288z " />
<glyph unicode="z" horiz-adv-x="1013" d="M96 0v197l410 530h-410v246h803v-203l-405 -524h415v-246h-813z" />
<glyph unicode="{" horiz-adv-x="710" d="M31 403v259q84 7 138 49t54 125v233q0 77 18 142.5t56 121.5t107 88.5t163 32.5h111v-270h-76q-71 0 -92 -26t-21 -99v-225q0 -71 -19 -124.5t-53.5 -88t-71.5 -54.5t-85 -35q48 -15 85 -35t72 -54t53.5 -87.5t18.5 -124.5v-225q0 -73 21 -99t92 -26h76v-270h-111 q-94 0 -163 32.5t-107 88.5t-56 121.5t-18 142.5v233q0 83 -54 125t-138 49z" />
<glyph unicode="|" horiz-adv-x="583" d="M182 -389v2027h219v-2027h-219z" />
<glyph unicode="}" horiz-adv-x="710" d="M33 -119h76q70 0 91 26t21 99v225q0 71 19 124.5t54 87.5t72 54t85 35q-48 15 -85 35t-72 54.5t-54 88t-19 124.5v225q0 73 -21 99t-91 26h-76v270h110q94 0 163 -32.5t107 -88.5t56 -121.5t18 -142.5v-233q0 -83 54.5 -125t138.5 -49v-259q-84 -7 -138.5 -49t-54.5 -125 v-233q0 -77 -18 -142.5t-56 -121.5t-107 -88.5t-163 -32.5h-110v270z" />
<glyph unicode="~" d="M84 459q0 106 28.5 186t94.5 130t164 50q56 0 145.5 -32.5t171.5 -65.5t121 -33q42 0 58 31.5t16 89.5h215q0 -106 -28.5 -186t-94.5 -130t-164 -50q-56 0 -145.5 32.5t-171.5 65.5t-121 33q-42 0 -58 -31.5t-16 -89.5h-215z" />
<glyph unicode="&#xa1;" horiz-adv-x="665" d="M160 -389l39 926h268l37 -926h-344zM180 666v307h305v-307h-305z" />
<glyph unicode="&#xa2;" d="M145 690q0 227 112 393.5t321 214.5v295h198v-276q173 -8 279 -62v-268q-149 57 -275 57q-69 0 -125 -18t-103 -57t-73 -110t-26 -169q0 -181 86.5 -270.5t234.5 -89.5q133 0 289 69v-264q-114 -68 -287 -74v-286h-198v301h14q-215 46 -331 214.5t-116 399.5z" />
<glyph unicode="&#xa3;" d="M143 602v209h146q-19 72 -19 152q0 121 41 211.5t112 142.5t157 77t186 25q177 0 317 -65v-275q-50 26 -129 46t-159 20q-211 0 -211 -176q0 -76 26 -158h391v-209h-329q12 -78 12 -113q0 -134 -129 -221h551v-268h-916v219q177 77 177 254q0 58 -19 129h-205z" />
<glyph unicode="&#xa5;" d="M59 1384h330l252 -536l238 536h295l-343 -671h228v-140h-279v-198h279v-139h-279v-236h-321v236h-279v139h279v198h-279v140h228z" />
<glyph unicode="&#xa6;" horiz-adv-x="583" d="M182 -389v840h219v-840h-219zM182 799v839h219v-839h-219z" />
<glyph unicode="&#xa7;" horiz-adv-x="1175" d="M127 520q0 157 94 262q-80 87 -80 228q0 200 140.5 304.5t388.5 104.5q88 0 189.5 -17t162.5 -44v-283q-144 72 -344 72q-217 0 -217 -113q0 -44 35.5 -73t92 -45.5t125 -32.5t136.5 -41.5t124.5 -64t92 -108.5t35.5 -167q0 -161 -88 -269q73 -79 73 -221 q0 -198 -140 -317t-390 -119q-222 0 -393 82v299q75 -47 180.5 -78t206.5 -31q103 0 160 27.5t57 95.5q0 52 -35.5 86.5t-92 53t-124.5 35t-136.5 41.5t-125 62t-92 106t-35.5 165zM393 545q0 -35 23.5 -60t69 -42t91 -28t113 -27t111.5 -30q16 43 16 103q0 28 -11.5 51 t-34.5 40t-49.5 29.5t-65 23.5t-71.5 19t-78 19.5t-77 20.5q-37 -47 -37 -119z" />
<glyph unicode="&#xa8;" horiz-adv-x="1044" d="M201 1163v256h258v-256h-258zM584 1163v256h258v-256h-258z" />
<glyph unicode="&#xa9;" horiz-adv-x="1624" d="M92 688q0 202 92 369t257.5 264.5t369.5 97.5q153 0 287.5 -57t229.5 -155t149.5 -233t54.5 -286t-54.5 -285t-149.5 -230t-229.5 -152t-287.5 -56t-287 56t-228.5 152.5t-149 230t-54.5 284.5zM211 688q0 -124 45.5 -234.5t125 -190t191 -125.5t238.5 -46 q168 0 306 78.5t216 215t78 302.5t-78 304.5t-216 219t-306 80.5q-169 0 -307 -80.5t-215.5 -219t-77.5 -304.5zM426 692q0 106 36.5 188.5t98.5 131t137.5 73.5t161.5 25q144 0 240 -47v-219q-85 55 -215 55q-105 0 -157 -55.5t-52 -151.5q0 -92 52.5 -145t158.5 -53 q117 0 227 69v-227q-110 -60 -233 -60q-220 0 -337.5 115t-117.5 301z" />
<glyph unicode="&#xaa;" horiz-adv-x="851" d="M82 1081q0 162 101.5 250t271.5 88q131 0 274 -45v-592h-184l-8 45q-72 -59 -175 -59q-117 0 -198.5 81t-81.5 232zM315 1090q0 -132 105 -132q40 0 84 29v244q-30 6 -58 6q-131 0 -131 -147z" />
<glyph unicode="&#xab;" horiz-adv-x="1167" d="M43 508l319 407h254l-280 -407l280 -408h-254zM551 508l319 407h254l-280 -407l280 -408h-254z" />
<glyph unicode="&#xac;" d="M115 758v241h954v-725h-229v484h-725z" />
<glyph unicode="&#xad;" horiz-adv-x="804" d="M119 436v262h567v-262h-567z" />
<glyph unicode="&#xae;" horiz-adv-x="1114" d="M125 973q0 192 120.5 319t309.5 127q190 0 312 -127t122 -319t-121.5 -316.5t-312.5 -124.5q-189 0 -309.5 124.5t-120.5 316.5zM215 973q0 -154 94 -251t246 -97q153 0 248.5 97t95.5 251q0 156 -95.5 255t-248.5 99q-152 0 -246 -99t-94 -255zM356 752v446h209 q223 0 223 -137q0 -47 -26 -79t-72 -44l117 -186h-180l-84 155h-25v-155h-162zM518 1010h43q57 0 57 47t-57 47h-43v-94z" />
<glyph unicode="&#xaf;" horiz-adv-x="1044" d="M231 1196v207h582v-207h-582z" />
<glyph unicode="&#xb0;" horiz-adv-x="673" d="M86 1135q0 120 73 200t177 80t177 -80t73 -200t-73 -199.5t-177 -79.5t-177 79.5t-73 199.5zM215 1135q0 -60 35 -101t86 -41q52 0 87.5 41t35.5 101q0 61 -35 102t-88 41q-51 0 -86 -41t-35 -102z" />
<glyph unicode="&#xb1;" d="M115 0v242h954v-242h-954zM115 649v242h366v323h215v-323h373v-242h-373v-323h-215v323h-366z" />
<glyph unicode="&#xb2;" horiz-adv-x="841" d="M121 541v172l246 241q55 53 79.5 87.5t24.5 76.5q0 90 -123 90q-49 0 -107 -16t-98 -41v205q45 23 114.5 38t137.5 15q138 0 227 -67t89 -197q0 -95 -36.5 -160.5t-107.5 -126.5l-135 -110h289v-207h-600z" />
<glyph unicode="&#xb3;" horiz-adv-x="825" d="M129 555v205q115 -64 219 -64q133 0 133 95q0 46 -34 70t-97 24q-36 0 -82 -6v141l191 174h-328v190h580v-165l-197 -187q207 -30 207 -239q0 -142 -96 -218.5t-244 -76.5q-151 0 -252 57z" />
<glyph unicode="&#xb4;" horiz-adv-x="1044" d="M352 1145l150 309h325l-256 -309h-219z" />
<glyph unicode="&#xb6;" horiz-adv-x="1441" d="M49 938q0 203 132 324.5t356 121.5h335v-1773h-208v876h-127q-224 0 -356 122.5t-132 328.5zM1034 -389v1773h209v-1773h-209z" />
<glyph unicode="&#xb7;" horiz-adv-x="620" d="M158 416v307h305v-307h-305z" />
<glyph unicode="&#xb8;" horiz-adv-x="1044" d="M328 -293q56 -29 116 -29q82 0 82 56q0 55 -86 55h-55l68 211h157l-28 -115q161 -26 161 -180q0 -85 -70.5 -135.5t-201.5 -50.5q-91 0 -143 28v160z" />
<glyph unicode="&#xb9;" horiz-adv-x="690" d="M76 1194v190h420v-843h-224v653h-196z" />
<glyph unicode="&#xba;" horiz-adv-x="851" d="M86 1094q0 155 92 240t248 85t248 -85t92 -240q0 -157 -92 -242.5t-248 -85.5t-248 85.5t-92 242.5zM317 1094q0 -142 109 -142t109 142q0 139 -109 139t-109 -139z" />
<glyph unicode="&#xbb;" horiz-adv-x="1153" d="M43 100l281 408l-281 407h254l319 -407l-319 -408h-254zM537 100l280 408l-280 407h254l319 -407l-319 -408h-254z" />
<glyph unicode="&#xbc;" horiz-adv-x="1777" d="M74 1194v190h420v-843h-224v653h-196zM317 0l760 1384h219l-757 -1384h-222zM954 193v182l351 485h256v-479h102v-188h-102v-193h-203v193h-404zM1176 381h182v254z" />
<glyph unicode="&#xbd;" horiz-adv-x="1812" d="M74 1194v190h420v-843h-224v653h-196zM317 0l760 1384h219l-757 -1384h-222zM1061 0v172l246 242q55 53 79.5 87.5t24.5 76.5q0 90 -123 90q-49 0 -107 -16.5t-98 -41.5v205q45 23 114.5 38t137.5 15q138 0 227 -67t89 -197q0 -95 -36.5 -160.5t-107.5 -126.5l-135 -110 h289v-207h-600z" />
<glyph unicode="&#xbe;" horiz-adv-x="1921" d="M119 555v205q115 -64 219 -64q133 0 133 95q0 46 -34 70t-97 24q-36 0 -82 -6v141l191 174h-328v190h579v-165l-196 -187q207 -30 207 -239q0 -142 -96 -218.5t-244 -76.5q-151 0 -252 57zM485 0l760 1384h219l-757 -1384h-222zM1098 193v182l350 485h258v-479h100v-188 h-100v-193h-203v193h-405zM1319 381h184v254z" />
<glyph unicode="&#xbf;" horiz-adv-x="759" d="M0 -61q0 108 40.5 184t106.5 139q39 36 59 58t38 57.5t18 73.5v86h289v-123q0 -59 -10.5 -106.5t-35.5 -88.5t-43 -63.5t-54 -61.5q-5 -6 -29.5 -31t-32 -35t-17.5 -30t-10 -39q0 -109 168 -109q60 0 124.5 16t105.5 38v-279q-111 -49 -281 -49q-68 0 -130.5 13 t-118.5 42t-97.5 70.5t-65.5 102.5t-24 135zM252 666v307h307v-307h-307z" />
<glyph unicode="&#xc0;" horiz-adv-x="1396" d="M0 0l559 1384h283l555 -1384h-350l-91 238h-559l-90 -238h-307zM334 1833h323l152 -309h-221zM494 496h364l-180 479z" />
<glyph unicode="&#xc1;" horiz-adv-x="1396" d="M0 0l559 1384h283l555 -1384h-350l-91 238h-559l-90 -238h-307zM494 496h364l-180 479zM616 1524l150 309h326l-256 -309h-220z" />
<glyph unicode="&#xc2;" horiz-adv-x="1396" d="M0 0l559 1384h283l555 -1384h-350l-91 238h-559l-90 -238h-307zM344 1524l197 309h315l197 -309h-236l-119 149l-118 -149h-236zM494 496h364l-180 479z" />
<glyph unicode="&#xc3;" horiz-adv-x="1396" d="M0 0l559 1384h283l555 -1384h-350l-91 238h-559l-90 -238h-307zM328 1524q0 65 11.5 118.5t36 98.5t70 70.5t107.5 25.5q44 0 87.5 -15.5t72.5 -34.5t61.5 -34.5t56.5 -15.5q28 0 39 23.5t11 72.5h188q0 -65 -11.5 -118.5t-36 -98.5t-70 -70.5t-107.5 -25.5 q-55 0 -109 25t-97.5 50t-72.5 25q-28 0 -38.5 -23.5t-10.5 -72.5h-188zM494 496h364l-180 479z" />
<glyph unicode="&#xc4;" horiz-adv-x="1396" d="M0 0l559 1384h283l555 -1384h-350l-91 238h-559l-90 -238h-307zM379 1544v256h258v-256h-258zM494 496h364l-180 479zM762 1544v256h258v-256h-258z" />
<glyph unicode="&#xc5;" horiz-adv-x="1396" d="M0 0l559 1384h283l555 -1384h-350l-91 238h-559l-90 -238h-307zM463 1679q0 91 64 139t171 48t171.5 -48t64.5 -139q0 -93 -64.5 -141.5t-171.5 -48.5t-171 48t-64 142zM494 496h364l-180 479zM616 1677q0 -36 22 -57t60 -21t60 21t22 57t-22 57t-60 21t-60 -21t-22 -57z " />
<glyph unicode="&#xc6;" horiz-adv-x="1974" d="M-74 0l805 1384h1102v-268h-612v-282h542v-269h-542v-190q0 -57 20.5 -82t73.5 -25h540v-268h-598q-148 0 -232 59t-112 179h-507l-136 -238h-344zM551 496h348v620z" />
<glyph unicode="&#xc7;" horiz-adv-x="1280" d="M92 692q0 210 81 373t244 258.5t388 95.5q117 0 224.5 -21.5t162.5 -54.5v-276q-58 34 -157 56t-206 22q-186 0 -295.5 -118.5t-109.5 -334.5t109.5 -335t295.5 -119q97 0 195.5 24t175.5 70v-277q-163 -90 -395 -90q-33 0 -47 2l-21 -82q162 -27 162 -180 q0 -85 -70.5 -135.5t-201.5 -50.5q-94 0 -146 28v160q60 -29 117 -29q82 0 82 56q0 55 -84 55h-57l63 199q-243 57 -376.5 246.5t-133.5 457.5z" />
<glyph unicode="&#xc8;" horiz-adv-x="1253" d="M180 375v1009h932v-268h-612v-282h542v-269h-542v-190q0 -57 20.5 -82t73.5 -25h541v-268h-598q-185 0 -271 93.5t-86 281.5zM328 1833h323l152 -309h-221z" />
<glyph unicode="&#xc9;" horiz-adv-x="1253" d="M180 375v1009h932v-268h-612v-282h542v-269h-542v-190q0 -57 20.5 -82t73.5 -25h541v-268h-598q-185 0 -271 93.5t-86 281.5zM535 1524l149 309h326l-256 -309h-219z" />
<glyph unicode="&#xca;" horiz-adv-x="1253" d="M180 375v1009h932v-268h-612v-282h542v-269h-542v-190q0 -57 20.5 -82t73.5 -25h541v-268h-598q-185 0 -271 93.5t-86 281.5zM291 1524l196 309h316l196 -309h-235l-119 149l-119 -149h-235z" />
<glyph unicode="&#xcb;" horiz-adv-x="1253" d="M180 375v1009h932v-268h-612v-282h542v-269h-542v-190q0 -57 20.5 -82t73.5 -25h541v-268h-598q-185 0 -271 93.5t-86 281.5zM326 1542v256h258v-256h-258zM709 1542v256h258v-256h-258z" />
<glyph unicode="&#xcc;" horiz-adv-x="712" d="M2 1833h324l151 -309h-221zM197 0v1384h319v-1384h-319z" />
<glyph unicode="&#xcd;" horiz-adv-x="712" d="M197 0v1384h319v-1384h-319zM246 1524l149 309h326l-256 -309h-219z" />
<glyph unicode="&#xce;" horiz-adv-x="712" d="M2 1524l197 309h315l197 -309h-236l-119 149l-118 -149h-236zM197 0v1384h319v-1384h-319z" />
<glyph unicode="&#xcf;" horiz-adv-x="712" d="M37 1544v256h258v-256h-258zM197 0v1384h319v-1384h-319zM420 1544v256h258v-256h-258z" />
<glyph unicode="&#xd0;" horiz-adv-x="1513" d="M37 588v248h160v548h497q166 0 299 -43t229 -127.5t147.5 -217t51.5 -304.5t-51.5 -304.5t-147.5 -217t-229 -127.5t-299 -43h-497v588h-160zM516 268h178q396 0 396 426q0 422 -396 422h-178v-280h293v-248h-293v-320z" />
<glyph unicode="&#xd1;" horiz-adv-x="1599" d="M197 0v1384h272l627 -845v845h311v-1384h-272l-627 846v-846h-311zM430 1524q0 65 11.5 118.5t36 98.5t70 70.5t107.5 25.5q55 0 109 -25t97.5 -50t72.5 -25q28 0 38.5 23.5t10.5 72.5h188q0 -65 -11.5 -118.5t-36 -98.5t-70 -70.5t-107.5 -25.5q-44 0 -87.5 15.5 t-72.5 34.5t-61.5 34.5t-56.5 15.5q-28 0 -39 -23.5t-11 -72.5h-188z" />
<glyph unicode="&#xd2;" horiz-adv-x="1654" d="M92 692q0 224 92.5 389.5t258 251.5t384.5 86q218 0 384 -86t259 -251.5t93 -389.5t-93 -389.5t-259 -251.5t-384 -86q-219 0 -384.5 86t-258 251.5t-92.5 389.5zM426 692q0 -209 103.5 -331.5t297.5 -122.5q193 0 297.5 123t104.5 331t-104.5 330.5t-297.5 122.5 q-194 0 -297.5 -122t-103.5 -331zM479 1833h324l151 -309h-221z" />
<glyph unicode="&#xd3;" horiz-adv-x="1654" d="M92 692q0 224 92.5 389.5t258 251.5t384.5 86q218 0 384 -86t259 -251.5t93 -389.5t-93 -389.5t-259 -251.5t-384 -86q-219 0 -384.5 86t-258 251.5t-92.5 389.5zM426 692q0 -209 103.5 -331.5t297.5 -122.5q193 0 297.5 123t104.5 331t-104.5 330.5t-297.5 122.5 q-194 0 -297.5 -122t-103.5 -331zM717 1524l149 309h326l-256 -309h-219z" />
<glyph unicode="&#xd4;" horiz-adv-x="1654" d="M92 692q0 224 92.5 389.5t258 251.5t384.5 86q218 0 384 -86t259 -251.5t93 -389.5t-93 -389.5t-259 -251.5t-384 -86q-219 0 -384.5 86t-258 251.5t-92.5 389.5zM426 692q0 -209 103.5 -331.5t297.5 -122.5q193 0 297.5 123t104.5 331t-104.5 330.5t-297.5 122.5 q-194 0 -297.5 -122t-103.5 -331zM475 1524l197 309h315l197 -309h-236l-119 149l-118 -149h-236z" />
<glyph unicode="&#xd5;" horiz-adv-x="1654" d="M92 692q0 224 92.5 389.5t258 251.5t384.5 86q218 0 384 -86t259 -251.5t93 -389.5t-93 -389.5t-259 -251.5t-384 -86q-219 0 -384.5 86t-258 251.5t-92.5 389.5zM426 692q0 -209 103.5 -331.5t297.5 -122.5q193 0 297.5 123t104.5 331t-104.5 330.5t-297.5 122.5 q-194 0 -297.5 -122t-103.5 -331zM459 1524q0 65 11.5 118.5t36 98.5t70 70.5t107.5 25.5q55 0 109 -25t97.5 -50t72.5 -25q28 0 38.5 23.5t10.5 72.5h188q0 -65 -11.5 -118.5t-36 -98.5t-70 -70.5t-107.5 -25.5q-55 0 -109 25t-97.5 50t-72.5 25q-28 0 -38.5 -23.5 t-10.5 -72.5h-188z" />
<glyph unicode="&#xd6;" horiz-adv-x="1654" d="M92 692q0 224 92.5 389.5t258 251.5t384.5 86q218 0 384 -86t259 -251.5t93 -389.5t-93 -389.5t-259 -251.5t-384 -86q-219 0 -384.5 86t-258 251.5t-92.5 389.5zM426 692q0 -209 103.5 -331.5t297.5 -122.5q193 0 297.5 123t104.5 331t-104.5 330.5t-297.5 122.5 q-194 0 -297.5 -122t-103.5 -331zM510 1542v256h258v-256h-258zM893 1542v256h258v-256h-258z" />
<glyph unicode="&#xd7;" d="M135 279l311 364l-311 365l164 149l293 -344l293 344l164 -149l-312 -365l312 -364l-164 -150l-293 344l-293 -344z" />
<glyph unicode="&#xd8;" horiz-adv-x="1654" d="M92 692q0 224 93 389.5t258.5 251.5t383.5 86q216 0 387 -88l127 164l119 -96l-119 -158q222 -200 222 -549q0 -224 -93 -389.5t-259 -251.5t-384 -86q-221 0 -397 92l-131 -170l-119 97l125 166q-213 200 -213 542zM426 692q0 -176 74 -291l534 697q-86 47 -207 47 q-193 0 -297 -122.5t-104 -330.5zM612 293q90 -55 215 -55q193 0 297.5 123t104.5 331q0 183 -80 301z" />
<glyph unicode="&#xd9;" horiz-adv-x="1474" d="M162 510v874h319v-876q0 -135 70.5 -202.5t185.5 -67.5q116 0 188 67.5t72 202.5v876h316v-874q0 -260 -157.5 -402.5t-418.5 -142.5q-170 0 -299 61.5t-202.5 186t-73.5 297.5zM385 1833h324l151 -309h-221z" />
<glyph unicode="&#xda;" horiz-adv-x="1474" d="M162 510v874h319v-876q0 -135 70.5 -202.5t185.5 -67.5q116 0 188 67.5t72 202.5v876h316v-874q0 -260 -157.5 -402.5t-418.5 -142.5q-170 0 -299 61.5t-202.5 186t-73.5 297.5zM639 1524l149 309h326l-256 -309h-219z" />
<glyph unicode="&#xdb;" horiz-adv-x="1474" d="M162 510v874h319v-876q0 -135 70.5 -202.5t185.5 -67.5q116 0 188 67.5t72 202.5v876h316v-874q0 -260 -157.5 -402.5t-418.5 -142.5q-170 0 -299 61.5t-202.5 186t-73.5 297.5zM383 1524l197 309h315l197 -309h-236l-119 149l-119 -149h-235z" />
<glyph unicode="&#xdc;" horiz-adv-x="1474" d="M162 510v874h319v-876q0 -135 70.5 -202.5t185.5 -67.5q116 0 188 67.5t72 202.5v876h316v-874q0 -260 -157.5 -402.5t-418.5 -142.5q-170 0 -299 61.5t-202.5 186t-73.5 297.5zM406 1542v256h258v-256h-258zM788 1542v256h259v-256h-259z" />
<glyph unicode="&#xdd;" horiz-adv-x="1300" d="M0 1384h356l312 -553l311 553h321l-491 -837v-547h-320v547zM580 1524l149 309h326l-256 -309h-219z" />
<glyph unicode="&#xde;" horiz-adv-x="1382" d="M197 0v1384h319v-227h189q274 0 430.5 -119t156.5 -348t-156.5 -348t-430.5 -119h-189v-223h-319zM516 492h189q253 0 253 198q0 199 -253 199h-189v-397z" />
<glyph unicode="&#xdf;" horiz-adv-x="1204" d="M150 0v1059q0 92 27 166t71.5 122.5t105 81t124.5 46.5t134 14q85 0 160 -22.5t135.5 -66.5t95.5 -115t35 -161q0 -58 -14.5 -107t-35 -82t-40.5 -60.5t-34.5 -54.5t-14.5 -52q0 -27 28.5 -59t68.5 -67t80.5 -77.5t69 -108t28.5 -141.5t-20 -136t-54 -99.5t-81.5 -66 t-99 -37.5t-110.5 -11q-125 0 -221 35v260q97 -47 188 -47q47 0 76 22t29 64q0 39 -26.5 76.5t-64.5 70.5t-76 70t-64.5 91t-26.5 118q0 54 21 104t46.5 83t46.5 78t21 89q0 75 -42 116.5t-108 41.5q-69 0 -115.5 -43.5t-46.5 -126.5v-1067h-296z" />
<glyph unicode="&#xe0;" horiz-adv-x="1163" d="M76 467q0 255 144 398t390 143q115 0 207 -17t197 -53v-938h-234l-22 86q-100 -121 -262 -121q-80 0 -153.5 30t-134 89t-96.5 158t-36 225zM242 1454h323l152 -309h-221zM377 481q0 -125 52 -184t140 -59q91 0 148 51v452q-50 13 -96 13q-106 0 -175 -65.5t-69 -207.5z " />
<glyph unicode="&#xe1;" horiz-adv-x="1163" d="M76 467q0 255 144 398t390 143q115 0 207 -17t197 -53v-938h-234l-22 86q-100 -121 -262 -121q-80 0 -153.5 30t-134 89t-96.5 158t-36 225zM377 481q0 -125 52 -184t140 -59q91 0 148 51v452q-50 13 -96 13q-106 0 -175 -65.5t-69 -207.5zM461 1145l149 309h326 l-256 -309h-219z" />
<glyph unicode="&#xe2;" horiz-adv-x="1163" d="M76 467q0 255 144 398t390 143q115 0 207 -17t197 -53v-938h-234l-22 86q-100 -121 -262 -121q-80 0 -153.5 30t-134 89t-96.5 158t-36 225zM211 1145l197 309h315l197 -309h-236l-119 149l-119 -149h-235zM377 481q0 -125 52 -184t140 -59q91 0 148 51v452 q-50 13 -96 13q-106 0 -175 -65.5t-69 -207.5z" />
<glyph unicode="&#xe3;" horiz-adv-x="1163" d="M76 467q0 255 144 398t390 143q115 0 207 -17t197 -53v-938h-234l-22 86q-100 -121 -262 -121q-80 0 -153.5 30t-134 89t-96.5 158t-36 225zM193 1145q0 65 11.5 118.5t36 98.5t70 70.5t107.5 25.5q44 0 87.5 -15.5t72.5 -34.5t61.5 -34.5t56.5 -15.5q28 0 38.5 23.5 t10.5 72.5h189q0 -65 -11.5 -118.5t-36 -98.5t-70 -70.5t-107.5 -25.5q-55 0 -109 25t-97.5 50t-72.5 25q-28 0 -38.5 -23.5t-10.5 -72.5h-188zM377 481q0 -125 52 -184t140 -59q91 0 148 51v452q-50 13 -96 13q-106 0 -175 -65.5t-69 -207.5z" />
<glyph unicode="&#xe4;" horiz-adv-x="1163" d="M76 467q0 255 144 398t390 143q115 0 207 -17t197 -53v-938h-234l-22 86q-100 -121 -262 -121q-80 0 -153.5 30t-134 89t-96.5 158t-36 225zM244 1163v256h258v-256h-258zM377 481q0 -125 52 -184t140 -59q91 0 148 51v452q-50 13 -96 13q-106 0 -175 -65.5t-69 -207.5z M627 1163v256h258v-256h-258z" />
<glyph unicode="&#xe5;" horiz-adv-x="1163" d="M76 467q0 255 144 398t390 143q115 0 207 -17t197 -53v-938h-234l-22 86q-100 -121 -262 -121q-80 0 -153.5 30t-134 89t-96.5 158t-36 225zM330 1303q0 91 64 138.5t171 47.5t171.5 -47.5t64.5 -138.5q0 -94 -64.5 -142.5t-171.5 -48.5t-171 48.5t-64 142.5zM377 481 q0 -125 52 -184t140 -59q91 0 148 51v452q-50 13 -96 13q-106 0 -175 -65.5t-69 -207.5zM483 1300q0 -35 22 -56t60 -21t60 21t22 56q0 36 -22 57t-60 21t-60 -21t-22 -57z" />
<glyph unicode="&#xe6;" horiz-adv-x="1722" d="M76 467q0 255 144 398t390 143q168 0 305 -70q115 70 265 70q117 0 209 -37t147.5 -100.5t84 -141.5t28.5 -166v-178h-648q26 -166 277 -166q89 0 184 20.5t156 47.5v-252q-58 -31 -169.5 -51.5t-209.5 -20.5q-266 0 -403 143q-60 -69 -145 -105t-179 -36 q-83 0 -158.5 29t-139 87t-101 157.5t-37.5 228.5zM377 487q0 -249 194 -249q98 0 158 63q-20 79 -20 193q0 131 39 237q-71 23 -125 23q-107 0 -176.5 -64.5t-69.5 -202.5zM997 582h349q-3 104 -51 149t-124 45q-73 0 -119 -47.5t-55 -146.5z" />
<glyph unicode="&#xe7;" horiz-adv-x="964" d="M76 487q0 237 138.5 379t379.5 142q160 0 264 -52v-264q-63 35 -116 49.5t-121 14.5q-118 0 -180 -74t-62 -197q0 -122 62 -194t180 -72q128 0 247 68v-264q-116 -58 -282 -58h-4l-21 -80q162 -27 162 -180q0 -85 -70.5 -135.5t-201.5 -50.5q-95 0 -144 28v160 q56 -29 117 -29q80 0 80 56q0 55 -84 55h-55l61 197q-167 45 -258.5 180t-91.5 321z" />
<glyph unicode="&#xe8;" horiz-adv-x="1116" d="M76 494q0 162 66 280t177 176t252 58q94 0 172.5 -24.5t132 -66.5t91 -99t54.5 -121.5t17 -133.5v-178h-647q26 -166 277 -166q89 0 184 20.5t156 47.5v-252q-57 -31 -168 -51.5t-209 -20.5q-116 0 -212.5 28.5t-175.5 89t-123 166t-44 247.5zM223 1454h324l151 -309 h-221zM389 582h348q-5 194 -174 194q-73 0 -119 -47.5t-55 -146.5z" />
<glyph unicode="&#xe9;" horiz-adv-x="1116" d="M76 494q0 162 66 280t177 176t252 58q94 0 172.5 -24.5t132 -66.5t91 -99t54.5 -121.5t17 -133.5v-178h-647q26 -166 277 -166q89 0 184 20.5t156 47.5v-252q-57 -31 -168 -51.5t-209 -20.5q-116 0 -212.5 28.5t-175.5 89t-123 166t-44 247.5zM389 582h348 q-5 194 -174 194q-73 0 -119 -47.5t-55 -146.5zM463 1145l149 309h326l-256 -309h-219z" />
<glyph unicode="&#xea;" horiz-adv-x="1116" d="M76 494q0 162 66 280t177 176t252 58q94 0 172.5 -24.5t132 -66.5t91 -99t54.5 -121.5t17 -133.5v-178h-647q26 -166 277 -166q89 0 184 20.5t156 47.5v-252q-57 -31 -168 -51.5t-209 -20.5q-116 0 -212.5 28.5t-175.5 89t-123 166t-44 247.5zM219 1145l197 309h315 l197 -309h-236l-119 149l-118 -149h-236zM389 582h348q-5 194 -174 194q-73 0 -119 -47.5t-55 -146.5z" />
<glyph unicode="&#xeb;" horiz-adv-x="1116" d="M76 494q0 162 66 280t177 176t252 58q94 0 172.5 -24.5t132 -66.5t91 -99t54.5 -121.5t17 -133.5v-178h-647q26 -166 277 -166q89 0 184 20.5t156 47.5v-252q-57 -31 -168 -51.5t-209 -20.5q-116 0 -212.5 28.5t-175.5 89t-123 166t-44 247.5zM252 1163v256h258v-256 h-258zM389 582h348q-5 194 -174 194q-73 0 -119 -47.5t-55 -146.5zM635 1163v256h258v-256h-258z" />
<glyph unicode="&#xec;" horiz-adv-x="595" d="M-55 1454h323l152 -309h-221zM150 0v973h296v-973h-296z" />
<glyph unicode="&#xed;" horiz-adv-x="595" d="M150 0v973h296v-973h-296zM184 1145l150 309h325l-256 -309h-219z" />
<glyph unicode="&#xee;" horiz-adv-x="595" d="M-57 1145l196 309h316l196 -309h-235l-119 149l-119 -149h-235zM150 0v973h296v-973h-296z" />
<glyph unicode="&#xef;" horiz-adv-x="595" d="M-23 1163v256h259v-256h-259zM150 0v973h296v-973h-296zM360 1163v256h258v-256h-258z" />
<glyph unicode="&#xf0;" d="M76 487q0 236 134 378.5t351 142.5q82 0 151.5 -26.5t102.5 -59.5q-18 107 -90 268l-410 -70v131l363 62q-34 74 -78 141h266q32 -49 56 -100l213 39v-127l-160 -33q137 -324 137 -633q0 -109 -16 -200.5t-53.5 -173t-96.5 -138.5t-149 -90t-205 -33q-234 0 -375 138.5 t-141 383.5zM379 487q0 -123 58.5 -195.5t154.5 -72.5t154.5 72.5t58.5 195.5t-58.5 195t-154.5 72t-154.5 -72t-58.5 -195z" />
<glyph unicode="&#xf1;" horiz-adv-x="1214" d="M150 0v973h264l18 -74q53 51 133 80t160 29q156 0 253 -100.5t97 -303.5v-604h-295v575q0 79 -42.5 115.5t-110.5 36.5q-100 0 -181 -51v-676h-296zM258 1145q0 65 11.5 118.5t36 98.5t70 70.5t107.5 25.5q55 0 109 -25t97.5 -50t72.5 -25q28 0 38.5 23.5t10.5 72.5h188 q0 -65 -11.5 -118.5t-36 -98.5t-70 -70.5t-107.5 -25.5q-44 0 -87.5 15.5t-72.5 34.5t-61.5 34.5t-56.5 15.5q-28 0 -39 -23.5t-11 -72.5h-188z" />
<glyph unicode="&#xf2;" d="M76 487q0 245 141 383t375 138t375 -138t141 -383t-141 -383.5t-375 -138.5t-375 138.5t-141 383.5zM240 1454h323l152 -309h-221zM379 487q0 -123 58.5 -195.5t154.5 -72.5t154.5 72.5t58.5 195.5t-58.5 195t-154.5 72t-154.5 -72t-58.5 -195z" />
<glyph unicode="&#xf3;" d="M76 487q0 245 141 383t375 138t375 -138t141 -383t-141 -383.5t-375 -138.5t-375 138.5t-141 383.5zM379 487q0 -123 58.5 -195.5t154.5 -72.5t154.5 72.5t58.5 195.5t-58.5 195t-154.5 72t-154.5 -72t-58.5 -195zM469 1145l149 309h326l-256 -309h-219z" />
<glyph unicode="&#xf4;" d="M76 487q0 245 141 383t375 138t375 -138t141 -383t-141 -383.5t-375 -138.5t-375 138.5t-141 383.5zM238 1145l196 309h316l196 -309h-235l-119 149l-119 -149h-235zM379 487q0 -123 58.5 -195.5t154.5 -72.5t154.5 72.5t58.5 195.5t-58.5 195t-154.5 72t-154.5 -72 t-58.5 -195z" />
<glyph unicode="&#xf5;" d="M76 487q0 245 141 383t375 138t375 -138t141 -383t-141 -383.5t-375 -138.5t-375 138.5t-141 383.5zM221 1145q0 65 11.5 118.5t36 98.5t70 70.5t107.5 25.5q55 0 109 -25t97.5 -50t72.5 -25q28 0 38.5 23.5t10.5 72.5h189q0 -65 -11.5 -118.5t-36.5 -98.5t-70.5 -70.5 t-107.5 -25.5q-44 0 -87.5 15.5t-72.5 34.5t-61.5 34.5t-56.5 15.5q-28 0 -38.5 -23.5t-10.5 -72.5h-189zM379 487q0 -123 58.5 -195.5t154.5 -72.5t154.5 72.5t58.5 195.5t-58.5 195t-154.5 72t-154.5 -72t-58.5 -195z" />
<glyph unicode="&#xf6;" d="M76 487q0 245 141 383t375 138t375 -138t141 -383t-141 -383.5t-375 -138.5t-375 138.5t-141 383.5zM272 1163v256h258v-256h-258zM379 487q0 -123 58.5 -195.5t154.5 -72.5t154.5 72.5t58.5 195.5t-58.5 195t-154.5 72t-154.5 -72t-58.5 -195zM655 1163v256h258v-256 h-258z" />
<glyph unicode="&#xf7;" d="M115 516v242h954v-242h-954zM442 106v267h281v-267h-281zM442 899v266h281v-266h-281z" />
<glyph unicode="&#xf8;" d="M76 487q0 245 141 383t375 138q144 0 260 -58l100 135l105 -77l-99 -131q150 -144 150 -390q0 -245 -141 -383.5t-375 -138.5q-146 0 -262 58l-113 -152l-104 78l110 149q-147 138 -147 389zM379 487q0 -74 27 -143l284 385q-55 25 -98 25q-96 0 -154.5 -72t-58.5 -195z M494 244q45 -25 98 -25q96 0 154.5 72.5t58.5 195.5q0 76 -27 142z" />
<glyph unicode="&#xf9;" horiz-adv-x="1165" d="M129 354v619h297v-598q0 -68 34 -102.5t95 -34.5q93 0 162 69v666h297v-973h-236l-22 86q-121 -121 -283 -121q-165 0 -254.5 101t-89.5 288zM219 1454h324l151 -309h-221z" />
<glyph unicode="&#xfa;" horiz-adv-x="1165" d="M129 354v619h297v-598q0 -68 34 -102.5t95 -34.5q93 0 162 69v666h297v-973h-236l-22 86q-121 -121 -283 -121q-165 0 -254.5 101t-89.5 288zM459 1145l149 309h326l-256 -309h-219z" />
<glyph unicode="&#xfb;" horiz-adv-x="1165" d="M129 354v619h297v-598q0 -68 34 -102.5t95 -34.5q93 0 162 69v666h297v-973h-236l-22 86q-121 -121 -283 -121q-165 0 -254.5 101t-89.5 288zM219 1145l197 309h315l197 -309h-236l-119 149l-118 -149h-236z" />
<glyph unicode="&#xfc;" horiz-adv-x="1165" d="M129 354v619h297v-598q0 -68 34 -102.5t95 -34.5q93 0 162 69v666h297v-973h-236l-22 86q-121 -121 -283 -121q-165 0 -254.5 101t-89.5 288zM252 1163v256h258v-256h-258zM635 1163v256h258v-256h-258z" />
<glyph unicode="&#xfd;" horiz-adv-x="1165" d="M129 389v584h297v-563q0 -68 34 -103t95 -35q92 0 162 70v631h297v-938q0 -120 -39 -210.5t-107.5 -143.5t-154 -79t-187.5 -26q-109 0 -191 18.5t-169 57.5v278q57 -42 151 -72t181 -30q104 0 161.5 44.5t57.5 156.5v53q-105 -82 -244 -82q-165 0 -254.5 101t-89.5 288z M459 1145l149 309h326l-256 -309h-219z" />
<glyph unicode="&#xfe;" horiz-adv-x="1155" d="M150 -389v1843h288v-493q92 47 209 47q85 0 159.5 -28t137 -85.5t99 -156.5t36.5 -230q0 -240 -144 -391.5t-384 -151.5q-66 0 -113 8v-362h-288zM438 236q43 -17 103 -17q107 0 172 65.5t65 204.5q0 127 -52.5 189.5t-139.5 62.5q-86 0 -148 -49v-456z" />
<glyph unicode="&#xff;" horiz-adv-x="1165" d="M129 389v584h297v-563q0 -68 34 -103t95 -35q92 0 162 70v631h297v-938q0 -120 -39 -210.5t-107.5 -143.5t-154 -79t-187.5 -26q-109 0 -191 18.5t-169 57.5v278q57 -42 151 -72t181 -30q104 0 161.5 44.5t57.5 156.5v53q-105 -82 -244 -82q-165 0 -254.5 101t-89.5 288z M252 1163v256h258v-256h-258zM635 1163v256h258v-256h-258z" />
<glyph unicode="&#x152;" horiz-adv-x="2334" d="M92 694q0 224 92.5 389t258 250.5t384.5 85.5q135 0 254 -41.5t189 -113.5v120h923v-268h-612v-282h543v-269h-543v-190q0 -57 20.5 -82t73.5 -25h541v-268h-598q-237 0 -311 164q-71 -93 -198.5 -146t-281.5 -53q-219 0 -384.5 86.5t-258 252.5t-92.5 390zM424 694 q0 -209 104.5 -332.5t298.5 -123.5q193 0 297.5 123.5t104.5 332.5q0 208 -104.5 330.5t-297.5 122.5q-194 0 -298.5 -122t-104.5 -331z" />
<glyph unicode="&#x153;" horiz-adv-x="1839" d="M76 487q0 245 141 383t375 138q209 0 346 -140q134 140 354 140q94 0 172.5 -24.5t132 -66.5t91 -99t54.5 -121.5t17 -133.5v-178h-647q26 -166 277 -166q89 0 184 20.5t156 47.5v-252q-57 -31 -168 -51.5t-209 -20.5q-269 0 -410 141q-133 -139 -350 -139 q-234 0 -375 138.5t-141 383.5zM379 487q0 -123 58.5 -195.5t154.5 -72.5t154.5 72.5t58.5 195.5t-58.5 195t-154.5 72t-154.5 -72t-58.5 -195zM1110 582h348q-5 194 -174 194q-73 0 -119 -47.5t-55 -146.5z" />
<glyph unicode="&#x178;" horiz-adv-x="1300" d="M0 1384h356l312 -553l311 553h321l-491 -837v-547h-320v547zM330 1542v256h258v-256h-258zM713 1542v256h258v-256h-258z" />
<glyph unicode="&#x2c6;" horiz-adv-x="1044" d="M168 1145l197 309h315l197 -309h-236l-119 149l-119 -149h-235z" />
<glyph unicode="&#x2dc;" horiz-adv-x="1044" d="M152 1145q0 65 11.5 118.5t36 98.5t70 70.5t107.5 25.5q44 0 87.5 -15.5t72.5 -34.5t61.5 -34.5t56.5 -15.5q28 0 39 23.5t11 72.5h188q0 -65 -11.5 -118.5t-36 -98.5t-70 -70.5t-107.5 -25.5q-55 0 -109 25t-97.5 50t-72.5 25q-28 0 -38.5 -23.5t-10.5 -72.5h-188z" />
<glyph unicode="&#x2000;" horiz-adv-x="933" />
<glyph unicode="&#x2001;" horiz-adv-x="1866" />
<glyph unicode="&#x2002;" horiz-adv-x="933" />
<glyph unicode="&#x2003;" horiz-adv-x="1866" />
<glyph unicode="&#x2004;" horiz-adv-x="622" />
<glyph unicode="&#x2005;" horiz-adv-x="466" />
<glyph unicode="&#x2006;" horiz-adv-x="311" />
<glyph unicode="&#x2007;" horiz-adv-x="311" />
<glyph unicode="&#x2008;" horiz-adv-x="233" />
<glyph unicode="&#x2009;" horiz-adv-x="373" />
<glyph unicode="&#x200a;" horiz-adv-x="103" />
<glyph unicode="&#x2010;" horiz-adv-x="804" d="M119 436v262h567v-262h-567z" />
<glyph unicode="&#x2011;" horiz-adv-x="804" d="M119 436v262h567v-262h-567z" />
<glyph unicode="&#x2012;" horiz-adv-x="804" d="M119 436v262h567v-262h-567z" />
<glyph unicode="&#x2013;" horiz-adv-x="1204" d="M119 438v260h966v-260h-966z" />
<glyph unicode="&#x2014;" horiz-adv-x="2113" d="M119 440v258h1876v-258h-1876z" />
<glyph unicode="&#x2018;" horiz-adv-x="565" d="M84 1001q0 138 71 248t205 174l121 -153q-137 -107 -137 -264q0 -93 45 -189h-268q-37 93 -37 184z" />
<glyph unicode="&#x2019;" horiz-adv-x="565" d="M84 934q139 109 139 266q0 93 -45 184h266q39 -88 39 -186q0 -136 -74 -250.5t-202 -167.5z" />
<glyph unicode="&#x201a;" horiz-adv-x="565" d="M84 -223q139 109 139 266q0 93 -45 184h266q39 -88 39 -186q0 -136 -74 -250.5t-202 -167.5z" />
<glyph unicode="&#x201c;" horiz-adv-x="1005" d="M84 1001q0 136 74 250.5t202 167.5l123 -153q-139 -109 -139 -267q0 -93 45 -184h-266q-39 88 -39 186zM522 1001q0 136 74.5 250.5t202.5 167.5l123 -153q-140 -110 -140 -267q0 -93 45 -184h-266q-39 88 -39 186z" />
<glyph unicode="&#x201d;" horiz-adv-x="1005" d="M84 934q139 109 139 266q0 93 -45 184h266q39 -88 39 -186q0 -136 -74 -250.5t-202 -167.5zM522 934q140 110 140 266q0 91 -46 184h267q39 -88 39 -186q0 -136 -74.5 -250.5t-202.5 -167.5z" />
<glyph unicode="&#x201e;" horiz-adv-x="1005" d="M84 -223q139 109 139 266q0 93 -45 184h266q39 -88 39 -186q0 -136 -74 -250.5t-202 -167.5zM522 -223q140 110 140 266q0 91 -46 184h267q39 -88 39 -186q0 -136 -74.5 -250.5t-202.5 -167.5z" />
<glyph unicode="&#x2022;" horiz-adv-x="817" d="M76 649q0 146 91.5 235t242.5 89q150 0 241.5 -89t91.5 -235t-91.5 -234.5t-241.5 -88.5q-151 0 -242.5 88.5t-91.5 234.5z" />
<glyph unicode="&#x2026;" horiz-adv-x="1779" d="M143 0v307h306v-307h-306zM737 0v307h305v-307h-305zM1329 0v307h307v-307h-307z" />
<glyph unicode="&#x202f;" horiz-adv-x="373" />
<glyph unicode="&#x2039;" horiz-adv-x="659" d="M43 508l319 407h254l-280 -407l280 -408h-254z" />
<glyph unicode="&#x203a;" horiz-adv-x="659" d="M43 100l281 408l-281 407h254l319 -407l-319 -408h-254z" />
<glyph unicode="&#x205f;" horiz-adv-x="466" />
<glyph unicode="&#x20ac;" d="M16 461l43 147h119q-4 32 -4 101q0 28 4 90h-162l43 141h136q18 105 63 188.5t104.5 137t134.5 89t150.5 50t155.5 14.5q141 0 268 -45v-276q-111 47 -244 47q-270 0 -309 -205h496l-43 -141h-471q-4 -31 -4 -88q0 -71 4 -103h418l-44 -147h-352q19 -110 92 -166.5 t170 -56.5q179 0 295 75v-280q-58 -35 -130.5 -51.5t-192.5 -16.5q-96 0 -184.5 29t-166 87t-132.5 155.5t-76 224.5h-181z" />
<glyph unicode="&#x2122;" horiz-adv-x="1597" d="M23 1214v170h552v-170h-163v-397h-226v397h-163zM659 817v567h261l135 -274l133 274h262v-567h-211v299l-90 -190h-188l-91 188v-297h-211z" />
<glyph unicode="&#x25fc;" horiz-adv-x="972" d="M0 0v973h973v-973h-973z" />
</font>
</defs>
</svg>
